G75*
%MOIN*%
%OFA0B0*%
%FSLAX25Y25*%
%IPPOS*%
%LPD*%
%AMOC8*
5,1,8,0,0,1.08239X$1,22.5*
%
%ADD10R,0.06299X0.05512*%
%ADD11R,0.04331X0.03937*%
%ADD12R,0.03937X0.04331*%
%ADD13C,0.01181*%
%ADD14R,0.03150X0.03150*%
%ADD15R,0.03937X0.07087*%
%ADD16R,0.05748X0.07874*%
%ADD17R,0.09843X0.05610*%
%ADD18C,0.00400*%
%ADD19C,0.00197*%
%ADD20R,0.18110X0.03937*%
%ADD21R,0.13386X0.06299*%
%ADD22R,0.02756X0.05906*%
%ADD23R,0.03937X0.02362*%
%ADD24R,0.03937X0.03150*%
%ADD25R,0.04724X0.02165*%
%ADD26C,0.01004*%
%ADD27R,0.07480X0.04331*%
%ADD28R,0.04331X0.07874*%
D10*
X0073750Y0088238D03*
X0073750Y0099262D03*
X0103750Y0099262D03*
X0103750Y0088238D03*
X0103750Y0200238D03*
X0103750Y0211262D03*
X0073750Y0211262D03*
X0073750Y0200238D03*
X0073750Y0312238D03*
X0073750Y0323262D03*
X0103750Y0323262D03*
X0103750Y0312238D03*
X0235750Y0312238D03*
X0235750Y0323262D03*
X0265750Y0323262D03*
X0265750Y0312238D03*
X0265750Y0211262D03*
X0265750Y0200238D03*
X0235750Y0200238D03*
X0235750Y0211262D03*
X0235750Y0099262D03*
X0235750Y0088238D03*
X0265750Y0088238D03*
X0265750Y0099262D03*
D11*
X0282404Y0098750D03*
X0282404Y0103750D03*
X0282404Y0108750D03*
X0289096Y0108750D03*
X0289096Y0103750D03*
X0289096Y0098750D03*
X0287596Y0083750D03*
X0280904Y0083750D03*
X0269096Y0073750D03*
X0262404Y0073750D03*
X0254096Y0073750D03*
X0247404Y0073750D03*
X0247404Y0083750D03*
X0254096Y0083750D03*
X0282404Y0058750D03*
X0289096Y0058750D03*
X0322404Y0108750D03*
X0322404Y0113750D03*
X0329096Y0113750D03*
X0329096Y0108750D03*
X0337404Y0113750D03*
X0344096Y0113750D03*
X0289096Y0170750D03*
X0282404Y0170750D03*
X0269096Y0185750D03*
X0262404Y0185750D03*
X0254096Y0185750D03*
X0247404Y0185750D03*
X0247404Y0195750D03*
X0254096Y0195750D03*
X0280904Y0195750D03*
X0287596Y0195750D03*
X0289096Y0210750D03*
X0289096Y0215750D03*
X0289096Y0220750D03*
X0282404Y0220750D03*
X0282404Y0215750D03*
X0282404Y0210750D03*
X0254096Y0225750D03*
X0247404Y0225750D03*
X0224096Y0225750D03*
X0224096Y0220750D03*
X0217404Y0220750D03*
X0217404Y0225750D03*
X0182096Y0225750D03*
X0175404Y0225750D03*
X0167096Y0225750D03*
X0167096Y0220750D03*
X0160404Y0220750D03*
X0160404Y0225750D03*
X0127096Y0220750D03*
X0127096Y0215750D03*
X0120404Y0215750D03*
X0120404Y0220750D03*
X0120404Y0210750D03*
X0127096Y0210750D03*
X0125596Y0195750D03*
X0118904Y0195750D03*
X0107096Y0185750D03*
X0100404Y0185750D03*
X0092096Y0185750D03*
X0085404Y0185750D03*
X0085404Y0195750D03*
X0092096Y0195750D03*
X0120404Y0170750D03*
X0127096Y0170750D03*
X0092096Y0225750D03*
X0085404Y0225750D03*
X0062096Y0225750D03*
X0062096Y0220750D03*
X0055404Y0220750D03*
X0055404Y0225750D03*
X0120404Y0282750D03*
X0127096Y0282750D03*
X0107096Y0297750D03*
X0100404Y0297750D03*
X0092096Y0297750D03*
X0085404Y0297750D03*
X0085404Y0307750D03*
X0092096Y0307750D03*
X0118904Y0307750D03*
X0125596Y0307750D03*
X0127096Y0322750D03*
X0120404Y0322750D03*
X0120404Y0327750D03*
X0120404Y0332750D03*
X0127096Y0332750D03*
X0127096Y0327750D03*
X0092096Y0337750D03*
X0085404Y0337750D03*
X0062096Y0337750D03*
X0062096Y0332750D03*
X0055404Y0332750D03*
X0055404Y0337750D03*
X0160404Y0337750D03*
X0160404Y0332750D03*
X0167096Y0332750D03*
X0167096Y0337750D03*
X0175404Y0337750D03*
X0182096Y0337750D03*
X0217404Y0337750D03*
X0217404Y0332750D03*
X0224096Y0332750D03*
X0224096Y0337750D03*
X0247404Y0337750D03*
X0254096Y0337750D03*
X0282404Y0332750D03*
X0282404Y0327750D03*
X0282404Y0322750D03*
X0289096Y0322750D03*
X0289096Y0327750D03*
X0289096Y0332750D03*
X0287596Y0307750D03*
X0280904Y0307750D03*
X0269096Y0297750D03*
X0262404Y0297750D03*
X0254096Y0297750D03*
X0247404Y0297750D03*
X0247404Y0307750D03*
X0254096Y0307750D03*
X0282404Y0282750D03*
X0289096Y0282750D03*
X0322404Y0332750D03*
X0322404Y0337750D03*
X0329096Y0337750D03*
X0329096Y0332750D03*
X0337404Y0337750D03*
X0344096Y0337750D03*
X0344096Y0225750D03*
X0337404Y0225750D03*
X0329096Y0225750D03*
X0329096Y0220750D03*
X0322404Y0220750D03*
X0322404Y0225750D03*
X0254096Y0113750D03*
X0247404Y0113750D03*
X0224096Y0113750D03*
X0224096Y0108750D03*
X0217404Y0108750D03*
X0217404Y0113750D03*
X0182096Y0113750D03*
X0175404Y0113750D03*
X0167096Y0113750D03*
X0167096Y0108750D03*
X0160404Y0108750D03*
X0160404Y0113750D03*
X0127096Y0108750D03*
X0127096Y0103750D03*
X0120404Y0103750D03*
X0120404Y0108750D03*
X0120404Y0098750D03*
X0127096Y0098750D03*
X0125596Y0083750D03*
X0118904Y0083750D03*
X0107096Y0073750D03*
X0100404Y0073750D03*
X0092096Y0073750D03*
X0085404Y0073750D03*
X0085404Y0083750D03*
X0092096Y0083750D03*
X0120404Y0058750D03*
X0127096Y0058750D03*
X0092096Y0113750D03*
X0085404Y0113750D03*
X0062096Y0113750D03*
X0062096Y0108750D03*
X0055404Y0108750D03*
X0055404Y0113750D03*
D12*
X0138750Y0061596D03*
X0138750Y0054904D03*
X0168750Y0054904D03*
X0168750Y0061596D03*
X0168750Y0166904D03*
X0168750Y0173596D03*
X0138750Y0173596D03*
X0138750Y0166904D03*
X0138750Y0278904D03*
X0138750Y0285596D03*
X0168750Y0285596D03*
X0168750Y0278904D03*
X0300750Y0278904D03*
X0300750Y0285596D03*
X0330750Y0285596D03*
X0330750Y0278904D03*
X0330750Y0173596D03*
X0330750Y0166904D03*
X0300750Y0166904D03*
X0300750Y0173596D03*
X0300750Y0061596D03*
X0300750Y0054904D03*
X0330750Y0054904D03*
X0330750Y0061596D03*
D13*
X0252825Y0067372D02*
X0252825Y0070128D01*
X0255581Y0070128D01*
X0255581Y0067372D01*
X0252825Y0067372D01*
X0252825Y0068552D02*
X0255581Y0068552D01*
X0255581Y0069732D02*
X0252825Y0069732D01*
X0245919Y0070128D02*
X0245919Y0067372D01*
X0245919Y0070128D02*
X0248675Y0070128D01*
X0248675Y0067372D01*
X0245919Y0067372D01*
X0245919Y0068552D02*
X0248675Y0068552D01*
X0248675Y0069732D02*
X0245919Y0069732D01*
X0245919Y0179372D02*
X0245919Y0182128D01*
X0248675Y0182128D01*
X0248675Y0179372D01*
X0245919Y0179372D01*
X0245919Y0180552D02*
X0248675Y0180552D01*
X0248675Y0181732D02*
X0245919Y0181732D01*
X0252825Y0182128D02*
X0252825Y0179372D01*
X0252825Y0182128D02*
X0255581Y0182128D01*
X0255581Y0179372D01*
X0252825Y0179372D01*
X0252825Y0180552D02*
X0255581Y0180552D01*
X0255581Y0181732D02*
X0252825Y0181732D01*
X0252825Y0291372D02*
X0252825Y0294128D01*
X0255581Y0294128D01*
X0255581Y0291372D01*
X0252825Y0291372D01*
X0252825Y0292552D02*
X0255581Y0292552D01*
X0255581Y0293732D02*
X0252825Y0293732D01*
X0245919Y0294128D02*
X0245919Y0291372D01*
X0245919Y0294128D02*
X0248675Y0294128D01*
X0248675Y0291372D01*
X0245919Y0291372D01*
X0245919Y0292552D02*
X0248675Y0292552D01*
X0248675Y0293732D02*
X0245919Y0293732D01*
X0090825Y0294128D02*
X0090825Y0291372D01*
X0090825Y0294128D02*
X0093581Y0294128D01*
X0093581Y0291372D01*
X0090825Y0291372D01*
X0090825Y0292552D02*
X0093581Y0292552D01*
X0093581Y0293732D02*
X0090825Y0293732D01*
X0083919Y0294128D02*
X0083919Y0291372D01*
X0083919Y0294128D02*
X0086675Y0294128D01*
X0086675Y0291372D01*
X0083919Y0291372D01*
X0083919Y0292552D02*
X0086675Y0292552D01*
X0086675Y0293732D02*
X0083919Y0293732D01*
X0083919Y0182128D02*
X0083919Y0179372D01*
X0083919Y0182128D02*
X0086675Y0182128D01*
X0086675Y0179372D01*
X0083919Y0179372D01*
X0083919Y0180552D02*
X0086675Y0180552D01*
X0086675Y0181732D02*
X0083919Y0181732D01*
X0090825Y0182128D02*
X0090825Y0179372D01*
X0090825Y0182128D02*
X0093581Y0182128D01*
X0093581Y0179372D01*
X0090825Y0179372D01*
X0090825Y0180552D02*
X0093581Y0180552D01*
X0093581Y0181732D02*
X0090825Y0181732D01*
X0090825Y0070128D02*
X0090825Y0067372D01*
X0090825Y0070128D02*
X0093581Y0070128D01*
X0093581Y0067372D01*
X0090825Y0067372D01*
X0090825Y0068552D02*
X0093581Y0068552D01*
X0093581Y0069732D02*
X0090825Y0069732D01*
X0083919Y0070128D02*
X0083919Y0067372D01*
X0083919Y0070128D02*
X0086675Y0070128D01*
X0086675Y0067372D01*
X0083919Y0067372D01*
X0083919Y0068552D02*
X0086675Y0068552D01*
X0086675Y0069732D02*
X0083919Y0069732D01*
D14*
X0100797Y0068750D03*
X0106703Y0068750D03*
X0091703Y0108750D03*
X0085797Y0108750D03*
X0100797Y0180750D03*
X0106703Y0180750D03*
X0091703Y0220750D03*
X0085797Y0220750D03*
X0100797Y0292750D03*
X0106703Y0292750D03*
X0091703Y0332750D03*
X0085797Y0332750D03*
X0175797Y0332750D03*
X0181703Y0332750D03*
X0247797Y0332750D03*
X0253703Y0332750D03*
X0262797Y0292750D03*
X0268703Y0292750D03*
X0337797Y0332750D03*
X0343703Y0332750D03*
X0343703Y0220750D03*
X0337797Y0220750D03*
X0268703Y0180750D03*
X0262797Y0180750D03*
X0253703Y0220750D03*
X0247797Y0220750D03*
X0181703Y0220750D03*
X0175797Y0220750D03*
X0175797Y0108750D03*
X0181703Y0108750D03*
X0247797Y0108750D03*
X0253703Y0108750D03*
X0262797Y0068750D03*
X0268703Y0068750D03*
X0337797Y0108750D03*
X0343703Y0108750D03*
D15*
X0241262Y0053750D03*
X0230238Y0053750D03*
X0230238Y0165750D03*
X0241262Y0165750D03*
X0241262Y0277750D03*
X0230238Y0277750D03*
X0079262Y0277750D03*
X0068238Y0277750D03*
X0068238Y0165750D03*
X0079262Y0165750D03*
X0079262Y0053750D03*
X0068238Y0053750D03*
D16*
X0045073Y0092604D03*
X0045073Y0114748D03*
X0045073Y0204604D03*
X0045073Y0226748D03*
X0045073Y0316604D03*
X0045073Y0338748D03*
X0207073Y0338748D03*
X0207073Y0316604D03*
X0207073Y0226748D03*
X0207073Y0204604D03*
X0207073Y0114748D03*
X0207073Y0092604D03*
D17*
X0195428Y0099828D03*
X0195439Y0107603D03*
X0195428Y0211828D03*
X0195439Y0219603D03*
X0195428Y0323828D03*
X0195439Y0331603D03*
X0033439Y0331603D03*
X0033428Y0323828D03*
X0033439Y0219603D03*
X0033428Y0211828D03*
X0033439Y0107603D03*
X0033428Y0099828D03*
D18*
X0031430Y0095820D02*
X0031141Y0095787D01*
X0030866Y0095691D01*
X0030619Y0095536D01*
X0030414Y0095331D01*
X0030259Y0095084D01*
X0030163Y0094809D01*
X0030130Y0094520D01*
X0030130Y0091620D01*
X0030160Y0091353D01*
X0030249Y0091099D01*
X0030392Y0090872D01*
X0030582Y0090682D01*
X0030809Y0090539D01*
X0031063Y0090450D01*
X0031330Y0090420D01*
X0038230Y0090420D01*
X0038268Y0090412D01*
X0038301Y0090391D01*
X0038322Y0090358D01*
X0038330Y0090320D01*
X0038330Y0088420D01*
X0041430Y0088420D01*
X0041430Y0095820D01*
X0031430Y0095820D01*
X0030891Y0095700D02*
X0041430Y0095700D01*
X0041430Y0095301D02*
X0030395Y0095301D01*
X0030195Y0094903D02*
X0041430Y0094903D01*
X0041430Y0094504D02*
X0030130Y0094504D01*
X0030130Y0094106D02*
X0041430Y0094106D01*
X0041430Y0093707D02*
X0030130Y0093707D01*
X0030130Y0093309D02*
X0041430Y0093309D01*
X0041430Y0092910D02*
X0030130Y0092910D01*
X0030130Y0092512D02*
X0041430Y0092512D01*
X0041430Y0092113D02*
X0030130Y0092113D01*
X0030130Y0091715D02*
X0041430Y0091715D01*
X0041430Y0091316D02*
X0030173Y0091316D01*
X0030363Y0090918D02*
X0041430Y0090918D01*
X0041430Y0090519D02*
X0030865Y0090519D01*
X0038330Y0090121D02*
X0041430Y0090121D01*
X0041430Y0089722D02*
X0038330Y0089722D01*
X0038330Y0089324D02*
X0041430Y0089324D01*
X0041430Y0088925D02*
X0038330Y0088925D01*
X0038330Y0088527D02*
X0041430Y0088527D01*
X0041430Y0111483D02*
X0031430Y0111483D01*
X0031141Y0111516D01*
X0030866Y0111612D01*
X0030619Y0111767D01*
X0030414Y0111973D01*
X0030259Y0112219D01*
X0030163Y0112494D01*
X0030130Y0112783D01*
X0030130Y0115683D01*
X0030160Y0115950D01*
X0030249Y0116204D01*
X0030392Y0116431D01*
X0030582Y0116621D01*
X0030809Y0116764D01*
X0031063Y0116853D01*
X0031330Y0116883D01*
X0038230Y0116883D01*
X0038268Y0116891D01*
X0038301Y0116912D01*
X0038322Y0116945D01*
X0038330Y0116983D01*
X0038330Y0118883D01*
X0041430Y0118883D01*
X0041430Y0111483D01*
X0041430Y0111640D02*
X0030821Y0111640D01*
X0030372Y0112039D02*
X0041430Y0112039D01*
X0041430Y0112437D02*
X0030182Y0112437D01*
X0030130Y0112836D02*
X0041430Y0112836D01*
X0041430Y0113234D02*
X0030130Y0113234D01*
X0030130Y0113633D02*
X0041430Y0113633D01*
X0041430Y0114031D02*
X0030130Y0114031D01*
X0030130Y0114430D02*
X0041430Y0114430D01*
X0041430Y0114828D02*
X0030130Y0114828D01*
X0030130Y0115227D02*
X0041430Y0115227D01*
X0041430Y0115625D02*
X0030130Y0115625D01*
X0030186Y0116024D02*
X0041430Y0116024D01*
X0041430Y0116422D02*
X0030386Y0116422D01*
X0030971Y0116821D02*
X0041430Y0116821D01*
X0041430Y0117220D02*
X0038330Y0117220D01*
X0038330Y0117618D02*
X0041430Y0117618D01*
X0041430Y0118017D02*
X0038330Y0118017D01*
X0038330Y0118415D02*
X0041430Y0118415D01*
X0041430Y0118814D02*
X0038330Y0118814D01*
X0038330Y0200420D02*
X0041430Y0200420D01*
X0041430Y0207820D01*
X0031430Y0207820D01*
X0031141Y0207787D01*
X0030866Y0207691D01*
X0030619Y0207536D01*
X0030414Y0207331D01*
X0030259Y0207084D01*
X0030163Y0206809D01*
X0030130Y0206520D01*
X0030130Y0203620D01*
X0030160Y0203353D01*
X0030249Y0203099D01*
X0030392Y0202872D01*
X0030582Y0202682D01*
X0030809Y0202539D01*
X0031063Y0202450D01*
X0031330Y0202420D01*
X0038230Y0202420D01*
X0038268Y0202412D01*
X0038301Y0202391D01*
X0038322Y0202358D01*
X0038330Y0202320D01*
X0038330Y0200420D01*
X0038330Y0200508D02*
X0041430Y0200508D01*
X0041430Y0200907D02*
X0038330Y0200907D01*
X0038330Y0201305D02*
X0041430Y0201305D01*
X0041430Y0201704D02*
X0038330Y0201704D01*
X0038330Y0202102D02*
X0041430Y0202102D01*
X0041430Y0202501D02*
X0030918Y0202501D01*
X0030374Y0202899D02*
X0041430Y0202899D01*
X0041430Y0203298D02*
X0030179Y0203298D01*
X0030130Y0203696D02*
X0041430Y0203696D01*
X0041430Y0204095D02*
X0030130Y0204095D01*
X0030130Y0204493D02*
X0041430Y0204493D01*
X0041430Y0204892D02*
X0030130Y0204892D01*
X0030130Y0205291D02*
X0041430Y0205291D01*
X0041430Y0205689D02*
X0030130Y0205689D01*
X0030130Y0206088D02*
X0041430Y0206088D01*
X0041430Y0206486D02*
X0030130Y0206486D01*
X0030189Y0206885D02*
X0041430Y0206885D01*
X0041430Y0207283D02*
X0030384Y0207283D01*
X0030851Y0207682D02*
X0041430Y0207682D01*
X0041430Y0223483D02*
X0031430Y0223483D01*
X0031141Y0223516D01*
X0030866Y0223612D01*
X0030619Y0223767D01*
X0030414Y0223973D01*
X0030259Y0224219D01*
X0030163Y0224494D01*
X0030130Y0224783D01*
X0030130Y0227683D01*
X0030160Y0227950D01*
X0030249Y0228204D01*
X0030392Y0228431D01*
X0030582Y0228621D01*
X0030809Y0228764D01*
X0031063Y0228853D01*
X0031330Y0228883D01*
X0038230Y0228883D01*
X0038268Y0228891D01*
X0038301Y0228912D01*
X0038322Y0228945D01*
X0038330Y0228983D01*
X0038330Y0230883D01*
X0041430Y0230883D01*
X0041430Y0223483D01*
X0041430Y0223622D02*
X0030850Y0223622D01*
X0030384Y0224021D02*
X0041430Y0224021D01*
X0041430Y0224419D02*
X0030189Y0224419D01*
X0030130Y0224818D02*
X0041430Y0224818D01*
X0041430Y0225216D02*
X0030130Y0225216D01*
X0030130Y0225615D02*
X0041430Y0225615D01*
X0041430Y0226013D02*
X0030130Y0226013D01*
X0030130Y0226412D02*
X0041430Y0226412D01*
X0041430Y0226810D02*
X0030130Y0226810D01*
X0030130Y0227209D02*
X0041430Y0227209D01*
X0041430Y0227607D02*
X0030130Y0227607D01*
X0030179Y0228006D02*
X0041430Y0228006D01*
X0041430Y0228404D02*
X0030375Y0228404D01*
X0030919Y0228803D02*
X0041430Y0228803D01*
X0041430Y0229201D02*
X0038330Y0229201D01*
X0038330Y0229600D02*
X0041430Y0229600D01*
X0041430Y0229998D02*
X0038330Y0229998D01*
X0038330Y0230397D02*
X0041430Y0230397D01*
X0041430Y0230795D02*
X0038330Y0230795D01*
X0038330Y0312420D02*
X0041430Y0312420D01*
X0041430Y0319820D01*
X0031430Y0319820D01*
X0031141Y0319787D01*
X0030866Y0319691D01*
X0030619Y0319536D01*
X0030414Y0319331D01*
X0030259Y0319084D01*
X0030163Y0318809D01*
X0030130Y0318520D01*
X0030130Y0315620D01*
X0030160Y0315353D01*
X0030249Y0315099D01*
X0030392Y0314872D01*
X0030582Y0314682D01*
X0030809Y0314539D01*
X0031063Y0314450D01*
X0031330Y0314420D01*
X0038230Y0314420D01*
X0038268Y0314412D01*
X0038301Y0314391D01*
X0038322Y0314358D01*
X0038330Y0314320D01*
X0038330Y0312420D01*
X0038330Y0312490D02*
X0041430Y0312490D01*
X0041430Y0312889D02*
X0038330Y0312889D01*
X0038330Y0313287D02*
X0041430Y0313287D01*
X0041430Y0313686D02*
X0038330Y0313686D01*
X0038330Y0314084D02*
X0041430Y0314084D01*
X0041430Y0314483D02*
X0030970Y0314483D01*
X0030386Y0314881D02*
X0041430Y0314881D01*
X0041430Y0315280D02*
X0030186Y0315280D01*
X0030130Y0315678D02*
X0041430Y0315678D01*
X0041430Y0316077D02*
X0030130Y0316077D01*
X0030130Y0316475D02*
X0041430Y0316475D01*
X0041430Y0316874D02*
X0030130Y0316874D01*
X0030130Y0317272D02*
X0041430Y0317272D01*
X0041430Y0317671D02*
X0030130Y0317671D01*
X0030130Y0318069D02*
X0041430Y0318069D01*
X0041430Y0318468D02*
X0030130Y0318468D01*
X0030183Y0318866D02*
X0041430Y0318866D01*
X0041430Y0319265D02*
X0030372Y0319265D01*
X0030821Y0319663D02*
X0041430Y0319663D01*
X0041430Y0335483D02*
X0031430Y0335483D01*
X0031141Y0335516D01*
X0030866Y0335612D01*
X0030619Y0335767D01*
X0030414Y0335973D01*
X0030259Y0336219D01*
X0030163Y0336494D01*
X0030130Y0336783D01*
X0030130Y0339683D01*
X0030160Y0339950D01*
X0030249Y0340204D01*
X0030392Y0340431D01*
X0030582Y0340621D01*
X0030809Y0340764D01*
X0031063Y0340853D01*
X0031330Y0340883D01*
X0038230Y0340883D01*
X0038268Y0340891D01*
X0038301Y0340912D01*
X0038322Y0340945D01*
X0038330Y0340983D01*
X0038330Y0342883D01*
X0041430Y0342883D01*
X0041430Y0335483D01*
X0041430Y0335604D02*
X0030889Y0335604D01*
X0030395Y0336002D02*
X0041430Y0336002D01*
X0041430Y0336401D02*
X0030195Y0336401D01*
X0030130Y0336799D02*
X0041430Y0336799D01*
X0041430Y0337198D02*
X0030130Y0337198D01*
X0030130Y0337596D02*
X0041430Y0337596D01*
X0041430Y0337995D02*
X0030130Y0337995D01*
X0030130Y0338393D02*
X0041430Y0338393D01*
X0041430Y0338792D02*
X0030130Y0338792D01*
X0030130Y0339190D02*
X0041430Y0339190D01*
X0041430Y0339589D02*
X0030130Y0339589D01*
X0030173Y0339987D02*
X0041430Y0339987D01*
X0041430Y0340386D02*
X0030363Y0340386D01*
X0030867Y0340784D02*
X0041430Y0340784D01*
X0041430Y0341183D02*
X0038330Y0341183D01*
X0038330Y0341581D02*
X0041430Y0341581D01*
X0041430Y0341980D02*
X0038330Y0341980D01*
X0038330Y0342378D02*
X0041430Y0342378D01*
X0041430Y0342777D02*
X0038330Y0342777D01*
X0192130Y0339683D02*
X0192160Y0339950D01*
X0192249Y0340204D01*
X0192392Y0340431D01*
X0192582Y0340621D01*
X0192809Y0340764D01*
X0193063Y0340853D01*
X0193330Y0340883D01*
X0200230Y0340883D01*
X0200268Y0340891D01*
X0200301Y0340912D01*
X0200322Y0340945D01*
X0200330Y0340983D01*
X0200330Y0342883D01*
X0203430Y0342883D01*
X0203430Y0335483D01*
X0193430Y0335483D01*
X0193141Y0335516D01*
X0192866Y0335612D01*
X0192619Y0335767D01*
X0192414Y0335973D01*
X0192259Y0336219D01*
X0192163Y0336494D01*
X0192130Y0336783D01*
X0192130Y0339683D01*
X0192130Y0339589D02*
X0203430Y0339589D01*
X0203430Y0339987D02*
X0192173Y0339987D01*
X0192363Y0340386D02*
X0203430Y0340386D01*
X0203430Y0340784D02*
X0192867Y0340784D01*
X0192130Y0339190D02*
X0203430Y0339190D01*
X0203430Y0338792D02*
X0192130Y0338792D01*
X0192130Y0338393D02*
X0203430Y0338393D01*
X0203430Y0337995D02*
X0192130Y0337995D01*
X0192130Y0337596D02*
X0203430Y0337596D01*
X0203430Y0337198D02*
X0192130Y0337198D01*
X0192130Y0336799D02*
X0203430Y0336799D01*
X0203430Y0336401D02*
X0192195Y0336401D01*
X0192395Y0336002D02*
X0203430Y0336002D01*
X0203430Y0335604D02*
X0192889Y0335604D01*
X0200330Y0341183D02*
X0203430Y0341183D01*
X0203430Y0341581D02*
X0200330Y0341581D01*
X0200330Y0341980D02*
X0203430Y0341980D01*
X0203430Y0342378D02*
X0200330Y0342378D01*
X0200330Y0342777D02*
X0203430Y0342777D01*
X0203430Y0319820D02*
X0193430Y0319820D01*
X0193141Y0319787D01*
X0192866Y0319691D01*
X0192619Y0319536D01*
X0192414Y0319331D01*
X0192259Y0319084D01*
X0192163Y0318809D01*
X0192130Y0318520D01*
X0192130Y0315620D01*
X0192160Y0315353D01*
X0192249Y0315099D01*
X0192392Y0314872D01*
X0192582Y0314682D01*
X0192809Y0314539D01*
X0193063Y0314450D01*
X0193330Y0314420D01*
X0200230Y0314420D01*
X0200268Y0314412D01*
X0200301Y0314391D01*
X0200322Y0314358D01*
X0200330Y0314320D01*
X0200330Y0312420D01*
X0203430Y0312420D01*
X0203430Y0319820D01*
X0203430Y0319663D02*
X0192821Y0319663D01*
X0192372Y0319265D02*
X0203430Y0319265D01*
X0203430Y0318866D02*
X0192183Y0318866D01*
X0192130Y0318468D02*
X0203430Y0318468D01*
X0203430Y0318069D02*
X0192130Y0318069D01*
X0192130Y0317671D02*
X0203430Y0317671D01*
X0203430Y0317272D02*
X0192130Y0317272D01*
X0192130Y0316874D02*
X0203430Y0316874D01*
X0203430Y0316475D02*
X0192130Y0316475D01*
X0192130Y0316077D02*
X0203430Y0316077D01*
X0203430Y0315678D02*
X0192130Y0315678D01*
X0192186Y0315280D02*
X0203430Y0315280D01*
X0203430Y0314881D02*
X0192386Y0314881D01*
X0192970Y0314483D02*
X0203430Y0314483D01*
X0203430Y0314084D02*
X0200330Y0314084D01*
X0200330Y0313686D02*
X0203430Y0313686D01*
X0203430Y0313287D02*
X0200330Y0313287D01*
X0200330Y0312889D02*
X0203430Y0312889D01*
X0203430Y0312490D02*
X0200330Y0312490D01*
X0200330Y0230883D02*
X0203430Y0230883D01*
X0203430Y0223483D01*
X0193430Y0223483D01*
X0193141Y0223516D01*
X0192866Y0223612D01*
X0192619Y0223767D01*
X0192414Y0223973D01*
X0192259Y0224219D01*
X0192163Y0224494D01*
X0192130Y0224783D01*
X0192130Y0227683D01*
X0192160Y0227950D01*
X0192249Y0228204D01*
X0192392Y0228431D01*
X0192582Y0228621D01*
X0192809Y0228764D01*
X0193063Y0228853D01*
X0193330Y0228883D01*
X0200230Y0228883D01*
X0200268Y0228891D01*
X0200301Y0228912D01*
X0200322Y0228945D01*
X0200330Y0228983D01*
X0200330Y0230883D01*
X0200330Y0230795D02*
X0203430Y0230795D01*
X0203430Y0230397D02*
X0200330Y0230397D01*
X0200330Y0229998D02*
X0203430Y0229998D01*
X0203430Y0229600D02*
X0200330Y0229600D01*
X0200330Y0229201D02*
X0203430Y0229201D01*
X0203430Y0228803D02*
X0192919Y0228803D01*
X0192375Y0228404D02*
X0203430Y0228404D01*
X0203430Y0228006D02*
X0192179Y0228006D01*
X0192130Y0227607D02*
X0203430Y0227607D01*
X0203430Y0227209D02*
X0192130Y0227209D01*
X0192130Y0226810D02*
X0203430Y0226810D01*
X0203430Y0226412D02*
X0192130Y0226412D01*
X0192130Y0226013D02*
X0203430Y0226013D01*
X0203430Y0225615D02*
X0192130Y0225615D01*
X0192130Y0225216D02*
X0203430Y0225216D01*
X0203430Y0224818D02*
X0192130Y0224818D01*
X0192189Y0224419D02*
X0203430Y0224419D01*
X0203430Y0224021D02*
X0192384Y0224021D01*
X0192850Y0223622D02*
X0203430Y0223622D01*
X0203430Y0207820D02*
X0193430Y0207820D01*
X0193141Y0207787D01*
X0192866Y0207691D01*
X0192619Y0207536D01*
X0192414Y0207331D01*
X0192259Y0207084D01*
X0192163Y0206809D01*
X0192130Y0206520D01*
X0192130Y0203620D01*
X0192160Y0203353D01*
X0192249Y0203099D01*
X0192392Y0202872D01*
X0192582Y0202682D01*
X0192809Y0202539D01*
X0193063Y0202450D01*
X0193330Y0202420D01*
X0200230Y0202420D01*
X0200268Y0202412D01*
X0200301Y0202391D01*
X0200322Y0202358D01*
X0200330Y0202320D01*
X0200330Y0200420D01*
X0203430Y0200420D01*
X0203430Y0207820D01*
X0203430Y0207682D02*
X0192851Y0207682D01*
X0192384Y0207283D02*
X0203430Y0207283D01*
X0203430Y0206885D02*
X0192189Y0206885D01*
X0192130Y0206486D02*
X0203430Y0206486D01*
X0203430Y0206088D02*
X0192130Y0206088D01*
X0192130Y0205689D02*
X0203430Y0205689D01*
X0203430Y0205291D02*
X0192130Y0205291D01*
X0192130Y0204892D02*
X0203430Y0204892D01*
X0203430Y0204493D02*
X0192130Y0204493D01*
X0192130Y0204095D02*
X0203430Y0204095D01*
X0203430Y0203696D02*
X0192130Y0203696D01*
X0192179Y0203298D02*
X0203430Y0203298D01*
X0203430Y0202899D02*
X0192374Y0202899D01*
X0192918Y0202501D02*
X0203430Y0202501D01*
X0203430Y0202102D02*
X0200330Y0202102D01*
X0200330Y0201704D02*
X0203430Y0201704D01*
X0203430Y0201305D02*
X0200330Y0201305D01*
X0200330Y0200907D02*
X0203430Y0200907D01*
X0203430Y0200508D02*
X0200330Y0200508D01*
X0200330Y0118883D02*
X0203430Y0118883D01*
X0203430Y0111483D01*
X0193430Y0111483D01*
X0193141Y0111516D01*
X0192866Y0111612D01*
X0192619Y0111767D01*
X0192414Y0111973D01*
X0192259Y0112219D01*
X0192163Y0112494D01*
X0192130Y0112783D01*
X0192130Y0115683D01*
X0192160Y0115950D01*
X0192249Y0116204D01*
X0192392Y0116431D01*
X0192582Y0116621D01*
X0192809Y0116764D01*
X0193063Y0116853D01*
X0193330Y0116883D01*
X0200230Y0116883D01*
X0200268Y0116891D01*
X0200301Y0116912D01*
X0200322Y0116945D01*
X0200330Y0116983D01*
X0200330Y0118883D01*
X0200330Y0118814D02*
X0203430Y0118814D01*
X0203430Y0118415D02*
X0200330Y0118415D01*
X0200330Y0118017D02*
X0203430Y0118017D01*
X0203430Y0117618D02*
X0200330Y0117618D01*
X0200330Y0117220D02*
X0203430Y0117220D01*
X0203430Y0116821D02*
X0192971Y0116821D01*
X0192386Y0116422D02*
X0203430Y0116422D01*
X0203430Y0116024D02*
X0192186Y0116024D01*
X0192130Y0115625D02*
X0203430Y0115625D01*
X0203430Y0115227D02*
X0192130Y0115227D01*
X0192130Y0114828D02*
X0203430Y0114828D01*
X0203430Y0114430D02*
X0192130Y0114430D01*
X0192130Y0114031D02*
X0203430Y0114031D01*
X0203430Y0113633D02*
X0192130Y0113633D01*
X0192130Y0113234D02*
X0203430Y0113234D01*
X0203430Y0112836D02*
X0192130Y0112836D01*
X0192182Y0112437D02*
X0203430Y0112437D01*
X0203430Y0112039D02*
X0192372Y0112039D01*
X0192821Y0111640D02*
X0203430Y0111640D01*
X0203430Y0095820D02*
X0193430Y0095820D01*
X0193141Y0095787D01*
X0192866Y0095691D01*
X0192619Y0095536D01*
X0192414Y0095331D01*
X0192259Y0095084D01*
X0192163Y0094809D01*
X0192130Y0094520D01*
X0192130Y0091620D01*
X0192160Y0091353D01*
X0192249Y0091099D01*
X0192392Y0090872D01*
X0192582Y0090682D01*
X0192809Y0090539D01*
X0193063Y0090450D01*
X0193330Y0090420D01*
X0200230Y0090420D01*
X0200268Y0090412D01*
X0200301Y0090391D01*
X0200322Y0090358D01*
X0200330Y0090320D01*
X0200330Y0088420D01*
X0203430Y0088420D01*
X0203430Y0095820D01*
X0203430Y0095700D02*
X0192891Y0095700D01*
X0192395Y0095301D02*
X0203430Y0095301D01*
X0203430Y0094903D02*
X0192195Y0094903D01*
X0192130Y0094504D02*
X0203430Y0094504D01*
X0203430Y0094106D02*
X0192130Y0094106D01*
X0192130Y0093707D02*
X0203430Y0093707D01*
X0203430Y0093309D02*
X0192130Y0093309D01*
X0192130Y0092910D02*
X0203430Y0092910D01*
X0203430Y0092512D02*
X0192130Y0092512D01*
X0192130Y0092113D02*
X0203430Y0092113D01*
X0203430Y0091715D02*
X0192130Y0091715D01*
X0192173Y0091316D02*
X0203430Y0091316D01*
X0203430Y0090918D02*
X0192363Y0090918D01*
X0192865Y0090519D02*
X0203430Y0090519D01*
X0203430Y0090121D02*
X0200330Y0090121D01*
X0200330Y0089722D02*
X0203430Y0089722D01*
X0203430Y0089324D02*
X0200330Y0089324D01*
X0200330Y0088925D02*
X0203430Y0088925D01*
X0203430Y0088527D02*
X0200330Y0088527D01*
D19*
X0202773Y0098036D02*
X0202773Y0099020D01*
X0209191Y0099020D01*
X0209191Y0098036D01*
X0202773Y0098036D01*
X0202773Y0098103D02*
X0209191Y0098103D01*
X0209191Y0098299D02*
X0202773Y0098299D01*
X0202773Y0098494D02*
X0209191Y0098494D01*
X0209191Y0098689D02*
X0202773Y0098689D01*
X0202773Y0098885D02*
X0209191Y0098885D01*
X0209230Y0100595D02*
X0202813Y0100595D01*
X0202813Y0101579D01*
X0209230Y0101579D01*
X0209230Y0100595D01*
X0209230Y0100643D02*
X0202813Y0100643D01*
X0202813Y0100838D02*
X0209230Y0100838D01*
X0209230Y0101034D02*
X0202813Y0101034D01*
X0202813Y0101229D02*
X0209230Y0101229D01*
X0209230Y0101425D02*
X0202813Y0101425D01*
X0202813Y0103193D02*
X0202813Y0104177D01*
X0209230Y0104177D01*
X0209230Y0103193D01*
X0202813Y0103193D01*
X0202813Y0103378D02*
X0209230Y0103378D01*
X0209230Y0103574D02*
X0202813Y0103574D01*
X0202813Y0103769D02*
X0209230Y0103769D01*
X0209230Y0103964D02*
X0202813Y0103964D01*
X0202813Y0104160D02*
X0209230Y0104160D01*
X0209191Y0105752D02*
X0202773Y0105752D01*
X0202773Y0106737D01*
X0209191Y0106737D01*
X0209191Y0105752D01*
X0209191Y0105918D02*
X0202773Y0105918D01*
X0202773Y0106113D02*
X0209191Y0106113D01*
X0209191Y0106309D02*
X0202773Y0106309D01*
X0202773Y0106504D02*
X0209191Y0106504D01*
X0209191Y0106699D02*
X0202773Y0106699D01*
X0202773Y0108272D02*
X0202773Y0109256D01*
X0209191Y0109256D01*
X0209191Y0108272D01*
X0202773Y0108272D01*
X0202773Y0108458D02*
X0209191Y0108458D01*
X0209191Y0108653D02*
X0202773Y0108653D01*
X0202773Y0108848D02*
X0209191Y0108848D01*
X0209191Y0109044D02*
X0202773Y0109044D01*
X0202773Y0109239D02*
X0209191Y0109239D01*
X0209191Y0210036D02*
X0202773Y0210036D01*
X0202773Y0211020D01*
X0209191Y0211020D01*
X0209191Y0210036D01*
X0209191Y0210046D02*
X0202773Y0210046D01*
X0202773Y0210241D02*
X0209191Y0210241D01*
X0209191Y0210436D02*
X0202773Y0210436D01*
X0202773Y0210632D02*
X0209191Y0210632D01*
X0209191Y0210827D02*
X0202773Y0210827D01*
X0202813Y0212595D02*
X0202813Y0213579D01*
X0209230Y0213579D01*
X0209230Y0212595D01*
X0202813Y0212595D01*
X0202813Y0212781D02*
X0209230Y0212781D01*
X0209230Y0212976D02*
X0202813Y0212976D01*
X0202813Y0213171D02*
X0209230Y0213171D01*
X0209230Y0213367D02*
X0202813Y0213367D01*
X0202813Y0213562D02*
X0209230Y0213562D01*
X0209230Y0215193D02*
X0202813Y0215193D01*
X0202813Y0216177D01*
X0209230Y0216177D01*
X0209230Y0215193D01*
X0209230Y0215320D02*
X0202813Y0215320D01*
X0202813Y0215516D02*
X0209230Y0215516D01*
X0209230Y0215711D02*
X0202813Y0215711D01*
X0202813Y0215907D02*
X0209230Y0215907D01*
X0209230Y0216102D02*
X0202813Y0216102D01*
X0202773Y0217752D02*
X0202773Y0218737D01*
X0209191Y0218737D01*
X0209191Y0217752D01*
X0202773Y0217752D01*
X0202773Y0217860D02*
X0209191Y0217860D01*
X0209191Y0218055D02*
X0202773Y0218055D01*
X0202773Y0218251D02*
X0209191Y0218251D01*
X0209191Y0218446D02*
X0202773Y0218446D01*
X0202773Y0218642D02*
X0209191Y0218642D01*
X0209191Y0220272D02*
X0202773Y0220272D01*
X0202773Y0221256D01*
X0209191Y0221256D01*
X0209191Y0220272D01*
X0209191Y0220400D02*
X0202773Y0220400D01*
X0202773Y0220595D02*
X0209191Y0220595D01*
X0209191Y0220791D02*
X0202773Y0220791D01*
X0202773Y0220986D02*
X0209191Y0220986D01*
X0209191Y0221181D02*
X0202773Y0221181D01*
X0202773Y0322036D02*
X0202773Y0323020D01*
X0209191Y0323020D01*
X0209191Y0322036D01*
X0202773Y0322036D01*
X0202773Y0322183D02*
X0209191Y0322183D01*
X0209191Y0322379D02*
X0202773Y0322379D01*
X0202773Y0322574D02*
X0209191Y0322574D01*
X0209191Y0322769D02*
X0202773Y0322769D01*
X0202773Y0322965D02*
X0209191Y0322965D01*
X0209230Y0324595D02*
X0202813Y0324595D01*
X0202813Y0325579D01*
X0209230Y0325579D01*
X0209230Y0324595D01*
X0209230Y0324723D02*
X0202813Y0324723D01*
X0202813Y0324918D02*
X0209230Y0324918D01*
X0209230Y0325114D02*
X0202813Y0325114D01*
X0202813Y0325309D02*
X0209230Y0325309D01*
X0209230Y0325504D02*
X0202813Y0325504D01*
X0202813Y0327193D02*
X0202813Y0328177D01*
X0209230Y0328177D01*
X0209230Y0327193D01*
X0202813Y0327193D01*
X0202813Y0327263D02*
X0209230Y0327263D01*
X0209230Y0327458D02*
X0202813Y0327458D01*
X0202813Y0327653D02*
X0209230Y0327653D01*
X0209230Y0327849D02*
X0202813Y0327849D01*
X0202813Y0328044D02*
X0209230Y0328044D01*
X0209191Y0329752D02*
X0202773Y0329752D01*
X0202773Y0330737D01*
X0209191Y0330737D01*
X0209191Y0329752D01*
X0209191Y0329802D02*
X0202773Y0329802D01*
X0202773Y0329998D02*
X0209191Y0329998D01*
X0209191Y0330193D02*
X0202773Y0330193D01*
X0202773Y0330388D02*
X0209191Y0330388D01*
X0209191Y0330584D02*
X0202773Y0330584D01*
X0202773Y0332272D02*
X0202773Y0333256D01*
X0209191Y0333256D01*
X0209191Y0332272D01*
X0202773Y0332272D01*
X0202773Y0332342D02*
X0209191Y0332342D01*
X0209191Y0332537D02*
X0202773Y0332537D01*
X0202773Y0332733D02*
X0209191Y0332733D01*
X0209191Y0332928D02*
X0202773Y0332928D01*
X0202773Y0333124D02*
X0209191Y0333124D01*
X0047191Y0333124D02*
X0040773Y0333124D01*
X0040773Y0333256D02*
X0047191Y0333256D01*
X0047191Y0332272D01*
X0040773Y0332272D01*
X0040773Y0333256D01*
X0040773Y0332928D02*
X0047191Y0332928D01*
X0047191Y0332733D02*
X0040773Y0332733D01*
X0040773Y0332537D02*
X0047191Y0332537D01*
X0047191Y0332342D02*
X0040773Y0332342D01*
X0040773Y0330737D02*
X0047191Y0330737D01*
X0047191Y0329752D01*
X0040773Y0329752D01*
X0040773Y0330737D01*
X0040773Y0330584D02*
X0047191Y0330584D01*
X0047191Y0330388D02*
X0040773Y0330388D01*
X0040773Y0330193D02*
X0047191Y0330193D01*
X0047191Y0329998D02*
X0040773Y0329998D01*
X0040773Y0329802D02*
X0047191Y0329802D01*
X0047230Y0328177D02*
X0040813Y0328177D01*
X0040813Y0327193D01*
X0047230Y0327193D01*
X0047230Y0328177D01*
X0047230Y0328044D02*
X0040813Y0328044D01*
X0040813Y0327849D02*
X0047230Y0327849D01*
X0047230Y0327653D02*
X0040813Y0327653D01*
X0040813Y0327458D02*
X0047230Y0327458D01*
X0047230Y0327263D02*
X0040813Y0327263D01*
X0040813Y0325579D02*
X0047230Y0325579D01*
X0047230Y0324595D01*
X0040813Y0324595D01*
X0040813Y0325579D01*
X0040813Y0325504D02*
X0047230Y0325504D01*
X0047230Y0325309D02*
X0040813Y0325309D01*
X0040813Y0325114D02*
X0047230Y0325114D01*
X0047230Y0324918D02*
X0040813Y0324918D01*
X0040813Y0324723D02*
X0047230Y0324723D01*
X0047191Y0323020D02*
X0040773Y0323020D01*
X0040773Y0322036D01*
X0047191Y0322036D01*
X0047191Y0323020D01*
X0047191Y0322965D02*
X0040773Y0322965D01*
X0040773Y0322769D02*
X0047191Y0322769D01*
X0047191Y0322574D02*
X0040773Y0322574D01*
X0040773Y0322379D02*
X0047191Y0322379D01*
X0047191Y0322183D02*
X0040773Y0322183D01*
X0040773Y0221256D02*
X0047191Y0221256D01*
X0047191Y0220272D01*
X0040773Y0220272D01*
X0040773Y0221256D01*
X0040773Y0221181D02*
X0047191Y0221181D01*
X0047191Y0220986D02*
X0040773Y0220986D01*
X0040773Y0220791D02*
X0047191Y0220791D01*
X0047191Y0220595D02*
X0040773Y0220595D01*
X0040773Y0220400D02*
X0047191Y0220400D01*
X0047191Y0218737D02*
X0040773Y0218737D01*
X0040773Y0217752D01*
X0047191Y0217752D01*
X0047191Y0218737D01*
X0047191Y0218642D02*
X0040773Y0218642D01*
X0040773Y0218446D02*
X0047191Y0218446D01*
X0047191Y0218251D02*
X0040773Y0218251D01*
X0040773Y0218055D02*
X0047191Y0218055D01*
X0047191Y0217860D02*
X0040773Y0217860D01*
X0040813Y0216177D02*
X0047230Y0216177D01*
X0047230Y0215193D01*
X0040813Y0215193D01*
X0040813Y0216177D01*
X0040813Y0216102D02*
X0047230Y0216102D01*
X0047230Y0215907D02*
X0040813Y0215907D01*
X0040813Y0215711D02*
X0047230Y0215711D01*
X0047230Y0215516D02*
X0040813Y0215516D01*
X0040813Y0215320D02*
X0047230Y0215320D01*
X0047230Y0213579D02*
X0040813Y0213579D01*
X0040813Y0212595D01*
X0047230Y0212595D01*
X0047230Y0213579D01*
X0047230Y0213562D02*
X0040813Y0213562D01*
X0040813Y0213367D02*
X0047230Y0213367D01*
X0047230Y0213171D02*
X0040813Y0213171D01*
X0040813Y0212976D02*
X0047230Y0212976D01*
X0047230Y0212781D02*
X0040813Y0212781D01*
X0040773Y0211020D02*
X0047191Y0211020D01*
X0047191Y0210036D01*
X0040773Y0210036D01*
X0040773Y0211020D01*
X0040773Y0210827D02*
X0047191Y0210827D01*
X0047191Y0210632D02*
X0040773Y0210632D01*
X0040773Y0210436D02*
X0047191Y0210436D01*
X0047191Y0210241D02*
X0040773Y0210241D01*
X0040773Y0210046D02*
X0047191Y0210046D01*
X0047191Y0109256D02*
X0040773Y0109256D01*
X0040773Y0108272D01*
X0047191Y0108272D01*
X0047191Y0109256D01*
X0047191Y0109239D02*
X0040773Y0109239D01*
X0040773Y0109044D02*
X0047191Y0109044D01*
X0047191Y0108848D02*
X0040773Y0108848D01*
X0040773Y0108653D02*
X0047191Y0108653D01*
X0047191Y0108458D02*
X0040773Y0108458D01*
X0040773Y0106737D02*
X0047191Y0106737D01*
X0047191Y0105752D01*
X0040773Y0105752D01*
X0040773Y0106737D01*
X0040773Y0106699D02*
X0047191Y0106699D01*
X0047191Y0106504D02*
X0040773Y0106504D01*
X0040773Y0106309D02*
X0047191Y0106309D01*
X0047191Y0106113D02*
X0040773Y0106113D01*
X0040773Y0105918D02*
X0047191Y0105918D01*
X0047230Y0104177D02*
X0040813Y0104177D01*
X0040813Y0103193D01*
X0047230Y0103193D01*
X0047230Y0104177D01*
X0047230Y0104160D02*
X0040813Y0104160D01*
X0040813Y0103964D02*
X0047230Y0103964D01*
X0047230Y0103769D02*
X0040813Y0103769D01*
X0040813Y0103574D02*
X0047230Y0103574D01*
X0047230Y0103378D02*
X0040813Y0103378D01*
X0040813Y0101579D02*
X0047230Y0101579D01*
X0047230Y0100595D01*
X0040813Y0100595D01*
X0040813Y0101579D01*
X0040813Y0101425D02*
X0047230Y0101425D01*
X0047230Y0101229D02*
X0040813Y0101229D01*
X0040813Y0101034D02*
X0047230Y0101034D01*
X0047230Y0100838D02*
X0040813Y0100838D01*
X0040813Y0100643D02*
X0047230Y0100643D01*
X0047191Y0099020D02*
X0040773Y0099020D01*
X0040773Y0098036D01*
X0047191Y0098036D01*
X0047191Y0099020D01*
X0047191Y0098885D02*
X0040773Y0098885D01*
X0040773Y0098689D02*
X0047191Y0098689D01*
X0047191Y0098494D02*
X0040773Y0098494D01*
X0040773Y0098299D02*
X0047191Y0098299D01*
X0047191Y0098103D02*
X0040773Y0098103D01*
D20*
X0058317Y0072687D03*
X0058317Y0064813D03*
X0058317Y0176813D03*
X0058317Y0184687D03*
X0058317Y0288813D03*
X0058317Y0296687D03*
X0220317Y0296687D03*
X0220317Y0288813D03*
X0220317Y0184687D03*
X0220317Y0176813D03*
X0220317Y0072687D03*
X0220317Y0064813D03*
D21*
X0199844Y0055364D03*
X0199844Y0082136D03*
X0199844Y0167364D03*
X0199844Y0194136D03*
X0199844Y0279364D03*
X0199844Y0306136D03*
X0037844Y0306136D03*
X0037844Y0279364D03*
X0037844Y0194136D03*
X0037844Y0167364D03*
X0037844Y0082136D03*
X0037844Y0055364D03*
D22*
X0044892Y0045640D03*
X0056703Y0045640D03*
X0062608Y0045640D03*
X0062608Y0157640D03*
X0056703Y0157640D03*
X0044892Y0157640D03*
X0044892Y0269640D03*
X0056703Y0269640D03*
X0062608Y0269640D03*
X0206892Y0269640D03*
X0218703Y0269640D03*
X0224608Y0269640D03*
X0224608Y0157640D03*
X0218703Y0157640D03*
X0206892Y0157640D03*
X0206892Y0045640D03*
X0218703Y0045640D03*
X0224608Y0045640D03*
D23*
X0039380Y0034813D03*
X0068120Y0034813D03*
X0068120Y0146813D03*
X0039380Y0146813D03*
X0039380Y0258813D03*
X0068120Y0258813D03*
X0201380Y0258813D03*
X0230120Y0258813D03*
X0230120Y0146813D03*
X0201380Y0146813D03*
X0201380Y0034813D03*
X0230120Y0034813D03*
D24*
X0230120Y0043081D03*
X0201380Y0043081D03*
X0201380Y0155081D03*
X0230120Y0155081D03*
X0230120Y0267081D03*
X0201380Y0267081D03*
X0068120Y0267081D03*
X0039380Y0267081D03*
X0039380Y0155081D03*
X0068120Y0155081D03*
X0068120Y0043081D03*
X0039380Y0043081D03*
D25*
X0053631Y0090010D03*
X0053631Y0093750D03*
X0053631Y0097490D03*
X0063869Y0097490D03*
X0063869Y0090010D03*
X0083631Y0090010D03*
X0083631Y0097490D03*
X0093869Y0097490D03*
X0093869Y0093750D03*
X0093869Y0090010D03*
X0093869Y0202010D03*
X0093869Y0205750D03*
X0093869Y0209490D03*
X0083631Y0209490D03*
X0083631Y0202010D03*
X0063869Y0202010D03*
X0063869Y0209490D03*
X0053631Y0209490D03*
X0053631Y0205750D03*
X0053631Y0202010D03*
X0053631Y0314010D03*
X0053631Y0317750D03*
X0053631Y0321490D03*
X0063869Y0321490D03*
X0063869Y0314010D03*
X0083631Y0314010D03*
X0083631Y0321490D03*
X0093869Y0321490D03*
X0093869Y0317750D03*
X0093869Y0314010D03*
X0215631Y0314010D03*
X0215631Y0317750D03*
X0215631Y0321490D03*
X0225869Y0321490D03*
X0225869Y0314010D03*
X0245631Y0314010D03*
X0245631Y0321490D03*
X0255869Y0321490D03*
X0255869Y0317750D03*
X0255869Y0314010D03*
X0255869Y0209490D03*
X0255869Y0205750D03*
X0255869Y0202010D03*
X0245631Y0202010D03*
X0245631Y0209490D03*
X0225869Y0209490D03*
X0225869Y0202010D03*
X0215631Y0202010D03*
X0215631Y0205750D03*
X0215631Y0209490D03*
X0215631Y0097490D03*
X0215631Y0093750D03*
X0215631Y0090010D03*
X0225869Y0090010D03*
X0225869Y0097490D03*
X0245631Y0097490D03*
X0245631Y0090010D03*
X0255869Y0090010D03*
X0255869Y0093750D03*
X0255869Y0097490D03*
D26*
X0301541Y0093514D02*
X0303687Y0093514D01*
X0303687Y0093338D01*
X0301541Y0093338D01*
X0301541Y0093514D01*
X0301541Y0091546D02*
X0303687Y0091546D01*
X0303687Y0091370D01*
X0301541Y0091370D01*
X0301541Y0091546D01*
X0301541Y0089660D02*
X0303687Y0089660D01*
X0303687Y0089484D01*
X0301541Y0089484D01*
X0301541Y0089660D01*
X0301541Y0087692D02*
X0303687Y0087692D01*
X0303687Y0087516D01*
X0301541Y0087516D01*
X0301541Y0087692D01*
X0301541Y0085807D02*
X0303687Y0085807D01*
X0303687Y0085631D01*
X0301541Y0085631D01*
X0301541Y0085807D01*
X0301541Y0083838D02*
X0303687Y0083838D01*
X0303687Y0083662D01*
X0301541Y0083662D01*
X0301541Y0083838D01*
X0301541Y0081693D02*
X0303687Y0081693D01*
X0301541Y0081693D02*
X0301541Y0081869D01*
X0303687Y0081869D01*
X0303687Y0081693D01*
X0303687Y0079808D02*
X0301541Y0079808D01*
X0301541Y0079984D01*
X0303687Y0079984D01*
X0303687Y0079808D01*
X0303687Y0077840D02*
X0301541Y0077840D01*
X0301541Y0078016D01*
X0303687Y0078016D01*
X0303687Y0077840D01*
X0303687Y0075954D02*
X0301541Y0075954D01*
X0301541Y0076130D01*
X0303687Y0076130D01*
X0303687Y0075954D01*
X0303687Y0073986D02*
X0301541Y0073986D01*
X0301541Y0074162D01*
X0303687Y0074162D01*
X0303687Y0073986D01*
X0305986Y0071687D02*
X0305986Y0069541D01*
X0305986Y0071687D02*
X0306162Y0071687D01*
X0306162Y0069541D01*
X0305986Y0069541D01*
X0305986Y0070544D02*
X0306162Y0070544D01*
X0306162Y0071547D02*
X0305986Y0071547D01*
X0307954Y0071687D02*
X0307954Y0069541D01*
X0307954Y0071687D02*
X0308130Y0071687D01*
X0308130Y0069541D01*
X0307954Y0069541D01*
X0307954Y0070544D02*
X0308130Y0070544D01*
X0308130Y0071547D02*
X0307954Y0071547D01*
X0309840Y0071687D02*
X0309840Y0069541D01*
X0309840Y0071687D02*
X0310016Y0071687D01*
X0310016Y0069541D01*
X0309840Y0069541D01*
X0309840Y0070544D02*
X0310016Y0070544D01*
X0310016Y0071547D02*
X0309840Y0071547D01*
X0311808Y0071687D02*
X0311808Y0069541D01*
X0311808Y0071687D02*
X0311984Y0071687D01*
X0311984Y0069541D01*
X0311808Y0069541D01*
X0311808Y0070544D02*
X0311984Y0070544D01*
X0311984Y0071547D02*
X0311808Y0071547D01*
X0313693Y0071687D02*
X0313693Y0069541D01*
X0313693Y0071687D02*
X0313869Y0071687D01*
X0313869Y0069541D01*
X0313693Y0069541D01*
X0313693Y0070544D02*
X0313869Y0070544D01*
X0313869Y0071547D02*
X0313693Y0071547D01*
X0315662Y0071687D02*
X0315662Y0069541D01*
X0315662Y0071687D02*
X0315838Y0071687D01*
X0315838Y0069541D01*
X0315662Y0069541D01*
X0315662Y0070544D02*
X0315838Y0070544D01*
X0315838Y0071547D02*
X0315662Y0071547D01*
X0317807Y0071687D02*
X0317807Y0069541D01*
X0317631Y0069541D01*
X0317631Y0071687D01*
X0317807Y0071687D01*
X0317807Y0070544D02*
X0317631Y0070544D01*
X0317631Y0071547D02*
X0317807Y0071547D01*
X0319692Y0071687D02*
X0319692Y0069541D01*
X0319516Y0069541D01*
X0319516Y0071687D01*
X0319692Y0071687D01*
X0319692Y0070544D02*
X0319516Y0070544D01*
X0319516Y0071547D02*
X0319692Y0071547D01*
X0321660Y0071687D02*
X0321660Y0069541D01*
X0321484Y0069541D01*
X0321484Y0071687D01*
X0321660Y0071687D01*
X0321660Y0070544D02*
X0321484Y0070544D01*
X0321484Y0071547D02*
X0321660Y0071547D01*
X0323546Y0071687D02*
X0323546Y0069541D01*
X0323370Y0069541D01*
X0323370Y0071687D01*
X0323546Y0071687D01*
X0323546Y0070544D02*
X0323370Y0070544D01*
X0323370Y0071547D02*
X0323546Y0071547D01*
X0325514Y0071687D02*
X0325514Y0069541D01*
X0325338Y0069541D01*
X0325338Y0071687D01*
X0325514Y0071687D01*
X0325514Y0070544D02*
X0325338Y0070544D01*
X0325338Y0071547D02*
X0325514Y0071547D01*
X0327813Y0073986D02*
X0329959Y0073986D01*
X0327813Y0073986D02*
X0327813Y0074162D01*
X0329959Y0074162D01*
X0329959Y0073986D01*
X0329959Y0075954D02*
X0327813Y0075954D01*
X0327813Y0076130D01*
X0329959Y0076130D01*
X0329959Y0075954D01*
X0329959Y0077840D02*
X0327813Y0077840D01*
X0327813Y0078016D01*
X0329959Y0078016D01*
X0329959Y0077840D01*
X0329959Y0079808D02*
X0327813Y0079808D01*
X0327813Y0079984D01*
X0329959Y0079984D01*
X0329959Y0079808D01*
X0329959Y0081693D02*
X0327813Y0081693D01*
X0327813Y0081869D01*
X0329959Y0081869D01*
X0329959Y0081693D01*
X0329959Y0083662D02*
X0327813Y0083662D01*
X0327813Y0083838D01*
X0329959Y0083838D01*
X0329959Y0083662D01*
X0329959Y0085807D02*
X0327813Y0085807D01*
X0329959Y0085807D02*
X0329959Y0085631D01*
X0327813Y0085631D01*
X0327813Y0085807D01*
X0327813Y0087692D02*
X0329959Y0087692D01*
X0329959Y0087516D01*
X0327813Y0087516D01*
X0327813Y0087692D01*
X0327813Y0089660D02*
X0329959Y0089660D01*
X0329959Y0089484D01*
X0327813Y0089484D01*
X0327813Y0089660D01*
X0327813Y0091546D02*
X0329959Y0091546D01*
X0329959Y0091370D01*
X0327813Y0091370D01*
X0327813Y0091546D01*
X0327813Y0093514D02*
X0329959Y0093514D01*
X0329959Y0093338D01*
X0327813Y0093338D01*
X0327813Y0093514D01*
X0325514Y0095813D02*
X0325514Y0097959D01*
X0325514Y0095813D02*
X0325338Y0095813D01*
X0325338Y0097959D01*
X0325514Y0097959D01*
X0325514Y0096816D02*
X0325338Y0096816D01*
X0325338Y0097819D02*
X0325514Y0097819D01*
X0323546Y0097959D02*
X0323546Y0095813D01*
X0323370Y0095813D01*
X0323370Y0097959D01*
X0323546Y0097959D01*
X0323546Y0096816D02*
X0323370Y0096816D01*
X0323370Y0097819D02*
X0323546Y0097819D01*
X0321660Y0097959D02*
X0321660Y0095813D01*
X0321484Y0095813D01*
X0321484Y0097959D01*
X0321660Y0097959D01*
X0321660Y0096816D02*
X0321484Y0096816D01*
X0321484Y0097819D02*
X0321660Y0097819D01*
X0319692Y0097959D02*
X0319692Y0095813D01*
X0319516Y0095813D01*
X0319516Y0097959D01*
X0319692Y0097959D01*
X0319692Y0096816D02*
X0319516Y0096816D01*
X0319516Y0097819D02*
X0319692Y0097819D01*
X0317807Y0097959D02*
X0317807Y0095813D01*
X0317631Y0095813D01*
X0317631Y0097959D01*
X0317807Y0097959D01*
X0317807Y0096816D02*
X0317631Y0096816D01*
X0317631Y0097819D02*
X0317807Y0097819D01*
X0315838Y0097959D02*
X0315838Y0095813D01*
X0315662Y0095813D01*
X0315662Y0097959D01*
X0315838Y0097959D01*
X0315838Y0096816D02*
X0315662Y0096816D01*
X0315662Y0097819D02*
X0315838Y0097819D01*
X0313693Y0097959D02*
X0313693Y0095813D01*
X0313693Y0097959D02*
X0313869Y0097959D01*
X0313869Y0095813D01*
X0313693Y0095813D01*
X0313693Y0096816D02*
X0313869Y0096816D01*
X0313869Y0097819D02*
X0313693Y0097819D01*
X0311808Y0097959D02*
X0311808Y0095813D01*
X0311808Y0097959D02*
X0311984Y0097959D01*
X0311984Y0095813D01*
X0311808Y0095813D01*
X0311808Y0096816D02*
X0311984Y0096816D01*
X0311984Y0097819D02*
X0311808Y0097819D01*
X0309840Y0097959D02*
X0309840Y0095813D01*
X0309840Y0097959D02*
X0310016Y0097959D01*
X0310016Y0095813D01*
X0309840Y0095813D01*
X0309840Y0096816D02*
X0310016Y0096816D01*
X0310016Y0097819D02*
X0309840Y0097819D01*
X0307954Y0097959D02*
X0307954Y0095813D01*
X0307954Y0097959D02*
X0308130Y0097959D01*
X0308130Y0095813D01*
X0307954Y0095813D01*
X0307954Y0096816D02*
X0308130Y0096816D01*
X0308130Y0097819D02*
X0307954Y0097819D01*
X0305986Y0097959D02*
X0305986Y0095813D01*
X0305986Y0097959D02*
X0306162Y0097959D01*
X0306162Y0095813D01*
X0305986Y0095813D01*
X0305986Y0096816D02*
X0306162Y0096816D01*
X0306162Y0097819D02*
X0305986Y0097819D01*
X0305986Y0181541D02*
X0305986Y0183687D01*
X0306162Y0183687D01*
X0306162Y0181541D01*
X0305986Y0181541D01*
X0305986Y0182544D02*
X0306162Y0182544D01*
X0306162Y0183547D02*
X0305986Y0183547D01*
X0307954Y0183687D02*
X0307954Y0181541D01*
X0307954Y0183687D02*
X0308130Y0183687D01*
X0308130Y0181541D01*
X0307954Y0181541D01*
X0307954Y0182544D02*
X0308130Y0182544D01*
X0308130Y0183547D02*
X0307954Y0183547D01*
X0309840Y0183687D02*
X0309840Y0181541D01*
X0309840Y0183687D02*
X0310016Y0183687D01*
X0310016Y0181541D01*
X0309840Y0181541D01*
X0309840Y0182544D02*
X0310016Y0182544D01*
X0310016Y0183547D02*
X0309840Y0183547D01*
X0311808Y0183687D02*
X0311808Y0181541D01*
X0311808Y0183687D02*
X0311984Y0183687D01*
X0311984Y0181541D01*
X0311808Y0181541D01*
X0311808Y0182544D02*
X0311984Y0182544D01*
X0311984Y0183547D02*
X0311808Y0183547D01*
X0313693Y0183687D02*
X0313693Y0181541D01*
X0313693Y0183687D02*
X0313869Y0183687D01*
X0313869Y0181541D01*
X0313693Y0181541D01*
X0313693Y0182544D02*
X0313869Y0182544D01*
X0313869Y0183547D02*
X0313693Y0183547D01*
X0315662Y0183687D02*
X0315662Y0181541D01*
X0315662Y0183687D02*
X0315838Y0183687D01*
X0315838Y0181541D01*
X0315662Y0181541D01*
X0315662Y0182544D02*
X0315838Y0182544D01*
X0315838Y0183547D02*
X0315662Y0183547D01*
X0317807Y0183687D02*
X0317807Y0181541D01*
X0317631Y0181541D01*
X0317631Y0183687D01*
X0317807Y0183687D01*
X0317807Y0182544D02*
X0317631Y0182544D01*
X0317631Y0183547D02*
X0317807Y0183547D01*
X0319692Y0183687D02*
X0319692Y0181541D01*
X0319516Y0181541D01*
X0319516Y0183687D01*
X0319692Y0183687D01*
X0319692Y0182544D02*
X0319516Y0182544D01*
X0319516Y0183547D02*
X0319692Y0183547D01*
X0321660Y0183687D02*
X0321660Y0181541D01*
X0321484Y0181541D01*
X0321484Y0183687D01*
X0321660Y0183687D01*
X0321660Y0182544D02*
X0321484Y0182544D01*
X0321484Y0183547D02*
X0321660Y0183547D01*
X0323546Y0183687D02*
X0323546Y0181541D01*
X0323370Y0181541D01*
X0323370Y0183687D01*
X0323546Y0183687D01*
X0323546Y0182544D02*
X0323370Y0182544D01*
X0323370Y0183547D02*
X0323546Y0183547D01*
X0325514Y0183687D02*
X0325514Y0181541D01*
X0325338Y0181541D01*
X0325338Y0183687D01*
X0325514Y0183687D01*
X0325514Y0182544D02*
X0325338Y0182544D01*
X0325338Y0183547D02*
X0325514Y0183547D01*
X0327813Y0185986D02*
X0329959Y0185986D01*
X0327813Y0185986D02*
X0327813Y0186162D01*
X0329959Y0186162D01*
X0329959Y0185986D01*
X0329959Y0187954D02*
X0327813Y0187954D01*
X0327813Y0188130D01*
X0329959Y0188130D01*
X0329959Y0187954D01*
X0329959Y0189840D02*
X0327813Y0189840D01*
X0327813Y0190016D01*
X0329959Y0190016D01*
X0329959Y0189840D01*
X0329959Y0191808D02*
X0327813Y0191808D01*
X0327813Y0191984D01*
X0329959Y0191984D01*
X0329959Y0191808D01*
X0329959Y0193693D02*
X0327813Y0193693D01*
X0327813Y0193869D01*
X0329959Y0193869D01*
X0329959Y0193693D01*
X0329959Y0195662D02*
X0327813Y0195662D01*
X0327813Y0195838D01*
X0329959Y0195838D01*
X0329959Y0195662D01*
X0329959Y0197807D02*
X0327813Y0197807D01*
X0329959Y0197807D02*
X0329959Y0197631D01*
X0327813Y0197631D01*
X0327813Y0197807D01*
X0327813Y0199692D02*
X0329959Y0199692D01*
X0329959Y0199516D01*
X0327813Y0199516D01*
X0327813Y0199692D01*
X0327813Y0201660D02*
X0329959Y0201660D01*
X0329959Y0201484D01*
X0327813Y0201484D01*
X0327813Y0201660D01*
X0327813Y0203546D02*
X0329959Y0203546D01*
X0329959Y0203370D01*
X0327813Y0203370D01*
X0327813Y0203546D01*
X0327813Y0205514D02*
X0329959Y0205514D01*
X0329959Y0205338D01*
X0327813Y0205338D01*
X0327813Y0205514D01*
X0325514Y0207813D02*
X0325514Y0209959D01*
X0325514Y0207813D02*
X0325338Y0207813D01*
X0325338Y0209959D01*
X0325514Y0209959D01*
X0325514Y0208816D02*
X0325338Y0208816D01*
X0325338Y0209819D02*
X0325514Y0209819D01*
X0323546Y0209959D02*
X0323546Y0207813D01*
X0323370Y0207813D01*
X0323370Y0209959D01*
X0323546Y0209959D01*
X0323546Y0208816D02*
X0323370Y0208816D01*
X0323370Y0209819D02*
X0323546Y0209819D01*
X0321660Y0209959D02*
X0321660Y0207813D01*
X0321484Y0207813D01*
X0321484Y0209959D01*
X0321660Y0209959D01*
X0321660Y0208816D02*
X0321484Y0208816D01*
X0321484Y0209819D02*
X0321660Y0209819D01*
X0319692Y0209959D02*
X0319692Y0207813D01*
X0319516Y0207813D01*
X0319516Y0209959D01*
X0319692Y0209959D01*
X0319692Y0208816D02*
X0319516Y0208816D01*
X0319516Y0209819D02*
X0319692Y0209819D01*
X0317807Y0209959D02*
X0317807Y0207813D01*
X0317631Y0207813D01*
X0317631Y0209959D01*
X0317807Y0209959D01*
X0317807Y0208816D02*
X0317631Y0208816D01*
X0317631Y0209819D02*
X0317807Y0209819D01*
X0315838Y0209959D02*
X0315838Y0207813D01*
X0315662Y0207813D01*
X0315662Y0209959D01*
X0315838Y0209959D01*
X0315838Y0208816D02*
X0315662Y0208816D01*
X0315662Y0209819D02*
X0315838Y0209819D01*
X0313693Y0209959D02*
X0313693Y0207813D01*
X0313693Y0209959D02*
X0313869Y0209959D01*
X0313869Y0207813D01*
X0313693Y0207813D01*
X0313693Y0208816D02*
X0313869Y0208816D01*
X0313869Y0209819D02*
X0313693Y0209819D01*
X0311808Y0209959D02*
X0311808Y0207813D01*
X0311808Y0209959D02*
X0311984Y0209959D01*
X0311984Y0207813D01*
X0311808Y0207813D01*
X0311808Y0208816D02*
X0311984Y0208816D01*
X0311984Y0209819D02*
X0311808Y0209819D01*
X0309840Y0209959D02*
X0309840Y0207813D01*
X0309840Y0209959D02*
X0310016Y0209959D01*
X0310016Y0207813D01*
X0309840Y0207813D01*
X0309840Y0208816D02*
X0310016Y0208816D01*
X0310016Y0209819D02*
X0309840Y0209819D01*
X0307954Y0209959D02*
X0307954Y0207813D01*
X0307954Y0209959D02*
X0308130Y0209959D01*
X0308130Y0207813D01*
X0307954Y0207813D01*
X0307954Y0208816D02*
X0308130Y0208816D01*
X0308130Y0209819D02*
X0307954Y0209819D01*
X0305986Y0209959D02*
X0305986Y0207813D01*
X0305986Y0209959D02*
X0306162Y0209959D01*
X0306162Y0207813D01*
X0305986Y0207813D01*
X0305986Y0208816D02*
X0306162Y0208816D01*
X0306162Y0209819D02*
X0305986Y0209819D01*
X0303687Y0205514D02*
X0301541Y0205514D01*
X0303687Y0205514D02*
X0303687Y0205338D01*
X0301541Y0205338D01*
X0301541Y0205514D01*
X0301541Y0203546D02*
X0303687Y0203546D01*
X0303687Y0203370D01*
X0301541Y0203370D01*
X0301541Y0203546D01*
X0301541Y0201660D02*
X0303687Y0201660D01*
X0303687Y0201484D01*
X0301541Y0201484D01*
X0301541Y0201660D01*
X0301541Y0199692D02*
X0303687Y0199692D01*
X0303687Y0199516D01*
X0301541Y0199516D01*
X0301541Y0199692D01*
X0301541Y0197807D02*
X0303687Y0197807D01*
X0303687Y0197631D01*
X0301541Y0197631D01*
X0301541Y0197807D01*
X0301541Y0195838D02*
X0303687Y0195838D01*
X0303687Y0195662D01*
X0301541Y0195662D01*
X0301541Y0195838D01*
X0301541Y0193693D02*
X0303687Y0193693D01*
X0301541Y0193693D02*
X0301541Y0193869D01*
X0303687Y0193869D01*
X0303687Y0193693D01*
X0303687Y0191808D02*
X0301541Y0191808D01*
X0301541Y0191984D01*
X0303687Y0191984D01*
X0303687Y0191808D01*
X0303687Y0189840D02*
X0301541Y0189840D01*
X0301541Y0190016D01*
X0303687Y0190016D01*
X0303687Y0189840D01*
X0303687Y0187954D02*
X0301541Y0187954D01*
X0301541Y0188130D01*
X0303687Y0188130D01*
X0303687Y0187954D01*
X0303687Y0185986D02*
X0301541Y0185986D01*
X0301541Y0186162D01*
X0303687Y0186162D01*
X0303687Y0185986D01*
X0305986Y0293541D02*
X0305986Y0295687D01*
X0306162Y0295687D01*
X0306162Y0293541D01*
X0305986Y0293541D01*
X0305986Y0294544D02*
X0306162Y0294544D01*
X0306162Y0295547D02*
X0305986Y0295547D01*
X0307954Y0295687D02*
X0307954Y0293541D01*
X0307954Y0295687D02*
X0308130Y0295687D01*
X0308130Y0293541D01*
X0307954Y0293541D01*
X0307954Y0294544D02*
X0308130Y0294544D01*
X0308130Y0295547D02*
X0307954Y0295547D01*
X0309840Y0295687D02*
X0309840Y0293541D01*
X0309840Y0295687D02*
X0310016Y0295687D01*
X0310016Y0293541D01*
X0309840Y0293541D01*
X0309840Y0294544D02*
X0310016Y0294544D01*
X0310016Y0295547D02*
X0309840Y0295547D01*
X0311808Y0295687D02*
X0311808Y0293541D01*
X0311808Y0295687D02*
X0311984Y0295687D01*
X0311984Y0293541D01*
X0311808Y0293541D01*
X0311808Y0294544D02*
X0311984Y0294544D01*
X0311984Y0295547D02*
X0311808Y0295547D01*
X0313693Y0295687D02*
X0313693Y0293541D01*
X0313693Y0295687D02*
X0313869Y0295687D01*
X0313869Y0293541D01*
X0313693Y0293541D01*
X0313693Y0294544D02*
X0313869Y0294544D01*
X0313869Y0295547D02*
X0313693Y0295547D01*
X0315662Y0295687D02*
X0315662Y0293541D01*
X0315662Y0295687D02*
X0315838Y0295687D01*
X0315838Y0293541D01*
X0315662Y0293541D01*
X0315662Y0294544D02*
X0315838Y0294544D01*
X0315838Y0295547D02*
X0315662Y0295547D01*
X0317807Y0295687D02*
X0317807Y0293541D01*
X0317631Y0293541D01*
X0317631Y0295687D01*
X0317807Y0295687D01*
X0317807Y0294544D02*
X0317631Y0294544D01*
X0317631Y0295547D02*
X0317807Y0295547D01*
X0319692Y0295687D02*
X0319692Y0293541D01*
X0319516Y0293541D01*
X0319516Y0295687D01*
X0319692Y0295687D01*
X0319692Y0294544D02*
X0319516Y0294544D01*
X0319516Y0295547D02*
X0319692Y0295547D01*
X0321660Y0295687D02*
X0321660Y0293541D01*
X0321484Y0293541D01*
X0321484Y0295687D01*
X0321660Y0295687D01*
X0321660Y0294544D02*
X0321484Y0294544D01*
X0321484Y0295547D02*
X0321660Y0295547D01*
X0323546Y0295687D02*
X0323546Y0293541D01*
X0323370Y0293541D01*
X0323370Y0295687D01*
X0323546Y0295687D01*
X0323546Y0294544D02*
X0323370Y0294544D01*
X0323370Y0295547D02*
X0323546Y0295547D01*
X0325514Y0295687D02*
X0325514Y0293541D01*
X0325338Y0293541D01*
X0325338Y0295687D01*
X0325514Y0295687D01*
X0325514Y0294544D02*
X0325338Y0294544D01*
X0325338Y0295547D02*
X0325514Y0295547D01*
X0327813Y0297986D02*
X0329959Y0297986D01*
X0327813Y0297986D02*
X0327813Y0298162D01*
X0329959Y0298162D01*
X0329959Y0297986D01*
X0329959Y0299954D02*
X0327813Y0299954D01*
X0327813Y0300130D01*
X0329959Y0300130D01*
X0329959Y0299954D01*
X0329959Y0301840D02*
X0327813Y0301840D01*
X0327813Y0302016D01*
X0329959Y0302016D01*
X0329959Y0301840D01*
X0329959Y0303808D02*
X0327813Y0303808D01*
X0327813Y0303984D01*
X0329959Y0303984D01*
X0329959Y0303808D01*
X0329959Y0305693D02*
X0327813Y0305693D01*
X0327813Y0305869D01*
X0329959Y0305869D01*
X0329959Y0305693D01*
X0329959Y0307662D02*
X0327813Y0307662D01*
X0327813Y0307838D01*
X0329959Y0307838D01*
X0329959Y0307662D01*
X0329959Y0309807D02*
X0327813Y0309807D01*
X0329959Y0309807D02*
X0329959Y0309631D01*
X0327813Y0309631D01*
X0327813Y0309807D01*
X0327813Y0311692D02*
X0329959Y0311692D01*
X0329959Y0311516D01*
X0327813Y0311516D01*
X0327813Y0311692D01*
X0327813Y0313660D02*
X0329959Y0313660D01*
X0329959Y0313484D01*
X0327813Y0313484D01*
X0327813Y0313660D01*
X0327813Y0315546D02*
X0329959Y0315546D01*
X0329959Y0315370D01*
X0327813Y0315370D01*
X0327813Y0315546D01*
X0327813Y0317514D02*
X0329959Y0317514D01*
X0329959Y0317338D01*
X0327813Y0317338D01*
X0327813Y0317514D01*
X0325514Y0319813D02*
X0325514Y0321959D01*
X0325514Y0319813D02*
X0325338Y0319813D01*
X0325338Y0321959D01*
X0325514Y0321959D01*
X0325514Y0320816D02*
X0325338Y0320816D01*
X0325338Y0321819D02*
X0325514Y0321819D01*
X0323546Y0321959D02*
X0323546Y0319813D01*
X0323370Y0319813D01*
X0323370Y0321959D01*
X0323546Y0321959D01*
X0323546Y0320816D02*
X0323370Y0320816D01*
X0323370Y0321819D02*
X0323546Y0321819D01*
X0321660Y0321959D02*
X0321660Y0319813D01*
X0321484Y0319813D01*
X0321484Y0321959D01*
X0321660Y0321959D01*
X0321660Y0320816D02*
X0321484Y0320816D01*
X0321484Y0321819D02*
X0321660Y0321819D01*
X0319692Y0321959D02*
X0319692Y0319813D01*
X0319516Y0319813D01*
X0319516Y0321959D01*
X0319692Y0321959D01*
X0319692Y0320816D02*
X0319516Y0320816D01*
X0319516Y0321819D02*
X0319692Y0321819D01*
X0317807Y0321959D02*
X0317807Y0319813D01*
X0317631Y0319813D01*
X0317631Y0321959D01*
X0317807Y0321959D01*
X0317807Y0320816D02*
X0317631Y0320816D01*
X0317631Y0321819D02*
X0317807Y0321819D01*
X0315838Y0321959D02*
X0315838Y0319813D01*
X0315662Y0319813D01*
X0315662Y0321959D01*
X0315838Y0321959D01*
X0315838Y0320816D02*
X0315662Y0320816D01*
X0315662Y0321819D02*
X0315838Y0321819D01*
X0313693Y0321959D02*
X0313693Y0319813D01*
X0313693Y0321959D02*
X0313869Y0321959D01*
X0313869Y0319813D01*
X0313693Y0319813D01*
X0313693Y0320816D02*
X0313869Y0320816D01*
X0313869Y0321819D02*
X0313693Y0321819D01*
X0311808Y0321959D02*
X0311808Y0319813D01*
X0311808Y0321959D02*
X0311984Y0321959D01*
X0311984Y0319813D01*
X0311808Y0319813D01*
X0311808Y0320816D02*
X0311984Y0320816D01*
X0311984Y0321819D02*
X0311808Y0321819D01*
X0309840Y0321959D02*
X0309840Y0319813D01*
X0309840Y0321959D02*
X0310016Y0321959D01*
X0310016Y0319813D01*
X0309840Y0319813D01*
X0309840Y0320816D02*
X0310016Y0320816D01*
X0310016Y0321819D02*
X0309840Y0321819D01*
X0307954Y0321959D02*
X0307954Y0319813D01*
X0307954Y0321959D02*
X0308130Y0321959D01*
X0308130Y0319813D01*
X0307954Y0319813D01*
X0307954Y0320816D02*
X0308130Y0320816D01*
X0308130Y0321819D02*
X0307954Y0321819D01*
X0305986Y0321959D02*
X0305986Y0319813D01*
X0305986Y0321959D02*
X0306162Y0321959D01*
X0306162Y0319813D01*
X0305986Y0319813D01*
X0305986Y0320816D02*
X0306162Y0320816D01*
X0306162Y0321819D02*
X0305986Y0321819D01*
X0303687Y0317514D02*
X0301541Y0317514D01*
X0303687Y0317514D02*
X0303687Y0317338D01*
X0301541Y0317338D01*
X0301541Y0317514D01*
X0301541Y0315546D02*
X0303687Y0315546D01*
X0303687Y0315370D01*
X0301541Y0315370D01*
X0301541Y0315546D01*
X0301541Y0313660D02*
X0303687Y0313660D01*
X0303687Y0313484D01*
X0301541Y0313484D01*
X0301541Y0313660D01*
X0301541Y0311692D02*
X0303687Y0311692D01*
X0303687Y0311516D01*
X0301541Y0311516D01*
X0301541Y0311692D01*
X0301541Y0309807D02*
X0303687Y0309807D01*
X0303687Y0309631D01*
X0301541Y0309631D01*
X0301541Y0309807D01*
X0301541Y0307838D02*
X0303687Y0307838D01*
X0303687Y0307662D01*
X0301541Y0307662D01*
X0301541Y0307838D01*
X0301541Y0305693D02*
X0303687Y0305693D01*
X0301541Y0305693D02*
X0301541Y0305869D01*
X0303687Y0305869D01*
X0303687Y0305693D01*
X0303687Y0303808D02*
X0301541Y0303808D01*
X0301541Y0303984D01*
X0303687Y0303984D01*
X0303687Y0303808D01*
X0303687Y0301840D02*
X0301541Y0301840D01*
X0301541Y0302016D01*
X0303687Y0302016D01*
X0303687Y0301840D01*
X0303687Y0299954D02*
X0301541Y0299954D01*
X0301541Y0300130D01*
X0303687Y0300130D01*
X0303687Y0299954D01*
X0303687Y0297986D02*
X0301541Y0297986D01*
X0301541Y0298162D01*
X0303687Y0298162D01*
X0303687Y0297986D01*
X0167959Y0297986D02*
X0165813Y0297986D01*
X0165813Y0298162D01*
X0167959Y0298162D01*
X0167959Y0297986D01*
X0167959Y0299954D02*
X0165813Y0299954D01*
X0165813Y0300130D01*
X0167959Y0300130D01*
X0167959Y0299954D01*
X0167959Y0301840D02*
X0165813Y0301840D01*
X0165813Y0302016D01*
X0167959Y0302016D01*
X0167959Y0301840D01*
X0167959Y0303808D02*
X0165813Y0303808D01*
X0165813Y0303984D01*
X0167959Y0303984D01*
X0167959Y0303808D01*
X0167959Y0305693D02*
X0165813Y0305693D01*
X0165813Y0305869D01*
X0167959Y0305869D01*
X0167959Y0305693D01*
X0167959Y0307662D02*
X0165813Y0307662D01*
X0165813Y0307838D01*
X0167959Y0307838D01*
X0167959Y0307662D01*
X0167959Y0309807D02*
X0165813Y0309807D01*
X0167959Y0309807D02*
X0167959Y0309631D01*
X0165813Y0309631D01*
X0165813Y0309807D01*
X0165813Y0311692D02*
X0167959Y0311692D01*
X0167959Y0311516D01*
X0165813Y0311516D01*
X0165813Y0311692D01*
X0165813Y0313660D02*
X0167959Y0313660D01*
X0167959Y0313484D01*
X0165813Y0313484D01*
X0165813Y0313660D01*
X0165813Y0315546D02*
X0167959Y0315546D01*
X0167959Y0315370D01*
X0165813Y0315370D01*
X0165813Y0315546D01*
X0165813Y0317514D02*
X0167959Y0317514D01*
X0167959Y0317338D01*
X0165813Y0317338D01*
X0165813Y0317514D01*
X0163514Y0319813D02*
X0163514Y0321959D01*
X0163514Y0319813D02*
X0163338Y0319813D01*
X0163338Y0321959D01*
X0163514Y0321959D01*
X0163514Y0320816D02*
X0163338Y0320816D01*
X0163338Y0321819D02*
X0163514Y0321819D01*
X0161546Y0321959D02*
X0161546Y0319813D01*
X0161370Y0319813D01*
X0161370Y0321959D01*
X0161546Y0321959D01*
X0161546Y0320816D02*
X0161370Y0320816D01*
X0161370Y0321819D02*
X0161546Y0321819D01*
X0159660Y0321959D02*
X0159660Y0319813D01*
X0159484Y0319813D01*
X0159484Y0321959D01*
X0159660Y0321959D01*
X0159660Y0320816D02*
X0159484Y0320816D01*
X0159484Y0321819D02*
X0159660Y0321819D01*
X0157692Y0321959D02*
X0157692Y0319813D01*
X0157516Y0319813D01*
X0157516Y0321959D01*
X0157692Y0321959D01*
X0157692Y0320816D02*
X0157516Y0320816D01*
X0157516Y0321819D02*
X0157692Y0321819D01*
X0155807Y0321959D02*
X0155807Y0319813D01*
X0155631Y0319813D01*
X0155631Y0321959D01*
X0155807Y0321959D01*
X0155807Y0320816D02*
X0155631Y0320816D01*
X0155631Y0321819D02*
X0155807Y0321819D01*
X0153838Y0321959D02*
X0153838Y0319813D01*
X0153662Y0319813D01*
X0153662Y0321959D01*
X0153838Y0321959D01*
X0153838Y0320816D02*
X0153662Y0320816D01*
X0153662Y0321819D02*
X0153838Y0321819D01*
X0151693Y0321959D02*
X0151693Y0319813D01*
X0151693Y0321959D02*
X0151869Y0321959D01*
X0151869Y0319813D01*
X0151693Y0319813D01*
X0151693Y0320816D02*
X0151869Y0320816D01*
X0151869Y0321819D02*
X0151693Y0321819D01*
X0149808Y0321959D02*
X0149808Y0319813D01*
X0149808Y0321959D02*
X0149984Y0321959D01*
X0149984Y0319813D01*
X0149808Y0319813D01*
X0149808Y0320816D02*
X0149984Y0320816D01*
X0149984Y0321819D02*
X0149808Y0321819D01*
X0147840Y0321959D02*
X0147840Y0319813D01*
X0147840Y0321959D02*
X0148016Y0321959D01*
X0148016Y0319813D01*
X0147840Y0319813D01*
X0147840Y0320816D02*
X0148016Y0320816D01*
X0148016Y0321819D02*
X0147840Y0321819D01*
X0145954Y0321959D02*
X0145954Y0319813D01*
X0145954Y0321959D02*
X0146130Y0321959D01*
X0146130Y0319813D01*
X0145954Y0319813D01*
X0145954Y0320816D02*
X0146130Y0320816D01*
X0146130Y0321819D02*
X0145954Y0321819D01*
X0143986Y0321959D02*
X0143986Y0319813D01*
X0143986Y0321959D02*
X0144162Y0321959D01*
X0144162Y0319813D01*
X0143986Y0319813D01*
X0143986Y0320816D02*
X0144162Y0320816D01*
X0144162Y0321819D02*
X0143986Y0321819D01*
X0141687Y0317514D02*
X0139541Y0317514D01*
X0141687Y0317514D02*
X0141687Y0317338D01*
X0139541Y0317338D01*
X0139541Y0317514D01*
X0139541Y0315546D02*
X0141687Y0315546D01*
X0141687Y0315370D01*
X0139541Y0315370D01*
X0139541Y0315546D01*
X0139541Y0313660D02*
X0141687Y0313660D01*
X0141687Y0313484D01*
X0139541Y0313484D01*
X0139541Y0313660D01*
X0139541Y0311692D02*
X0141687Y0311692D01*
X0141687Y0311516D01*
X0139541Y0311516D01*
X0139541Y0311692D01*
X0139541Y0309807D02*
X0141687Y0309807D01*
X0141687Y0309631D01*
X0139541Y0309631D01*
X0139541Y0309807D01*
X0139541Y0307838D02*
X0141687Y0307838D01*
X0141687Y0307662D01*
X0139541Y0307662D01*
X0139541Y0307838D01*
X0139541Y0305693D02*
X0141687Y0305693D01*
X0139541Y0305693D02*
X0139541Y0305869D01*
X0141687Y0305869D01*
X0141687Y0305693D01*
X0141687Y0303808D02*
X0139541Y0303808D01*
X0139541Y0303984D01*
X0141687Y0303984D01*
X0141687Y0303808D01*
X0141687Y0301840D02*
X0139541Y0301840D01*
X0139541Y0302016D01*
X0141687Y0302016D01*
X0141687Y0301840D01*
X0141687Y0299954D02*
X0139541Y0299954D01*
X0139541Y0300130D01*
X0141687Y0300130D01*
X0141687Y0299954D01*
X0141687Y0297986D02*
X0139541Y0297986D01*
X0139541Y0298162D01*
X0141687Y0298162D01*
X0141687Y0297986D01*
X0143986Y0295687D02*
X0143986Y0293541D01*
X0143986Y0295687D02*
X0144162Y0295687D01*
X0144162Y0293541D01*
X0143986Y0293541D01*
X0143986Y0294544D02*
X0144162Y0294544D01*
X0144162Y0295547D02*
X0143986Y0295547D01*
X0145954Y0295687D02*
X0145954Y0293541D01*
X0145954Y0295687D02*
X0146130Y0295687D01*
X0146130Y0293541D01*
X0145954Y0293541D01*
X0145954Y0294544D02*
X0146130Y0294544D01*
X0146130Y0295547D02*
X0145954Y0295547D01*
X0147840Y0295687D02*
X0147840Y0293541D01*
X0147840Y0295687D02*
X0148016Y0295687D01*
X0148016Y0293541D01*
X0147840Y0293541D01*
X0147840Y0294544D02*
X0148016Y0294544D01*
X0148016Y0295547D02*
X0147840Y0295547D01*
X0149808Y0295687D02*
X0149808Y0293541D01*
X0149808Y0295687D02*
X0149984Y0295687D01*
X0149984Y0293541D01*
X0149808Y0293541D01*
X0149808Y0294544D02*
X0149984Y0294544D01*
X0149984Y0295547D02*
X0149808Y0295547D01*
X0151693Y0295687D02*
X0151693Y0293541D01*
X0151693Y0295687D02*
X0151869Y0295687D01*
X0151869Y0293541D01*
X0151693Y0293541D01*
X0151693Y0294544D02*
X0151869Y0294544D01*
X0151869Y0295547D02*
X0151693Y0295547D01*
X0153662Y0295687D02*
X0153662Y0293541D01*
X0153662Y0295687D02*
X0153838Y0295687D01*
X0153838Y0293541D01*
X0153662Y0293541D01*
X0153662Y0294544D02*
X0153838Y0294544D01*
X0153838Y0295547D02*
X0153662Y0295547D01*
X0155807Y0295687D02*
X0155807Y0293541D01*
X0155631Y0293541D01*
X0155631Y0295687D01*
X0155807Y0295687D01*
X0155807Y0294544D02*
X0155631Y0294544D01*
X0155631Y0295547D02*
X0155807Y0295547D01*
X0157692Y0295687D02*
X0157692Y0293541D01*
X0157516Y0293541D01*
X0157516Y0295687D01*
X0157692Y0295687D01*
X0157692Y0294544D02*
X0157516Y0294544D01*
X0157516Y0295547D02*
X0157692Y0295547D01*
X0159660Y0295687D02*
X0159660Y0293541D01*
X0159484Y0293541D01*
X0159484Y0295687D01*
X0159660Y0295687D01*
X0159660Y0294544D02*
X0159484Y0294544D01*
X0159484Y0295547D02*
X0159660Y0295547D01*
X0161546Y0295687D02*
X0161546Y0293541D01*
X0161370Y0293541D01*
X0161370Y0295687D01*
X0161546Y0295687D01*
X0161546Y0294544D02*
X0161370Y0294544D01*
X0161370Y0295547D02*
X0161546Y0295547D01*
X0163514Y0295687D02*
X0163514Y0293541D01*
X0163338Y0293541D01*
X0163338Y0295687D01*
X0163514Y0295687D01*
X0163514Y0294544D02*
X0163338Y0294544D01*
X0163338Y0295547D02*
X0163514Y0295547D01*
X0163514Y0209959D02*
X0163514Y0207813D01*
X0163338Y0207813D01*
X0163338Y0209959D01*
X0163514Y0209959D01*
X0163514Y0208816D02*
X0163338Y0208816D01*
X0163338Y0209819D02*
X0163514Y0209819D01*
X0161546Y0209959D02*
X0161546Y0207813D01*
X0161370Y0207813D01*
X0161370Y0209959D01*
X0161546Y0209959D01*
X0161546Y0208816D02*
X0161370Y0208816D01*
X0161370Y0209819D02*
X0161546Y0209819D01*
X0159660Y0209959D02*
X0159660Y0207813D01*
X0159484Y0207813D01*
X0159484Y0209959D01*
X0159660Y0209959D01*
X0159660Y0208816D02*
X0159484Y0208816D01*
X0159484Y0209819D02*
X0159660Y0209819D01*
X0157692Y0209959D02*
X0157692Y0207813D01*
X0157516Y0207813D01*
X0157516Y0209959D01*
X0157692Y0209959D01*
X0157692Y0208816D02*
X0157516Y0208816D01*
X0157516Y0209819D02*
X0157692Y0209819D01*
X0155807Y0209959D02*
X0155807Y0207813D01*
X0155631Y0207813D01*
X0155631Y0209959D01*
X0155807Y0209959D01*
X0155807Y0208816D02*
X0155631Y0208816D01*
X0155631Y0209819D02*
X0155807Y0209819D01*
X0153838Y0209959D02*
X0153838Y0207813D01*
X0153662Y0207813D01*
X0153662Y0209959D01*
X0153838Y0209959D01*
X0153838Y0208816D02*
X0153662Y0208816D01*
X0153662Y0209819D02*
X0153838Y0209819D01*
X0151693Y0209959D02*
X0151693Y0207813D01*
X0151693Y0209959D02*
X0151869Y0209959D01*
X0151869Y0207813D01*
X0151693Y0207813D01*
X0151693Y0208816D02*
X0151869Y0208816D01*
X0151869Y0209819D02*
X0151693Y0209819D01*
X0149808Y0209959D02*
X0149808Y0207813D01*
X0149808Y0209959D02*
X0149984Y0209959D01*
X0149984Y0207813D01*
X0149808Y0207813D01*
X0149808Y0208816D02*
X0149984Y0208816D01*
X0149984Y0209819D02*
X0149808Y0209819D01*
X0147840Y0209959D02*
X0147840Y0207813D01*
X0147840Y0209959D02*
X0148016Y0209959D01*
X0148016Y0207813D01*
X0147840Y0207813D01*
X0147840Y0208816D02*
X0148016Y0208816D01*
X0148016Y0209819D02*
X0147840Y0209819D01*
X0145954Y0209959D02*
X0145954Y0207813D01*
X0145954Y0209959D02*
X0146130Y0209959D01*
X0146130Y0207813D01*
X0145954Y0207813D01*
X0145954Y0208816D02*
X0146130Y0208816D01*
X0146130Y0209819D02*
X0145954Y0209819D01*
X0143986Y0209959D02*
X0143986Y0207813D01*
X0143986Y0209959D02*
X0144162Y0209959D01*
X0144162Y0207813D01*
X0143986Y0207813D01*
X0143986Y0208816D02*
X0144162Y0208816D01*
X0144162Y0209819D02*
X0143986Y0209819D01*
X0141687Y0205514D02*
X0139541Y0205514D01*
X0141687Y0205514D02*
X0141687Y0205338D01*
X0139541Y0205338D01*
X0139541Y0205514D01*
X0139541Y0203546D02*
X0141687Y0203546D01*
X0141687Y0203370D01*
X0139541Y0203370D01*
X0139541Y0203546D01*
X0139541Y0201660D02*
X0141687Y0201660D01*
X0141687Y0201484D01*
X0139541Y0201484D01*
X0139541Y0201660D01*
X0139541Y0199692D02*
X0141687Y0199692D01*
X0141687Y0199516D01*
X0139541Y0199516D01*
X0139541Y0199692D01*
X0139541Y0197807D02*
X0141687Y0197807D01*
X0141687Y0197631D01*
X0139541Y0197631D01*
X0139541Y0197807D01*
X0139541Y0195838D02*
X0141687Y0195838D01*
X0141687Y0195662D01*
X0139541Y0195662D01*
X0139541Y0195838D01*
X0139541Y0193693D02*
X0141687Y0193693D01*
X0139541Y0193693D02*
X0139541Y0193869D01*
X0141687Y0193869D01*
X0141687Y0193693D01*
X0141687Y0191808D02*
X0139541Y0191808D01*
X0139541Y0191984D01*
X0141687Y0191984D01*
X0141687Y0191808D01*
X0141687Y0189840D02*
X0139541Y0189840D01*
X0139541Y0190016D01*
X0141687Y0190016D01*
X0141687Y0189840D01*
X0141687Y0187954D02*
X0139541Y0187954D01*
X0139541Y0188130D01*
X0141687Y0188130D01*
X0141687Y0187954D01*
X0141687Y0185986D02*
X0139541Y0185986D01*
X0139541Y0186162D01*
X0141687Y0186162D01*
X0141687Y0185986D01*
X0143986Y0183687D02*
X0143986Y0181541D01*
X0143986Y0183687D02*
X0144162Y0183687D01*
X0144162Y0181541D01*
X0143986Y0181541D01*
X0143986Y0182544D02*
X0144162Y0182544D01*
X0144162Y0183547D02*
X0143986Y0183547D01*
X0145954Y0183687D02*
X0145954Y0181541D01*
X0145954Y0183687D02*
X0146130Y0183687D01*
X0146130Y0181541D01*
X0145954Y0181541D01*
X0145954Y0182544D02*
X0146130Y0182544D01*
X0146130Y0183547D02*
X0145954Y0183547D01*
X0147840Y0183687D02*
X0147840Y0181541D01*
X0147840Y0183687D02*
X0148016Y0183687D01*
X0148016Y0181541D01*
X0147840Y0181541D01*
X0147840Y0182544D02*
X0148016Y0182544D01*
X0148016Y0183547D02*
X0147840Y0183547D01*
X0149808Y0183687D02*
X0149808Y0181541D01*
X0149808Y0183687D02*
X0149984Y0183687D01*
X0149984Y0181541D01*
X0149808Y0181541D01*
X0149808Y0182544D02*
X0149984Y0182544D01*
X0149984Y0183547D02*
X0149808Y0183547D01*
X0151693Y0183687D02*
X0151693Y0181541D01*
X0151693Y0183687D02*
X0151869Y0183687D01*
X0151869Y0181541D01*
X0151693Y0181541D01*
X0151693Y0182544D02*
X0151869Y0182544D01*
X0151869Y0183547D02*
X0151693Y0183547D01*
X0153662Y0183687D02*
X0153662Y0181541D01*
X0153662Y0183687D02*
X0153838Y0183687D01*
X0153838Y0181541D01*
X0153662Y0181541D01*
X0153662Y0182544D02*
X0153838Y0182544D01*
X0153838Y0183547D02*
X0153662Y0183547D01*
X0155807Y0183687D02*
X0155807Y0181541D01*
X0155631Y0181541D01*
X0155631Y0183687D01*
X0155807Y0183687D01*
X0155807Y0182544D02*
X0155631Y0182544D01*
X0155631Y0183547D02*
X0155807Y0183547D01*
X0157692Y0183687D02*
X0157692Y0181541D01*
X0157516Y0181541D01*
X0157516Y0183687D01*
X0157692Y0183687D01*
X0157692Y0182544D02*
X0157516Y0182544D01*
X0157516Y0183547D02*
X0157692Y0183547D01*
X0159660Y0183687D02*
X0159660Y0181541D01*
X0159484Y0181541D01*
X0159484Y0183687D01*
X0159660Y0183687D01*
X0159660Y0182544D02*
X0159484Y0182544D01*
X0159484Y0183547D02*
X0159660Y0183547D01*
X0161546Y0183687D02*
X0161546Y0181541D01*
X0161370Y0181541D01*
X0161370Y0183687D01*
X0161546Y0183687D01*
X0161546Y0182544D02*
X0161370Y0182544D01*
X0161370Y0183547D02*
X0161546Y0183547D01*
X0163514Y0183687D02*
X0163514Y0181541D01*
X0163338Y0181541D01*
X0163338Y0183687D01*
X0163514Y0183687D01*
X0163514Y0182544D02*
X0163338Y0182544D01*
X0163338Y0183547D02*
X0163514Y0183547D01*
X0165813Y0185986D02*
X0167959Y0185986D01*
X0165813Y0185986D02*
X0165813Y0186162D01*
X0167959Y0186162D01*
X0167959Y0185986D01*
X0167959Y0187954D02*
X0165813Y0187954D01*
X0165813Y0188130D01*
X0167959Y0188130D01*
X0167959Y0187954D01*
X0167959Y0189840D02*
X0165813Y0189840D01*
X0165813Y0190016D01*
X0167959Y0190016D01*
X0167959Y0189840D01*
X0167959Y0191808D02*
X0165813Y0191808D01*
X0165813Y0191984D01*
X0167959Y0191984D01*
X0167959Y0191808D01*
X0167959Y0193693D02*
X0165813Y0193693D01*
X0165813Y0193869D01*
X0167959Y0193869D01*
X0167959Y0193693D01*
X0167959Y0195662D02*
X0165813Y0195662D01*
X0165813Y0195838D01*
X0167959Y0195838D01*
X0167959Y0195662D01*
X0167959Y0197807D02*
X0165813Y0197807D01*
X0167959Y0197807D02*
X0167959Y0197631D01*
X0165813Y0197631D01*
X0165813Y0197807D01*
X0165813Y0199692D02*
X0167959Y0199692D01*
X0167959Y0199516D01*
X0165813Y0199516D01*
X0165813Y0199692D01*
X0165813Y0201660D02*
X0167959Y0201660D01*
X0167959Y0201484D01*
X0165813Y0201484D01*
X0165813Y0201660D01*
X0165813Y0203546D02*
X0167959Y0203546D01*
X0167959Y0203370D01*
X0165813Y0203370D01*
X0165813Y0203546D01*
X0165813Y0205514D02*
X0167959Y0205514D01*
X0167959Y0205338D01*
X0165813Y0205338D01*
X0165813Y0205514D01*
X0163514Y0097959D02*
X0163514Y0095813D01*
X0163338Y0095813D01*
X0163338Y0097959D01*
X0163514Y0097959D01*
X0163514Y0096816D02*
X0163338Y0096816D01*
X0163338Y0097819D02*
X0163514Y0097819D01*
X0161546Y0097959D02*
X0161546Y0095813D01*
X0161370Y0095813D01*
X0161370Y0097959D01*
X0161546Y0097959D01*
X0161546Y0096816D02*
X0161370Y0096816D01*
X0161370Y0097819D02*
X0161546Y0097819D01*
X0159660Y0097959D02*
X0159660Y0095813D01*
X0159484Y0095813D01*
X0159484Y0097959D01*
X0159660Y0097959D01*
X0159660Y0096816D02*
X0159484Y0096816D01*
X0159484Y0097819D02*
X0159660Y0097819D01*
X0157692Y0097959D02*
X0157692Y0095813D01*
X0157516Y0095813D01*
X0157516Y0097959D01*
X0157692Y0097959D01*
X0157692Y0096816D02*
X0157516Y0096816D01*
X0157516Y0097819D02*
X0157692Y0097819D01*
X0155807Y0097959D02*
X0155807Y0095813D01*
X0155631Y0095813D01*
X0155631Y0097959D01*
X0155807Y0097959D01*
X0155807Y0096816D02*
X0155631Y0096816D01*
X0155631Y0097819D02*
X0155807Y0097819D01*
X0153838Y0097959D02*
X0153838Y0095813D01*
X0153662Y0095813D01*
X0153662Y0097959D01*
X0153838Y0097959D01*
X0153838Y0096816D02*
X0153662Y0096816D01*
X0153662Y0097819D02*
X0153838Y0097819D01*
X0151693Y0097959D02*
X0151693Y0095813D01*
X0151693Y0097959D02*
X0151869Y0097959D01*
X0151869Y0095813D01*
X0151693Y0095813D01*
X0151693Y0096816D02*
X0151869Y0096816D01*
X0151869Y0097819D02*
X0151693Y0097819D01*
X0149808Y0097959D02*
X0149808Y0095813D01*
X0149808Y0097959D02*
X0149984Y0097959D01*
X0149984Y0095813D01*
X0149808Y0095813D01*
X0149808Y0096816D02*
X0149984Y0096816D01*
X0149984Y0097819D02*
X0149808Y0097819D01*
X0147840Y0097959D02*
X0147840Y0095813D01*
X0147840Y0097959D02*
X0148016Y0097959D01*
X0148016Y0095813D01*
X0147840Y0095813D01*
X0147840Y0096816D02*
X0148016Y0096816D01*
X0148016Y0097819D02*
X0147840Y0097819D01*
X0145954Y0097959D02*
X0145954Y0095813D01*
X0145954Y0097959D02*
X0146130Y0097959D01*
X0146130Y0095813D01*
X0145954Y0095813D01*
X0145954Y0096816D02*
X0146130Y0096816D01*
X0146130Y0097819D02*
X0145954Y0097819D01*
X0143986Y0097959D02*
X0143986Y0095813D01*
X0143986Y0097959D02*
X0144162Y0097959D01*
X0144162Y0095813D01*
X0143986Y0095813D01*
X0143986Y0096816D02*
X0144162Y0096816D01*
X0144162Y0097819D02*
X0143986Y0097819D01*
X0141687Y0093514D02*
X0139541Y0093514D01*
X0141687Y0093514D02*
X0141687Y0093338D01*
X0139541Y0093338D01*
X0139541Y0093514D01*
X0139541Y0091546D02*
X0141687Y0091546D01*
X0141687Y0091370D01*
X0139541Y0091370D01*
X0139541Y0091546D01*
X0139541Y0089660D02*
X0141687Y0089660D01*
X0141687Y0089484D01*
X0139541Y0089484D01*
X0139541Y0089660D01*
X0139541Y0087692D02*
X0141687Y0087692D01*
X0141687Y0087516D01*
X0139541Y0087516D01*
X0139541Y0087692D01*
X0139541Y0085807D02*
X0141687Y0085807D01*
X0141687Y0085631D01*
X0139541Y0085631D01*
X0139541Y0085807D01*
X0139541Y0083838D02*
X0141687Y0083838D01*
X0141687Y0083662D01*
X0139541Y0083662D01*
X0139541Y0083838D01*
X0139541Y0081693D02*
X0141687Y0081693D01*
X0139541Y0081693D02*
X0139541Y0081869D01*
X0141687Y0081869D01*
X0141687Y0081693D01*
X0141687Y0079808D02*
X0139541Y0079808D01*
X0139541Y0079984D01*
X0141687Y0079984D01*
X0141687Y0079808D01*
X0141687Y0077840D02*
X0139541Y0077840D01*
X0139541Y0078016D01*
X0141687Y0078016D01*
X0141687Y0077840D01*
X0141687Y0075954D02*
X0139541Y0075954D01*
X0139541Y0076130D01*
X0141687Y0076130D01*
X0141687Y0075954D01*
X0141687Y0073986D02*
X0139541Y0073986D01*
X0139541Y0074162D01*
X0141687Y0074162D01*
X0141687Y0073986D01*
X0143986Y0071687D02*
X0143986Y0069541D01*
X0143986Y0071687D02*
X0144162Y0071687D01*
X0144162Y0069541D01*
X0143986Y0069541D01*
X0143986Y0070544D02*
X0144162Y0070544D01*
X0144162Y0071547D02*
X0143986Y0071547D01*
X0145954Y0071687D02*
X0145954Y0069541D01*
X0145954Y0071687D02*
X0146130Y0071687D01*
X0146130Y0069541D01*
X0145954Y0069541D01*
X0145954Y0070544D02*
X0146130Y0070544D01*
X0146130Y0071547D02*
X0145954Y0071547D01*
X0147840Y0071687D02*
X0147840Y0069541D01*
X0147840Y0071687D02*
X0148016Y0071687D01*
X0148016Y0069541D01*
X0147840Y0069541D01*
X0147840Y0070544D02*
X0148016Y0070544D01*
X0148016Y0071547D02*
X0147840Y0071547D01*
X0149808Y0071687D02*
X0149808Y0069541D01*
X0149808Y0071687D02*
X0149984Y0071687D01*
X0149984Y0069541D01*
X0149808Y0069541D01*
X0149808Y0070544D02*
X0149984Y0070544D01*
X0149984Y0071547D02*
X0149808Y0071547D01*
X0151693Y0071687D02*
X0151693Y0069541D01*
X0151693Y0071687D02*
X0151869Y0071687D01*
X0151869Y0069541D01*
X0151693Y0069541D01*
X0151693Y0070544D02*
X0151869Y0070544D01*
X0151869Y0071547D02*
X0151693Y0071547D01*
X0153662Y0071687D02*
X0153662Y0069541D01*
X0153662Y0071687D02*
X0153838Y0071687D01*
X0153838Y0069541D01*
X0153662Y0069541D01*
X0153662Y0070544D02*
X0153838Y0070544D01*
X0153838Y0071547D02*
X0153662Y0071547D01*
X0155807Y0071687D02*
X0155807Y0069541D01*
X0155631Y0069541D01*
X0155631Y0071687D01*
X0155807Y0071687D01*
X0155807Y0070544D02*
X0155631Y0070544D01*
X0155631Y0071547D02*
X0155807Y0071547D01*
X0157692Y0071687D02*
X0157692Y0069541D01*
X0157516Y0069541D01*
X0157516Y0071687D01*
X0157692Y0071687D01*
X0157692Y0070544D02*
X0157516Y0070544D01*
X0157516Y0071547D02*
X0157692Y0071547D01*
X0159660Y0071687D02*
X0159660Y0069541D01*
X0159484Y0069541D01*
X0159484Y0071687D01*
X0159660Y0071687D01*
X0159660Y0070544D02*
X0159484Y0070544D01*
X0159484Y0071547D02*
X0159660Y0071547D01*
X0161546Y0071687D02*
X0161546Y0069541D01*
X0161370Y0069541D01*
X0161370Y0071687D01*
X0161546Y0071687D01*
X0161546Y0070544D02*
X0161370Y0070544D01*
X0161370Y0071547D02*
X0161546Y0071547D01*
X0163514Y0071687D02*
X0163514Y0069541D01*
X0163338Y0069541D01*
X0163338Y0071687D01*
X0163514Y0071687D01*
X0163514Y0070544D02*
X0163338Y0070544D01*
X0163338Y0071547D02*
X0163514Y0071547D01*
X0165813Y0073986D02*
X0167959Y0073986D01*
X0165813Y0073986D02*
X0165813Y0074162D01*
X0167959Y0074162D01*
X0167959Y0073986D01*
X0167959Y0075954D02*
X0165813Y0075954D01*
X0165813Y0076130D01*
X0167959Y0076130D01*
X0167959Y0075954D01*
X0167959Y0077840D02*
X0165813Y0077840D01*
X0165813Y0078016D01*
X0167959Y0078016D01*
X0167959Y0077840D01*
X0167959Y0079808D02*
X0165813Y0079808D01*
X0165813Y0079984D01*
X0167959Y0079984D01*
X0167959Y0079808D01*
X0167959Y0081693D02*
X0165813Y0081693D01*
X0165813Y0081869D01*
X0167959Y0081869D01*
X0167959Y0081693D01*
X0167959Y0083662D02*
X0165813Y0083662D01*
X0165813Y0083838D01*
X0167959Y0083838D01*
X0167959Y0083662D01*
X0167959Y0085807D02*
X0165813Y0085807D01*
X0167959Y0085807D02*
X0167959Y0085631D01*
X0165813Y0085631D01*
X0165813Y0085807D01*
X0165813Y0087692D02*
X0167959Y0087692D01*
X0167959Y0087516D01*
X0165813Y0087516D01*
X0165813Y0087692D01*
X0165813Y0089660D02*
X0167959Y0089660D01*
X0167959Y0089484D01*
X0165813Y0089484D01*
X0165813Y0089660D01*
X0165813Y0091546D02*
X0167959Y0091546D01*
X0167959Y0091370D01*
X0165813Y0091370D01*
X0165813Y0091546D01*
X0165813Y0093514D02*
X0167959Y0093514D01*
X0167959Y0093338D01*
X0165813Y0093338D01*
X0165813Y0093514D01*
D27*
X0161033Y0062778D03*
X0161033Y0053722D03*
X0146467Y0053722D03*
X0146467Y0062778D03*
X0146467Y0165722D03*
X0146467Y0174778D03*
X0161033Y0174778D03*
X0161033Y0165722D03*
X0161033Y0277722D03*
X0161033Y0286778D03*
X0146467Y0286778D03*
X0146467Y0277722D03*
X0308467Y0277722D03*
X0308467Y0286778D03*
X0323033Y0286778D03*
X0323033Y0277722D03*
X0323033Y0174778D03*
X0323033Y0165722D03*
X0308467Y0165722D03*
X0308467Y0174778D03*
X0308467Y0062778D03*
X0308467Y0053722D03*
X0323033Y0053722D03*
X0323033Y0062778D03*
D28*
X0223427Y0128750D03*
X0208073Y0128750D03*
X0208073Y0240750D03*
X0223427Y0240750D03*
X0223427Y0352750D03*
X0208073Y0352750D03*
X0061427Y0352750D03*
X0046073Y0352750D03*
X0046073Y0240750D03*
X0061427Y0240750D03*
X0061427Y0128750D03*
X0046073Y0128750D03*
M02*
