G75*
%MOIN*%
%OFA0B0*%
%FSLAX25Y25*%
%IPPOS*%
%LPD*%
%AMOC8*
5,1,8,0,0,1.08239X$1,22.5*
%
%ADD10C,0.07493*%
%ADD11R,0.07099X0.06312*%
%ADD12R,0.05131X0.04737*%
%ADD13R,0.04737X0.05131*%
%ADD14C,0.01421*%
%ADD15R,0.07099X0.07887*%
%ADD16R,0.07690X0.02375*%
%ADD17R,0.06548X0.08674*%
%ADD18R,0.10643X0.06410*%
%ADD19C,0.00400*%
%ADD20R,0.03556X0.06706*%
%ADD21R,0.04737X0.03162*%
%ADD22R,0.04737X0.03950*%
%ADD23C,0.04343*%
%ADD24R,0.05524X0.02965*%
%ADD25R,0.08280X0.05131*%
%ADD26C,0.08200*%
%ADD27C,0.03556*%
%ADD28R,0.05131X0.08674*%
%ADD29R,0.18910X0.04737*%
%ADD30R,0.14186X0.07099*%
%ADD31R,0.08674X0.05524*%
%ADD32R,0.06115X0.03162*%
%ADD33C,0.04808*%
%ADD34R,0.03950X0.01981*%
%ADD35R,0.01981X0.03950*%
%ADD36C,0.04737*%
%ADD37C,0.05000*%
%ADD38C,0.06706*%
D10*
X0183750Y0133500D03*
X0183750Y0245500D03*
X0183750Y0357500D03*
X0350750Y0357500D03*
X0350750Y0245500D03*
X0350750Y0133500D03*
D11*
X0275750Y0099012D03*
X0275750Y0087988D03*
X0245750Y0087988D03*
X0245750Y0099012D03*
X0245750Y0199988D03*
X0245750Y0211012D03*
X0275750Y0211012D03*
X0275750Y0199988D03*
X0275750Y0311988D03*
X0275750Y0323012D03*
X0245750Y0323012D03*
X0245750Y0311988D03*
X0108750Y0311988D03*
X0108750Y0323012D03*
X0078750Y0323012D03*
X0078750Y0311988D03*
X0078750Y0211012D03*
X0078750Y0199988D03*
X0108750Y0199988D03*
X0108750Y0211012D03*
X0108750Y0099012D03*
X0108750Y0087988D03*
X0078750Y0087988D03*
X0078750Y0099012D03*
D12*
X0067096Y0103500D03*
X0067096Y0108500D03*
X0060404Y0108500D03*
X0060404Y0103500D03*
X0075404Y0111500D03*
X0082096Y0111500D03*
X0090404Y0083500D03*
X0090404Y0078500D03*
X0097096Y0078500D03*
X0097096Y0083500D03*
X0105404Y0078500D03*
X0112096Y0078500D03*
X0120404Y0083500D03*
X0127096Y0083500D03*
X0127096Y0093500D03*
X0127096Y0098500D03*
X0120404Y0098500D03*
X0120404Y0093500D03*
X0112096Y0068500D03*
X0105404Y0068500D03*
X0105404Y0058500D03*
X0112096Y0058500D03*
X0082096Y0080000D03*
X0075404Y0080000D03*
X0170404Y0098500D03*
X0177096Y0098500D03*
X0227404Y0103500D03*
X0227404Y0108500D03*
X0234096Y0108500D03*
X0234096Y0103500D03*
X0242404Y0111500D03*
X0249096Y0111500D03*
X0257404Y0083500D03*
X0257404Y0078500D03*
X0249096Y0080000D03*
X0242404Y0080000D03*
X0264096Y0078500D03*
X0264096Y0083500D03*
X0272404Y0078500D03*
X0279096Y0078500D03*
X0287404Y0083500D03*
X0294096Y0083500D03*
X0294096Y0093500D03*
X0287404Y0093500D03*
X0287404Y0098500D03*
X0294096Y0098500D03*
X0279096Y0068500D03*
X0272404Y0068500D03*
X0272404Y0058500D03*
X0279096Y0058500D03*
X0337404Y0098500D03*
X0344096Y0098500D03*
X0279096Y0170500D03*
X0272404Y0170500D03*
X0272404Y0180500D03*
X0279096Y0180500D03*
X0279096Y0190500D03*
X0272404Y0190500D03*
X0264096Y0190500D03*
X0264096Y0195500D03*
X0257404Y0195500D03*
X0249096Y0192000D03*
X0257404Y0190500D03*
X0242404Y0192000D03*
X0234096Y0215500D03*
X0234096Y0220500D03*
X0227404Y0220500D03*
X0227404Y0215500D03*
X0242404Y0223500D03*
X0249096Y0223500D03*
X0287404Y0210500D03*
X0287404Y0205500D03*
X0294096Y0205500D03*
X0294096Y0210500D03*
X0294096Y0195500D03*
X0287404Y0195500D03*
X0337404Y0210500D03*
X0344096Y0210500D03*
X0279096Y0282500D03*
X0272404Y0282500D03*
X0272404Y0292500D03*
X0279096Y0292500D03*
X0279096Y0302500D03*
X0272404Y0302500D03*
X0264096Y0302500D03*
X0264096Y0307500D03*
X0257404Y0307500D03*
X0257404Y0302500D03*
X0249096Y0304000D03*
X0242404Y0304000D03*
X0234096Y0327500D03*
X0227404Y0327500D03*
X0227404Y0332500D03*
X0234096Y0332500D03*
X0242404Y0335500D03*
X0249096Y0335500D03*
X0287404Y0322500D03*
X0287404Y0317500D03*
X0294096Y0317500D03*
X0294096Y0322500D03*
X0294096Y0307500D03*
X0287404Y0307500D03*
X0337404Y0322500D03*
X0344096Y0322500D03*
X0177096Y0322500D03*
X0170404Y0322500D03*
X0127096Y0322500D03*
X0127096Y0317500D03*
X0120404Y0317500D03*
X0120404Y0322500D03*
X0120404Y0307500D03*
X0127096Y0307500D03*
X0112096Y0302500D03*
X0105404Y0302500D03*
X0097096Y0302500D03*
X0097096Y0307500D03*
X0090404Y0307500D03*
X0090404Y0302500D03*
X0082096Y0304000D03*
X0075404Y0304000D03*
X0067096Y0327500D03*
X0067096Y0332500D03*
X0060404Y0332500D03*
X0060404Y0327500D03*
X0075404Y0335500D03*
X0082096Y0335500D03*
X0105404Y0292500D03*
X0112096Y0292500D03*
X0112096Y0282500D03*
X0105404Y0282500D03*
X0082096Y0223500D03*
X0075404Y0223500D03*
X0067096Y0220500D03*
X0067096Y0215500D03*
X0060404Y0215500D03*
X0060404Y0220500D03*
X0075404Y0192000D03*
X0082096Y0192000D03*
X0090404Y0190500D03*
X0097096Y0190500D03*
X0097096Y0195500D03*
X0090404Y0195500D03*
X0105404Y0190500D03*
X0112096Y0190500D03*
X0120404Y0195500D03*
X0127096Y0195500D03*
X0127096Y0205500D03*
X0127096Y0210500D03*
X0120404Y0210500D03*
X0120404Y0205500D03*
X0112096Y0180500D03*
X0105404Y0180500D03*
X0105404Y0170500D03*
X0112096Y0170500D03*
X0170404Y0210500D03*
X0177096Y0210500D03*
D13*
X0167250Y0198846D03*
X0167250Y0192154D03*
X0163750Y0173846D03*
X0163750Y0167154D03*
X0133750Y0167154D03*
X0133750Y0173846D03*
X0123750Y0173846D03*
X0123750Y0167154D03*
X0133750Y0217154D03*
X0133750Y0223846D03*
X0143750Y0223846D03*
X0143750Y0217154D03*
X0133750Y0279154D03*
X0133750Y0285846D03*
X0123750Y0285846D03*
X0123750Y0279154D03*
X0163750Y0279154D03*
X0163750Y0285846D03*
X0167250Y0304154D03*
X0167250Y0310846D03*
X0143750Y0329154D03*
X0143750Y0335846D03*
X0133750Y0335846D03*
X0133750Y0329154D03*
X0290750Y0285846D03*
X0290750Y0279154D03*
X0300750Y0279154D03*
X0300750Y0285846D03*
X0330750Y0285846D03*
X0330750Y0279154D03*
X0334250Y0304154D03*
X0334250Y0310846D03*
X0310750Y0329154D03*
X0310750Y0335846D03*
X0300750Y0335846D03*
X0300750Y0329154D03*
X0300750Y0223846D03*
X0300750Y0217154D03*
X0310750Y0217154D03*
X0310750Y0223846D03*
X0334250Y0198846D03*
X0334250Y0192154D03*
X0330750Y0173846D03*
X0330750Y0167154D03*
X0300750Y0167154D03*
X0300750Y0173846D03*
X0290750Y0173846D03*
X0290750Y0167154D03*
X0300750Y0111846D03*
X0300750Y0105154D03*
X0310750Y0105154D03*
X0310750Y0111846D03*
X0334250Y0086846D03*
X0334250Y0080154D03*
X0330750Y0061846D03*
X0330750Y0055154D03*
X0300750Y0055154D03*
X0300750Y0061846D03*
X0290750Y0061846D03*
X0290750Y0055154D03*
X0167250Y0080154D03*
X0167250Y0086846D03*
X0143750Y0105154D03*
X0143750Y0111846D03*
X0133750Y0111846D03*
X0133750Y0105154D03*
X0133750Y0061846D03*
X0133750Y0055154D03*
X0123750Y0055154D03*
X0123750Y0061846D03*
X0163750Y0061846D03*
X0163750Y0055154D03*
D14*
X0110545Y0055158D02*
X0110545Y0051842D01*
X0110545Y0055158D02*
X0113861Y0055158D01*
X0113861Y0051842D01*
X0110545Y0051842D01*
X0110545Y0053262D02*
X0113861Y0053262D01*
X0113861Y0054682D02*
X0110545Y0054682D01*
X0103639Y0055158D02*
X0103639Y0051842D01*
X0103639Y0055158D02*
X0106955Y0055158D01*
X0106955Y0051842D01*
X0103639Y0051842D01*
X0103639Y0053262D02*
X0106955Y0053262D01*
X0106955Y0054682D02*
X0103639Y0054682D01*
X0103639Y0061842D02*
X0103639Y0065158D01*
X0106955Y0065158D01*
X0106955Y0061842D01*
X0103639Y0061842D01*
X0103639Y0063262D02*
X0106955Y0063262D01*
X0106955Y0064682D02*
X0103639Y0064682D01*
X0110545Y0065158D02*
X0110545Y0061842D01*
X0110545Y0065158D02*
X0113861Y0065158D01*
X0113861Y0061842D01*
X0110545Y0061842D01*
X0110545Y0063262D02*
X0113861Y0063262D01*
X0113861Y0064682D02*
X0110545Y0064682D01*
X0110545Y0071842D02*
X0110545Y0075158D01*
X0113861Y0075158D01*
X0113861Y0071842D01*
X0110545Y0071842D01*
X0110545Y0073262D02*
X0113861Y0073262D01*
X0113861Y0074682D02*
X0110545Y0074682D01*
X0103639Y0075158D02*
X0103639Y0071842D01*
X0103639Y0075158D02*
X0106955Y0075158D01*
X0106955Y0071842D01*
X0103639Y0071842D01*
X0103639Y0073262D02*
X0106955Y0073262D01*
X0106955Y0074682D02*
X0103639Y0074682D01*
X0103639Y0109842D02*
X0103639Y0113158D01*
X0106955Y0113158D01*
X0106955Y0109842D01*
X0103639Y0109842D01*
X0103639Y0111262D02*
X0106955Y0111262D01*
X0106955Y0112682D02*
X0103639Y0112682D01*
X0110545Y0113158D02*
X0110545Y0109842D01*
X0110545Y0113158D02*
X0113861Y0113158D01*
X0113861Y0109842D01*
X0110545Y0109842D01*
X0110545Y0111262D02*
X0113861Y0111262D01*
X0113861Y0112682D02*
X0110545Y0112682D01*
X0168955Y0106158D02*
X0168955Y0102842D01*
X0165639Y0102842D01*
X0165639Y0106158D01*
X0168955Y0106158D01*
X0168955Y0104262D02*
X0165639Y0104262D01*
X0165639Y0105682D02*
X0168955Y0105682D01*
X0175861Y0106158D02*
X0175861Y0102842D01*
X0172545Y0102842D01*
X0172545Y0106158D01*
X0175861Y0106158D01*
X0175861Y0104262D02*
X0172545Y0104262D01*
X0172545Y0105682D02*
X0175861Y0105682D01*
X0110545Y0163842D02*
X0110545Y0167158D01*
X0113861Y0167158D01*
X0113861Y0163842D01*
X0110545Y0163842D01*
X0110545Y0165262D02*
X0113861Y0165262D01*
X0113861Y0166682D02*
X0110545Y0166682D01*
X0103639Y0167158D02*
X0103639Y0163842D01*
X0103639Y0167158D02*
X0106955Y0167158D01*
X0106955Y0163842D01*
X0103639Y0163842D01*
X0103639Y0165262D02*
X0106955Y0165262D01*
X0106955Y0166682D02*
X0103639Y0166682D01*
X0103639Y0173842D02*
X0103639Y0177158D01*
X0106955Y0177158D01*
X0106955Y0173842D01*
X0103639Y0173842D01*
X0103639Y0175262D02*
X0106955Y0175262D01*
X0106955Y0176682D02*
X0103639Y0176682D01*
X0110545Y0177158D02*
X0110545Y0173842D01*
X0110545Y0177158D02*
X0113861Y0177158D01*
X0113861Y0173842D01*
X0110545Y0173842D01*
X0110545Y0175262D02*
X0113861Y0175262D01*
X0113861Y0176682D02*
X0110545Y0176682D01*
X0110545Y0183842D02*
X0110545Y0187158D01*
X0113861Y0187158D01*
X0113861Y0183842D01*
X0110545Y0183842D01*
X0110545Y0185262D02*
X0113861Y0185262D01*
X0113861Y0186682D02*
X0110545Y0186682D01*
X0103639Y0187158D02*
X0103639Y0183842D01*
X0103639Y0187158D02*
X0106955Y0187158D01*
X0106955Y0183842D01*
X0103639Y0183842D01*
X0103639Y0185262D02*
X0106955Y0185262D01*
X0106955Y0186682D02*
X0103639Y0186682D01*
X0103639Y0221842D02*
X0103639Y0225158D01*
X0106955Y0225158D01*
X0106955Y0221842D01*
X0103639Y0221842D01*
X0103639Y0223262D02*
X0106955Y0223262D01*
X0106955Y0224682D02*
X0103639Y0224682D01*
X0110545Y0225158D02*
X0110545Y0221842D01*
X0110545Y0225158D02*
X0113861Y0225158D01*
X0113861Y0221842D01*
X0110545Y0221842D01*
X0110545Y0223262D02*
X0113861Y0223262D01*
X0113861Y0224682D02*
X0110545Y0224682D01*
X0168955Y0218158D02*
X0168955Y0214842D01*
X0165639Y0214842D01*
X0165639Y0218158D01*
X0168955Y0218158D01*
X0168955Y0216262D02*
X0165639Y0216262D01*
X0165639Y0217682D02*
X0168955Y0217682D01*
X0175861Y0218158D02*
X0175861Y0214842D01*
X0172545Y0214842D01*
X0172545Y0218158D01*
X0175861Y0218158D01*
X0175861Y0216262D02*
X0172545Y0216262D01*
X0172545Y0217682D02*
X0175861Y0217682D01*
X0110545Y0275842D02*
X0110545Y0279158D01*
X0113861Y0279158D01*
X0113861Y0275842D01*
X0110545Y0275842D01*
X0110545Y0277262D02*
X0113861Y0277262D01*
X0113861Y0278682D02*
X0110545Y0278682D01*
X0103639Y0279158D02*
X0103639Y0275842D01*
X0103639Y0279158D02*
X0106955Y0279158D01*
X0106955Y0275842D01*
X0103639Y0275842D01*
X0103639Y0277262D02*
X0106955Y0277262D01*
X0106955Y0278682D02*
X0103639Y0278682D01*
X0103639Y0285842D02*
X0103639Y0289158D01*
X0106955Y0289158D01*
X0106955Y0285842D01*
X0103639Y0285842D01*
X0103639Y0287262D02*
X0106955Y0287262D01*
X0106955Y0288682D02*
X0103639Y0288682D01*
X0110545Y0289158D02*
X0110545Y0285842D01*
X0110545Y0289158D02*
X0113861Y0289158D01*
X0113861Y0285842D01*
X0110545Y0285842D01*
X0110545Y0287262D02*
X0113861Y0287262D01*
X0113861Y0288682D02*
X0110545Y0288682D01*
X0110545Y0295842D02*
X0110545Y0299158D01*
X0113861Y0299158D01*
X0113861Y0295842D01*
X0110545Y0295842D01*
X0110545Y0297262D02*
X0113861Y0297262D01*
X0113861Y0298682D02*
X0110545Y0298682D01*
X0103639Y0299158D02*
X0103639Y0295842D01*
X0103639Y0299158D02*
X0106955Y0299158D01*
X0106955Y0295842D01*
X0103639Y0295842D01*
X0103639Y0297262D02*
X0106955Y0297262D01*
X0106955Y0298682D02*
X0103639Y0298682D01*
X0103639Y0333842D02*
X0103639Y0337158D01*
X0106955Y0337158D01*
X0106955Y0333842D01*
X0103639Y0333842D01*
X0103639Y0335262D02*
X0106955Y0335262D01*
X0106955Y0336682D02*
X0103639Y0336682D01*
X0110545Y0337158D02*
X0110545Y0333842D01*
X0110545Y0337158D02*
X0113861Y0337158D01*
X0113861Y0333842D01*
X0110545Y0333842D01*
X0110545Y0335262D02*
X0113861Y0335262D01*
X0113861Y0336682D02*
X0110545Y0336682D01*
X0168955Y0330158D02*
X0168955Y0326842D01*
X0165639Y0326842D01*
X0165639Y0330158D01*
X0168955Y0330158D01*
X0168955Y0328262D02*
X0165639Y0328262D01*
X0165639Y0329682D02*
X0168955Y0329682D01*
X0175861Y0330158D02*
X0175861Y0326842D01*
X0172545Y0326842D01*
X0172545Y0330158D01*
X0175861Y0330158D01*
X0175861Y0328262D02*
X0172545Y0328262D01*
X0172545Y0329682D02*
X0175861Y0329682D01*
X0270639Y0333842D02*
X0270639Y0337158D01*
X0273955Y0337158D01*
X0273955Y0333842D01*
X0270639Y0333842D01*
X0270639Y0335262D02*
X0273955Y0335262D01*
X0273955Y0336682D02*
X0270639Y0336682D01*
X0277545Y0337158D02*
X0277545Y0333842D01*
X0277545Y0337158D02*
X0280861Y0337158D01*
X0280861Y0333842D01*
X0277545Y0333842D01*
X0277545Y0335262D02*
X0280861Y0335262D01*
X0280861Y0336682D02*
X0277545Y0336682D01*
X0277545Y0299158D02*
X0277545Y0295842D01*
X0277545Y0299158D02*
X0280861Y0299158D01*
X0280861Y0295842D01*
X0277545Y0295842D01*
X0277545Y0297262D02*
X0280861Y0297262D01*
X0280861Y0298682D02*
X0277545Y0298682D01*
X0270639Y0299158D02*
X0270639Y0295842D01*
X0270639Y0299158D02*
X0273955Y0299158D01*
X0273955Y0295842D01*
X0270639Y0295842D01*
X0270639Y0297262D02*
X0273955Y0297262D01*
X0273955Y0298682D02*
X0270639Y0298682D01*
X0270639Y0289158D02*
X0270639Y0285842D01*
X0270639Y0289158D02*
X0273955Y0289158D01*
X0273955Y0285842D01*
X0270639Y0285842D01*
X0270639Y0287262D02*
X0273955Y0287262D01*
X0273955Y0288682D02*
X0270639Y0288682D01*
X0277545Y0289158D02*
X0277545Y0285842D01*
X0277545Y0289158D02*
X0280861Y0289158D01*
X0280861Y0285842D01*
X0277545Y0285842D01*
X0277545Y0287262D02*
X0280861Y0287262D01*
X0280861Y0288682D02*
X0277545Y0288682D01*
X0277545Y0279158D02*
X0277545Y0275842D01*
X0277545Y0279158D02*
X0280861Y0279158D01*
X0280861Y0275842D01*
X0277545Y0275842D01*
X0277545Y0277262D02*
X0280861Y0277262D01*
X0280861Y0278682D02*
X0277545Y0278682D01*
X0270639Y0279158D02*
X0270639Y0275842D01*
X0270639Y0279158D02*
X0273955Y0279158D01*
X0273955Y0275842D01*
X0270639Y0275842D01*
X0270639Y0277262D02*
X0273955Y0277262D01*
X0273955Y0278682D02*
X0270639Y0278682D01*
X0270639Y0225158D02*
X0270639Y0221842D01*
X0270639Y0225158D02*
X0273955Y0225158D01*
X0273955Y0221842D01*
X0270639Y0221842D01*
X0270639Y0223262D02*
X0273955Y0223262D01*
X0273955Y0224682D02*
X0270639Y0224682D01*
X0277545Y0225158D02*
X0277545Y0221842D01*
X0277545Y0225158D02*
X0280861Y0225158D01*
X0280861Y0221842D01*
X0277545Y0221842D01*
X0277545Y0223262D02*
X0280861Y0223262D01*
X0280861Y0224682D02*
X0277545Y0224682D01*
X0277545Y0187158D02*
X0277545Y0183842D01*
X0277545Y0187158D02*
X0280861Y0187158D01*
X0280861Y0183842D01*
X0277545Y0183842D01*
X0277545Y0185262D02*
X0280861Y0185262D01*
X0280861Y0186682D02*
X0277545Y0186682D01*
X0270639Y0187158D02*
X0270639Y0183842D01*
X0270639Y0187158D02*
X0273955Y0187158D01*
X0273955Y0183842D01*
X0270639Y0183842D01*
X0270639Y0185262D02*
X0273955Y0185262D01*
X0273955Y0186682D02*
X0270639Y0186682D01*
X0270639Y0177158D02*
X0270639Y0173842D01*
X0270639Y0177158D02*
X0273955Y0177158D01*
X0273955Y0173842D01*
X0270639Y0173842D01*
X0270639Y0175262D02*
X0273955Y0175262D01*
X0273955Y0176682D02*
X0270639Y0176682D01*
X0277545Y0177158D02*
X0277545Y0173842D01*
X0277545Y0177158D02*
X0280861Y0177158D01*
X0280861Y0173842D01*
X0277545Y0173842D01*
X0277545Y0175262D02*
X0280861Y0175262D01*
X0280861Y0176682D02*
X0277545Y0176682D01*
X0277545Y0167158D02*
X0277545Y0163842D01*
X0277545Y0167158D02*
X0280861Y0167158D01*
X0280861Y0163842D01*
X0277545Y0163842D01*
X0277545Y0165262D02*
X0280861Y0165262D01*
X0280861Y0166682D02*
X0277545Y0166682D01*
X0270639Y0167158D02*
X0270639Y0163842D01*
X0270639Y0167158D02*
X0273955Y0167158D01*
X0273955Y0163842D01*
X0270639Y0163842D01*
X0270639Y0165262D02*
X0273955Y0165262D01*
X0273955Y0166682D02*
X0270639Y0166682D01*
X0270639Y0113158D02*
X0270639Y0109842D01*
X0270639Y0113158D02*
X0273955Y0113158D01*
X0273955Y0109842D01*
X0270639Y0109842D01*
X0270639Y0111262D02*
X0273955Y0111262D01*
X0273955Y0112682D02*
X0270639Y0112682D01*
X0277545Y0113158D02*
X0277545Y0109842D01*
X0277545Y0113158D02*
X0280861Y0113158D01*
X0280861Y0109842D01*
X0277545Y0109842D01*
X0277545Y0111262D02*
X0280861Y0111262D01*
X0280861Y0112682D02*
X0277545Y0112682D01*
X0277545Y0075158D02*
X0277545Y0071842D01*
X0277545Y0075158D02*
X0280861Y0075158D01*
X0280861Y0071842D01*
X0277545Y0071842D01*
X0277545Y0073262D02*
X0280861Y0073262D01*
X0280861Y0074682D02*
X0277545Y0074682D01*
X0270639Y0075158D02*
X0270639Y0071842D01*
X0270639Y0075158D02*
X0273955Y0075158D01*
X0273955Y0071842D01*
X0270639Y0071842D01*
X0270639Y0073262D02*
X0273955Y0073262D01*
X0273955Y0074682D02*
X0270639Y0074682D01*
X0270639Y0065158D02*
X0270639Y0061842D01*
X0270639Y0065158D02*
X0273955Y0065158D01*
X0273955Y0061842D01*
X0270639Y0061842D01*
X0270639Y0063262D02*
X0273955Y0063262D01*
X0273955Y0064682D02*
X0270639Y0064682D01*
X0277545Y0065158D02*
X0277545Y0061842D01*
X0277545Y0065158D02*
X0280861Y0065158D01*
X0280861Y0061842D01*
X0277545Y0061842D01*
X0277545Y0063262D02*
X0280861Y0063262D01*
X0280861Y0064682D02*
X0277545Y0064682D01*
X0277545Y0055158D02*
X0277545Y0051842D01*
X0277545Y0055158D02*
X0280861Y0055158D01*
X0280861Y0051842D01*
X0277545Y0051842D01*
X0277545Y0053262D02*
X0280861Y0053262D01*
X0280861Y0054682D02*
X0277545Y0054682D01*
X0270639Y0055158D02*
X0270639Y0051842D01*
X0270639Y0055158D02*
X0273955Y0055158D01*
X0273955Y0051842D01*
X0270639Y0051842D01*
X0270639Y0053262D02*
X0273955Y0053262D01*
X0273955Y0054682D02*
X0270639Y0054682D01*
X0335955Y0102842D02*
X0335955Y0106158D01*
X0335955Y0102842D02*
X0332639Y0102842D01*
X0332639Y0106158D01*
X0335955Y0106158D01*
X0335955Y0104262D02*
X0332639Y0104262D01*
X0332639Y0105682D02*
X0335955Y0105682D01*
X0342861Y0106158D02*
X0342861Y0102842D01*
X0339545Y0102842D01*
X0339545Y0106158D01*
X0342861Y0106158D01*
X0342861Y0104262D02*
X0339545Y0104262D01*
X0339545Y0105682D02*
X0342861Y0105682D01*
X0342861Y0214842D02*
X0342861Y0218158D01*
X0342861Y0214842D02*
X0339545Y0214842D01*
X0339545Y0218158D01*
X0342861Y0218158D01*
X0342861Y0216262D02*
X0339545Y0216262D01*
X0339545Y0217682D02*
X0342861Y0217682D01*
X0335955Y0218158D02*
X0335955Y0214842D01*
X0332639Y0214842D01*
X0332639Y0218158D01*
X0335955Y0218158D01*
X0335955Y0216262D02*
X0332639Y0216262D01*
X0332639Y0217682D02*
X0335955Y0217682D01*
X0335955Y0326842D02*
X0335955Y0330158D01*
X0335955Y0326842D02*
X0332639Y0326842D01*
X0332639Y0330158D01*
X0335955Y0330158D01*
X0335955Y0328262D02*
X0332639Y0328262D01*
X0332639Y0329682D02*
X0335955Y0329682D01*
X0342861Y0330158D02*
X0342861Y0326842D01*
X0339545Y0326842D01*
X0339545Y0330158D01*
X0342861Y0330158D01*
X0342861Y0328262D02*
X0339545Y0328262D01*
X0339545Y0329682D02*
X0342861Y0329682D01*
D15*
X0251262Y0277500D03*
X0240238Y0277500D03*
X0240238Y0165500D03*
X0251262Y0165500D03*
X0251262Y0053500D03*
X0240238Y0053500D03*
X0084262Y0053500D03*
X0073238Y0053500D03*
X0073238Y0165500D03*
X0084262Y0165500D03*
X0084262Y0277500D03*
X0073238Y0277500D03*
D16*
X0049250Y0322382D03*
X0049250Y0324941D03*
X0049250Y0327500D03*
X0049250Y0330059D03*
X0049250Y0332618D03*
X0049250Y0220618D03*
X0049250Y0218059D03*
X0049250Y0215500D03*
X0049250Y0212941D03*
X0049250Y0210382D03*
X0049250Y0108618D03*
X0049250Y0106059D03*
X0049250Y0103500D03*
X0049250Y0100941D03*
X0049250Y0098382D03*
X0216250Y0098382D03*
X0216250Y0100941D03*
X0216250Y0103500D03*
X0216250Y0106059D03*
X0216250Y0108618D03*
X0216250Y0210382D03*
X0216250Y0212941D03*
X0216250Y0215500D03*
X0216250Y0218059D03*
X0216250Y0220618D03*
X0216250Y0322382D03*
X0216250Y0324941D03*
X0216250Y0327500D03*
X0216250Y0330059D03*
X0216250Y0332618D03*
D17*
X0217333Y0338917D03*
X0217333Y0316083D03*
X0217333Y0226917D03*
X0217333Y0204083D03*
X0217333Y0114917D03*
X0217333Y0092083D03*
X0050333Y0092083D03*
X0050333Y0114917D03*
X0050333Y0204083D03*
X0050333Y0226917D03*
X0050333Y0316083D03*
X0050333Y0338917D03*
D18*
X0038719Y0331289D03*
X0038719Y0323711D03*
X0038719Y0219289D03*
X0038719Y0211711D03*
X0038719Y0107289D03*
X0038719Y0099711D03*
X0205719Y0099711D03*
X0205719Y0107289D03*
X0205719Y0211711D03*
X0205719Y0219289D03*
X0205719Y0323711D03*
X0205719Y0331289D03*
D19*
X0203553Y0335374D02*
X0203242Y0335365D01*
X0202936Y0335425D01*
X0202651Y0335552D01*
X0202402Y0335739D01*
X0202200Y0335977D01*
X0202057Y0336253D01*
X0201978Y0336555D01*
X0201978Y0339311D01*
X0202018Y0339661D01*
X0202134Y0339994D01*
X0202322Y0340293D01*
X0202571Y0340542D01*
X0202870Y0340730D01*
X0203203Y0340846D01*
X0203553Y0340886D01*
X0210640Y0340886D01*
X0210640Y0342461D01*
X0213789Y0342461D01*
X0213789Y0335374D01*
X0203553Y0335374D01*
X0202390Y0335752D02*
X0213789Y0335752D01*
X0213789Y0336151D02*
X0202110Y0336151D01*
X0201980Y0336549D02*
X0213789Y0336549D01*
X0213789Y0336948D02*
X0201978Y0336948D01*
X0201978Y0337346D02*
X0213789Y0337346D01*
X0213789Y0337745D02*
X0201978Y0337745D01*
X0201978Y0338143D02*
X0213789Y0338143D01*
X0213789Y0338542D02*
X0201978Y0338542D01*
X0201978Y0338940D02*
X0213789Y0338940D01*
X0213789Y0339339D02*
X0201981Y0339339D01*
X0202044Y0339737D02*
X0213789Y0339737D01*
X0213789Y0340136D02*
X0202223Y0340136D01*
X0202563Y0340534D02*
X0213789Y0340534D01*
X0213789Y0340933D02*
X0210640Y0340933D01*
X0210640Y0341331D02*
X0213789Y0341331D01*
X0213789Y0341730D02*
X0210640Y0341730D01*
X0210640Y0342128D02*
X0213789Y0342128D01*
X0213789Y0319626D02*
X0203159Y0319626D01*
X0202897Y0319596D01*
X0202647Y0319509D01*
X0202423Y0319368D01*
X0202236Y0319181D01*
X0202095Y0318957D01*
X0202008Y0318708D01*
X0201978Y0318445D01*
X0201978Y0315295D01*
X0201969Y0314984D01*
X0202029Y0314678D01*
X0202156Y0314393D01*
X0202343Y0314144D01*
X0202581Y0313942D01*
X0202858Y0313799D01*
X0203159Y0313720D01*
X0210640Y0313720D01*
X0210640Y0312539D01*
X0213789Y0312539D01*
X0213789Y0319626D01*
X0213789Y0319413D02*
X0202495Y0319413D01*
X0202131Y0319015D02*
X0213789Y0319015D01*
X0213789Y0318616D02*
X0201998Y0318616D01*
X0201978Y0318218D02*
X0213789Y0318218D01*
X0213789Y0317819D02*
X0201978Y0317819D01*
X0201978Y0317421D02*
X0213789Y0317421D01*
X0213789Y0317022D02*
X0201978Y0317022D01*
X0201978Y0316624D02*
X0213789Y0316624D01*
X0213789Y0316225D02*
X0201978Y0316225D01*
X0201978Y0315827D02*
X0213789Y0315827D01*
X0213789Y0315428D02*
X0201978Y0315428D01*
X0201970Y0315030D02*
X0213789Y0315030D01*
X0213789Y0314631D02*
X0202050Y0314631D01*
X0202277Y0314233D02*
X0213789Y0314233D01*
X0213789Y0313834D02*
X0202790Y0313834D01*
X0210640Y0313436D02*
X0213789Y0313436D01*
X0213789Y0313037D02*
X0210640Y0313037D01*
X0210640Y0312639D02*
X0213789Y0312639D01*
X0213789Y0230461D02*
X0210640Y0230461D01*
X0210640Y0228886D01*
X0203553Y0228886D01*
X0203203Y0228846D01*
X0202870Y0228730D01*
X0202571Y0228542D01*
X0202322Y0228293D01*
X0202134Y0227994D01*
X0202018Y0227661D01*
X0201978Y0227311D01*
X0201978Y0224555D01*
X0202057Y0224253D01*
X0202200Y0223977D01*
X0202402Y0223739D01*
X0202651Y0223552D01*
X0202936Y0223425D01*
X0203242Y0223365D01*
X0203553Y0223374D01*
X0213789Y0223374D01*
X0213789Y0230461D01*
X0213789Y0230147D02*
X0210640Y0230147D01*
X0210640Y0229748D02*
X0213789Y0229748D01*
X0213789Y0229350D02*
X0210640Y0229350D01*
X0210640Y0228951D02*
X0213789Y0228951D01*
X0213789Y0228553D02*
X0202588Y0228553D01*
X0202235Y0228154D02*
X0213789Y0228154D01*
X0213789Y0227756D02*
X0202051Y0227756D01*
X0201984Y0227357D02*
X0213789Y0227357D01*
X0213789Y0226959D02*
X0201978Y0226959D01*
X0201978Y0226560D02*
X0213789Y0226560D01*
X0213789Y0226162D02*
X0201978Y0226162D01*
X0201978Y0225763D02*
X0213789Y0225763D01*
X0213789Y0225365D02*
X0201978Y0225365D01*
X0201978Y0224966D02*
X0213789Y0224966D01*
X0213789Y0224568D02*
X0201978Y0224568D01*
X0202100Y0224169D02*
X0213789Y0224169D01*
X0213789Y0223771D02*
X0202375Y0223771D01*
X0203205Y0223372D02*
X0203486Y0223372D01*
X0203159Y0207626D02*
X0213789Y0207626D01*
X0213789Y0200539D01*
X0210640Y0200539D01*
X0210640Y0201720D01*
X0203159Y0201720D01*
X0202858Y0201799D01*
X0202581Y0201942D01*
X0202343Y0202144D01*
X0202156Y0202393D01*
X0202029Y0202678D01*
X0201969Y0202984D01*
X0201978Y0203295D01*
X0201978Y0206445D01*
X0202008Y0206708D01*
X0202095Y0206957D01*
X0202236Y0207181D01*
X0202423Y0207368D01*
X0202647Y0207509D01*
X0202897Y0207596D01*
X0203159Y0207626D01*
X0202524Y0207432D02*
X0213789Y0207432D01*
X0213789Y0207033D02*
X0202143Y0207033D01*
X0202000Y0206635D02*
X0213789Y0206635D01*
X0213789Y0206236D02*
X0201978Y0206236D01*
X0201978Y0205838D02*
X0213789Y0205838D01*
X0213789Y0205439D02*
X0201978Y0205439D01*
X0201978Y0205041D02*
X0213789Y0205041D01*
X0213789Y0204642D02*
X0201978Y0204642D01*
X0201978Y0204243D02*
X0213789Y0204243D01*
X0213789Y0203845D02*
X0201978Y0203845D01*
X0201978Y0203446D02*
X0213789Y0203446D01*
X0213789Y0203048D02*
X0201971Y0203048D01*
X0202042Y0202649D02*
X0213789Y0202649D01*
X0213789Y0202251D02*
X0202263Y0202251D01*
X0202754Y0201852D02*
X0213789Y0201852D01*
X0213789Y0201454D02*
X0210640Y0201454D01*
X0210640Y0201055D02*
X0213789Y0201055D01*
X0213789Y0200657D02*
X0210640Y0200657D01*
X0210640Y0118461D02*
X0213789Y0118461D01*
X0213789Y0111374D01*
X0203553Y0111374D01*
X0203242Y0111365D01*
X0202936Y0111425D01*
X0202651Y0111552D01*
X0202402Y0111739D01*
X0202200Y0111977D01*
X0202057Y0112253D01*
X0201978Y0112555D01*
X0201978Y0115311D01*
X0202018Y0115661D01*
X0202134Y0115994D01*
X0202322Y0116293D01*
X0202571Y0116542D01*
X0202870Y0116730D01*
X0203203Y0116846D01*
X0203553Y0116886D01*
X0210640Y0116886D01*
X0210640Y0118461D01*
X0210640Y0118165D02*
X0213789Y0118165D01*
X0213789Y0117767D02*
X0210640Y0117767D01*
X0210640Y0117368D02*
X0213789Y0117368D01*
X0213789Y0116970D02*
X0210640Y0116970D01*
X0213789Y0116571D02*
X0202617Y0116571D01*
X0202246Y0116172D02*
X0213789Y0116172D01*
X0213789Y0115774D02*
X0202057Y0115774D01*
X0201986Y0115375D02*
X0213789Y0115375D01*
X0213789Y0114977D02*
X0201978Y0114977D01*
X0201978Y0114578D02*
X0213789Y0114578D01*
X0213789Y0114180D02*
X0201978Y0114180D01*
X0201978Y0113781D02*
X0213789Y0113781D01*
X0213789Y0113383D02*
X0201978Y0113383D01*
X0201978Y0112984D02*
X0213789Y0112984D01*
X0213789Y0112586D02*
X0201978Y0112586D01*
X0202091Y0112187D02*
X0213789Y0112187D01*
X0213789Y0111789D02*
X0202359Y0111789D01*
X0203112Y0111390D02*
X0213789Y0111390D01*
X0213789Y0095626D02*
X0203159Y0095626D01*
X0202897Y0095596D01*
X0202647Y0095509D01*
X0202423Y0095368D01*
X0202236Y0095181D01*
X0202095Y0094957D01*
X0202008Y0094708D01*
X0201978Y0094445D01*
X0201978Y0091295D01*
X0201969Y0090984D01*
X0202029Y0090678D01*
X0202156Y0090393D01*
X0202343Y0090144D01*
X0202581Y0089942D01*
X0202858Y0089799D01*
X0203159Y0089720D01*
X0210640Y0089720D01*
X0210640Y0088539D01*
X0213789Y0088539D01*
X0213789Y0095626D01*
X0213789Y0095450D02*
X0202553Y0095450D01*
X0202154Y0095051D02*
X0213789Y0095051D01*
X0213789Y0094653D02*
X0202002Y0094653D01*
X0201978Y0094254D02*
X0213789Y0094254D01*
X0213789Y0093856D02*
X0201978Y0093856D01*
X0201978Y0093457D02*
X0213789Y0093457D01*
X0213789Y0093059D02*
X0201978Y0093059D01*
X0201978Y0092660D02*
X0213789Y0092660D01*
X0213789Y0092262D02*
X0201978Y0092262D01*
X0201978Y0091863D02*
X0213789Y0091863D01*
X0213789Y0091465D02*
X0201978Y0091465D01*
X0201972Y0091066D02*
X0213789Y0091066D01*
X0213789Y0090668D02*
X0202034Y0090668D01*
X0202249Y0090269D02*
X0213789Y0090269D01*
X0213789Y0089871D02*
X0202719Y0089871D01*
X0210640Y0089472D02*
X0213789Y0089472D01*
X0213789Y0089074D02*
X0210640Y0089074D01*
X0210640Y0088675D02*
X0213789Y0088675D01*
X0046789Y0088675D02*
X0043640Y0088675D01*
X0043640Y0088539D02*
X0043640Y0089720D01*
X0036159Y0089720D01*
X0035858Y0089799D01*
X0035581Y0089942D01*
X0035343Y0090144D01*
X0035156Y0090393D01*
X0035029Y0090678D01*
X0034969Y0090984D01*
X0034978Y0091295D01*
X0034978Y0094445D01*
X0035008Y0094708D01*
X0035095Y0094957D01*
X0035236Y0095181D01*
X0035423Y0095368D01*
X0035647Y0095509D01*
X0035897Y0095596D01*
X0036159Y0095626D01*
X0046789Y0095626D01*
X0046789Y0088539D01*
X0043640Y0088539D01*
X0043640Y0089074D02*
X0046789Y0089074D01*
X0046789Y0089472D02*
X0043640Y0089472D01*
X0046789Y0089871D02*
X0035719Y0089871D01*
X0035249Y0090269D02*
X0046789Y0090269D01*
X0046789Y0090668D02*
X0035034Y0090668D01*
X0034972Y0091066D02*
X0046789Y0091066D01*
X0046789Y0091465D02*
X0034978Y0091465D01*
X0034978Y0091863D02*
X0046789Y0091863D01*
X0046789Y0092262D02*
X0034978Y0092262D01*
X0034978Y0092660D02*
X0046789Y0092660D01*
X0046789Y0093059D02*
X0034978Y0093059D01*
X0034978Y0093457D02*
X0046789Y0093457D01*
X0046789Y0093856D02*
X0034978Y0093856D01*
X0034978Y0094254D02*
X0046789Y0094254D01*
X0046789Y0094653D02*
X0035002Y0094653D01*
X0035154Y0095051D02*
X0046789Y0095051D01*
X0046789Y0095450D02*
X0035553Y0095450D01*
X0036242Y0111365D02*
X0035936Y0111425D01*
X0035651Y0111552D01*
X0035402Y0111739D01*
X0035200Y0111977D01*
X0035057Y0112253D01*
X0034978Y0112555D01*
X0034978Y0115311D01*
X0035018Y0115661D01*
X0035134Y0115994D01*
X0035322Y0116293D01*
X0035571Y0116542D01*
X0035870Y0116730D01*
X0036203Y0116846D01*
X0036553Y0116886D01*
X0043640Y0116886D01*
X0043640Y0118461D01*
X0046789Y0118461D01*
X0046789Y0111374D01*
X0036553Y0111374D01*
X0036242Y0111365D01*
X0036112Y0111390D02*
X0046789Y0111390D01*
X0046789Y0111789D02*
X0035359Y0111789D01*
X0035091Y0112187D02*
X0046789Y0112187D01*
X0046789Y0112586D02*
X0034978Y0112586D01*
X0034978Y0112984D02*
X0046789Y0112984D01*
X0046789Y0113383D02*
X0034978Y0113383D01*
X0034978Y0113781D02*
X0046789Y0113781D01*
X0046789Y0114180D02*
X0034978Y0114180D01*
X0034978Y0114578D02*
X0046789Y0114578D01*
X0046789Y0114977D02*
X0034978Y0114977D01*
X0034986Y0115375D02*
X0046789Y0115375D01*
X0046789Y0115774D02*
X0035057Y0115774D01*
X0035246Y0116172D02*
X0046789Y0116172D01*
X0046789Y0116571D02*
X0035617Y0116571D01*
X0043640Y0116970D02*
X0046789Y0116970D01*
X0046789Y0117368D02*
X0043640Y0117368D01*
X0043640Y0117767D02*
X0046789Y0117767D01*
X0046789Y0118165D02*
X0043640Y0118165D01*
X0043640Y0200539D02*
X0043640Y0201720D01*
X0036159Y0201720D01*
X0035858Y0201799D01*
X0035581Y0201942D01*
X0035343Y0202144D01*
X0035156Y0202393D01*
X0035029Y0202678D01*
X0034969Y0202984D01*
X0034978Y0203295D01*
X0034978Y0206445D01*
X0035008Y0206708D01*
X0035095Y0206957D01*
X0035236Y0207181D01*
X0035423Y0207368D01*
X0035647Y0207509D01*
X0035897Y0207596D01*
X0036159Y0207626D01*
X0046789Y0207626D01*
X0046789Y0200539D01*
X0043640Y0200539D01*
X0043640Y0200657D02*
X0046789Y0200657D01*
X0046789Y0201055D02*
X0043640Y0201055D01*
X0043640Y0201454D02*
X0046789Y0201454D01*
X0046789Y0201852D02*
X0035754Y0201852D01*
X0035263Y0202251D02*
X0046789Y0202251D01*
X0046789Y0202649D02*
X0035042Y0202649D01*
X0034971Y0203048D02*
X0046789Y0203048D01*
X0046789Y0203446D02*
X0034978Y0203446D01*
X0034978Y0203845D02*
X0046789Y0203845D01*
X0046789Y0204243D02*
X0034978Y0204243D01*
X0034978Y0204642D02*
X0046789Y0204642D01*
X0046789Y0205041D02*
X0034978Y0205041D01*
X0034978Y0205439D02*
X0046789Y0205439D01*
X0046789Y0205838D02*
X0034978Y0205838D01*
X0034978Y0206236D02*
X0046789Y0206236D01*
X0046789Y0206635D02*
X0035000Y0206635D01*
X0035143Y0207033D02*
X0046789Y0207033D01*
X0046789Y0207432D02*
X0035524Y0207432D01*
X0036242Y0223365D02*
X0035936Y0223425D01*
X0035651Y0223552D01*
X0035402Y0223739D01*
X0035200Y0223977D01*
X0035057Y0224253D01*
X0034978Y0224555D01*
X0034978Y0227311D01*
X0035018Y0227661D01*
X0035134Y0227994D01*
X0035322Y0228293D01*
X0035571Y0228542D01*
X0035870Y0228730D01*
X0036203Y0228846D01*
X0036553Y0228886D01*
X0043640Y0228886D01*
X0043640Y0230461D01*
X0046789Y0230461D01*
X0046789Y0223374D01*
X0036553Y0223374D01*
X0036242Y0223365D01*
X0036205Y0223372D02*
X0036486Y0223372D01*
X0035375Y0223771D02*
X0046789Y0223771D01*
X0046789Y0224169D02*
X0035100Y0224169D01*
X0034978Y0224568D02*
X0046789Y0224568D01*
X0046789Y0224966D02*
X0034978Y0224966D01*
X0034978Y0225365D02*
X0046789Y0225365D01*
X0046789Y0225763D02*
X0034978Y0225763D01*
X0034978Y0226162D02*
X0046789Y0226162D01*
X0046789Y0226560D02*
X0034978Y0226560D01*
X0034978Y0226959D02*
X0046789Y0226959D01*
X0046789Y0227357D02*
X0034984Y0227357D01*
X0035051Y0227756D02*
X0046789Y0227756D01*
X0046789Y0228154D02*
X0035235Y0228154D01*
X0035588Y0228553D02*
X0046789Y0228553D01*
X0046789Y0228951D02*
X0043640Y0228951D01*
X0043640Y0229350D02*
X0046789Y0229350D01*
X0046789Y0229748D02*
X0043640Y0229748D01*
X0043640Y0230147D02*
X0046789Y0230147D01*
X0046789Y0312539D02*
X0043640Y0312539D01*
X0043640Y0313720D01*
X0036159Y0313720D01*
X0035858Y0313799D01*
X0035581Y0313942D01*
X0035343Y0314144D01*
X0035156Y0314393D01*
X0035029Y0314678D01*
X0034969Y0314984D01*
X0034978Y0315295D01*
X0034978Y0318445D01*
X0035008Y0318708D01*
X0035095Y0318957D01*
X0035236Y0319181D01*
X0035423Y0319368D01*
X0035647Y0319509D01*
X0035897Y0319596D01*
X0036159Y0319626D01*
X0046789Y0319626D01*
X0046789Y0312539D01*
X0046789Y0312639D02*
X0043640Y0312639D01*
X0043640Y0313037D02*
X0046789Y0313037D01*
X0046789Y0313436D02*
X0043640Y0313436D01*
X0046789Y0313834D02*
X0035790Y0313834D01*
X0035277Y0314233D02*
X0046789Y0314233D01*
X0046789Y0314631D02*
X0035050Y0314631D01*
X0034970Y0315030D02*
X0046789Y0315030D01*
X0046789Y0315428D02*
X0034978Y0315428D01*
X0034978Y0315827D02*
X0046789Y0315827D01*
X0046789Y0316225D02*
X0034978Y0316225D01*
X0034978Y0316624D02*
X0046789Y0316624D01*
X0046789Y0317022D02*
X0034978Y0317022D01*
X0034978Y0317421D02*
X0046789Y0317421D01*
X0046789Y0317819D02*
X0034978Y0317819D01*
X0034978Y0318218D02*
X0046789Y0318218D01*
X0046789Y0318616D02*
X0034998Y0318616D01*
X0035131Y0319015D02*
X0046789Y0319015D01*
X0046789Y0319413D02*
X0035495Y0319413D01*
X0036242Y0335365D02*
X0035936Y0335425D01*
X0035651Y0335552D01*
X0035402Y0335739D01*
X0035200Y0335977D01*
X0035057Y0336253D01*
X0034978Y0336555D01*
X0034978Y0339311D01*
X0035018Y0339661D01*
X0035134Y0339994D01*
X0035322Y0340293D01*
X0035571Y0340542D01*
X0035870Y0340730D01*
X0036203Y0340846D01*
X0036553Y0340886D01*
X0043640Y0340886D01*
X0043640Y0342461D01*
X0046789Y0342461D01*
X0046789Y0335374D01*
X0036553Y0335374D01*
X0036242Y0335365D01*
X0035390Y0335752D02*
X0046789Y0335752D01*
X0046789Y0336151D02*
X0035110Y0336151D01*
X0034980Y0336549D02*
X0046789Y0336549D01*
X0046789Y0336948D02*
X0034978Y0336948D01*
X0034978Y0337346D02*
X0046789Y0337346D01*
X0046789Y0337745D02*
X0034978Y0337745D01*
X0034978Y0338143D02*
X0046789Y0338143D01*
X0046789Y0338542D02*
X0034978Y0338542D01*
X0034978Y0338940D02*
X0046789Y0338940D01*
X0046789Y0339339D02*
X0034981Y0339339D01*
X0035044Y0339737D02*
X0046789Y0339737D01*
X0046789Y0340136D02*
X0035223Y0340136D01*
X0035563Y0340534D02*
X0046789Y0340534D01*
X0046789Y0340933D02*
X0043640Y0340933D01*
X0043640Y0341331D02*
X0046789Y0341331D01*
X0046789Y0341730D02*
X0043640Y0341730D01*
X0043640Y0342128D02*
X0046789Y0342128D01*
D20*
X0049892Y0270390D03*
X0061703Y0270390D03*
X0067608Y0270390D03*
X0067608Y0158390D03*
X0061703Y0158390D03*
X0049892Y0158390D03*
X0049892Y0046390D03*
X0061703Y0046390D03*
X0067608Y0046390D03*
X0216892Y0046390D03*
X0228703Y0046390D03*
X0234608Y0046390D03*
X0234608Y0158390D03*
X0228703Y0158390D03*
X0216892Y0158390D03*
X0216892Y0270390D03*
X0228703Y0270390D03*
X0234608Y0270390D03*
D21*
X0044380Y0035563D03*
X0073120Y0035563D03*
X0073120Y0147563D03*
X0044380Y0147563D03*
X0044380Y0259563D03*
X0073120Y0259563D03*
X0211380Y0259563D03*
X0240120Y0259563D03*
X0240120Y0147563D03*
X0211380Y0147563D03*
X0211380Y0035563D03*
X0240120Y0035563D03*
D22*
X0240120Y0043831D03*
X0211380Y0043831D03*
X0211380Y0155831D03*
X0240120Y0155831D03*
X0240120Y0267831D03*
X0211380Y0267831D03*
X0073120Y0267831D03*
X0044380Y0267831D03*
X0044380Y0155831D03*
X0073120Y0155831D03*
X0073120Y0043831D03*
X0044380Y0043831D03*
D23*
X0052844Y0039500D03*
X0064656Y0039500D03*
X0064656Y0151500D03*
X0052844Y0151500D03*
X0052844Y0263500D03*
X0064656Y0263500D03*
X0219844Y0263500D03*
X0231656Y0263500D03*
X0231656Y0151500D03*
X0219844Y0151500D03*
X0219844Y0039500D03*
X0231656Y0039500D03*
D24*
X0235869Y0089760D03*
X0235869Y0097240D03*
X0225631Y0097240D03*
X0225631Y0093500D03*
X0225631Y0089760D03*
X0255631Y0089760D03*
X0255631Y0097240D03*
X0265869Y0097240D03*
X0265869Y0093500D03*
X0265869Y0089760D03*
X0265869Y0201760D03*
X0265869Y0205500D03*
X0265869Y0209240D03*
X0255631Y0209240D03*
X0255631Y0201760D03*
X0235869Y0201760D03*
X0235869Y0209240D03*
X0225631Y0209240D03*
X0225631Y0205500D03*
X0225631Y0201760D03*
X0098869Y0201760D03*
X0098869Y0205500D03*
X0098869Y0209240D03*
X0088631Y0209240D03*
X0088631Y0201760D03*
X0068869Y0201760D03*
X0068869Y0209240D03*
X0058631Y0209240D03*
X0058631Y0205500D03*
X0058631Y0201760D03*
X0058631Y0097240D03*
X0058631Y0093500D03*
X0058631Y0089760D03*
X0068869Y0089760D03*
X0068869Y0097240D03*
X0088631Y0097240D03*
X0088631Y0089760D03*
X0098869Y0089760D03*
X0098869Y0093500D03*
X0098869Y0097240D03*
X0098869Y0313760D03*
X0098869Y0317500D03*
X0098869Y0321240D03*
X0088631Y0321240D03*
X0088631Y0313760D03*
X0068869Y0313760D03*
X0068869Y0321240D03*
X0058631Y0321240D03*
X0058631Y0317500D03*
X0058631Y0313760D03*
X0225631Y0313760D03*
X0225631Y0317500D03*
X0225631Y0321240D03*
X0235869Y0321240D03*
X0235869Y0313760D03*
X0255631Y0313760D03*
X0255631Y0321240D03*
X0265869Y0321240D03*
X0265869Y0317500D03*
X0265869Y0313760D03*
D25*
X0308467Y0287028D03*
X0308467Y0277972D03*
X0323033Y0277972D03*
X0323033Y0287028D03*
X0323033Y0175028D03*
X0323033Y0165972D03*
X0308467Y0165972D03*
X0308467Y0175028D03*
X0308467Y0063028D03*
X0308467Y0053972D03*
X0323033Y0053972D03*
X0323033Y0063028D03*
X0156033Y0063028D03*
X0156033Y0053972D03*
X0141467Y0053972D03*
X0141467Y0063028D03*
X0141467Y0165972D03*
X0141467Y0175028D03*
X0156033Y0175028D03*
X0156033Y0165972D03*
X0156033Y0277972D03*
X0156033Y0287028D03*
X0141467Y0287028D03*
X0141467Y0277972D03*
D26*
X0143750Y0267500D03*
X0133750Y0267500D03*
X0123750Y0267500D03*
X0113750Y0267500D03*
X0103750Y0267500D03*
X0103750Y0257500D03*
X0113750Y0257500D03*
X0123750Y0257500D03*
X0133750Y0257500D03*
X0143750Y0257500D03*
X0153750Y0257500D03*
X0163750Y0257500D03*
X0163750Y0267500D03*
X0153750Y0267500D03*
X0173750Y0267500D03*
X0183750Y0267500D03*
X0183750Y0257500D03*
X0173750Y0257500D03*
X0173750Y0245500D03*
X0173750Y0235500D03*
X0183750Y0235500D03*
X0163750Y0235500D03*
X0163750Y0245500D03*
X0153750Y0245500D03*
X0153750Y0235500D03*
X0143750Y0235500D03*
X0143750Y0245500D03*
X0133750Y0245500D03*
X0133750Y0235500D03*
X0123750Y0235500D03*
X0123750Y0245500D03*
X0113750Y0245500D03*
X0113750Y0235500D03*
X0103750Y0235500D03*
X0103750Y0245500D03*
X0093750Y0245500D03*
X0093750Y0235500D03*
X0083750Y0235500D03*
X0083750Y0245500D03*
X0083750Y0257500D03*
X0093750Y0257500D03*
X0093750Y0267500D03*
X0083750Y0267500D03*
X0078750Y0287500D03*
X0078750Y0297500D03*
X0083750Y0347500D03*
X0093750Y0347500D03*
X0093750Y0357500D03*
X0083750Y0357500D03*
X0103750Y0357500D03*
X0113750Y0357500D03*
X0123750Y0357500D03*
X0133750Y0357500D03*
X0143750Y0357500D03*
X0153750Y0357500D03*
X0163750Y0357500D03*
X0163750Y0347500D03*
X0153750Y0347500D03*
X0143750Y0347500D03*
X0133750Y0347500D03*
X0123750Y0347500D03*
X0113750Y0347500D03*
X0103750Y0347500D03*
X0173750Y0347500D03*
X0183750Y0347500D03*
X0173750Y0357500D03*
X0245750Y0297500D03*
X0245750Y0287500D03*
X0250750Y0267500D03*
X0260750Y0267500D03*
X0270750Y0267500D03*
X0280750Y0267500D03*
X0280750Y0257500D03*
X0270750Y0257500D03*
X0260750Y0257500D03*
X0250750Y0257500D03*
X0250750Y0245500D03*
X0250750Y0235500D03*
X0260750Y0235500D03*
X0260750Y0245500D03*
X0270750Y0245500D03*
X0270750Y0235500D03*
X0280750Y0235500D03*
X0280750Y0245500D03*
X0290750Y0245500D03*
X0290750Y0235500D03*
X0300750Y0235500D03*
X0300750Y0245500D03*
X0310750Y0245500D03*
X0310750Y0235500D03*
X0320750Y0235500D03*
X0320750Y0245500D03*
X0330750Y0245500D03*
X0330750Y0235500D03*
X0340750Y0235500D03*
X0340750Y0245500D03*
X0350750Y0235500D03*
X0350750Y0257500D03*
X0340750Y0257500D03*
X0330750Y0257500D03*
X0320750Y0257500D03*
X0310750Y0257500D03*
X0300750Y0257500D03*
X0290750Y0257500D03*
X0290750Y0267500D03*
X0300750Y0267500D03*
X0310750Y0267500D03*
X0320750Y0267500D03*
X0330750Y0267500D03*
X0340750Y0267500D03*
X0350750Y0267500D03*
X0350750Y0347500D03*
X0340750Y0347500D03*
X0330750Y0347500D03*
X0320750Y0347500D03*
X0310750Y0347500D03*
X0300750Y0347500D03*
X0290750Y0347500D03*
X0290750Y0357500D03*
X0300750Y0357500D03*
X0310750Y0357500D03*
X0320750Y0357500D03*
X0330750Y0357500D03*
X0340750Y0357500D03*
X0280750Y0357500D03*
X0270750Y0357500D03*
X0260750Y0357500D03*
X0250750Y0357500D03*
X0250750Y0347500D03*
X0260750Y0347500D03*
X0270750Y0347500D03*
X0280750Y0347500D03*
X0245750Y0185500D03*
X0245750Y0175500D03*
X0250750Y0155500D03*
X0250750Y0145500D03*
X0260750Y0145500D03*
X0260750Y0155500D03*
X0270750Y0155500D03*
X0270750Y0145500D03*
X0280750Y0145500D03*
X0280750Y0155500D03*
X0290750Y0155500D03*
X0290750Y0145500D03*
X0300750Y0145500D03*
X0300750Y0155500D03*
X0310750Y0155500D03*
X0310750Y0145500D03*
X0320750Y0145500D03*
X0320750Y0155500D03*
X0330750Y0155500D03*
X0330750Y0145500D03*
X0340750Y0145500D03*
X0340750Y0155500D03*
X0350750Y0155500D03*
X0350750Y0145500D03*
X0340750Y0133500D03*
X0330750Y0133500D03*
X0320750Y0133500D03*
X0310750Y0133500D03*
X0300750Y0133500D03*
X0290750Y0133500D03*
X0290750Y0123500D03*
X0300750Y0123500D03*
X0310750Y0123500D03*
X0320750Y0123500D03*
X0330750Y0123500D03*
X0340750Y0123500D03*
X0350750Y0123500D03*
X0280750Y0123500D03*
X0270750Y0123500D03*
X0260750Y0123500D03*
X0250750Y0123500D03*
X0250750Y0133500D03*
X0260750Y0133500D03*
X0270750Y0133500D03*
X0280750Y0133500D03*
X0245750Y0073500D03*
X0245750Y0063500D03*
X0250750Y0043500D03*
X0260750Y0043500D03*
X0270750Y0043500D03*
X0280750Y0043500D03*
X0280750Y0033500D03*
X0270750Y0033500D03*
X0260750Y0033500D03*
X0250750Y0033500D03*
X0290750Y0033500D03*
X0300750Y0033500D03*
X0310750Y0033500D03*
X0320750Y0033500D03*
X0330750Y0033500D03*
X0340750Y0033500D03*
X0350750Y0033500D03*
X0350750Y0043500D03*
X0340750Y0043500D03*
X0330750Y0043500D03*
X0320750Y0043500D03*
X0310750Y0043500D03*
X0300750Y0043500D03*
X0290750Y0043500D03*
X0183750Y0043500D03*
X0173750Y0043500D03*
X0173750Y0033500D03*
X0183750Y0033500D03*
X0163750Y0033500D03*
X0153750Y0033500D03*
X0143750Y0033500D03*
X0133750Y0033500D03*
X0123750Y0033500D03*
X0113750Y0033500D03*
X0103750Y0033500D03*
X0103750Y0043500D03*
X0113750Y0043500D03*
X0123750Y0043500D03*
X0133750Y0043500D03*
X0143750Y0043500D03*
X0153750Y0043500D03*
X0163750Y0043500D03*
X0093750Y0043500D03*
X0083750Y0043500D03*
X0083750Y0033500D03*
X0093750Y0033500D03*
X0078750Y0063500D03*
X0078750Y0073500D03*
X0083750Y0123500D03*
X0093750Y0123500D03*
X0093750Y0133500D03*
X0083750Y0133500D03*
X0083750Y0145500D03*
X0083750Y0155500D03*
X0093750Y0155500D03*
X0093750Y0145500D03*
X0103750Y0145500D03*
X0103750Y0155500D03*
X0113750Y0155500D03*
X0113750Y0145500D03*
X0123750Y0145500D03*
X0123750Y0155500D03*
X0133750Y0155500D03*
X0133750Y0145500D03*
X0143750Y0145500D03*
X0143750Y0155500D03*
X0153750Y0155500D03*
X0153750Y0145500D03*
X0163750Y0145500D03*
X0163750Y0155500D03*
X0173750Y0155500D03*
X0173750Y0145500D03*
X0183750Y0145500D03*
X0183750Y0155500D03*
X0173750Y0133500D03*
X0173750Y0123500D03*
X0183750Y0123500D03*
X0163750Y0123500D03*
X0153750Y0123500D03*
X0143750Y0123500D03*
X0133750Y0123500D03*
X0123750Y0123500D03*
X0113750Y0123500D03*
X0103750Y0123500D03*
X0103750Y0133500D03*
X0113750Y0133500D03*
X0123750Y0133500D03*
X0133750Y0133500D03*
X0143750Y0133500D03*
X0153750Y0133500D03*
X0163750Y0133500D03*
X0078750Y0175500D03*
X0078750Y0185500D03*
D27*
X0058750Y0235957D03*
X0058750Y0243043D03*
X0058750Y0347957D03*
X0058750Y0355043D03*
X0225750Y0355043D03*
X0225750Y0347957D03*
X0225750Y0243043D03*
X0225750Y0235957D03*
X0225750Y0131043D03*
X0225750Y0123957D03*
X0058750Y0123957D03*
X0058750Y0131043D03*
D28*
X0051073Y0127500D03*
X0066427Y0127500D03*
X0066427Y0239500D03*
X0051073Y0239500D03*
X0051073Y0351500D03*
X0066427Y0351500D03*
X0218073Y0351500D03*
X0233427Y0351500D03*
X0233427Y0239500D03*
X0218073Y0239500D03*
X0218073Y0127500D03*
X0233427Y0127500D03*
D29*
X0230317Y0176563D03*
X0230317Y0184437D03*
X0230317Y0288563D03*
X0230317Y0296437D03*
X0063317Y0296437D03*
X0063317Y0288563D03*
X0063317Y0184437D03*
X0063317Y0176563D03*
X0063317Y0072437D03*
X0063317Y0064563D03*
X0230317Y0064563D03*
X0230317Y0072437D03*
D30*
X0209844Y0081886D03*
X0209844Y0055114D03*
X0209844Y0167114D03*
X0209844Y0193886D03*
X0209844Y0279114D03*
X0209844Y0305886D03*
X0042844Y0305886D03*
X0042844Y0279114D03*
X0042844Y0193886D03*
X0042844Y0167114D03*
X0042844Y0081886D03*
X0042844Y0055114D03*
D31*
X0188219Y0072476D03*
X0188219Y0094524D03*
X0188219Y0184476D03*
X0188219Y0206524D03*
X0188219Y0296476D03*
X0188219Y0318524D03*
X0355219Y0318524D03*
X0355219Y0296476D03*
X0355219Y0206524D03*
X0355219Y0184476D03*
X0355219Y0094524D03*
X0355219Y0072476D03*
D32*
X0340750Y0077594D03*
X0340750Y0081531D03*
X0340750Y0085469D03*
X0340750Y0089406D03*
X0340750Y0189594D03*
X0340750Y0193531D03*
X0340750Y0197469D03*
X0340750Y0201406D03*
X0340750Y0301594D03*
X0340750Y0305531D03*
X0340750Y0309469D03*
X0340750Y0313406D03*
X0173750Y0313406D03*
X0173750Y0309469D03*
X0173750Y0305531D03*
X0173750Y0301594D03*
X0173750Y0201406D03*
X0173750Y0197469D03*
X0173750Y0193531D03*
X0173750Y0189594D03*
X0173750Y0089406D03*
X0173750Y0085469D03*
X0173750Y0081531D03*
X0173750Y0077594D03*
D33*
X0158750Y0103500D03*
X0148750Y0103500D03*
X0138750Y0103500D03*
X0138750Y0113500D03*
X0148750Y0113500D03*
X0158750Y0113500D03*
X0158750Y0215500D03*
X0158750Y0225500D03*
X0148750Y0225500D03*
X0148750Y0215500D03*
X0138750Y0215500D03*
X0138750Y0225500D03*
X0138750Y0327500D03*
X0148750Y0327500D03*
X0158750Y0327500D03*
X0158750Y0337500D03*
X0148750Y0337500D03*
X0138750Y0337500D03*
X0305750Y0337500D03*
X0315750Y0337500D03*
X0325750Y0337500D03*
X0325750Y0327500D03*
X0315750Y0327500D03*
X0305750Y0327500D03*
X0305750Y0225500D03*
X0305750Y0215500D03*
X0315750Y0215500D03*
X0315750Y0225500D03*
X0325750Y0225500D03*
X0325750Y0215500D03*
X0325750Y0113500D03*
X0315750Y0113500D03*
X0305750Y0113500D03*
X0305750Y0103500D03*
X0315750Y0103500D03*
X0325750Y0103500D03*
D34*
X0329136Y0093343D03*
X0329136Y0091374D03*
X0329136Y0089406D03*
X0329136Y0087437D03*
X0329136Y0085469D03*
X0329136Y0083500D03*
X0329136Y0081531D03*
X0329136Y0079563D03*
X0329136Y0077594D03*
X0329136Y0075626D03*
X0329136Y0073657D03*
X0302364Y0073657D03*
X0302364Y0075626D03*
X0302364Y0077594D03*
X0302364Y0079563D03*
X0302364Y0081531D03*
X0302364Y0083500D03*
X0302364Y0085469D03*
X0302364Y0087437D03*
X0302364Y0089406D03*
X0302364Y0091374D03*
X0302364Y0093343D03*
X0302364Y0185657D03*
X0302364Y0187626D03*
X0302364Y0189594D03*
X0302364Y0191563D03*
X0302364Y0193531D03*
X0302364Y0195500D03*
X0302364Y0197469D03*
X0302364Y0199437D03*
X0302364Y0201406D03*
X0302364Y0203374D03*
X0302364Y0205343D03*
X0329136Y0205343D03*
X0329136Y0203374D03*
X0329136Y0201406D03*
X0329136Y0199437D03*
X0329136Y0197469D03*
X0329136Y0195500D03*
X0329136Y0193531D03*
X0329136Y0191563D03*
X0329136Y0189594D03*
X0329136Y0187626D03*
X0329136Y0185657D03*
X0329136Y0297657D03*
X0329136Y0299626D03*
X0329136Y0301594D03*
X0329136Y0303563D03*
X0329136Y0305531D03*
X0329136Y0307500D03*
X0329136Y0309469D03*
X0329136Y0311437D03*
X0329136Y0313406D03*
X0329136Y0315374D03*
X0329136Y0317343D03*
X0302364Y0317343D03*
X0302364Y0315374D03*
X0302364Y0313406D03*
X0302364Y0311437D03*
X0302364Y0309469D03*
X0302364Y0307500D03*
X0302364Y0305531D03*
X0302364Y0303563D03*
X0302364Y0301594D03*
X0302364Y0299626D03*
X0302364Y0297657D03*
X0162136Y0297657D03*
X0162136Y0299626D03*
X0162136Y0301594D03*
X0162136Y0303563D03*
X0162136Y0305531D03*
X0162136Y0307500D03*
X0162136Y0309469D03*
X0162136Y0311437D03*
X0162136Y0313406D03*
X0162136Y0315374D03*
X0162136Y0317343D03*
X0135364Y0317343D03*
X0135364Y0315374D03*
X0135364Y0313406D03*
X0135364Y0311437D03*
X0135364Y0309469D03*
X0135364Y0307500D03*
X0135364Y0305531D03*
X0135364Y0303563D03*
X0135364Y0301594D03*
X0135364Y0299626D03*
X0135364Y0297657D03*
X0135364Y0205343D03*
X0135364Y0203374D03*
X0135364Y0201406D03*
X0135364Y0199437D03*
X0135364Y0197469D03*
X0135364Y0195500D03*
X0135364Y0193531D03*
X0135364Y0191563D03*
X0135364Y0189594D03*
X0135364Y0187626D03*
X0135364Y0185657D03*
X0162136Y0185657D03*
X0162136Y0187626D03*
X0162136Y0189594D03*
X0162136Y0191563D03*
X0162136Y0193531D03*
X0162136Y0195500D03*
X0162136Y0197469D03*
X0162136Y0199437D03*
X0162136Y0201406D03*
X0162136Y0203374D03*
X0162136Y0205343D03*
X0162136Y0093343D03*
X0162136Y0091374D03*
X0162136Y0089406D03*
X0162136Y0087437D03*
X0162136Y0085469D03*
X0162136Y0083500D03*
X0162136Y0081531D03*
X0162136Y0079563D03*
X0162136Y0077594D03*
X0162136Y0075626D03*
X0162136Y0073657D03*
X0135364Y0073657D03*
X0135364Y0075626D03*
X0135364Y0077594D03*
X0135364Y0079563D03*
X0135364Y0081531D03*
X0135364Y0083500D03*
X0135364Y0085469D03*
X0135364Y0087437D03*
X0135364Y0089406D03*
X0135364Y0091374D03*
X0135364Y0093343D03*
D35*
X0138907Y0096886D03*
X0140876Y0096886D03*
X0142844Y0096886D03*
X0144813Y0096886D03*
X0146781Y0096886D03*
X0148750Y0096886D03*
X0150719Y0096886D03*
X0152687Y0096886D03*
X0154656Y0096886D03*
X0156624Y0096886D03*
X0158593Y0096886D03*
X0158593Y0070114D03*
X0156624Y0070114D03*
X0154656Y0070114D03*
X0152687Y0070114D03*
X0150719Y0070114D03*
X0148750Y0070114D03*
X0146781Y0070114D03*
X0144813Y0070114D03*
X0142844Y0070114D03*
X0140876Y0070114D03*
X0138907Y0070114D03*
X0138907Y0182114D03*
X0140876Y0182114D03*
X0142844Y0182114D03*
X0144813Y0182114D03*
X0146781Y0182114D03*
X0148750Y0182114D03*
X0150719Y0182114D03*
X0152687Y0182114D03*
X0154656Y0182114D03*
X0156624Y0182114D03*
X0158593Y0182114D03*
X0158593Y0208886D03*
X0156624Y0208886D03*
X0154656Y0208886D03*
X0152687Y0208886D03*
X0150719Y0208886D03*
X0148750Y0208886D03*
X0146781Y0208886D03*
X0144813Y0208886D03*
X0142844Y0208886D03*
X0140876Y0208886D03*
X0138907Y0208886D03*
X0138907Y0294114D03*
X0140876Y0294114D03*
X0142844Y0294114D03*
X0144813Y0294114D03*
X0146781Y0294114D03*
X0148750Y0294114D03*
X0150719Y0294114D03*
X0152687Y0294114D03*
X0154656Y0294114D03*
X0156624Y0294114D03*
X0158593Y0294114D03*
X0158593Y0320886D03*
X0156624Y0320886D03*
X0154656Y0320886D03*
X0152687Y0320886D03*
X0150719Y0320886D03*
X0148750Y0320886D03*
X0146781Y0320886D03*
X0144813Y0320886D03*
X0142844Y0320886D03*
X0140876Y0320886D03*
X0138907Y0320886D03*
X0305907Y0320886D03*
X0307876Y0320886D03*
X0309844Y0320886D03*
X0311813Y0320886D03*
X0313781Y0320886D03*
X0315750Y0320886D03*
X0317719Y0320886D03*
X0319687Y0320886D03*
X0321656Y0320886D03*
X0323624Y0320886D03*
X0325593Y0320886D03*
X0325593Y0294114D03*
X0323624Y0294114D03*
X0321656Y0294114D03*
X0319687Y0294114D03*
X0317719Y0294114D03*
X0315750Y0294114D03*
X0313781Y0294114D03*
X0311813Y0294114D03*
X0309844Y0294114D03*
X0307876Y0294114D03*
X0305907Y0294114D03*
X0305907Y0208886D03*
X0307876Y0208886D03*
X0309844Y0208886D03*
X0311813Y0208886D03*
X0313781Y0208886D03*
X0315750Y0208886D03*
X0317719Y0208886D03*
X0319687Y0208886D03*
X0321656Y0208886D03*
X0323624Y0208886D03*
X0325593Y0208886D03*
X0325593Y0182114D03*
X0323624Y0182114D03*
X0321656Y0182114D03*
X0319687Y0182114D03*
X0317719Y0182114D03*
X0315750Y0182114D03*
X0313781Y0182114D03*
X0311813Y0182114D03*
X0309844Y0182114D03*
X0307876Y0182114D03*
X0305907Y0182114D03*
X0305907Y0096886D03*
X0307876Y0096886D03*
X0309844Y0096886D03*
X0311813Y0096886D03*
X0313781Y0096886D03*
X0315750Y0096886D03*
X0317719Y0096886D03*
X0319687Y0096886D03*
X0321656Y0096886D03*
X0323624Y0096886D03*
X0325593Y0096886D03*
X0325593Y0070114D03*
X0323624Y0070114D03*
X0321656Y0070114D03*
X0319687Y0070114D03*
X0317719Y0070114D03*
X0315750Y0070114D03*
X0313781Y0070114D03*
X0311813Y0070114D03*
X0309844Y0070114D03*
X0307876Y0070114D03*
X0305907Y0070114D03*
D36*
X0328750Y0370750D03*
X0065750Y0370750D03*
D37*
X0062185Y0020250D02*
X0062187Y0020369D01*
X0062193Y0020488D01*
X0062203Y0020607D01*
X0062217Y0020725D01*
X0062235Y0020843D01*
X0062256Y0020960D01*
X0062282Y0021076D01*
X0062312Y0021192D01*
X0062345Y0021306D01*
X0062382Y0021419D01*
X0062423Y0021531D01*
X0062468Y0021642D01*
X0062516Y0021751D01*
X0062568Y0021858D01*
X0062624Y0021963D01*
X0062683Y0022067D01*
X0062745Y0022168D01*
X0062811Y0022268D01*
X0062880Y0022365D01*
X0062952Y0022459D01*
X0063028Y0022552D01*
X0063106Y0022641D01*
X0063187Y0022728D01*
X0063272Y0022813D01*
X0063359Y0022894D01*
X0063448Y0022972D01*
X0063541Y0023048D01*
X0063635Y0023120D01*
X0063732Y0023189D01*
X0063832Y0023255D01*
X0063933Y0023317D01*
X0064037Y0023376D01*
X0064142Y0023432D01*
X0064249Y0023484D01*
X0064358Y0023532D01*
X0064469Y0023577D01*
X0064581Y0023618D01*
X0064694Y0023655D01*
X0064808Y0023688D01*
X0064924Y0023718D01*
X0065040Y0023744D01*
X0065157Y0023765D01*
X0065275Y0023783D01*
X0065393Y0023797D01*
X0065512Y0023807D01*
X0065631Y0023813D01*
X0065750Y0023815D01*
X0065869Y0023813D01*
X0065988Y0023807D01*
X0066107Y0023797D01*
X0066225Y0023783D01*
X0066343Y0023765D01*
X0066460Y0023744D01*
X0066576Y0023718D01*
X0066692Y0023688D01*
X0066806Y0023655D01*
X0066919Y0023618D01*
X0067031Y0023577D01*
X0067142Y0023532D01*
X0067251Y0023484D01*
X0067358Y0023432D01*
X0067463Y0023376D01*
X0067567Y0023317D01*
X0067668Y0023255D01*
X0067768Y0023189D01*
X0067865Y0023120D01*
X0067959Y0023048D01*
X0068052Y0022972D01*
X0068141Y0022894D01*
X0068228Y0022813D01*
X0068313Y0022728D01*
X0068394Y0022641D01*
X0068472Y0022552D01*
X0068548Y0022459D01*
X0068620Y0022365D01*
X0068689Y0022268D01*
X0068755Y0022168D01*
X0068817Y0022067D01*
X0068876Y0021963D01*
X0068932Y0021858D01*
X0068984Y0021751D01*
X0069032Y0021642D01*
X0069077Y0021531D01*
X0069118Y0021419D01*
X0069155Y0021306D01*
X0069188Y0021192D01*
X0069218Y0021076D01*
X0069244Y0020960D01*
X0069265Y0020843D01*
X0069283Y0020725D01*
X0069297Y0020607D01*
X0069307Y0020488D01*
X0069313Y0020369D01*
X0069315Y0020250D01*
X0069313Y0020131D01*
X0069307Y0020012D01*
X0069297Y0019893D01*
X0069283Y0019775D01*
X0069265Y0019657D01*
X0069244Y0019540D01*
X0069218Y0019424D01*
X0069188Y0019308D01*
X0069155Y0019194D01*
X0069118Y0019081D01*
X0069077Y0018969D01*
X0069032Y0018858D01*
X0068984Y0018749D01*
X0068932Y0018642D01*
X0068876Y0018537D01*
X0068817Y0018433D01*
X0068755Y0018332D01*
X0068689Y0018232D01*
X0068620Y0018135D01*
X0068548Y0018041D01*
X0068472Y0017948D01*
X0068394Y0017859D01*
X0068313Y0017772D01*
X0068228Y0017687D01*
X0068141Y0017606D01*
X0068052Y0017528D01*
X0067959Y0017452D01*
X0067865Y0017380D01*
X0067768Y0017311D01*
X0067668Y0017245D01*
X0067567Y0017183D01*
X0067463Y0017124D01*
X0067358Y0017068D01*
X0067251Y0017016D01*
X0067142Y0016968D01*
X0067031Y0016923D01*
X0066919Y0016882D01*
X0066806Y0016845D01*
X0066692Y0016812D01*
X0066576Y0016782D01*
X0066460Y0016756D01*
X0066343Y0016735D01*
X0066225Y0016717D01*
X0066107Y0016703D01*
X0065988Y0016693D01*
X0065869Y0016687D01*
X0065750Y0016685D01*
X0065631Y0016687D01*
X0065512Y0016693D01*
X0065393Y0016703D01*
X0065275Y0016717D01*
X0065157Y0016735D01*
X0065040Y0016756D01*
X0064924Y0016782D01*
X0064808Y0016812D01*
X0064694Y0016845D01*
X0064581Y0016882D01*
X0064469Y0016923D01*
X0064358Y0016968D01*
X0064249Y0017016D01*
X0064142Y0017068D01*
X0064037Y0017124D01*
X0063933Y0017183D01*
X0063832Y0017245D01*
X0063732Y0017311D01*
X0063635Y0017380D01*
X0063541Y0017452D01*
X0063448Y0017528D01*
X0063359Y0017606D01*
X0063272Y0017687D01*
X0063187Y0017772D01*
X0063106Y0017859D01*
X0063028Y0017948D01*
X0062952Y0018041D01*
X0062880Y0018135D01*
X0062811Y0018232D01*
X0062745Y0018332D01*
X0062683Y0018433D01*
X0062624Y0018537D01*
X0062568Y0018642D01*
X0062516Y0018749D01*
X0062468Y0018858D01*
X0062423Y0018969D01*
X0062382Y0019081D01*
X0062345Y0019194D01*
X0062312Y0019308D01*
X0062282Y0019424D01*
X0062256Y0019540D01*
X0062235Y0019657D01*
X0062217Y0019775D01*
X0062203Y0019893D01*
X0062193Y0020012D01*
X0062187Y0020131D01*
X0062185Y0020250D01*
D38*
X0065750Y0020250D03*
M02*
