%
M48
M72
T01C0.0150
T02C0.0276
T03C0.0354
T04C0.0400
%
T01
X5125Y4675
X5875Y5375
X7975Y7925
X9075Y7875
X9725Y7825
X10375Y8125
X11075Y7875
X11075Y6875
X10725Y6325
X10525Y5475
X11075Y5025
X9675Y6525
X8375Y9375
X9225Y10175
X9575Y10875
X10375Y10875
X11275Y11225
X13225Y10375
X13675Y10225
X14125Y10025
X13575Y9575
X14625Y8875
X14975Y9125
X15525Y9175
X15875Y8475
X16225Y8225
X16025Y7625
X15425Y8225
X14925Y8525
X14725Y8025
X14525Y7675
X15075Y7575
X14925Y6705
X14075Y7075
X13375Y7275
X13415Y6745
X13045Y6825
X13375Y7775
X13375Y8475
X13375Y5375
X16575Y6725
X17175Y6675
X17325Y7225
X17075Y7495
X17325Y7975
X17075Y8475
X17075Y8975
X17075Y9525
X17075Y10075
X19575Y12375
X21375Y11875
X22075Y10225
X23575Y10725
X23925Y11225
X24325Y10775
X25425Y10175
X25775Y10875
X26575Y10875
X27475Y11225
X29425Y10375
X29875Y10225
X30325Y10025
X29775Y9575
X29575Y8475
X29575Y7775
X29575Y7275
X29615Y6745
X29245Y6825
X30275Y7075
X30725Y7675
X30925Y8025
X31125Y8525
X30825Y8875
X31175Y9125
X31725Y9175
X32075Y8475
X32425Y8225
X31625Y8225
X31275Y7575
X31125Y6705
X32225Y7625
X32775Y6725
X33375Y6675
X33525Y7225
X33275Y7495
X33525Y7975
X33275Y8475
X33275Y8975
X33275Y9525
X33275Y10075
X29575Y5375
X27275Y5025
X26725Y5475
X26925Y6325
X27275Y6875
X27275Y7875
X26575Y8125
X25925Y7825
X25275Y7875
X24175Y7925
X24575Y9375
X23325Y11325
X21575Y8375
X22075Y5375
X21325Y4675
X25875Y6525
X21325Y15875
X22075Y16575
X24175Y19125
X25275Y19075
X25925Y19025
X26575Y19325
X27275Y19075
X27275Y18075
X26925Y17525
X26725Y16675
X27275Y16225
X25875Y17725
X24575Y20575
X25425Y21375
X25775Y22075
X26575Y22075
X27475Y22425
X29425Y21575
X29875Y21425
X30325Y21225
X29775Y20775
X29575Y19675
X29575Y18975
X29575Y18475
X29615Y17945
X29245Y18025
X30275Y18275
X30725Y18875
X30925Y19225
X31125Y19725
X30825Y20075
X31175Y20325
X31725Y20375
X32075Y19675
X32425Y19425
X31625Y19425
X31275Y18775
X31125Y17905
X32225Y18825
X32775Y17925
X33375Y17875
X33525Y18425
X33275Y18695
X33525Y19175
X33275Y19675
X33275Y20175
X33275Y20725
X33275Y21275
X29575Y16575
X24325Y21975
X23925Y22425
X23325Y22525
X23575Y21925
X22075Y21425
X21375Y23075
X19575Y23575
X17075Y21275
X17075Y20725
X17075Y20175
X17075Y19675
X17325Y19175
X17075Y18695
X17325Y18425
X17175Y17875
X16575Y17925
X16025Y18825
X16225Y19425
X15875Y19675
X15425Y19425
X14925Y19725
X14625Y20075
X14975Y20325
X15525Y20375
X14725Y19225
X14525Y18875
X15075Y18775
X14925Y17905
X14075Y18275
X13375Y18475
X13415Y17945
X13045Y18025
X13375Y18975
X13375Y19675
X13575Y20775
X13675Y21425
X13225Y21575
X14125Y21225
X11275Y22425
X10375Y22075
X9575Y22075
X9225Y21375
X8375Y20575
X7975Y19125
X9075Y19075
X9725Y19025
X10375Y19325
X11075Y19075
X11075Y18075
X10725Y17525
X10525Y16675
X11075Y16225
X9675Y17725
X13375Y16575
X8125Y21975
X7725Y22425
X7125Y22525
X7375Y21925
X5875Y21425
X5175Y23075
X3375Y23575
X5125Y27075
X5875Y27775
X7975Y30325
X9075Y30275
X9725Y30225
X10375Y30525
X11075Y30275
X11075Y29275
X10725Y28725
X10525Y27875
X11075Y27425
X9675Y28925
X8375Y31775
X9225Y32575
X9575Y33275
X10375Y33275
X11275Y33625
X13225Y32775
X13675Y32625
X14125Y32425
X13575Y31975
X14625Y31275
X14975Y31525
X15525Y31575
X15875Y30875
X16225Y30625
X16025Y30025
X15425Y30625
X14925Y30925
X14725Y30425
X14525Y30075
X15075Y29975
X14925Y29105
X14075Y29475
X13375Y29675
X13415Y29145
X13045Y29225
X13375Y30175
X13375Y30875
X13375Y27775
X16575Y29125
X17175Y29075
X17325Y29625
X17075Y29895
X17325Y30375
X17075Y30875
X17075Y31375
X17075Y31925
X17075Y32475
X19575Y34775
X21375Y34275
X22075Y32625
X23575Y33125
X23925Y33625
X24325Y33175
X25425Y32575
X25775Y33275
X26575Y33275
X27475Y33625
X29425Y32775
X29875Y32625
X30325Y32425
X29775Y31975
X29575Y30875
X29575Y30175
X29575Y29675
X29615Y29145
X29245Y29225
X30275Y29475
X30725Y30075
X30925Y30425
X31125Y30925
X30825Y31275
X31175Y31525
X31725Y31575
X32075Y30875
X32425Y30625
X31625Y30625
X31275Y29975
X31125Y29105
X32225Y30025
X32775Y29125
X33375Y29075
X33525Y29625
X33275Y29895
X33525Y30375
X33275Y30875
X33275Y31375
X33275Y31925
X33275Y32475
X29575Y27775
X27275Y27425
X26725Y27875
X26925Y28725
X27275Y29275
X27275Y30275
X26575Y30525
X25925Y30225
X25275Y30275
X24175Y30325
X24575Y31775
X23325Y33725
X21575Y30775
X22075Y27775
X21325Y27075
X25875Y28925
X21575Y19575
X8125Y10775
X7725Y11225
X7125Y11325
X7375Y10725
X5875Y10225
X5175Y11875
X3375Y12375
X5125Y15875
X5875Y16575
X5375Y19575
X5375Y8375
X5375Y30775
X5875Y32625
X7125Y33725
X7725Y33625
X8125Y33175
X7375Y33125
X5175Y34275
X3375Y34775
T02
X5375Y34921
X5375Y35629
X5375Y24429
X5375Y23721
X5375Y13229
X5375Y12521
X21575Y12521
X21575Y13229
X21575Y23721
X21575Y24429
X21575Y34921
X21575Y35629
T03
X4784Y3875
X5966Y3875
X5966Y15075
X4784Y15075
X4784Y26275
X5966Y26275
X20984Y26275
X22166Y26275
X22166Y15075
X20984Y15075
X20984Y3875
X22166Y3875
T04
X24075Y3375
X25075Y3375
X26075Y3375
X26075Y4375
X25075Y4375
X24075Y4375
X23575Y6375
X23575Y7375
X27075Y4375
X28075Y4375
X29075Y4375
X30075Y4375
X31075Y4375
X31075Y3375
X30075Y3375
X29075Y3375
X28075Y3375
X27075Y3375
X32075Y3375
X33075Y3375
X34075Y3375
X34075Y4375
X33075Y4375
X32075Y4375
X32075Y12375
X33075Y12375
X34075Y12375
X34075Y13375
X33075Y13375
X32075Y13375
X32075Y14575
X33075Y14575
X34075Y14575
X34075Y15575
X33075Y15575
X32075Y15575
X31075Y15575
X30075Y15575
X29075Y15575
X28075Y15575
X27075Y15575
X27075Y14575
X28075Y14575
X29075Y14575
X30075Y14575
X31075Y14575
X31075Y13375
X30075Y13375
X29075Y13375
X28075Y13375
X27075Y13375
X27075Y12375
X28075Y12375
X29075Y12375
X30075Y12375
X31075Y12375
X26075Y12375
X25075Y12375
X24075Y12375
X24075Y13375
X25075Y13375
X26075Y13375
X26075Y14575
X25075Y14575
X24075Y14575
X24075Y15575
X25075Y15575
X26075Y15575
X23575Y17575
X23575Y18575
X24075Y23575
X25075Y23575
X26075Y23575
X26075Y24575
X25075Y24575
X24075Y24575
X24075Y25775
X25075Y25775
X26075Y25775
X26075Y26775
X25075Y26775
X24075Y26775
X23575Y28775
X23575Y29775
X27075Y26775
X28075Y26775
X29075Y26775
X30075Y26775
X31075Y26775
X31075Y25775
X30075Y25775
X29075Y25775
X28075Y25775
X27075Y25775
X27075Y24575
X28075Y24575
X29075Y24575
X30075Y24575
X31075Y24575
X31075Y23575
X30075Y23575
X29075Y23575
X28075Y23575
X27075Y23575
X32075Y23575
X33075Y23575
X34075Y23575
X34075Y24575
X33075Y24575
X32075Y24575
X32075Y25775
X33075Y25775
X34075Y25775
X34075Y26775
X33075Y26775
X32075Y26775
X32075Y34775
X33075Y34775
X34075Y34775
X34075Y35775
X33075Y35775
X32075Y35775
X31075Y35775
X30075Y35775
X29075Y35775
X28075Y35775
X27075Y35775
X27075Y34775
X28075Y34775
X29075Y34775
X30075Y34775
X31075Y34775
X26075Y34775
X25075Y34775
X24075Y34775
X24075Y35775
X25075Y35775
X26075Y35775
X17875Y35775
X17875Y34775
X16875Y34775
X15875Y34775
X14875Y34775
X13875Y34775
X12875Y34775
X12875Y35775
X13875Y35775
X14875Y35775
X15875Y35775
X16875Y35775
X11875Y35775
X10875Y35775
X9875Y35775
X8875Y35775
X7875Y35775
X7875Y34775
X8875Y34775
X9875Y34775
X10875Y34775
X11875Y34775
X7375Y29775
X7375Y28775
X7875Y26775
X8875Y26775
X9875Y26775
X10875Y26775
X11875Y26775
X11875Y25775
X10875Y25775
X9875Y25775
X8875Y25775
X7875Y25775
X7875Y24575
X8875Y24575
X9875Y24575
X10875Y24575
X11875Y24575
X11875Y23575
X10875Y23575
X9875Y23575
X8875Y23575
X7875Y23575
X12875Y23575
X13875Y23575
X14875Y23575
X15875Y23575
X16875Y23575
X16875Y24575
X15875Y24575
X14875Y24575
X13875Y24575
X12875Y24575
X12875Y25775
X13875Y25775
X14875Y25775
X15875Y25775
X16875Y25775
X16875Y26775
X15875Y26775
X14875Y26775
X13875Y26775
X12875Y26775
X17875Y26775
X17875Y25775
X17875Y24575
X17875Y23575
X17875Y15575
X17875Y14575
X17875Y13375
X17875Y12375
X16875Y12375
X15875Y12375
X14875Y12375
X13875Y12375
X12875Y12375
X12875Y13375
X13875Y13375
X14875Y13375
X15875Y13375
X16875Y13375
X16875Y14575
X15875Y14575
X14875Y14575
X13875Y14575
X12875Y14575
X12875Y15575
X13875Y15575
X14875Y15575
X15875Y15575
X16875Y15575
X11875Y15575
X10875Y15575
X9875Y15575
X8875Y15575
X7875Y15575
X7875Y14575
X8875Y14575
X9875Y14575
X10875Y14575
X11875Y14575
X11875Y13375
X10875Y13375
X9875Y13375
X8875Y13375
X7875Y13375
X7875Y12375
X8875Y12375
X9875Y12375
X10875Y12375
X11875Y12375
X7375Y7375
X7375Y6375
X7875Y4375
X8875Y4375
X9875Y4375
X10875Y4375
X11875Y4375
X11875Y3375
X10875Y3375
X9875Y3375
X8875Y3375
X7875Y3375
X12875Y3375
X13875Y3375
X14875Y3375
X15875Y3375
X16875Y3375
X16875Y4375
X15875Y4375
X14875Y4375
X13875Y4375
X12875Y4375
X17875Y4375
X17875Y3375
X7375Y17575
X7375Y18575
M30
