G75*
%MOIN*%
%OFA0B0*%
%FSLAX25Y25*%
%IPPOS*%
%LPD*%
%AMOC8*
5,1,8,0,0,1.08239X$1,22.5*
%
%ADD10C,0.07493*%
%ADD11R,0.07099X0.06312*%
%ADD12R,0.05131X0.04737*%
%ADD13R,0.04737X0.05131*%
%ADD14C,0.01990*%
%ADD15R,0.07099X0.07887*%
%ADD16R,0.07690X0.02375*%
%ADD17R,0.06548X0.08674*%
%ADD18R,0.10643X0.06410*%
%ADD19C,0.00400*%
%ADD20R,0.03556X0.06706*%
%ADD21R,0.04737X0.03162*%
%ADD22R,0.04737X0.03950*%
%ADD23C,0.04343*%
%ADD24R,0.05524X0.02965*%
%ADD25R,0.08280X0.05131*%
%ADD26C,0.08200*%
%ADD27C,0.03556*%
%ADD28R,0.05131X0.08674*%
%ADD29R,0.18910X0.04737*%
%ADD30R,0.14186X0.07099*%
%ADD31R,0.08674X0.05524*%
%ADD32R,0.06115X0.03162*%
%ADD33C,0.04808*%
%ADD34R,0.03950X0.01981*%
%ADD35R,0.01981X0.03950*%
%ADD36C,0.04737*%
%ADD37R,0.04146X0.09461*%
%ADD38R,0.04737X0.04934*%
%ADD39C,0.05000*%
%ADD40C,0.06706*%
D10*
X0178750Y0133750D03*
X0178750Y0245750D03*
X0178750Y0357750D03*
X0340750Y0357750D03*
X0340750Y0245750D03*
X0340750Y0133750D03*
D11*
X0265750Y0099262D03*
X0265750Y0088238D03*
X0235750Y0088238D03*
X0235750Y0099262D03*
X0235750Y0200238D03*
X0235750Y0211262D03*
X0265750Y0211262D03*
X0265750Y0200238D03*
X0265750Y0312238D03*
X0265750Y0323262D03*
X0235750Y0323262D03*
X0235750Y0312238D03*
X0103750Y0312238D03*
X0103750Y0323262D03*
X0073750Y0323262D03*
X0073750Y0312238D03*
X0073750Y0211262D03*
X0073750Y0200238D03*
X0103750Y0200238D03*
X0103750Y0211262D03*
X0103750Y0099262D03*
X0103750Y0088238D03*
X0073750Y0088238D03*
X0073750Y0099262D03*
D12*
X0062096Y0103250D03*
X0055404Y0103250D03*
X0055404Y0109250D03*
X0062096Y0109250D03*
X0070404Y0112250D03*
X0077096Y0112250D03*
X0085404Y0083750D03*
X0085404Y0077750D03*
X0092096Y0077750D03*
X0092096Y0083750D03*
X0100404Y0078750D03*
X0107096Y0078750D03*
X0115404Y0083750D03*
X0122096Y0083750D03*
X0122096Y0093750D03*
X0115404Y0093750D03*
X0115404Y0099750D03*
X0115404Y0105750D03*
X0122096Y0105750D03*
X0122096Y0099750D03*
X0107096Y0068750D03*
X0100404Y0068750D03*
X0100404Y0058750D03*
X0107096Y0058750D03*
X0077096Y0080250D03*
X0070404Y0080250D03*
X0100404Y0170750D03*
X0107096Y0170750D03*
X0107096Y0180750D03*
X0100404Y0180750D03*
X0092096Y0189750D03*
X0092096Y0195750D03*
X0085404Y0195750D03*
X0085404Y0189750D03*
X0077096Y0192250D03*
X0070404Y0192250D03*
X0062096Y0215250D03*
X0055404Y0215250D03*
X0055404Y0221250D03*
X0062096Y0221250D03*
X0070404Y0224250D03*
X0077096Y0224250D03*
X0100404Y0190750D03*
X0107096Y0190750D03*
X0115404Y0195750D03*
X0122096Y0195750D03*
X0122096Y0205750D03*
X0115404Y0205750D03*
X0115404Y0211750D03*
X0115404Y0217750D03*
X0122096Y0217750D03*
X0122096Y0211750D03*
X0165404Y0210750D03*
X0172096Y0210750D03*
X0217404Y0215250D03*
X0217404Y0221250D03*
X0224096Y0221250D03*
X0224096Y0215250D03*
X0232404Y0224250D03*
X0239096Y0224250D03*
X0247404Y0195750D03*
X0254096Y0195750D03*
X0254096Y0189750D03*
X0247404Y0189750D03*
X0239096Y0192250D03*
X0232404Y0192250D03*
X0262404Y0190750D03*
X0269096Y0190750D03*
X0277404Y0195750D03*
X0284096Y0195750D03*
X0284096Y0205750D03*
X0277404Y0205750D03*
X0277404Y0211750D03*
X0277404Y0217750D03*
X0284096Y0217750D03*
X0284096Y0211750D03*
X0269096Y0180750D03*
X0262404Y0180750D03*
X0262404Y0170750D03*
X0269096Y0170750D03*
X0239096Y0112250D03*
X0232404Y0112250D03*
X0224096Y0109250D03*
X0224096Y0103250D03*
X0217404Y0103250D03*
X0217404Y0109250D03*
X0232404Y0080250D03*
X0239096Y0080250D03*
X0247404Y0077750D03*
X0247404Y0083750D03*
X0254096Y0083750D03*
X0254096Y0077750D03*
X0262404Y0078750D03*
X0269096Y0078750D03*
X0277404Y0083750D03*
X0284096Y0083750D03*
X0284096Y0093750D03*
X0277404Y0093750D03*
X0277404Y0099750D03*
X0277404Y0105750D03*
X0284096Y0105750D03*
X0284096Y0099750D03*
X0269096Y0068750D03*
X0262404Y0068750D03*
X0262404Y0058750D03*
X0269096Y0058750D03*
X0327404Y0098750D03*
X0334096Y0098750D03*
X0334096Y0210750D03*
X0327404Y0210750D03*
X0269096Y0282750D03*
X0262404Y0282750D03*
X0262404Y0292750D03*
X0269096Y0292750D03*
X0269096Y0302750D03*
X0262404Y0302750D03*
X0254096Y0301750D03*
X0247404Y0301750D03*
X0247404Y0307750D03*
X0254096Y0307750D03*
X0239096Y0304250D03*
X0232404Y0304250D03*
X0224096Y0327250D03*
X0224096Y0333250D03*
X0217404Y0333250D03*
X0217404Y0327250D03*
X0232404Y0336250D03*
X0239096Y0336250D03*
X0277404Y0329750D03*
X0277404Y0323750D03*
X0284096Y0323750D03*
X0284096Y0329750D03*
X0284096Y0317750D03*
X0277404Y0317750D03*
X0277404Y0307750D03*
X0284096Y0307750D03*
X0327404Y0322750D03*
X0334096Y0322750D03*
X0172096Y0322750D03*
X0165404Y0322750D03*
X0122096Y0323750D03*
X0122096Y0329750D03*
X0115404Y0329750D03*
X0115404Y0323750D03*
X0115404Y0317750D03*
X0122096Y0317750D03*
X0122096Y0307750D03*
X0115404Y0307750D03*
X0107096Y0302750D03*
X0100404Y0302750D03*
X0092096Y0301750D03*
X0092096Y0307750D03*
X0085404Y0307750D03*
X0085404Y0301750D03*
X0077096Y0304250D03*
X0070404Y0304250D03*
X0062096Y0327250D03*
X0055404Y0327250D03*
X0055404Y0333250D03*
X0062096Y0333250D03*
X0070404Y0336250D03*
X0077096Y0336250D03*
X0100404Y0292750D03*
X0107096Y0292750D03*
X0107096Y0282750D03*
X0100404Y0282750D03*
X0165404Y0098750D03*
X0172096Y0098750D03*
D13*
X0162250Y0087096D03*
X0162250Y0080404D03*
X0158750Y0062096D03*
X0158750Y0055404D03*
X0128750Y0055404D03*
X0128750Y0062096D03*
X0118750Y0062096D03*
X0118750Y0055404D03*
X0128750Y0105404D03*
X0128750Y0112096D03*
X0138750Y0112096D03*
X0138750Y0105404D03*
X0128750Y0167404D03*
X0128750Y0174096D03*
X0118750Y0174096D03*
X0118750Y0167404D03*
X0158750Y0167404D03*
X0158750Y0174096D03*
X0162250Y0192404D03*
X0162250Y0199096D03*
X0138750Y0217404D03*
X0138750Y0224096D03*
X0128750Y0224096D03*
X0128750Y0217404D03*
X0128750Y0279404D03*
X0128750Y0286096D03*
X0118750Y0286096D03*
X0118750Y0279404D03*
X0158750Y0279404D03*
X0158750Y0286096D03*
X0162250Y0304404D03*
X0162250Y0311096D03*
X0138750Y0329404D03*
X0138750Y0336096D03*
X0128750Y0336096D03*
X0128750Y0329404D03*
X0280750Y0286096D03*
X0280750Y0279404D03*
X0290750Y0279404D03*
X0290750Y0286096D03*
X0320750Y0286096D03*
X0320750Y0279404D03*
X0324250Y0304404D03*
X0324250Y0311096D03*
X0300750Y0329404D03*
X0300750Y0336096D03*
X0290750Y0336096D03*
X0290750Y0329404D03*
X0290750Y0224096D03*
X0290750Y0217404D03*
X0300750Y0217404D03*
X0300750Y0224096D03*
X0324250Y0199096D03*
X0324250Y0192404D03*
X0320750Y0174096D03*
X0320750Y0167404D03*
X0290750Y0167404D03*
X0290750Y0174096D03*
X0280750Y0174096D03*
X0280750Y0167404D03*
X0290750Y0112096D03*
X0290750Y0105404D03*
X0300750Y0105404D03*
X0300750Y0112096D03*
X0324250Y0087096D03*
X0324250Y0080404D03*
X0320750Y0062096D03*
X0320750Y0055404D03*
X0290750Y0055404D03*
X0290750Y0062096D03*
X0280750Y0062096D03*
X0280750Y0055404D03*
D14*
X0267830Y0055123D02*
X0267830Y0052377D01*
X0267830Y0055123D02*
X0270576Y0055123D01*
X0270576Y0052377D01*
X0267830Y0052377D01*
X0267830Y0054267D02*
X0270576Y0054267D01*
X0260924Y0055123D02*
X0260924Y0052377D01*
X0260924Y0055123D02*
X0263670Y0055123D01*
X0263670Y0052377D01*
X0260924Y0052377D01*
X0260924Y0054267D02*
X0263670Y0054267D01*
X0260924Y0062377D02*
X0260924Y0065123D01*
X0263670Y0065123D01*
X0263670Y0062377D01*
X0260924Y0062377D01*
X0260924Y0064267D02*
X0263670Y0064267D01*
X0267830Y0065123D02*
X0267830Y0062377D01*
X0267830Y0065123D02*
X0270576Y0065123D01*
X0270576Y0062377D01*
X0267830Y0062377D01*
X0267830Y0064267D02*
X0270576Y0064267D01*
X0267830Y0072377D02*
X0267830Y0075123D01*
X0270576Y0075123D01*
X0270576Y0072377D01*
X0267830Y0072377D01*
X0267830Y0074267D02*
X0270576Y0074267D01*
X0260924Y0075123D02*
X0260924Y0072377D01*
X0260924Y0075123D02*
X0263670Y0075123D01*
X0263670Y0072377D01*
X0260924Y0072377D01*
X0260924Y0074267D02*
X0263670Y0074267D01*
X0260924Y0110877D02*
X0260924Y0113623D01*
X0263670Y0113623D01*
X0263670Y0110877D01*
X0260924Y0110877D01*
X0260924Y0112767D02*
X0263670Y0112767D01*
X0267830Y0113623D02*
X0267830Y0110877D01*
X0267830Y0113623D02*
X0270576Y0113623D01*
X0270576Y0110877D01*
X0267830Y0110877D01*
X0267830Y0112767D02*
X0270576Y0112767D01*
X0322670Y0107123D02*
X0322670Y0104377D01*
X0319924Y0104377D01*
X0319924Y0107123D01*
X0322670Y0107123D01*
X0322670Y0106267D02*
X0319924Y0106267D01*
X0329576Y0107123D02*
X0329576Y0104377D01*
X0326830Y0104377D01*
X0326830Y0107123D01*
X0329576Y0107123D01*
X0329576Y0106267D02*
X0326830Y0106267D01*
X0267830Y0164377D02*
X0267830Y0167123D01*
X0270576Y0167123D01*
X0270576Y0164377D01*
X0267830Y0164377D01*
X0267830Y0166267D02*
X0270576Y0166267D01*
X0260924Y0167123D02*
X0260924Y0164377D01*
X0260924Y0167123D02*
X0263670Y0167123D01*
X0263670Y0164377D01*
X0260924Y0164377D01*
X0260924Y0166267D02*
X0263670Y0166267D01*
X0260924Y0174377D02*
X0260924Y0177123D01*
X0263670Y0177123D01*
X0263670Y0174377D01*
X0260924Y0174377D01*
X0260924Y0176267D02*
X0263670Y0176267D01*
X0267830Y0177123D02*
X0267830Y0174377D01*
X0267830Y0177123D02*
X0270576Y0177123D01*
X0270576Y0174377D01*
X0267830Y0174377D01*
X0267830Y0176267D02*
X0270576Y0176267D01*
X0267830Y0184377D02*
X0267830Y0187123D01*
X0270576Y0187123D01*
X0270576Y0184377D01*
X0267830Y0184377D01*
X0267830Y0186267D02*
X0270576Y0186267D01*
X0260924Y0187123D02*
X0260924Y0184377D01*
X0260924Y0187123D02*
X0263670Y0187123D01*
X0263670Y0184377D01*
X0260924Y0184377D01*
X0260924Y0186267D02*
X0263670Y0186267D01*
X0260924Y0222877D02*
X0260924Y0225623D01*
X0263670Y0225623D01*
X0263670Y0222877D01*
X0260924Y0222877D01*
X0260924Y0224767D02*
X0263670Y0224767D01*
X0267830Y0225623D02*
X0267830Y0222877D01*
X0267830Y0225623D02*
X0270576Y0225623D01*
X0270576Y0222877D01*
X0267830Y0222877D01*
X0267830Y0224767D02*
X0270576Y0224767D01*
X0322670Y0219123D02*
X0322670Y0216377D01*
X0319924Y0216377D01*
X0319924Y0219123D01*
X0322670Y0219123D01*
X0322670Y0218267D02*
X0319924Y0218267D01*
X0329576Y0219123D02*
X0329576Y0216377D01*
X0326830Y0216377D01*
X0326830Y0219123D01*
X0329576Y0219123D01*
X0329576Y0218267D02*
X0326830Y0218267D01*
X0267830Y0276377D02*
X0267830Y0279123D01*
X0270576Y0279123D01*
X0270576Y0276377D01*
X0267830Y0276377D01*
X0267830Y0278267D02*
X0270576Y0278267D01*
X0260924Y0279123D02*
X0260924Y0276377D01*
X0260924Y0279123D02*
X0263670Y0279123D01*
X0263670Y0276377D01*
X0260924Y0276377D01*
X0260924Y0278267D02*
X0263670Y0278267D01*
X0260924Y0286377D02*
X0260924Y0289123D01*
X0263670Y0289123D01*
X0263670Y0286377D01*
X0260924Y0286377D01*
X0260924Y0288267D02*
X0263670Y0288267D01*
X0267830Y0289123D02*
X0267830Y0286377D01*
X0267830Y0289123D02*
X0270576Y0289123D01*
X0270576Y0286377D01*
X0267830Y0286377D01*
X0267830Y0288267D02*
X0270576Y0288267D01*
X0267830Y0296377D02*
X0267830Y0299123D01*
X0270576Y0299123D01*
X0270576Y0296377D01*
X0267830Y0296377D01*
X0267830Y0298267D02*
X0270576Y0298267D01*
X0260924Y0299123D02*
X0260924Y0296377D01*
X0260924Y0299123D02*
X0263670Y0299123D01*
X0263670Y0296377D01*
X0260924Y0296377D01*
X0260924Y0298267D02*
X0263670Y0298267D01*
X0260924Y0334877D02*
X0260924Y0337623D01*
X0263670Y0337623D01*
X0263670Y0334877D01*
X0260924Y0334877D01*
X0260924Y0336767D02*
X0263670Y0336767D01*
X0267830Y0337623D02*
X0267830Y0334877D01*
X0267830Y0337623D02*
X0270576Y0337623D01*
X0270576Y0334877D01*
X0267830Y0334877D01*
X0267830Y0336767D02*
X0270576Y0336767D01*
X0322670Y0331123D02*
X0322670Y0328377D01*
X0319924Y0328377D01*
X0319924Y0331123D01*
X0322670Y0331123D01*
X0322670Y0330267D02*
X0319924Y0330267D01*
X0329576Y0331123D02*
X0329576Y0328377D01*
X0326830Y0328377D01*
X0326830Y0331123D01*
X0329576Y0331123D01*
X0329576Y0330267D02*
X0326830Y0330267D01*
X0167576Y0331123D02*
X0167576Y0328377D01*
X0164830Y0328377D01*
X0164830Y0331123D01*
X0167576Y0331123D01*
X0167576Y0330267D02*
X0164830Y0330267D01*
X0160670Y0331123D02*
X0160670Y0328377D01*
X0157924Y0328377D01*
X0157924Y0331123D01*
X0160670Y0331123D01*
X0160670Y0330267D02*
X0157924Y0330267D01*
X0105830Y0334877D02*
X0105830Y0337623D01*
X0108576Y0337623D01*
X0108576Y0334877D01*
X0105830Y0334877D01*
X0105830Y0336767D02*
X0108576Y0336767D01*
X0098924Y0337623D02*
X0098924Y0334877D01*
X0098924Y0337623D02*
X0101670Y0337623D01*
X0101670Y0334877D01*
X0098924Y0334877D01*
X0098924Y0336767D02*
X0101670Y0336767D01*
X0098924Y0299123D02*
X0098924Y0296377D01*
X0098924Y0299123D02*
X0101670Y0299123D01*
X0101670Y0296377D01*
X0098924Y0296377D01*
X0098924Y0298267D02*
X0101670Y0298267D01*
X0105830Y0299123D02*
X0105830Y0296377D01*
X0105830Y0299123D02*
X0108576Y0299123D01*
X0108576Y0296377D01*
X0105830Y0296377D01*
X0105830Y0298267D02*
X0108576Y0298267D01*
X0105830Y0289123D02*
X0105830Y0286377D01*
X0105830Y0289123D02*
X0108576Y0289123D01*
X0108576Y0286377D01*
X0105830Y0286377D01*
X0105830Y0288267D02*
X0108576Y0288267D01*
X0098924Y0289123D02*
X0098924Y0286377D01*
X0098924Y0289123D02*
X0101670Y0289123D01*
X0101670Y0286377D01*
X0098924Y0286377D01*
X0098924Y0288267D02*
X0101670Y0288267D01*
X0098924Y0279123D02*
X0098924Y0276377D01*
X0098924Y0279123D02*
X0101670Y0279123D01*
X0101670Y0276377D01*
X0098924Y0276377D01*
X0098924Y0278267D02*
X0101670Y0278267D01*
X0105830Y0279123D02*
X0105830Y0276377D01*
X0105830Y0279123D02*
X0108576Y0279123D01*
X0108576Y0276377D01*
X0105830Y0276377D01*
X0105830Y0278267D02*
X0108576Y0278267D01*
X0105830Y0225623D02*
X0105830Y0222877D01*
X0105830Y0225623D02*
X0108576Y0225623D01*
X0108576Y0222877D01*
X0105830Y0222877D01*
X0105830Y0224767D02*
X0108576Y0224767D01*
X0098924Y0225623D02*
X0098924Y0222877D01*
X0098924Y0225623D02*
X0101670Y0225623D01*
X0101670Y0222877D01*
X0098924Y0222877D01*
X0098924Y0224767D02*
X0101670Y0224767D01*
X0098924Y0187123D02*
X0098924Y0184377D01*
X0098924Y0187123D02*
X0101670Y0187123D01*
X0101670Y0184377D01*
X0098924Y0184377D01*
X0098924Y0186267D02*
X0101670Y0186267D01*
X0105830Y0187123D02*
X0105830Y0184377D01*
X0105830Y0187123D02*
X0108576Y0187123D01*
X0108576Y0184377D01*
X0105830Y0184377D01*
X0105830Y0186267D02*
X0108576Y0186267D01*
X0105830Y0177123D02*
X0105830Y0174377D01*
X0105830Y0177123D02*
X0108576Y0177123D01*
X0108576Y0174377D01*
X0105830Y0174377D01*
X0105830Y0176267D02*
X0108576Y0176267D01*
X0098924Y0177123D02*
X0098924Y0174377D01*
X0098924Y0177123D02*
X0101670Y0177123D01*
X0101670Y0174377D01*
X0098924Y0174377D01*
X0098924Y0176267D02*
X0101670Y0176267D01*
X0098924Y0167123D02*
X0098924Y0164377D01*
X0098924Y0167123D02*
X0101670Y0167123D01*
X0101670Y0164377D01*
X0098924Y0164377D01*
X0098924Y0166267D02*
X0101670Y0166267D01*
X0105830Y0167123D02*
X0105830Y0164377D01*
X0105830Y0167123D02*
X0108576Y0167123D01*
X0108576Y0164377D01*
X0105830Y0164377D01*
X0105830Y0166267D02*
X0108576Y0166267D01*
X0105830Y0113623D02*
X0105830Y0110877D01*
X0105830Y0113623D02*
X0108576Y0113623D01*
X0108576Y0110877D01*
X0105830Y0110877D01*
X0105830Y0112767D02*
X0108576Y0112767D01*
X0098924Y0113623D02*
X0098924Y0110877D01*
X0098924Y0113623D02*
X0101670Y0113623D01*
X0101670Y0110877D01*
X0098924Y0110877D01*
X0098924Y0112767D02*
X0101670Y0112767D01*
X0098924Y0075123D02*
X0098924Y0072377D01*
X0098924Y0075123D02*
X0101670Y0075123D01*
X0101670Y0072377D01*
X0098924Y0072377D01*
X0098924Y0074267D02*
X0101670Y0074267D01*
X0105830Y0075123D02*
X0105830Y0072377D01*
X0105830Y0075123D02*
X0108576Y0075123D01*
X0108576Y0072377D01*
X0105830Y0072377D01*
X0105830Y0074267D02*
X0108576Y0074267D01*
X0105830Y0065123D02*
X0105830Y0062377D01*
X0105830Y0065123D02*
X0108576Y0065123D01*
X0108576Y0062377D01*
X0105830Y0062377D01*
X0105830Y0064267D02*
X0108576Y0064267D01*
X0098924Y0065123D02*
X0098924Y0062377D01*
X0098924Y0065123D02*
X0101670Y0065123D01*
X0101670Y0062377D01*
X0098924Y0062377D01*
X0098924Y0064267D02*
X0101670Y0064267D01*
X0098924Y0055123D02*
X0098924Y0052377D01*
X0098924Y0055123D02*
X0101670Y0055123D01*
X0101670Y0052377D01*
X0098924Y0052377D01*
X0098924Y0054267D02*
X0101670Y0054267D01*
X0105830Y0055123D02*
X0105830Y0052377D01*
X0105830Y0055123D02*
X0108576Y0055123D01*
X0108576Y0052377D01*
X0105830Y0052377D01*
X0105830Y0054267D02*
X0108576Y0054267D01*
X0160670Y0104377D02*
X0160670Y0107123D01*
X0160670Y0104377D02*
X0157924Y0104377D01*
X0157924Y0107123D01*
X0160670Y0107123D01*
X0160670Y0106267D02*
X0157924Y0106267D01*
X0167576Y0107123D02*
X0167576Y0104377D01*
X0164830Y0104377D01*
X0164830Y0107123D01*
X0167576Y0107123D01*
X0167576Y0106267D02*
X0164830Y0106267D01*
X0167576Y0216377D02*
X0167576Y0219123D01*
X0167576Y0216377D02*
X0164830Y0216377D01*
X0164830Y0219123D01*
X0167576Y0219123D01*
X0167576Y0218267D02*
X0164830Y0218267D01*
X0160670Y0219123D02*
X0160670Y0216377D01*
X0157924Y0216377D01*
X0157924Y0219123D01*
X0160670Y0219123D01*
X0160670Y0218267D02*
X0157924Y0218267D01*
D15*
X0230238Y0165750D03*
X0241262Y0165750D03*
X0241262Y0053750D03*
X0230238Y0053750D03*
X0079262Y0053750D03*
X0068238Y0053750D03*
X0068238Y0165750D03*
X0079262Y0165750D03*
X0079262Y0277750D03*
X0068238Y0277750D03*
X0230238Y0277750D03*
X0241262Y0277750D03*
D16*
X0206250Y0322632D03*
X0206250Y0325191D03*
X0206250Y0327750D03*
X0206250Y0330309D03*
X0206250Y0332868D03*
X0206250Y0220868D03*
X0206250Y0218309D03*
X0206250Y0215750D03*
X0206250Y0213191D03*
X0206250Y0210632D03*
X0206250Y0108868D03*
X0206250Y0106309D03*
X0206250Y0103750D03*
X0206250Y0101191D03*
X0206250Y0098632D03*
X0044250Y0098632D03*
X0044250Y0101191D03*
X0044250Y0103750D03*
X0044250Y0106309D03*
X0044250Y0108868D03*
X0044250Y0210632D03*
X0044250Y0213191D03*
X0044250Y0215750D03*
X0044250Y0218309D03*
X0044250Y0220868D03*
X0044250Y0322632D03*
X0044250Y0325191D03*
X0044250Y0327750D03*
X0044250Y0330309D03*
X0044250Y0332868D03*
D17*
X0045333Y0339167D03*
X0045333Y0316333D03*
X0045333Y0227167D03*
X0045333Y0204333D03*
X0045333Y0115167D03*
X0045333Y0092333D03*
X0207333Y0092333D03*
X0207333Y0115167D03*
X0207333Y0204333D03*
X0207333Y0227167D03*
X0207333Y0316333D03*
X0207333Y0339167D03*
D18*
X0195719Y0331539D03*
X0195719Y0323961D03*
X0195719Y0219539D03*
X0195719Y0211961D03*
X0195719Y0107539D03*
X0195719Y0099961D03*
X0033719Y0099961D03*
X0033719Y0107539D03*
X0033719Y0211961D03*
X0033719Y0219539D03*
X0033719Y0323961D03*
X0033719Y0331539D03*
D19*
X0031553Y0335624D02*
X0031242Y0335615D01*
X0030936Y0335675D01*
X0030651Y0335802D01*
X0030402Y0335989D01*
X0030200Y0336227D01*
X0030057Y0336503D01*
X0029978Y0336805D01*
X0029978Y0339561D01*
X0030018Y0339911D01*
X0030134Y0340244D01*
X0030322Y0340543D01*
X0030571Y0340792D01*
X0030870Y0340980D01*
X0031203Y0341096D01*
X0031553Y0341136D01*
X0038640Y0341136D01*
X0038640Y0342711D01*
X0041789Y0342711D01*
X0041789Y0335624D01*
X0031553Y0335624D01*
X0030390Y0336002D02*
X0041789Y0336002D01*
X0041789Y0336401D02*
X0030110Y0336401D01*
X0029980Y0336799D02*
X0041789Y0336799D01*
X0041789Y0337198D02*
X0029978Y0337198D01*
X0029978Y0337596D02*
X0041789Y0337596D01*
X0041789Y0337995D02*
X0029978Y0337995D01*
X0029978Y0338393D02*
X0041789Y0338393D01*
X0041789Y0338792D02*
X0029978Y0338792D01*
X0029978Y0339190D02*
X0041789Y0339190D01*
X0041789Y0339589D02*
X0029981Y0339589D01*
X0030044Y0339987D02*
X0041789Y0339987D01*
X0041789Y0340386D02*
X0030223Y0340386D01*
X0030563Y0340784D02*
X0041789Y0340784D01*
X0041789Y0341183D02*
X0038640Y0341183D01*
X0038640Y0341581D02*
X0041789Y0341581D01*
X0041789Y0341980D02*
X0038640Y0341980D01*
X0038640Y0342378D02*
X0041789Y0342378D01*
X0041789Y0319876D02*
X0031159Y0319876D01*
X0030897Y0319846D01*
X0030647Y0319759D01*
X0030423Y0319618D01*
X0030236Y0319431D01*
X0030095Y0319207D01*
X0030008Y0318958D01*
X0029978Y0318695D01*
X0029978Y0315545D01*
X0029969Y0315234D01*
X0030029Y0314928D01*
X0030156Y0314643D01*
X0030343Y0314394D01*
X0030581Y0314192D01*
X0030858Y0314049D01*
X0031159Y0313970D01*
X0038640Y0313970D01*
X0038640Y0312789D01*
X0041789Y0312789D01*
X0041789Y0319876D01*
X0041789Y0319663D02*
X0030495Y0319663D01*
X0030131Y0319265D02*
X0041789Y0319265D01*
X0041789Y0318866D02*
X0029998Y0318866D01*
X0029978Y0318468D02*
X0041789Y0318468D01*
X0041789Y0318069D02*
X0029978Y0318069D01*
X0029978Y0317671D02*
X0041789Y0317671D01*
X0041789Y0317272D02*
X0029978Y0317272D01*
X0029978Y0316874D02*
X0041789Y0316874D01*
X0041789Y0316475D02*
X0029978Y0316475D01*
X0029978Y0316077D02*
X0041789Y0316077D01*
X0041789Y0315678D02*
X0029978Y0315678D01*
X0029970Y0315280D02*
X0041789Y0315280D01*
X0041789Y0314881D02*
X0030050Y0314881D01*
X0030277Y0314483D02*
X0041789Y0314483D01*
X0041789Y0314084D02*
X0030790Y0314084D01*
X0038640Y0313686D02*
X0041789Y0313686D01*
X0041789Y0313287D02*
X0038640Y0313287D01*
X0038640Y0312889D02*
X0041789Y0312889D01*
X0041789Y0230711D02*
X0038640Y0230711D01*
X0038640Y0229136D01*
X0031553Y0229136D01*
X0031203Y0229096D01*
X0030870Y0228980D01*
X0030571Y0228792D01*
X0030322Y0228543D01*
X0030134Y0228244D01*
X0030018Y0227911D01*
X0029978Y0227561D01*
X0029978Y0224805D01*
X0030057Y0224503D01*
X0030200Y0224227D01*
X0030402Y0223989D01*
X0030651Y0223802D01*
X0030936Y0223675D01*
X0031242Y0223615D01*
X0031553Y0223624D01*
X0041789Y0223624D01*
X0041789Y0230711D01*
X0041789Y0230397D02*
X0038640Y0230397D01*
X0038640Y0229998D02*
X0041789Y0229998D01*
X0041789Y0229600D02*
X0038640Y0229600D01*
X0038640Y0229201D02*
X0041789Y0229201D01*
X0041789Y0228803D02*
X0030588Y0228803D01*
X0030235Y0228404D02*
X0041789Y0228404D01*
X0041789Y0228006D02*
X0030051Y0228006D01*
X0029984Y0227607D02*
X0041789Y0227607D01*
X0041789Y0227209D02*
X0029978Y0227209D01*
X0029978Y0226810D02*
X0041789Y0226810D01*
X0041789Y0226412D02*
X0029978Y0226412D01*
X0029978Y0226013D02*
X0041789Y0226013D01*
X0041789Y0225615D02*
X0029978Y0225615D01*
X0029978Y0225216D02*
X0041789Y0225216D01*
X0041789Y0224818D02*
X0029978Y0224818D01*
X0030100Y0224419D02*
X0041789Y0224419D01*
X0041789Y0224021D02*
X0030375Y0224021D01*
X0031205Y0223622D02*
X0031486Y0223622D01*
X0031159Y0207876D02*
X0041789Y0207876D01*
X0041789Y0200789D01*
X0038640Y0200789D01*
X0038640Y0201970D01*
X0031159Y0201970D01*
X0030858Y0202049D01*
X0030581Y0202192D01*
X0030343Y0202394D01*
X0030156Y0202643D01*
X0030029Y0202928D01*
X0029969Y0203234D01*
X0029978Y0203545D01*
X0029978Y0206695D01*
X0030008Y0206958D01*
X0030095Y0207207D01*
X0030236Y0207431D01*
X0030423Y0207618D01*
X0030647Y0207759D01*
X0030897Y0207846D01*
X0031159Y0207876D01*
X0030524Y0207682D02*
X0041789Y0207682D01*
X0041789Y0207283D02*
X0030143Y0207283D01*
X0030000Y0206885D02*
X0041789Y0206885D01*
X0041789Y0206486D02*
X0029978Y0206486D01*
X0029978Y0206088D02*
X0041789Y0206088D01*
X0041789Y0205689D02*
X0029978Y0205689D01*
X0029978Y0205291D02*
X0041789Y0205291D01*
X0041789Y0204892D02*
X0029978Y0204892D01*
X0029978Y0204493D02*
X0041789Y0204493D01*
X0041789Y0204095D02*
X0029978Y0204095D01*
X0029978Y0203696D02*
X0041789Y0203696D01*
X0041789Y0203298D02*
X0029971Y0203298D01*
X0030042Y0202899D02*
X0041789Y0202899D01*
X0041789Y0202501D02*
X0030263Y0202501D01*
X0030754Y0202102D02*
X0041789Y0202102D01*
X0041789Y0201704D02*
X0038640Y0201704D01*
X0038640Y0201305D02*
X0041789Y0201305D01*
X0041789Y0200907D02*
X0038640Y0200907D01*
X0038640Y0118711D02*
X0041789Y0118711D01*
X0041789Y0111624D01*
X0031553Y0111624D01*
X0031242Y0111615D01*
X0030936Y0111675D01*
X0030651Y0111802D01*
X0030402Y0111989D01*
X0030200Y0112227D01*
X0030057Y0112503D01*
X0029978Y0112805D01*
X0029978Y0115561D01*
X0030018Y0115911D01*
X0030134Y0116244D01*
X0030322Y0116543D01*
X0030571Y0116792D01*
X0030870Y0116980D01*
X0031203Y0117096D01*
X0031553Y0117136D01*
X0038640Y0117136D01*
X0038640Y0118711D01*
X0038640Y0118415D02*
X0041789Y0118415D01*
X0041789Y0118017D02*
X0038640Y0118017D01*
X0038640Y0117618D02*
X0041789Y0117618D01*
X0041789Y0117220D02*
X0038640Y0117220D01*
X0041789Y0116821D02*
X0030617Y0116821D01*
X0030246Y0116422D02*
X0041789Y0116422D01*
X0041789Y0116024D02*
X0030057Y0116024D01*
X0029986Y0115625D02*
X0041789Y0115625D01*
X0041789Y0115227D02*
X0029978Y0115227D01*
X0029978Y0114828D02*
X0041789Y0114828D01*
X0041789Y0114430D02*
X0029978Y0114430D01*
X0029978Y0114031D02*
X0041789Y0114031D01*
X0041789Y0113633D02*
X0029978Y0113633D01*
X0029978Y0113234D02*
X0041789Y0113234D01*
X0041789Y0112836D02*
X0029978Y0112836D01*
X0030091Y0112437D02*
X0041789Y0112437D01*
X0041789Y0112039D02*
X0030359Y0112039D01*
X0031112Y0111640D02*
X0041789Y0111640D01*
X0041789Y0095876D02*
X0031159Y0095876D01*
X0030897Y0095846D01*
X0030647Y0095759D01*
X0030423Y0095618D01*
X0030236Y0095431D01*
X0030095Y0095207D01*
X0030008Y0094958D01*
X0029978Y0094695D01*
X0029978Y0091545D01*
X0029969Y0091234D01*
X0030029Y0090928D01*
X0030156Y0090643D01*
X0030343Y0090394D01*
X0030581Y0090192D01*
X0030858Y0090049D01*
X0031159Y0089970D01*
X0038640Y0089970D01*
X0038640Y0088789D01*
X0041789Y0088789D01*
X0041789Y0095876D01*
X0041789Y0095700D02*
X0030553Y0095700D01*
X0030154Y0095301D02*
X0041789Y0095301D01*
X0041789Y0094903D02*
X0030002Y0094903D01*
X0029978Y0094504D02*
X0041789Y0094504D01*
X0041789Y0094106D02*
X0029978Y0094106D01*
X0029978Y0093707D02*
X0041789Y0093707D01*
X0041789Y0093309D02*
X0029978Y0093309D01*
X0029978Y0092910D02*
X0041789Y0092910D01*
X0041789Y0092512D02*
X0029978Y0092512D01*
X0029978Y0092113D02*
X0041789Y0092113D01*
X0041789Y0091715D02*
X0029978Y0091715D01*
X0029972Y0091316D02*
X0041789Y0091316D01*
X0041789Y0090918D02*
X0030034Y0090918D01*
X0030249Y0090519D02*
X0041789Y0090519D01*
X0041789Y0090121D02*
X0030719Y0090121D01*
X0038640Y0089722D02*
X0041789Y0089722D01*
X0041789Y0089324D02*
X0038640Y0089324D01*
X0038640Y0088925D02*
X0041789Y0088925D01*
X0191969Y0091234D02*
X0191978Y0091545D01*
X0191978Y0094695D01*
X0192008Y0094958D01*
X0192095Y0095207D01*
X0192236Y0095431D01*
X0192423Y0095618D01*
X0192647Y0095759D01*
X0192897Y0095846D01*
X0193159Y0095876D01*
X0203789Y0095876D01*
X0203789Y0088789D01*
X0200640Y0088789D01*
X0200640Y0089970D01*
X0193159Y0089970D01*
X0192858Y0090049D01*
X0192581Y0090192D01*
X0192343Y0090394D01*
X0192156Y0090643D01*
X0192029Y0090928D01*
X0191969Y0091234D01*
X0191972Y0091316D02*
X0203789Y0091316D01*
X0203789Y0090918D02*
X0192034Y0090918D01*
X0192249Y0090519D02*
X0203789Y0090519D01*
X0203789Y0090121D02*
X0192719Y0090121D01*
X0191978Y0091715D02*
X0203789Y0091715D01*
X0203789Y0092113D02*
X0191978Y0092113D01*
X0191978Y0092512D02*
X0203789Y0092512D01*
X0203789Y0092910D02*
X0191978Y0092910D01*
X0191978Y0093309D02*
X0203789Y0093309D01*
X0203789Y0093707D02*
X0191978Y0093707D01*
X0191978Y0094106D02*
X0203789Y0094106D01*
X0203789Y0094504D02*
X0191978Y0094504D01*
X0192002Y0094903D02*
X0203789Y0094903D01*
X0203789Y0095301D02*
X0192154Y0095301D01*
X0192553Y0095700D02*
X0203789Y0095700D01*
X0203789Y0089722D02*
X0200640Y0089722D01*
X0200640Y0089324D02*
X0203789Y0089324D01*
X0203789Y0088925D02*
X0200640Y0088925D01*
X0203789Y0111624D02*
X0193553Y0111624D01*
X0193242Y0111615D01*
X0192936Y0111675D01*
X0192651Y0111802D01*
X0192402Y0111989D01*
X0192200Y0112227D01*
X0192057Y0112503D01*
X0191978Y0112805D01*
X0191978Y0115561D01*
X0192018Y0115911D01*
X0192134Y0116244D01*
X0192322Y0116543D01*
X0192571Y0116792D01*
X0192870Y0116980D01*
X0193203Y0117096D01*
X0193553Y0117136D01*
X0200640Y0117136D01*
X0200640Y0118711D01*
X0203789Y0118711D01*
X0203789Y0111624D01*
X0203789Y0111640D02*
X0193112Y0111640D01*
X0192359Y0112039D02*
X0203789Y0112039D01*
X0203789Y0112437D02*
X0192091Y0112437D01*
X0191978Y0112836D02*
X0203789Y0112836D01*
X0203789Y0113234D02*
X0191978Y0113234D01*
X0191978Y0113633D02*
X0203789Y0113633D01*
X0203789Y0114031D02*
X0191978Y0114031D01*
X0191978Y0114430D02*
X0203789Y0114430D01*
X0203789Y0114828D02*
X0191978Y0114828D01*
X0191978Y0115227D02*
X0203789Y0115227D01*
X0203789Y0115625D02*
X0191986Y0115625D01*
X0192057Y0116024D02*
X0203789Y0116024D01*
X0203789Y0116422D02*
X0192246Y0116422D01*
X0192617Y0116821D02*
X0203789Y0116821D01*
X0203789Y0117220D02*
X0200640Y0117220D01*
X0200640Y0117618D02*
X0203789Y0117618D01*
X0203789Y0118017D02*
X0200640Y0118017D01*
X0200640Y0118415D02*
X0203789Y0118415D01*
X0203789Y0200789D02*
X0200640Y0200789D01*
X0200640Y0201970D01*
X0193159Y0201970D01*
X0192858Y0202049D01*
X0192581Y0202192D01*
X0192343Y0202394D01*
X0192156Y0202643D01*
X0192029Y0202928D01*
X0191969Y0203234D01*
X0191978Y0203545D01*
X0191978Y0206695D01*
X0192008Y0206958D01*
X0192095Y0207207D01*
X0192236Y0207431D01*
X0192423Y0207618D01*
X0192647Y0207759D01*
X0192897Y0207846D01*
X0193159Y0207876D01*
X0203789Y0207876D01*
X0203789Y0200789D01*
X0203789Y0200907D02*
X0200640Y0200907D01*
X0200640Y0201305D02*
X0203789Y0201305D01*
X0203789Y0201704D02*
X0200640Y0201704D01*
X0203789Y0202102D02*
X0192754Y0202102D01*
X0192263Y0202501D02*
X0203789Y0202501D01*
X0203789Y0202899D02*
X0192042Y0202899D01*
X0191971Y0203298D02*
X0203789Y0203298D01*
X0203789Y0203696D02*
X0191978Y0203696D01*
X0191978Y0204095D02*
X0203789Y0204095D01*
X0203789Y0204493D02*
X0191978Y0204493D01*
X0191978Y0204892D02*
X0203789Y0204892D01*
X0203789Y0205291D02*
X0191978Y0205291D01*
X0191978Y0205689D02*
X0203789Y0205689D01*
X0203789Y0206088D02*
X0191978Y0206088D01*
X0191978Y0206486D02*
X0203789Y0206486D01*
X0203789Y0206885D02*
X0192000Y0206885D01*
X0192143Y0207283D02*
X0203789Y0207283D01*
X0203789Y0207682D02*
X0192524Y0207682D01*
X0193242Y0223615D02*
X0192936Y0223675D01*
X0192651Y0223802D01*
X0192402Y0223989D01*
X0192200Y0224227D01*
X0192057Y0224503D01*
X0191978Y0224805D01*
X0191978Y0227561D01*
X0192018Y0227911D01*
X0192134Y0228244D01*
X0192322Y0228543D01*
X0192571Y0228792D01*
X0192870Y0228980D01*
X0193203Y0229096D01*
X0193553Y0229136D01*
X0200640Y0229136D01*
X0200640Y0230711D01*
X0203789Y0230711D01*
X0203789Y0223624D01*
X0193553Y0223624D01*
X0193242Y0223615D01*
X0193205Y0223622D02*
X0193486Y0223622D01*
X0192375Y0224021D02*
X0203789Y0224021D01*
X0203789Y0224419D02*
X0192100Y0224419D01*
X0191978Y0224818D02*
X0203789Y0224818D01*
X0203789Y0225216D02*
X0191978Y0225216D01*
X0191978Y0225615D02*
X0203789Y0225615D01*
X0203789Y0226013D02*
X0191978Y0226013D01*
X0191978Y0226412D02*
X0203789Y0226412D01*
X0203789Y0226810D02*
X0191978Y0226810D01*
X0191978Y0227209D02*
X0203789Y0227209D01*
X0203789Y0227607D02*
X0191984Y0227607D01*
X0192051Y0228006D02*
X0203789Y0228006D01*
X0203789Y0228404D02*
X0192235Y0228404D01*
X0192588Y0228803D02*
X0203789Y0228803D01*
X0203789Y0229201D02*
X0200640Y0229201D01*
X0200640Y0229600D02*
X0203789Y0229600D01*
X0203789Y0229998D02*
X0200640Y0229998D01*
X0200640Y0230397D02*
X0203789Y0230397D01*
X0203789Y0312789D02*
X0200640Y0312789D01*
X0200640Y0313970D01*
X0193159Y0313970D01*
X0192858Y0314049D01*
X0192581Y0314192D01*
X0192343Y0314394D01*
X0192156Y0314643D01*
X0192029Y0314928D01*
X0191969Y0315234D01*
X0191978Y0315545D01*
X0191978Y0318695D01*
X0192008Y0318958D01*
X0192095Y0319207D01*
X0192236Y0319431D01*
X0192423Y0319618D01*
X0192647Y0319759D01*
X0192897Y0319846D01*
X0193159Y0319876D01*
X0203789Y0319876D01*
X0203789Y0312789D01*
X0203789Y0312889D02*
X0200640Y0312889D01*
X0200640Y0313287D02*
X0203789Y0313287D01*
X0203789Y0313686D02*
X0200640Y0313686D01*
X0203789Y0314084D02*
X0192790Y0314084D01*
X0192277Y0314483D02*
X0203789Y0314483D01*
X0203789Y0314881D02*
X0192050Y0314881D01*
X0191970Y0315280D02*
X0203789Y0315280D01*
X0203789Y0315678D02*
X0191978Y0315678D01*
X0191978Y0316077D02*
X0203789Y0316077D01*
X0203789Y0316475D02*
X0191978Y0316475D01*
X0191978Y0316874D02*
X0203789Y0316874D01*
X0203789Y0317272D02*
X0191978Y0317272D01*
X0191978Y0317671D02*
X0203789Y0317671D01*
X0203789Y0318069D02*
X0191978Y0318069D01*
X0191978Y0318468D02*
X0203789Y0318468D01*
X0203789Y0318866D02*
X0191998Y0318866D01*
X0192131Y0319265D02*
X0203789Y0319265D01*
X0203789Y0319663D02*
X0192495Y0319663D01*
X0193242Y0335615D02*
X0192936Y0335675D01*
X0192651Y0335802D01*
X0192402Y0335989D01*
X0192200Y0336227D01*
X0192057Y0336503D01*
X0191978Y0336805D01*
X0191978Y0339561D01*
X0192018Y0339911D01*
X0192134Y0340244D01*
X0192322Y0340543D01*
X0192571Y0340792D01*
X0192870Y0340980D01*
X0193203Y0341096D01*
X0193553Y0341136D01*
X0200640Y0341136D01*
X0200640Y0342711D01*
X0203789Y0342711D01*
X0203789Y0335624D01*
X0193553Y0335624D01*
X0193242Y0335615D01*
X0192390Y0336002D02*
X0203789Y0336002D01*
X0203789Y0336401D02*
X0192110Y0336401D01*
X0191980Y0336799D02*
X0203789Y0336799D01*
X0203789Y0337198D02*
X0191978Y0337198D01*
X0191978Y0337596D02*
X0203789Y0337596D01*
X0203789Y0337995D02*
X0191978Y0337995D01*
X0191978Y0338393D02*
X0203789Y0338393D01*
X0203789Y0338792D02*
X0191978Y0338792D01*
X0191978Y0339190D02*
X0203789Y0339190D01*
X0203789Y0339589D02*
X0191981Y0339589D01*
X0192044Y0339987D02*
X0203789Y0339987D01*
X0203789Y0340386D02*
X0192223Y0340386D01*
X0192563Y0340784D02*
X0203789Y0340784D01*
X0203789Y0341183D02*
X0200640Y0341183D01*
X0200640Y0341581D02*
X0203789Y0341581D01*
X0203789Y0341980D02*
X0200640Y0341980D01*
X0200640Y0342378D02*
X0203789Y0342378D01*
D20*
X0206892Y0270640D03*
X0218703Y0270640D03*
X0224608Y0270640D03*
X0224608Y0158640D03*
X0218703Y0158640D03*
X0206892Y0158640D03*
X0206892Y0046640D03*
X0218703Y0046640D03*
X0224608Y0046640D03*
X0062608Y0046640D03*
X0056703Y0046640D03*
X0044892Y0046640D03*
X0044892Y0158640D03*
X0056703Y0158640D03*
X0062608Y0158640D03*
X0062608Y0270640D03*
X0056703Y0270640D03*
X0044892Y0270640D03*
D21*
X0039380Y0259813D03*
X0068120Y0259813D03*
X0068120Y0147813D03*
X0039380Y0147813D03*
X0039380Y0035813D03*
X0068120Y0035813D03*
X0201380Y0035813D03*
X0230120Y0035813D03*
X0230120Y0147813D03*
X0201380Y0147813D03*
X0201380Y0259813D03*
X0230120Y0259813D03*
D22*
X0230120Y0268081D03*
X0201380Y0268081D03*
X0201380Y0156081D03*
X0230120Y0156081D03*
X0230120Y0044081D03*
X0201380Y0044081D03*
X0068120Y0044081D03*
X0039380Y0044081D03*
X0039380Y0156081D03*
X0068120Y0156081D03*
X0068120Y0268081D03*
X0039380Y0268081D03*
D23*
X0047844Y0263750D03*
X0059656Y0263750D03*
X0059656Y0151750D03*
X0047844Y0151750D03*
X0047844Y0039750D03*
X0059656Y0039750D03*
X0209844Y0039750D03*
X0221656Y0039750D03*
X0221656Y0151750D03*
X0209844Y0151750D03*
X0209844Y0263750D03*
X0221656Y0263750D03*
D24*
X0225869Y0314010D03*
X0225869Y0321490D03*
X0215631Y0321490D03*
X0215631Y0317750D03*
X0215631Y0314010D03*
X0245631Y0314010D03*
X0245631Y0321490D03*
X0255869Y0321490D03*
X0255869Y0317750D03*
X0255869Y0314010D03*
X0255869Y0209490D03*
X0255869Y0205750D03*
X0255869Y0202010D03*
X0245631Y0202010D03*
X0245631Y0209490D03*
X0225869Y0209490D03*
X0225869Y0202010D03*
X0215631Y0202010D03*
X0215631Y0205750D03*
X0215631Y0209490D03*
X0215631Y0097490D03*
X0215631Y0093750D03*
X0215631Y0090010D03*
X0225869Y0090010D03*
X0225869Y0097490D03*
X0245631Y0097490D03*
X0245631Y0090010D03*
X0255869Y0090010D03*
X0255869Y0093750D03*
X0255869Y0097490D03*
X0093869Y0097490D03*
X0093869Y0093750D03*
X0093869Y0090010D03*
X0083631Y0090010D03*
X0083631Y0097490D03*
X0063869Y0097490D03*
X0063869Y0090010D03*
X0053631Y0090010D03*
X0053631Y0093750D03*
X0053631Y0097490D03*
X0053631Y0202010D03*
X0053631Y0205750D03*
X0053631Y0209490D03*
X0063869Y0209490D03*
X0063869Y0202010D03*
X0083631Y0202010D03*
X0083631Y0209490D03*
X0093869Y0209490D03*
X0093869Y0205750D03*
X0093869Y0202010D03*
X0093869Y0314010D03*
X0093869Y0317750D03*
X0093869Y0321490D03*
X0083631Y0321490D03*
X0083631Y0314010D03*
X0063869Y0314010D03*
X0063869Y0321490D03*
X0053631Y0321490D03*
X0053631Y0317750D03*
X0053631Y0314010D03*
D25*
X0136467Y0287278D03*
X0136467Y0278222D03*
X0151033Y0278222D03*
X0151033Y0287278D03*
X0151033Y0175278D03*
X0151033Y0166222D03*
X0136467Y0166222D03*
X0136467Y0175278D03*
X0136467Y0063278D03*
X0136467Y0054222D03*
X0151033Y0054222D03*
X0151033Y0063278D03*
X0298467Y0063278D03*
X0298467Y0054222D03*
X0313033Y0054222D03*
X0313033Y0063278D03*
X0313033Y0166222D03*
X0313033Y0175278D03*
X0298467Y0175278D03*
X0298467Y0166222D03*
X0298467Y0278222D03*
X0298467Y0287278D03*
X0313033Y0287278D03*
X0313033Y0278222D03*
D26*
X0310750Y0267750D03*
X0300750Y0267750D03*
X0290750Y0267750D03*
X0290750Y0257750D03*
X0300750Y0257750D03*
X0310750Y0257750D03*
X0320750Y0257750D03*
X0330750Y0257750D03*
X0330750Y0267750D03*
X0320750Y0267750D03*
X0340750Y0267750D03*
X0340750Y0257750D03*
X0330750Y0245750D03*
X0330750Y0235750D03*
X0320750Y0235750D03*
X0320750Y0245750D03*
X0310750Y0245750D03*
X0310750Y0235750D03*
X0300750Y0235750D03*
X0300750Y0245750D03*
X0290750Y0245750D03*
X0290750Y0235750D03*
X0280750Y0235750D03*
X0280750Y0245750D03*
X0270750Y0245750D03*
X0270750Y0235750D03*
X0260750Y0235750D03*
X0260750Y0245750D03*
X0250750Y0245750D03*
X0250750Y0235750D03*
X0240750Y0235750D03*
X0240750Y0245750D03*
X0240750Y0257750D03*
X0250750Y0257750D03*
X0260750Y0257750D03*
X0270750Y0257750D03*
X0280750Y0257750D03*
X0280750Y0267750D03*
X0270750Y0267750D03*
X0260750Y0267750D03*
X0250750Y0267750D03*
X0240750Y0267750D03*
X0235750Y0287750D03*
X0235750Y0297750D03*
X0240750Y0347750D03*
X0240750Y0357750D03*
X0250750Y0357750D03*
X0250750Y0347750D03*
X0260750Y0347750D03*
X0260750Y0357750D03*
X0270750Y0357750D03*
X0270750Y0347750D03*
X0280750Y0347750D03*
X0280750Y0357750D03*
X0290750Y0357750D03*
X0290750Y0347750D03*
X0300750Y0347750D03*
X0300750Y0357750D03*
X0310750Y0357750D03*
X0310750Y0347750D03*
X0320750Y0347750D03*
X0320750Y0357750D03*
X0330750Y0357750D03*
X0330750Y0347750D03*
X0340750Y0347750D03*
X0340750Y0235750D03*
X0340750Y0155750D03*
X0340750Y0145750D03*
X0330750Y0145750D03*
X0320750Y0145750D03*
X0310750Y0145750D03*
X0300750Y0145750D03*
X0290750Y0145750D03*
X0290750Y0133750D03*
X0300750Y0133750D03*
X0310750Y0133750D03*
X0320750Y0133750D03*
X0330750Y0133750D03*
X0330750Y0123750D03*
X0320750Y0123750D03*
X0310750Y0123750D03*
X0300750Y0123750D03*
X0290750Y0123750D03*
X0280750Y0123750D03*
X0270750Y0123750D03*
X0260750Y0123750D03*
X0250750Y0123750D03*
X0240750Y0123750D03*
X0240750Y0133750D03*
X0250750Y0133750D03*
X0260750Y0133750D03*
X0270750Y0133750D03*
X0280750Y0133750D03*
X0280750Y0145750D03*
X0270750Y0145750D03*
X0260750Y0145750D03*
X0250750Y0145750D03*
X0240750Y0145750D03*
X0240750Y0155750D03*
X0250750Y0155750D03*
X0260750Y0155750D03*
X0270750Y0155750D03*
X0280750Y0155750D03*
X0290750Y0155750D03*
X0300750Y0155750D03*
X0310750Y0155750D03*
X0320750Y0155750D03*
X0330750Y0155750D03*
X0340750Y0123750D03*
X0340750Y0043750D03*
X0340750Y0033750D03*
X0330750Y0033750D03*
X0320750Y0033750D03*
X0310750Y0033750D03*
X0300750Y0033750D03*
X0290750Y0033750D03*
X0290750Y0043750D03*
X0300750Y0043750D03*
X0310750Y0043750D03*
X0320750Y0043750D03*
X0330750Y0043750D03*
X0280750Y0043750D03*
X0270750Y0043750D03*
X0260750Y0043750D03*
X0250750Y0043750D03*
X0240750Y0043750D03*
X0240750Y0033750D03*
X0250750Y0033750D03*
X0260750Y0033750D03*
X0270750Y0033750D03*
X0280750Y0033750D03*
X0235750Y0063750D03*
X0235750Y0073750D03*
X0178750Y0043750D03*
X0168750Y0043750D03*
X0168750Y0033750D03*
X0178750Y0033750D03*
X0158750Y0033750D03*
X0148750Y0033750D03*
X0138750Y0033750D03*
X0128750Y0033750D03*
X0118750Y0033750D03*
X0118750Y0043750D03*
X0128750Y0043750D03*
X0138750Y0043750D03*
X0148750Y0043750D03*
X0158750Y0043750D03*
X0108750Y0043750D03*
X0098750Y0043750D03*
X0088750Y0043750D03*
X0078750Y0043750D03*
X0078750Y0033750D03*
X0088750Y0033750D03*
X0098750Y0033750D03*
X0108750Y0033750D03*
X0073750Y0063750D03*
X0073750Y0073750D03*
X0078750Y0123750D03*
X0088750Y0123750D03*
X0098750Y0123750D03*
X0108750Y0123750D03*
X0108750Y0133750D03*
X0098750Y0133750D03*
X0088750Y0133750D03*
X0078750Y0133750D03*
X0078750Y0145750D03*
X0088750Y0145750D03*
X0098750Y0145750D03*
X0108750Y0145750D03*
X0108750Y0155750D03*
X0098750Y0155750D03*
X0088750Y0155750D03*
X0078750Y0155750D03*
X0073750Y0175750D03*
X0073750Y0185750D03*
X0118750Y0155750D03*
X0128750Y0155750D03*
X0138750Y0155750D03*
X0148750Y0155750D03*
X0158750Y0155750D03*
X0158750Y0145750D03*
X0148750Y0145750D03*
X0138750Y0145750D03*
X0128750Y0145750D03*
X0118750Y0145750D03*
X0118750Y0133750D03*
X0128750Y0133750D03*
X0138750Y0133750D03*
X0148750Y0133750D03*
X0158750Y0133750D03*
X0158750Y0123750D03*
X0148750Y0123750D03*
X0138750Y0123750D03*
X0128750Y0123750D03*
X0118750Y0123750D03*
X0168750Y0123750D03*
X0178750Y0123750D03*
X0168750Y0133750D03*
X0168750Y0145750D03*
X0178750Y0145750D03*
X0178750Y0155750D03*
X0168750Y0155750D03*
X0235750Y0175750D03*
X0235750Y0185750D03*
X0178750Y0235750D03*
X0168750Y0235750D03*
X0168750Y0245750D03*
X0158750Y0245750D03*
X0158750Y0235750D03*
X0148750Y0235750D03*
X0148750Y0245750D03*
X0138750Y0245750D03*
X0138750Y0235750D03*
X0128750Y0235750D03*
X0128750Y0245750D03*
X0118750Y0245750D03*
X0118750Y0235750D03*
X0108750Y0235750D03*
X0108750Y0245750D03*
X0098750Y0245750D03*
X0098750Y0235750D03*
X0088750Y0235750D03*
X0088750Y0245750D03*
X0078750Y0245750D03*
X0078750Y0235750D03*
X0078750Y0257750D03*
X0088750Y0257750D03*
X0098750Y0257750D03*
X0108750Y0257750D03*
X0108750Y0267750D03*
X0098750Y0267750D03*
X0088750Y0267750D03*
X0078750Y0267750D03*
X0073750Y0287750D03*
X0073750Y0297750D03*
X0118750Y0267750D03*
X0128750Y0267750D03*
X0138750Y0267750D03*
X0148750Y0267750D03*
X0158750Y0267750D03*
X0158750Y0257750D03*
X0148750Y0257750D03*
X0138750Y0257750D03*
X0128750Y0257750D03*
X0118750Y0257750D03*
X0168750Y0257750D03*
X0178750Y0257750D03*
X0178750Y0267750D03*
X0168750Y0267750D03*
X0168750Y0347750D03*
X0168750Y0357750D03*
X0178750Y0347750D03*
X0158750Y0347750D03*
X0158750Y0357750D03*
X0148750Y0357750D03*
X0148750Y0347750D03*
X0138750Y0347750D03*
X0138750Y0357750D03*
X0128750Y0357750D03*
X0128750Y0347750D03*
X0118750Y0347750D03*
X0118750Y0357750D03*
X0108750Y0357750D03*
X0108750Y0347750D03*
X0098750Y0347750D03*
X0098750Y0357750D03*
X0088750Y0357750D03*
X0088750Y0347750D03*
X0078750Y0347750D03*
X0078750Y0357750D03*
D27*
X0053750Y0355293D03*
X0053750Y0348207D03*
X0053750Y0243293D03*
X0053750Y0236207D03*
X0053750Y0131293D03*
X0053750Y0124207D03*
X0215750Y0124207D03*
X0215750Y0131293D03*
X0215750Y0236207D03*
X0215750Y0243293D03*
X0215750Y0348207D03*
X0215750Y0355293D03*
D28*
X0208073Y0351750D03*
X0223427Y0351750D03*
X0223427Y0239750D03*
X0208073Y0239750D03*
X0208073Y0127750D03*
X0223427Y0127750D03*
X0061427Y0127750D03*
X0046073Y0127750D03*
X0046073Y0239750D03*
X0061427Y0239750D03*
X0061427Y0351750D03*
X0046073Y0351750D03*
D29*
X0058317Y0296687D03*
X0058317Y0288813D03*
X0058317Y0184687D03*
X0058317Y0176813D03*
X0058317Y0072687D03*
X0058317Y0064813D03*
X0220317Y0064813D03*
X0220317Y0072687D03*
X0220317Y0176813D03*
X0220317Y0184687D03*
X0220317Y0288813D03*
X0220317Y0296687D03*
D30*
X0199844Y0306136D03*
X0199844Y0279364D03*
X0199844Y0194136D03*
X0199844Y0167364D03*
X0199844Y0082136D03*
X0199844Y0055364D03*
X0037844Y0055364D03*
X0037844Y0082136D03*
X0037844Y0167364D03*
X0037844Y0194136D03*
X0037844Y0279364D03*
X0037844Y0306136D03*
D31*
X0183219Y0296726D03*
X0183219Y0318774D03*
X0183219Y0206774D03*
X0183219Y0184726D03*
X0183219Y0094774D03*
X0183219Y0072726D03*
X0345219Y0072726D03*
X0345219Y0094774D03*
X0345219Y0184726D03*
X0345219Y0206774D03*
X0345219Y0296726D03*
X0345219Y0318774D03*
D32*
X0330750Y0313656D03*
X0330750Y0309719D03*
X0330750Y0305781D03*
X0330750Y0301844D03*
X0330750Y0201656D03*
X0330750Y0197719D03*
X0330750Y0193781D03*
X0330750Y0189844D03*
X0330750Y0089656D03*
X0330750Y0085719D03*
X0330750Y0081781D03*
X0330750Y0077844D03*
X0168750Y0077844D03*
X0168750Y0081781D03*
X0168750Y0085719D03*
X0168750Y0089656D03*
X0168750Y0189844D03*
X0168750Y0193781D03*
X0168750Y0197719D03*
X0168750Y0201656D03*
X0168750Y0301844D03*
X0168750Y0305781D03*
X0168750Y0309719D03*
X0168750Y0313656D03*
D33*
X0153750Y0327750D03*
X0143750Y0327750D03*
X0133750Y0327750D03*
X0133750Y0337750D03*
X0143750Y0337750D03*
X0153750Y0337750D03*
X0153750Y0225750D03*
X0153750Y0215750D03*
X0143750Y0215750D03*
X0143750Y0225750D03*
X0133750Y0225750D03*
X0133750Y0215750D03*
X0133750Y0113750D03*
X0133750Y0103750D03*
X0143750Y0103750D03*
X0143750Y0113750D03*
X0153750Y0113750D03*
X0153750Y0103750D03*
X0295750Y0103750D03*
X0295750Y0113750D03*
X0305750Y0113750D03*
X0305750Y0103750D03*
X0315750Y0103750D03*
X0315750Y0113750D03*
X0315750Y0215750D03*
X0315750Y0225750D03*
X0305750Y0225750D03*
X0305750Y0215750D03*
X0295750Y0215750D03*
X0295750Y0225750D03*
X0295750Y0327750D03*
X0305750Y0327750D03*
X0315750Y0327750D03*
X0315750Y0337750D03*
X0305750Y0337750D03*
X0295750Y0337750D03*
D34*
X0292364Y0317593D03*
X0292364Y0315624D03*
X0292364Y0313656D03*
X0292364Y0311687D03*
X0292364Y0309719D03*
X0292364Y0307750D03*
X0292364Y0305781D03*
X0292364Y0303813D03*
X0292364Y0301844D03*
X0292364Y0299876D03*
X0292364Y0297907D03*
X0319136Y0297907D03*
X0319136Y0299876D03*
X0319136Y0301844D03*
X0319136Y0303813D03*
X0319136Y0305781D03*
X0319136Y0307750D03*
X0319136Y0309719D03*
X0319136Y0311687D03*
X0319136Y0313656D03*
X0319136Y0315624D03*
X0319136Y0317593D03*
X0319136Y0205593D03*
X0319136Y0203624D03*
X0319136Y0201656D03*
X0319136Y0199687D03*
X0319136Y0197719D03*
X0319136Y0195750D03*
X0319136Y0193781D03*
X0319136Y0191813D03*
X0319136Y0189844D03*
X0319136Y0187876D03*
X0319136Y0185907D03*
X0292364Y0185907D03*
X0292364Y0187876D03*
X0292364Y0189844D03*
X0292364Y0191813D03*
X0292364Y0193781D03*
X0292364Y0195750D03*
X0292364Y0197719D03*
X0292364Y0199687D03*
X0292364Y0201656D03*
X0292364Y0203624D03*
X0292364Y0205593D03*
X0292364Y0093593D03*
X0292364Y0091624D03*
X0292364Y0089656D03*
X0292364Y0087687D03*
X0292364Y0085719D03*
X0292364Y0083750D03*
X0292364Y0081781D03*
X0292364Y0079813D03*
X0292364Y0077844D03*
X0292364Y0075876D03*
X0292364Y0073907D03*
X0319136Y0073907D03*
X0319136Y0075876D03*
X0319136Y0077844D03*
X0319136Y0079813D03*
X0319136Y0081781D03*
X0319136Y0083750D03*
X0319136Y0085719D03*
X0319136Y0087687D03*
X0319136Y0089656D03*
X0319136Y0091624D03*
X0319136Y0093593D03*
X0157136Y0093593D03*
X0157136Y0091624D03*
X0157136Y0089656D03*
X0157136Y0087687D03*
X0157136Y0085719D03*
X0157136Y0083750D03*
X0157136Y0081781D03*
X0157136Y0079813D03*
X0157136Y0077844D03*
X0157136Y0075876D03*
X0157136Y0073907D03*
X0130364Y0073907D03*
X0130364Y0075876D03*
X0130364Y0077844D03*
X0130364Y0079813D03*
X0130364Y0081781D03*
X0130364Y0083750D03*
X0130364Y0085719D03*
X0130364Y0087687D03*
X0130364Y0089656D03*
X0130364Y0091624D03*
X0130364Y0093593D03*
X0130364Y0185907D03*
X0130364Y0187876D03*
X0130364Y0189844D03*
X0130364Y0191813D03*
X0130364Y0193781D03*
X0130364Y0195750D03*
X0130364Y0197719D03*
X0130364Y0199687D03*
X0130364Y0201656D03*
X0130364Y0203624D03*
X0130364Y0205593D03*
X0157136Y0205593D03*
X0157136Y0203624D03*
X0157136Y0201656D03*
X0157136Y0199687D03*
X0157136Y0197719D03*
X0157136Y0195750D03*
X0157136Y0193781D03*
X0157136Y0191813D03*
X0157136Y0189844D03*
X0157136Y0187876D03*
X0157136Y0185907D03*
X0157136Y0297907D03*
X0157136Y0299876D03*
X0157136Y0301844D03*
X0157136Y0303813D03*
X0157136Y0305781D03*
X0157136Y0307750D03*
X0157136Y0309719D03*
X0157136Y0311687D03*
X0157136Y0313656D03*
X0157136Y0315624D03*
X0157136Y0317593D03*
X0130364Y0317593D03*
X0130364Y0315624D03*
X0130364Y0313656D03*
X0130364Y0311687D03*
X0130364Y0309719D03*
X0130364Y0307750D03*
X0130364Y0305781D03*
X0130364Y0303813D03*
X0130364Y0301844D03*
X0130364Y0299876D03*
X0130364Y0297907D03*
D35*
X0133907Y0294364D03*
X0135876Y0294364D03*
X0137844Y0294364D03*
X0139813Y0294364D03*
X0141781Y0294364D03*
X0143750Y0294364D03*
X0145719Y0294364D03*
X0147687Y0294364D03*
X0149656Y0294364D03*
X0151624Y0294364D03*
X0153593Y0294364D03*
X0153593Y0321136D03*
X0151624Y0321136D03*
X0149656Y0321136D03*
X0147687Y0321136D03*
X0145719Y0321136D03*
X0143750Y0321136D03*
X0141781Y0321136D03*
X0139813Y0321136D03*
X0137844Y0321136D03*
X0135876Y0321136D03*
X0133907Y0321136D03*
X0133907Y0209136D03*
X0135876Y0209136D03*
X0137844Y0209136D03*
X0139813Y0209136D03*
X0141781Y0209136D03*
X0143750Y0209136D03*
X0145719Y0209136D03*
X0147687Y0209136D03*
X0149656Y0209136D03*
X0151624Y0209136D03*
X0153593Y0209136D03*
X0153593Y0182364D03*
X0151624Y0182364D03*
X0149656Y0182364D03*
X0147687Y0182364D03*
X0145719Y0182364D03*
X0143750Y0182364D03*
X0141781Y0182364D03*
X0139813Y0182364D03*
X0137844Y0182364D03*
X0135876Y0182364D03*
X0133907Y0182364D03*
X0133907Y0097136D03*
X0135876Y0097136D03*
X0137844Y0097136D03*
X0139813Y0097136D03*
X0141781Y0097136D03*
X0143750Y0097136D03*
X0145719Y0097136D03*
X0147687Y0097136D03*
X0149656Y0097136D03*
X0151624Y0097136D03*
X0153593Y0097136D03*
X0153593Y0070364D03*
X0151624Y0070364D03*
X0149656Y0070364D03*
X0147687Y0070364D03*
X0145719Y0070364D03*
X0143750Y0070364D03*
X0141781Y0070364D03*
X0139813Y0070364D03*
X0137844Y0070364D03*
X0135876Y0070364D03*
X0133907Y0070364D03*
X0295907Y0070364D03*
X0297876Y0070364D03*
X0299844Y0070364D03*
X0301813Y0070364D03*
X0303781Y0070364D03*
X0305750Y0070364D03*
X0307719Y0070364D03*
X0309687Y0070364D03*
X0311656Y0070364D03*
X0313624Y0070364D03*
X0315593Y0070364D03*
X0315593Y0097136D03*
X0313624Y0097136D03*
X0311656Y0097136D03*
X0309687Y0097136D03*
X0307719Y0097136D03*
X0305750Y0097136D03*
X0303781Y0097136D03*
X0301813Y0097136D03*
X0299844Y0097136D03*
X0297876Y0097136D03*
X0295907Y0097136D03*
X0295907Y0182364D03*
X0297876Y0182364D03*
X0299844Y0182364D03*
X0301813Y0182364D03*
X0303781Y0182364D03*
X0305750Y0182364D03*
X0307719Y0182364D03*
X0309687Y0182364D03*
X0311656Y0182364D03*
X0313624Y0182364D03*
X0315593Y0182364D03*
X0315593Y0209136D03*
X0313624Y0209136D03*
X0311656Y0209136D03*
X0309687Y0209136D03*
X0307719Y0209136D03*
X0305750Y0209136D03*
X0303781Y0209136D03*
X0301813Y0209136D03*
X0299844Y0209136D03*
X0297876Y0209136D03*
X0295907Y0209136D03*
X0295907Y0294364D03*
X0297876Y0294364D03*
X0299844Y0294364D03*
X0301813Y0294364D03*
X0303781Y0294364D03*
X0305750Y0294364D03*
X0307719Y0294364D03*
X0309687Y0294364D03*
X0311656Y0294364D03*
X0313624Y0294364D03*
X0315593Y0294364D03*
X0315593Y0321136D03*
X0313624Y0321136D03*
X0311656Y0321136D03*
X0309687Y0321136D03*
X0307719Y0321136D03*
X0305750Y0321136D03*
X0303781Y0321136D03*
X0301813Y0321136D03*
X0299844Y0321136D03*
X0297876Y0321136D03*
X0295907Y0321136D03*
D36*
X0033750Y0038750D03*
X0033750Y0150750D03*
X0033750Y0262750D03*
X0055750Y0371000D03*
X0183750Y0352750D03*
X0195750Y0262750D03*
X0183750Y0240750D03*
X0195750Y0150750D03*
X0183750Y0128750D03*
X0195750Y0038750D03*
X0345750Y0128750D03*
X0345750Y0240750D03*
X0345750Y0352750D03*
X0323750Y0371000D03*
D37*
X0334837Y0331250D03*
X0345663Y0331250D03*
X0345663Y0219250D03*
X0334837Y0219250D03*
X0334837Y0107250D03*
X0345663Y0107250D03*
X0183663Y0107250D03*
X0172837Y0107250D03*
X0172837Y0219250D03*
X0183663Y0219250D03*
X0183663Y0331250D03*
X0172837Y0331250D03*
D38*
X0178250Y0325246D03*
X0178250Y0337254D03*
X0178250Y0225254D03*
X0178250Y0213246D03*
X0178250Y0113254D03*
X0178250Y0101246D03*
X0340250Y0101246D03*
X0340250Y0113254D03*
X0340250Y0213246D03*
X0340250Y0225254D03*
X0340250Y0325246D03*
X0340250Y0337254D03*
D39*
X0052185Y0020500D02*
X0052187Y0020619D01*
X0052193Y0020738D01*
X0052203Y0020857D01*
X0052217Y0020975D01*
X0052235Y0021093D01*
X0052256Y0021210D01*
X0052282Y0021326D01*
X0052312Y0021442D01*
X0052345Y0021556D01*
X0052382Y0021669D01*
X0052423Y0021781D01*
X0052468Y0021892D01*
X0052516Y0022001D01*
X0052568Y0022108D01*
X0052624Y0022213D01*
X0052683Y0022317D01*
X0052745Y0022418D01*
X0052811Y0022518D01*
X0052880Y0022615D01*
X0052952Y0022709D01*
X0053028Y0022802D01*
X0053106Y0022891D01*
X0053187Y0022978D01*
X0053272Y0023063D01*
X0053359Y0023144D01*
X0053448Y0023222D01*
X0053541Y0023298D01*
X0053635Y0023370D01*
X0053732Y0023439D01*
X0053832Y0023505D01*
X0053933Y0023567D01*
X0054037Y0023626D01*
X0054142Y0023682D01*
X0054249Y0023734D01*
X0054358Y0023782D01*
X0054469Y0023827D01*
X0054581Y0023868D01*
X0054694Y0023905D01*
X0054808Y0023938D01*
X0054924Y0023968D01*
X0055040Y0023994D01*
X0055157Y0024015D01*
X0055275Y0024033D01*
X0055393Y0024047D01*
X0055512Y0024057D01*
X0055631Y0024063D01*
X0055750Y0024065D01*
X0055869Y0024063D01*
X0055988Y0024057D01*
X0056107Y0024047D01*
X0056225Y0024033D01*
X0056343Y0024015D01*
X0056460Y0023994D01*
X0056576Y0023968D01*
X0056692Y0023938D01*
X0056806Y0023905D01*
X0056919Y0023868D01*
X0057031Y0023827D01*
X0057142Y0023782D01*
X0057251Y0023734D01*
X0057358Y0023682D01*
X0057463Y0023626D01*
X0057567Y0023567D01*
X0057668Y0023505D01*
X0057768Y0023439D01*
X0057865Y0023370D01*
X0057959Y0023298D01*
X0058052Y0023222D01*
X0058141Y0023144D01*
X0058228Y0023063D01*
X0058313Y0022978D01*
X0058394Y0022891D01*
X0058472Y0022802D01*
X0058548Y0022709D01*
X0058620Y0022615D01*
X0058689Y0022518D01*
X0058755Y0022418D01*
X0058817Y0022317D01*
X0058876Y0022213D01*
X0058932Y0022108D01*
X0058984Y0022001D01*
X0059032Y0021892D01*
X0059077Y0021781D01*
X0059118Y0021669D01*
X0059155Y0021556D01*
X0059188Y0021442D01*
X0059218Y0021326D01*
X0059244Y0021210D01*
X0059265Y0021093D01*
X0059283Y0020975D01*
X0059297Y0020857D01*
X0059307Y0020738D01*
X0059313Y0020619D01*
X0059315Y0020500D01*
X0059313Y0020381D01*
X0059307Y0020262D01*
X0059297Y0020143D01*
X0059283Y0020025D01*
X0059265Y0019907D01*
X0059244Y0019790D01*
X0059218Y0019674D01*
X0059188Y0019558D01*
X0059155Y0019444D01*
X0059118Y0019331D01*
X0059077Y0019219D01*
X0059032Y0019108D01*
X0058984Y0018999D01*
X0058932Y0018892D01*
X0058876Y0018787D01*
X0058817Y0018683D01*
X0058755Y0018582D01*
X0058689Y0018482D01*
X0058620Y0018385D01*
X0058548Y0018291D01*
X0058472Y0018198D01*
X0058394Y0018109D01*
X0058313Y0018022D01*
X0058228Y0017937D01*
X0058141Y0017856D01*
X0058052Y0017778D01*
X0057959Y0017702D01*
X0057865Y0017630D01*
X0057768Y0017561D01*
X0057668Y0017495D01*
X0057567Y0017433D01*
X0057463Y0017374D01*
X0057358Y0017318D01*
X0057251Y0017266D01*
X0057142Y0017218D01*
X0057031Y0017173D01*
X0056919Y0017132D01*
X0056806Y0017095D01*
X0056692Y0017062D01*
X0056576Y0017032D01*
X0056460Y0017006D01*
X0056343Y0016985D01*
X0056225Y0016967D01*
X0056107Y0016953D01*
X0055988Y0016943D01*
X0055869Y0016937D01*
X0055750Y0016935D01*
X0055631Y0016937D01*
X0055512Y0016943D01*
X0055393Y0016953D01*
X0055275Y0016967D01*
X0055157Y0016985D01*
X0055040Y0017006D01*
X0054924Y0017032D01*
X0054808Y0017062D01*
X0054694Y0017095D01*
X0054581Y0017132D01*
X0054469Y0017173D01*
X0054358Y0017218D01*
X0054249Y0017266D01*
X0054142Y0017318D01*
X0054037Y0017374D01*
X0053933Y0017433D01*
X0053832Y0017495D01*
X0053732Y0017561D01*
X0053635Y0017630D01*
X0053541Y0017702D01*
X0053448Y0017778D01*
X0053359Y0017856D01*
X0053272Y0017937D01*
X0053187Y0018022D01*
X0053106Y0018109D01*
X0053028Y0018198D01*
X0052952Y0018291D01*
X0052880Y0018385D01*
X0052811Y0018482D01*
X0052745Y0018582D01*
X0052683Y0018683D01*
X0052624Y0018787D01*
X0052568Y0018892D01*
X0052516Y0018999D01*
X0052468Y0019108D01*
X0052423Y0019219D01*
X0052382Y0019331D01*
X0052345Y0019444D01*
X0052312Y0019558D01*
X0052282Y0019674D01*
X0052256Y0019790D01*
X0052235Y0019907D01*
X0052217Y0020025D01*
X0052203Y0020143D01*
X0052193Y0020262D01*
X0052187Y0020381D01*
X0052185Y0020500D01*
D40*
X0055750Y0020500D03*
M02*
