G75*
%MOIN*%
%OFA0B0*%
%FSLAX25Y25*%
%IPPOS*%
%LPD*%
%AMOC8*
5,1,8,0,0,1.08239X$1,22.5*
%
%ADD10C,0.04800*%
%ADD11R,0.07099X0.06312*%
%ADD12R,0.05131X0.04737*%
%ADD13R,0.04737X0.05131*%
%ADD14C,0.01421*%
%ADD15R,0.03950X0.03950*%
%ADD16R,0.04737X0.07887*%
%ADD17R,0.07690X0.02375*%
%ADD18R,0.06548X0.08674*%
%ADD19R,0.10643X0.06410*%
%ADD20C,0.00400*%
%ADD21R,0.18910X0.04737*%
%ADD22R,0.14186X0.07099*%
%ADD23R,0.03556X0.06706*%
%ADD24R,0.04737X0.03162*%
%ADD25R,0.04737X0.03950*%
%ADD26C,0.04343*%
%ADD27R,0.05524X0.02965*%
%ADD28C,0.01684*%
%ADD29R,0.08280X0.05131*%
%ADD30C,0.08200*%
%ADD31C,0.03556*%
%ADD32R,0.05131X0.08674*%
%ADD33C,0.04737*%
%ADD34C,0.05000*%
%ADD35C,0.06706*%
D10*
X0178750Y0123750D03*
X0178750Y0235750D03*
X0178750Y0347750D03*
X0340750Y0347750D03*
X0340750Y0235750D03*
X0340750Y0123750D03*
D11*
X0265750Y0099262D03*
X0265750Y0088238D03*
X0235750Y0088238D03*
X0235750Y0099262D03*
X0235750Y0200238D03*
X0235750Y0211262D03*
X0265750Y0211262D03*
X0265750Y0200238D03*
X0265750Y0312238D03*
X0265750Y0323262D03*
X0235750Y0323262D03*
X0235750Y0312238D03*
X0103750Y0312238D03*
X0103750Y0323262D03*
X0073750Y0323262D03*
X0073750Y0312238D03*
X0073750Y0211262D03*
X0073750Y0200238D03*
X0103750Y0200238D03*
X0103750Y0211262D03*
X0103750Y0099262D03*
X0103750Y0088238D03*
X0073750Y0088238D03*
X0073750Y0099262D03*
D12*
X0062096Y0108750D03*
X0062096Y0113750D03*
X0055404Y0113750D03*
X0055404Y0108750D03*
X0085404Y0113750D03*
X0092096Y0113750D03*
X0120404Y0108750D03*
X0120404Y0103750D03*
X0127096Y0103750D03*
X0127096Y0108750D03*
X0127096Y0098750D03*
X0120404Y0098750D03*
X0118904Y0083750D03*
X0125596Y0083750D03*
X0107096Y0073750D03*
X0100404Y0073750D03*
X0092096Y0073750D03*
X0085404Y0073750D03*
X0085404Y0083750D03*
X0092096Y0083750D03*
X0120404Y0058750D03*
X0127096Y0058750D03*
X0160404Y0108750D03*
X0160404Y0113750D03*
X0167096Y0113750D03*
X0167096Y0108750D03*
X0175404Y0113750D03*
X0182096Y0113750D03*
X0217404Y0113750D03*
X0217404Y0108750D03*
X0224096Y0108750D03*
X0224096Y0113750D03*
X0247404Y0113750D03*
X0254096Y0113750D03*
X0282404Y0108750D03*
X0282404Y0103750D03*
X0282404Y0098750D03*
X0289096Y0098750D03*
X0289096Y0103750D03*
X0289096Y0108750D03*
X0287596Y0083750D03*
X0280904Y0083750D03*
X0269096Y0073750D03*
X0262404Y0073750D03*
X0254096Y0073750D03*
X0247404Y0073750D03*
X0247404Y0083750D03*
X0254096Y0083750D03*
X0282404Y0058750D03*
X0289096Y0058750D03*
X0322404Y0108750D03*
X0322404Y0113750D03*
X0329096Y0113750D03*
X0329096Y0108750D03*
X0337404Y0113750D03*
X0344096Y0113750D03*
X0289096Y0170750D03*
X0282404Y0170750D03*
X0269096Y0185750D03*
X0262404Y0185750D03*
X0254096Y0185750D03*
X0247404Y0185750D03*
X0247404Y0195750D03*
X0254096Y0195750D03*
X0280904Y0195750D03*
X0287596Y0195750D03*
X0289096Y0210750D03*
X0289096Y0215750D03*
X0289096Y0220750D03*
X0282404Y0220750D03*
X0282404Y0215750D03*
X0282404Y0210750D03*
X0254096Y0225750D03*
X0247404Y0225750D03*
X0224096Y0225750D03*
X0224096Y0220750D03*
X0217404Y0220750D03*
X0217404Y0225750D03*
X0182096Y0225750D03*
X0175404Y0225750D03*
X0167096Y0225750D03*
X0167096Y0220750D03*
X0160404Y0220750D03*
X0160404Y0225750D03*
X0127096Y0220750D03*
X0127096Y0215750D03*
X0120404Y0215750D03*
X0120404Y0220750D03*
X0120404Y0210750D03*
X0127096Y0210750D03*
X0125596Y0195750D03*
X0118904Y0195750D03*
X0107096Y0185750D03*
X0100404Y0185750D03*
X0092096Y0185750D03*
X0085404Y0185750D03*
X0085404Y0195750D03*
X0092096Y0195750D03*
X0120404Y0170750D03*
X0127096Y0170750D03*
X0092096Y0225750D03*
X0085404Y0225750D03*
X0062096Y0225750D03*
X0062096Y0220750D03*
X0055404Y0220750D03*
X0055404Y0225750D03*
X0120404Y0282750D03*
X0127096Y0282750D03*
X0107096Y0297750D03*
X0100404Y0297750D03*
X0092096Y0297750D03*
X0085404Y0297750D03*
X0085404Y0307750D03*
X0092096Y0307750D03*
X0118904Y0307750D03*
X0125596Y0307750D03*
X0127096Y0322750D03*
X0120404Y0322750D03*
X0120404Y0327750D03*
X0120404Y0332750D03*
X0127096Y0332750D03*
X0127096Y0327750D03*
X0092096Y0337750D03*
X0085404Y0337750D03*
X0062096Y0337750D03*
X0062096Y0332750D03*
X0055404Y0332750D03*
X0055404Y0337750D03*
X0160404Y0337750D03*
X0160404Y0332750D03*
X0167096Y0332750D03*
X0167096Y0337750D03*
X0175404Y0337750D03*
X0182096Y0337750D03*
X0217404Y0337750D03*
X0217404Y0332750D03*
X0224096Y0332750D03*
X0224096Y0337750D03*
X0247404Y0337750D03*
X0254096Y0337750D03*
X0282404Y0332750D03*
X0282404Y0327750D03*
X0282404Y0322750D03*
X0289096Y0322750D03*
X0289096Y0327750D03*
X0289096Y0332750D03*
X0287596Y0307750D03*
X0280904Y0307750D03*
X0269096Y0297750D03*
X0262404Y0297750D03*
X0254096Y0297750D03*
X0247404Y0297750D03*
X0247404Y0307750D03*
X0254096Y0307750D03*
X0282404Y0282750D03*
X0289096Y0282750D03*
X0322404Y0332750D03*
X0322404Y0337750D03*
X0329096Y0337750D03*
X0329096Y0332750D03*
X0337404Y0337750D03*
X0344096Y0337750D03*
X0344096Y0225750D03*
X0337404Y0225750D03*
X0329096Y0225750D03*
X0329096Y0220750D03*
X0322404Y0220750D03*
X0322404Y0225750D03*
D13*
X0330750Y0173596D03*
X0330750Y0166904D03*
X0300750Y0166904D03*
X0300750Y0173596D03*
X0300750Y0278904D03*
X0300750Y0285596D03*
X0330750Y0285596D03*
X0330750Y0278904D03*
X0168750Y0278904D03*
X0168750Y0285596D03*
X0138750Y0285596D03*
X0138750Y0278904D03*
X0138750Y0173596D03*
X0138750Y0166904D03*
X0168750Y0166904D03*
X0168750Y0173596D03*
X0168750Y0061596D03*
X0168750Y0054904D03*
X0138750Y0054904D03*
X0138750Y0061596D03*
X0300750Y0061596D03*
X0300750Y0054904D03*
X0330750Y0054904D03*
X0330750Y0061596D03*
D14*
X0252545Y0067092D02*
X0252545Y0070408D01*
X0255861Y0070408D01*
X0255861Y0067092D01*
X0252545Y0067092D01*
X0252545Y0068512D02*
X0255861Y0068512D01*
X0255861Y0069932D02*
X0252545Y0069932D01*
X0245639Y0070408D02*
X0245639Y0067092D01*
X0245639Y0070408D02*
X0248955Y0070408D01*
X0248955Y0067092D01*
X0245639Y0067092D01*
X0245639Y0068512D02*
X0248955Y0068512D01*
X0248955Y0069932D02*
X0245639Y0069932D01*
X0245639Y0179092D02*
X0245639Y0182408D01*
X0248955Y0182408D01*
X0248955Y0179092D01*
X0245639Y0179092D01*
X0245639Y0180512D02*
X0248955Y0180512D01*
X0248955Y0181932D02*
X0245639Y0181932D01*
X0252545Y0182408D02*
X0252545Y0179092D01*
X0252545Y0182408D02*
X0255861Y0182408D01*
X0255861Y0179092D01*
X0252545Y0179092D01*
X0252545Y0180512D02*
X0255861Y0180512D01*
X0255861Y0181932D02*
X0252545Y0181932D01*
X0252545Y0291092D02*
X0252545Y0294408D01*
X0255861Y0294408D01*
X0255861Y0291092D01*
X0252545Y0291092D01*
X0252545Y0292512D02*
X0255861Y0292512D01*
X0255861Y0293932D02*
X0252545Y0293932D01*
X0245639Y0294408D02*
X0245639Y0291092D01*
X0245639Y0294408D02*
X0248955Y0294408D01*
X0248955Y0291092D01*
X0245639Y0291092D01*
X0245639Y0292512D02*
X0248955Y0292512D01*
X0248955Y0293932D02*
X0245639Y0293932D01*
X0090545Y0294408D02*
X0090545Y0291092D01*
X0090545Y0294408D02*
X0093861Y0294408D01*
X0093861Y0291092D01*
X0090545Y0291092D01*
X0090545Y0292512D02*
X0093861Y0292512D01*
X0093861Y0293932D02*
X0090545Y0293932D01*
X0083639Y0294408D02*
X0083639Y0291092D01*
X0083639Y0294408D02*
X0086955Y0294408D01*
X0086955Y0291092D01*
X0083639Y0291092D01*
X0083639Y0292512D02*
X0086955Y0292512D01*
X0086955Y0293932D02*
X0083639Y0293932D01*
X0083639Y0182408D02*
X0083639Y0179092D01*
X0083639Y0182408D02*
X0086955Y0182408D01*
X0086955Y0179092D01*
X0083639Y0179092D01*
X0083639Y0180512D02*
X0086955Y0180512D01*
X0086955Y0181932D02*
X0083639Y0181932D01*
X0090545Y0182408D02*
X0090545Y0179092D01*
X0090545Y0182408D02*
X0093861Y0182408D01*
X0093861Y0179092D01*
X0090545Y0179092D01*
X0090545Y0180512D02*
X0093861Y0180512D01*
X0093861Y0181932D02*
X0090545Y0181932D01*
X0090545Y0070408D02*
X0090545Y0067092D01*
X0090545Y0070408D02*
X0093861Y0070408D01*
X0093861Y0067092D01*
X0090545Y0067092D01*
X0090545Y0068512D02*
X0093861Y0068512D01*
X0093861Y0069932D02*
X0090545Y0069932D01*
X0083639Y0070408D02*
X0083639Y0067092D01*
X0083639Y0070408D02*
X0086955Y0070408D01*
X0086955Y0067092D01*
X0083639Y0067092D01*
X0083639Y0068512D02*
X0086955Y0068512D01*
X0086955Y0069932D02*
X0083639Y0069932D01*
D15*
X0100797Y0068750D03*
X0106703Y0068750D03*
X0091703Y0108750D03*
X0085797Y0108750D03*
X0100797Y0180750D03*
X0106703Y0180750D03*
X0091703Y0220750D03*
X0085797Y0220750D03*
X0100797Y0292750D03*
X0106703Y0292750D03*
X0091703Y0332750D03*
X0085797Y0332750D03*
X0175797Y0332750D03*
X0181703Y0332750D03*
X0247797Y0332750D03*
X0253703Y0332750D03*
X0262797Y0292750D03*
X0268703Y0292750D03*
X0337797Y0332750D03*
X0343703Y0332750D03*
X0343703Y0220750D03*
X0337797Y0220750D03*
X0268703Y0180750D03*
X0262797Y0180750D03*
X0253703Y0220750D03*
X0247797Y0220750D03*
X0181703Y0220750D03*
X0175797Y0220750D03*
X0175797Y0108750D03*
X0181703Y0108750D03*
X0247797Y0108750D03*
X0253703Y0108750D03*
X0262797Y0068750D03*
X0268703Y0068750D03*
X0337797Y0108750D03*
X0343703Y0108750D03*
D16*
X0241262Y0053750D03*
X0230238Y0053750D03*
X0230238Y0165750D03*
X0241262Y0165750D03*
X0241262Y0277750D03*
X0230238Y0277750D03*
X0079262Y0277750D03*
X0068238Y0277750D03*
X0068238Y0165750D03*
X0079262Y0165750D03*
X0079262Y0053750D03*
X0068238Y0053750D03*
D17*
X0043990Y0098508D03*
X0043990Y0101067D03*
X0043990Y0103626D03*
X0043990Y0106185D03*
X0043990Y0108744D03*
X0043990Y0210508D03*
X0043990Y0213067D03*
X0043990Y0215626D03*
X0043990Y0218185D03*
X0043990Y0220744D03*
X0043990Y0322508D03*
X0043990Y0325067D03*
X0043990Y0327626D03*
X0043990Y0330185D03*
X0043990Y0332744D03*
X0205990Y0332744D03*
X0205990Y0330185D03*
X0205990Y0327626D03*
X0205990Y0325067D03*
X0205990Y0322508D03*
X0205990Y0220744D03*
X0205990Y0218185D03*
X0205990Y0215626D03*
X0205990Y0213067D03*
X0205990Y0210508D03*
X0205990Y0108744D03*
X0205990Y0106185D03*
X0205990Y0103626D03*
X0205990Y0101067D03*
X0205990Y0098508D03*
D18*
X0207073Y0092604D03*
X0207073Y0114748D03*
X0207073Y0204604D03*
X0207073Y0226748D03*
X0207073Y0316604D03*
X0207073Y0338748D03*
X0045073Y0338748D03*
X0045073Y0316604D03*
X0045073Y0226748D03*
X0045073Y0204604D03*
X0045073Y0114748D03*
X0045073Y0092604D03*
D19*
X0033428Y0099828D03*
X0033439Y0107603D03*
X0033428Y0211828D03*
X0033439Y0219603D03*
X0033428Y0323828D03*
X0033439Y0331603D03*
X0195439Y0331603D03*
X0195428Y0323828D03*
X0195439Y0219603D03*
X0195428Y0211828D03*
X0195439Y0107603D03*
X0195428Y0099828D03*
D20*
X0193230Y0096120D02*
X0203630Y0096220D01*
X0203630Y0088317D01*
X0200325Y0088317D01*
X0200325Y0090120D01*
X0193430Y0090120D01*
X0193084Y0090148D01*
X0192753Y0090252D01*
X0192453Y0090427D01*
X0192199Y0090665D01*
X0192005Y0090952D01*
X0191880Y0091276D01*
X0191830Y0091620D01*
X0191830Y0094620D01*
X0191855Y0094944D01*
X0191952Y0095254D01*
X0192115Y0095535D01*
X0192337Y0095772D01*
X0192606Y0095955D01*
X0192909Y0096073D01*
X0193230Y0096120D01*
X0193084Y0096098D02*
X0203630Y0096098D01*
X0203630Y0095700D02*
X0192269Y0095700D01*
X0191979Y0095301D02*
X0203630Y0095301D01*
X0203630Y0094903D02*
X0191852Y0094903D01*
X0191830Y0094504D02*
X0203630Y0094504D01*
X0203630Y0094106D02*
X0191830Y0094106D01*
X0191830Y0093707D02*
X0203630Y0093707D01*
X0203630Y0093309D02*
X0191830Y0093309D01*
X0191830Y0092910D02*
X0203630Y0092910D01*
X0203630Y0092512D02*
X0191830Y0092512D01*
X0191830Y0092113D02*
X0203630Y0092113D01*
X0203630Y0091715D02*
X0191830Y0091715D01*
X0191874Y0091316D02*
X0203630Y0091316D01*
X0203630Y0090918D02*
X0192029Y0090918D01*
X0192354Y0090519D02*
X0203630Y0090519D01*
X0203630Y0090121D02*
X0193421Y0090121D01*
X0200325Y0089722D02*
X0203630Y0089722D01*
X0203630Y0089324D02*
X0200325Y0089324D01*
X0200325Y0088925D02*
X0203630Y0088925D01*
X0203630Y0088527D02*
X0200325Y0088527D01*
X0200230Y0111120D02*
X0193830Y0111220D01*
X0193330Y0111220D01*
X0193006Y0111245D01*
X0192696Y0111342D01*
X0192415Y0111505D01*
X0192178Y0111727D01*
X0191995Y0111996D01*
X0191877Y0112299D01*
X0191830Y0112620D01*
X0191830Y0115520D01*
X0191858Y0115866D01*
X0191962Y0116197D01*
X0192137Y0116497D01*
X0192374Y0116751D01*
X0192662Y0116945D01*
X0192986Y0117070D01*
X0193330Y0117120D01*
X0200286Y0117100D01*
X0200286Y0119000D01*
X0203630Y0119020D01*
X0203630Y0111120D01*
X0200230Y0111120D01*
X0203630Y0111242D02*
X0193050Y0111242D01*
X0192270Y0111640D02*
X0203630Y0111640D01*
X0203630Y0112039D02*
X0191979Y0112039D01*
X0191857Y0112437D02*
X0203630Y0112437D01*
X0203630Y0112836D02*
X0191830Y0112836D01*
X0191830Y0113234D02*
X0203630Y0113234D01*
X0203630Y0113633D02*
X0191830Y0113633D01*
X0191830Y0114031D02*
X0203630Y0114031D01*
X0203630Y0114430D02*
X0191830Y0114430D01*
X0191830Y0114828D02*
X0203630Y0114828D01*
X0203630Y0115227D02*
X0191830Y0115227D01*
X0191838Y0115625D02*
X0203630Y0115625D01*
X0203630Y0116024D02*
X0191907Y0116024D01*
X0192093Y0116422D02*
X0203630Y0116422D01*
X0203630Y0116821D02*
X0192479Y0116821D01*
X0200286Y0117220D02*
X0203630Y0117220D01*
X0203630Y0117618D02*
X0200286Y0117618D01*
X0200286Y0118017D02*
X0203630Y0118017D01*
X0203630Y0118415D02*
X0200286Y0118415D01*
X0200286Y0118814D02*
X0203630Y0118814D01*
X0203630Y0200317D02*
X0200325Y0200317D01*
X0200325Y0202120D01*
X0193430Y0202120D01*
X0193084Y0202148D01*
X0192753Y0202252D01*
X0192453Y0202427D01*
X0192199Y0202665D01*
X0192005Y0202952D01*
X0191880Y0203276D01*
X0191830Y0203620D01*
X0191830Y0206620D01*
X0191855Y0206944D01*
X0191952Y0207254D01*
X0192115Y0207535D01*
X0192337Y0207772D01*
X0192606Y0207955D01*
X0192909Y0208073D01*
X0193230Y0208120D01*
X0203630Y0208220D01*
X0203630Y0200317D01*
X0203630Y0200508D02*
X0200325Y0200508D01*
X0200325Y0200907D02*
X0203630Y0200907D01*
X0203630Y0201305D02*
X0200325Y0201305D01*
X0200325Y0201704D02*
X0203630Y0201704D01*
X0203630Y0202102D02*
X0200325Y0202102D01*
X0203630Y0202501D02*
X0192374Y0202501D01*
X0192041Y0202899D02*
X0203630Y0202899D01*
X0203630Y0203298D02*
X0191877Y0203298D01*
X0191830Y0203696D02*
X0203630Y0203696D01*
X0203630Y0204095D02*
X0191830Y0204095D01*
X0191830Y0204493D02*
X0203630Y0204493D01*
X0203630Y0204892D02*
X0191830Y0204892D01*
X0191830Y0205291D02*
X0203630Y0205291D01*
X0203630Y0205689D02*
X0191830Y0205689D01*
X0191830Y0206088D02*
X0203630Y0206088D01*
X0203630Y0206486D02*
X0191830Y0206486D01*
X0191851Y0206885D02*
X0203630Y0206885D01*
X0203630Y0207283D02*
X0191969Y0207283D01*
X0192252Y0207682D02*
X0203630Y0207682D01*
X0203630Y0208080D02*
X0192960Y0208080D01*
X0193330Y0223220D02*
X0193006Y0223245D01*
X0192696Y0223342D01*
X0192415Y0223505D01*
X0192178Y0223727D01*
X0191995Y0223996D01*
X0191877Y0224299D01*
X0191830Y0224620D01*
X0191830Y0227520D01*
X0191858Y0227866D01*
X0191962Y0228197D01*
X0192137Y0228497D01*
X0192374Y0228751D01*
X0192662Y0228945D01*
X0192986Y0229070D01*
X0193330Y0229120D01*
X0200286Y0229100D01*
X0200286Y0231000D01*
X0203630Y0231020D01*
X0203630Y0223120D01*
X0200230Y0223120D01*
X0193830Y0223220D01*
X0193330Y0223220D01*
X0193285Y0223224D02*
X0203630Y0223224D01*
X0203630Y0223622D02*
X0192290Y0223622D01*
X0191986Y0224021D02*
X0203630Y0224021D01*
X0203630Y0224419D02*
X0191860Y0224419D01*
X0191830Y0224818D02*
X0203630Y0224818D01*
X0203630Y0225216D02*
X0191830Y0225216D01*
X0191830Y0225615D02*
X0203630Y0225615D01*
X0203630Y0226013D02*
X0191830Y0226013D01*
X0191830Y0226412D02*
X0203630Y0226412D01*
X0203630Y0226810D02*
X0191830Y0226810D01*
X0191830Y0227209D02*
X0203630Y0227209D01*
X0203630Y0227607D02*
X0191837Y0227607D01*
X0191902Y0228006D02*
X0203630Y0228006D01*
X0203630Y0228404D02*
X0192083Y0228404D01*
X0192452Y0228803D02*
X0203630Y0228803D01*
X0203630Y0229201D02*
X0200286Y0229201D01*
X0200286Y0229600D02*
X0203630Y0229600D01*
X0203630Y0229998D02*
X0200286Y0229998D01*
X0200286Y0230397D02*
X0203630Y0230397D01*
X0203630Y0230795D02*
X0200286Y0230795D01*
X0200325Y0312317D02*
X0200325Y0314120D01*
X0193430Y0314120D01*
X0193084Y0314148D01*
X0192753Y0314252D01*
X0192453Y0314427D01*
X0192199Y0314665D01*
X0192005Y0314952D01*
X0191880Y0315276D01*
X0191830Y0315620D01*
X0191830Y0318620D01*
X0191855Y0318944D01*
X0191952Y0319254D01*
X0192115Y0319535D01*
X0192337Y0319772D01*
X0192606Y0319955D01*
X0192909Y0320073D01*
X0193230Y0320120D01*
X0203630Y0320220D01*
X0203630Y0312317D01*
X0200325Y0312317D01*
X0200325Y0312490D02*
X0203630Y0312490D01*
X0203630Y0312889D02*
X0200325Y0312889D01*
X0200325Y0313287D02*
X0203630Y0313287D01*
X0203630Y0313686D02*
X0200325Y0313686D01*
X0200325Y0314084D02*
X0203630Y0314084D01*
X0203630Y0314483D02*
X0192393Y0314483D01*
X0192053Y0314881D02*
X0203630Y0314881D01*
X0203630Y0315280D02*
X0191880Y0315280D01*
X0191830Y0315678D02*
X0203630Y0315678D01*
X0203630Y0316077D02*
X0191830Y0316077D01*
X0191830Y0316475D02*
X0203630Y0316475D01*
X0203630Y0316874D02*
X0191830Y0316874D01*
X0191830Y0317272D02*
X0203630Y0317272D01*
X0203630Y0317671D02*
X0191830Y0317671D01*
X0191830Y0318069D02*
X0203630Y0318069D01*
X0203630Y0318468D02*
X0191830Y0318468D01*
X0191849Y0318866D02*
X0203630Y0318866D01*
X0203630Y0319265D02*
X0191958Y0319265D01*
X0192235Y0319663D02*
X0203630Y0319663D01*
X0203630Y0320062D02*
X0192881Y0320062D01*
X0193330Y0335220D02*
X0193006Y0335245D01*
X0192696Y0335342D01*
X0192415Y0335505D01*
X0192178Y0335727D01*
X0191995Y0335996D01*
X0191877Y0336299D01*
X0191830Y0336620D01*
X0191830Y0339520D01*
X0191858Y0339866D01*
X0191962Y0340197D01*
X0192137Y0340497D01*
X0192374Y0340751D01*
X0192662Y0340945D01*
X0192986Y0341070D01*
X0193330Y0341120D01*
X0200286Y0341100D01*
X0200286Y0343000D01*
X0203630Y0343020D01*
X0203630Y0335120D01*
X0200230Y0335120D01*
X0193830Y0335220D01*
X0193330Y0335220D01*
X0192309Y0335604D02*
X0203630Y0335604D01*
X0203630Y0336002D02*
X0191993Y0336002D01*
X0191862Y0336401D02*
X0203630Y0336401D01*
X0203630Y0336799D02*
X0191830Y0336799D01*
X0191830Y0337198D02*
X0203630Y0337198D01*
X0203630Y0337596D02*
X0191830Y0337596D01*
X0191830Y0337995D02*
X0203630Y0337995D01*
X0203630Y0338393D02*
X0191830Y0338393D01*
X0191830Y0338792D02*
X0203630Y0338792D01*
X0203630Y0339190D02*
X0191830Y0339190D01*
X0191836Y0339589D02*
X0203630Y0339589D01*
X0203630Y0339987D02*
X0191896Y0339987D01*
X0192072Y0340386D02*
X0203630Y0340386D01*
X0203630Y0340784D02*
X0192424Y0340784D01*
X0200286Y0341183D02*
X0203630Y0341183D01*
X0203630Y0341581D02*
X0200286Y0341581D01*
X0200286Y0341980D02*
X0203630Y0341980D01*
X0203630Y0342378D02*
X0200286Y0342378D01*
X0200286Y0342777D02*
X0203630Y0342777D01*
X0203630Y0335205D02*
X0194777Y0335205D01*
X0041630Y0335205D02*
X0032777Y0335205D01*
X0031830Y0335220D02*
X0031330Y0335220D01*
X0031006Y0335245D01*
X0030696Y0335342D01*
X0030415Y0335505D01*
X0030178Y0335727D01*
X0029995Y0335996D01*
X0029877Y0336299D01*
X0029830Y0336620D01*
X0029830Y0339520D01*
X0029858Y0339866D01*
X0029962Y0340197D01*
X0030137Y0340497D01*
X0030374Y0340751D01*
X0030662Y0340945D01*
X0030986Y0341070D01*
X0031330Y0341120D01*
X0038286Y0341100D01*
X0038286Y0343000D01*
X0041630Y0343020D01*
X0041630Y0335120D01*
X0038230Y0335120D01*
X0031830Y0335220D01*
X0030309Y0335604D02*
X0041630Y0335604D01*
X0041630Y0336002D02*
X0029993Y0336002D01*
X0029862Y0336401D02*
X0041630Y0336401D01*
X0041630Y0336799D02*
X0029830Y0336799D01*
X0029830Y0337198D02*
X0041630Y0337198D01*
X0041630Y0337596D02*
X0029830Y0337596D01*
X0029830Y0337995D02*
X0041630Y0337995D01*
X0041630Y0338393D02*
X0029830Y0338393D01*
X0029830Y0338792D02*
X0041630Y0338792D01*
X0041630Y0339190D02*
X0029830Y0339190D01*
X0029836Y0339589D02*
X0041630Y0339589D01*
X0041630Y0339987D02*
X0029896Y0339987D01*
X0030072Y0340386D02*
X0041630Y0340386D01*
X0041630Y0340784D02*
X0030424Y0340784D01*
X0038286Y0341183D02*
X0041630Y0341183D01*
X0041630Y0341581D02*
X0038286Y0341581D01*
X0038286Y0341980D02*
X0041630Y0341980D01*
X0041630Y0342378D02*
X0038286Y0342378D01*
X0038286Y0342777D02*
X0041630Y0342777D01*
X0041630Y0320220D02*
X0031230Y0320120D01*
X0030909Y0320073D01*
X0030606Y0319955D01*
X0030337Y0319772D01*
X0030115Y0319535D01*
X0029952Y0319254D01*
X0029855Y0318944D01*
X0029830Y0318620D01*
X0029830Y0315620D01*
X0029880Y0315276D01*
X0030005Y0314952D01*
X0030199Y0314665D01*
X0030453Y0314427D01*
X0030753Y0314252D01*
X0031084Y0314148D01*
X0031430Y0314120D01*
X0038325Y0314120D01*
X0038325Y0312317D01*
X0041630Y0312317D01*
X0041630Y0320220D01*
X0041630Y0320062D02*
X0030881Y0320062D01*
X0030235Y0319663D02*
X0041630Y0319663D01*
X0041630Y0319265D02*
X0029958Y0319265D01*
X0029849Y0318866D02*
X0041630Y0318866D01*
X0041630Y0318468D02*
X0029830Y0318468D01*
X0029830Y0318069D02*
X0041630Y0318069D01*
X0041630Y0317671D02*
X0029830Y0317671D01*
X0029830Y0317272D02*
X0041630Y0317272D01*
X0041630Y0316874D02*
X0029830Y0316874D01*
X0029830Y0316475D02*
X0041630Y0316475D01*
X0041630Y0316077D02*
X0029830Y0316077D01*
X0029830Y0315678D02*
X0041630Y0315678D01*
X0041630Y0315280D02*
X0029880Y0315280D01*
X0030053Y0314881D02*
X0041630Y0314881D01*
X0041630Y0314483D02*
X0030393Y0314483D01*
X0038325Y0314084D02*
X0041630Y0314084D01*
X0041630Y0313686D02*
X0038325Y0313686D01*
X0038325Y0313287D02*
X0041630Y0313287D01*
X0041630Y0312889D02*
X0038325Y0312889D01*
X0038325Y0312490D02*
X0041630Y0312490D01*
X0041630Y0231020D02*
X0038286Y0231000D01*
X0038286Y0229100D01*
X0031330Y0229120D01*
X0030986Y0229070D01*
X0030662Y0228945D01*
X0030374Y0228751D01*
X0030137Y0228497D01*
X0029962Y0228197D01*
X0029858Y0227866D01*
X0029830Y0227520D01*
X0029830Y0224620D01*
X0029877Y0224299D01*
X0029995Y0223996D01*
X0030178Y0223727D01*
X0030415Y0223505D01*
X0030696Y0223342D01*
X0031006Y0223245D01*
X0031330Y0223220D01*
X0031830Y0223220D01*
X0038230Y0223120D01*
X0041630Y0223120D01*
X0041630Y0231020D01*
X0041630Y0230795D02*
X0038286Y0230795D01*
X0038286Y0230397D02*
X0041630Y0230397D01*
X0041630Y0229998D02*
X0038286Y0229998D01*
X0038286Y0229600D02*
X0041630Y0229600D01*
X0041630Y0229201D02*
X0038286Y0229201D01*
X0041630Y0228803D02*
X0030452Y0228803D01*
X0030083Y0228404D02*
X0041630Y0228404D01*
X0041630Y0228006D02*
X0029902Y0228006D01*
X0029837Y0227607D02*
X0041630Y0227607D01*
X0041630Y0227209D02*
X0029830Y0227209D01*
X0029830Y0226810D02*
X0041630Y0226810D01*
X0041630Y0226412D02*
X0029830Y0226412D01*
X0029830Y0226013D02*
X0041630Y0226013D01*
X0041630Y0225615D02*
X0029830Y0225615D01*
X0029830Y0225216D02*
X0041630Y0225216D01*
X0041630Y0224818D02*
X0029830Y0224818D01*
X0029860Y0224419D02*
X0041630Y0224419D01*
X0041630Y0224021D02*
X0029986Y0224021D01*
X0030290Y0223622D02*
X0041630Y0223622D01*
X0041630Y0223224D02*
X0031285Y0223224D01*
X0031230Y0208120D02*
X0041630Y0208220D01*
X0041630Y0200317D01*
X0038325Y0200317D01*
X0038325Y0202120D01*
X0031430Y0202120D01*
X0031084Y0202148D01*
X0030753Y0202252D01*
X0030453Y0202427D01*
X0030199Y0202665D01*
X0030005Y0202952D01*
X0029880Y0203276D01*
X0029830Y0203620D01*
X0029830Y0206620D01*
X0029855Y0206944D01*
X0029952Y0207254D01*
X0030115Y0207535D01*
X0030337Y0207772D01*
X0030606Y0207955D01*
X0030909Y0208073D01*
X0031230Y0208120D01*
X0030960Y0208080D02*
X0041630Y0208080D01*
X0041630Y0207682D02*
X0030252Y0207682D01*
X0029969Y0207283D02*
X0041630Y0207283D01*
X0041630Y0206885D02*
X0029851Y0206885D01*
X0029830Y0206486D02*
X0041630Y0206486D01*
X0041630Y0206088D02*
X0029830Y0206088D01*
X0029830Y0205689D02*
X0041630Y0205689D01*
X0041630Y0205291D02*
X0029830Y0205291D01*
X0029830Y0204892D02*
X0041630Y0204892D01*
X0041630Y0204493D02*
X0029830Y0204493D01*
X0029830Y0204095D02*
X0041630Y0204095D01*
X0041630Y0203696D02*
X0029830Y0203696D01*
X0029877Y0203298D02*
X0041630Y0203298D01*
X0041630Y0202899D02*
X0030041Y0202899D01*
X0030374Y0202501D02*
X0041630Y0202501D01*
X0041630Y0202102D02*
X0038325Y0202102D01*
X0038325Y0201704D02*
X0041630Y0201704D01*
X0041630Y0201305D02*
X0038325Y0201305D01*
X0038325Y0200907D02*
X0041630Y0200907D01*
X0041630Y0200508D02*
X0038325Y0200508D01*
X0038286Y0119000D02*
X0041630Y0119020D01*
X0041630Y0111120D01*
X0038230Y0111120D01*
X0031830Y0111220D01*
X0031330Y0111220D01*
X0031006Y0111245D01*
X0030696Y0111342D01*
X0030415Y0111505D01*
X0030178Y0111727D01*
X0029995Y0111996D01*
X0029877Y0112299D01*
X0029830Y0112620D01*
X0029830Y0115520D01*
X0029858Y0115866D01*
X0029962Y0116197D01*
X0030137Y0116497D01*
X0030374Y0116751D01*
X0030662Y0116945D01*
X0030986Y0117070D01*
X0031330Y0117120D01*
X0038286Y0117100D01*
X0038286Y0119000D01*
X0038286Y0118814D02*
X0041630Y0118814D01*
X0041630Y0118415D02*
X0038286Y0118415D01*
X0038286Y0118017D02*
X0041630Y0118017D01*
X0041630Y0117618D02*
X0038286Y0117618D01*
X0038286Y0117220D02*
X0041630Y0117220D01*
X0041630Y0116821D02*
X0030479Y0116821D01*
X0030093Y0116422D02*
X0041630Y0116422D01*
X0041630Y0116024D02*
X0029907Y0116024D01*
X0029838Y0115625D02*
X0041630Y0115625D01*
X0041630Y0115227D02*
X0029830Y0115227D01*
X0029830Y0114828D02*
X0041630Y0114828D01*
X0041630Y0114430D02*
X0029830Y0114430D01*
X0029830Y0114031D02*
X0041630Y0114031D01*
X0041630Y0113633D02*
X0029830Y0113633D01*
X0029830Y0113234D02*
X0041630Y0113234D01*
X0041630Y0112836D02*
X0029830Y0112836D01*
X0029857Y0112437D02*
X0041630Y0112437D01*
X0041630Y0112039D02*
X0029979Y0112039D01*
X0030270Y0111640D02*
X0041630Y0111640D01*
X0041630Y0111242D02*
X0031050Y0111242D01*
X0031230Y0096120D02*
X0041630Y0096220D01*
X0041630Y0088317D01*
X0038325Y0088317D01*
X0038325Y0090120D01*
X0031430Y0090120D01*
X0031084Y0090148D01*
X0030753Y0090252D01*
X0030453Y0090427D01*
X0030199Y0090665D01*
X0030005Y0090952D01*
X0029880Y0091276D01*
X0029830Y0091620D01*
X0029830Y0094620D01*
X0029855Y0094944D01*
X0029952Y0095254D01*
X0030115Y0095535D01*
X0030337Y0095772D01*
X0030606Y0095955D01*
X0030909Y0096073D01*
X0031230Y0096120D01*
X0031084Y0096098D02*
X0041630Y0096098D01*
X0041630Y0095700D02*
X0030269Y0095700D01*
X0029979Y0095301D02*
X0041630Y0095301D01*
X0041630Y0094903D02*
X0029852Y0094903D01*
X0029830Y0094504D02*
X0041630Y0094504D01*
X0041630Y0094106D02*
X0029830Y0094106D01*
X0029830Y0093707D02*
X0041630Y0093707D01*
X0041630Y0093309D02*
X0029830Y0093309D01*
X0029830Y0092910D02*
X0041630Y0092910D01*
X0041630Y0092512D02*
X0029830Y0092512D01*
X0029830Y0092113D02*
X0041630Y0092113D01*
X0041630Y0091715D02*
X0029830Y0091715D01*
X0029874Y0091316D02*
X0041630Y0091316D01*
X0041630Y0090918D02*
X0030029Y0090918D01*
X0030354Y0090519D02*
X0041630Y0090519D01*
X0041630Y0090121D02*
X0031421Y0090121D01*
X0038325Y0089722D02*
X0041630Y0089722D01*
X0041630Y0089324D02*
X0038325Y0089324D01*
X0038325Y0088925D02*
X0041630Y0088925D01*
X0041630Y0088527D02*
X0038325Y0088527D01*
D21*
X0058317Y0072687D03*
X0058317Y0064813D03*
X0058317Y0176813D03*
X0058317Y0184687D03*
X0058317Y0288813D03*
X0058317Y0296687D03*
X0220317Y0296687D03*
X0220317Y0288813D03*
X0220317Y0184687D03*
X0220317Y0176813D03*
X0220317Y0072687D03*
X0220317Y0064813D03*
D22*
X0199844Y0055364D03*
X0199844Y0082136D03*
X0199844Y0167364D03*
X0199844Y0194136D03*
X0199844Y0279364D03*
X0199844Y0306136D03*
X0037844Y0306136D03*
X0037844Y0279364D03*
X0037844Y0194136D03*
X0037844Y0167364D03*
X0037844Y0082136D03*
X0037844Y0055364D03*
D23*
X0044892Y0045640D03*
X0056703Y0045640D03*
X0062608Y0045640D03*
X0062608Y0157640D03*
X0056703Y0157640D03*
X0044892Y0157640D03*
X0044892Y0269640D03*
X0056703Y0269640D03*
X0062608Y0269640D03*
X0206892Y0269640D03*
X0218703Y0269640D03*
X0224608Y0269640D03*
X0224608Y0157640D03*
X0218703Y0157640D03*
X0206892Y0157640D03*
X0206892Y0045640D03*
X0218703Y0045640D03*
X0224608Y0045640D03*
D24*
X0039380Y0034813D03*
X0068120Y0034813D03*
X0068120Y0146813D03*
X0039380Y0146813D03*
X0039380Y0258813D03*
X0068120Y0258813D03*
X0201380Y0258813D03*
X0230120Y0258813D03*
X0230120Y0146813D03*
X0201380Y0146813D03*
X0201380Y0034813D03*
X0230120Y0034813D03*
D25*
X0230120Y0043081D03*
X0201380Y0043081D03*
X0201380Y0155081D03*
X0230120Y0155081D03*
X0230120Y0267081D03*
X0201380Y0267081D03*
X0068120Y0267081D03*
X0039380Y0267081D03*
X0039380Y0155081D03*
X0068120Y0155081D03*
X0068120Y0043081D03*
X0039380Y0043081D03*
D26*
X0047844Y0038750D03*
X0059656Y0038750D03*
X0059656Y0150750D03*
X0047844Y0150750D03*
X0047844Y0262750D03*
X0059656Y0262750D03*
X0209844Y0262750D03*
X0221656Y0262750D03*
X0221656Y0150750D03*
X0209844Y0150750D03*
X0209844Y0038750D03*
X0221656Y0038750D03*
D27*
X0225869Y0090010D03*
X0225869Y0097490D03*
X0215631Y0097490D03*
X0215631Y0093750D03*
X0215631Y0090010D03*
X0245631Y0090010D03*
X0245631Y0097490D03*
X0255869Y0097490D03*
X0255869Y0093750D03*
X0255869Y0090010D03*
X0255869Y0202010D03*
X0255869Y0205750D03*
X0255869Y0209490D03*
X0245631Y0209490D03*
X0245631Y0202010D03*
X0225869Y0202010D03*
X0225869Y0209490D03*
X0215631Y0209490D03*
X0215631Y0205750D03*
X0215631Y0202010D03*
X0215631Y0314010D03*
X0215631Y0317750D03*
X0215631Y0321490D03*
X0225869Y0321490D03*
X0225869Y0314010D03*
X0245631Y0314010D03*
X0245631Y0321490D03*
X0255869Y0321490D03*
X0255869Y0317750D03*
X0255869Y0314010D03*
X0093869Y0314010D03*
X0093869Y0317750D03*
X0093869Y0321490D03*
X0083631Y0321490D03*
X0083631Y0314010D03*
X0063869Y0314010D03*
X0063869Y0321490D03*
X0053631Y0321490D03*
X0053631Y0317750D03*
X0053631Y0314010D03*
X0053631Y0209490D03*
X0053631Y0205750D03*
X0053631Y0202010D03*
X0063869Y0202010D03*
X0063869Y0209490D03*
X0083631Y0209490D03*
X0083631Y0202010D03*
X0093869Y0202010D03*
X0093869Y0205750D03*
X0093869Y0209490D03*
X0093869Y0097490D03*
X0093869Y0093750D03*
X0093869Y0090010D03*
X0083631Y0090010D03*
X0083631Y0097490D03*
X0063869Y0097490D03*
X0063869Y0090010D03*
X0053631Y0090010D03*
X0053631Y0093750D03*
X0053631Y0097490D03*
D28*
X0139481Y0093574D02*
X0141747Y0093574D01*
X0141747Y0093278D01*
X0139481Y0093278D01*
X0139481Y0093574D01*
X0139481Y0091606D02*
X0141747Y0091606D01*
X0141747Y0091310D01*
X0139481Y0091310D01*
X0139481Y0091606D01*
X0139481Y0089720D02*
X0141747Y0089720D01*
X0141747Y0089424D01*
X0139481Y0089424D01*
X0139481Y0089720D01*
X0139481Y0087752D02*
X0141747Y0087752D01*
X0141747Y0087456D01*
X0139481Y0087456D01*
X0139481Y0087752D01*
X0139481Y0085867D02*
X0141747Y0085867D01*
X0141747Y0085571D01*
X0139481Y0085571D01*
X0139481Y0085867D01*
X0139481Y0083898D02*
X0141747Y0083898D01*
X0141747Y0083602D01*
X0139481Y0083602D01*
X0139481Y0083898D01*
X0139481Y0081633D02*
X0141747Y0081633D01*
X0139481Y0081633D02*
X0139481Y0081929D01*
X0141747Y0081929D01*
X0141747Y0081633D01*
X0141747Y0079748D02*
X0139481Y0079748D01*
X0139481Y0080044D01*
X0141747Y0080044D01*
X0141747Y0079748D01*
X0141747Y0077780D02*
X0139481Y0077780D01*
X0139481Y0078076D01*
X0141747Y0078076D01*
X0141747Y0077780D01*
X0141747Y0075894D02*
X0139481Y0075894D01*
X0139481Y0076190D01*
X0141747Y0076190D01*
X0141747Y0075894D01*
X0141747Y0073926D02*
X0139481Y0073926D01*
X0139481Y0074222D01*
X0141747Y0074222D01*
X0141747Y0073926D01*
X0143926Y0071747D02*
X0143926Y0069481D01*
X0143926Y0071747D02*
X0144222Y0071747D01*
X0144222Y0069481D01*
X0143926Y0069481D01*
X0143926Y0071164D02*
X0144222Y0071164D01*
X0145894Y0071747D02*
X0145894Y0069481D01*
X0145894Y0071747D02*
X0146190Y0071747D01*
X0146190Y0069481D01*
X0145894Y0069481D01*
X0145894Y0071164D02*
X0146190Y0071164D01*
X0147780Y0071747D02*
X0147780Y0069481D01*
X0147780Y0071747D02*
X0148076Y0071747D01*
X0148076Y0069481D01*
X0147780Y0069481D01*
X0147780Y0071164D02*
X0148076Y0071164D01*
X0149748Y0071747D02*
X0149748Y0069481D01*
X0149748Y0071747D02*
X0150044Y0071747D01*
X0150044Y0069481D01*
X0149748Y0069481D01*
X0149748Y0071164D02*
X0150044Y0071164D01*
X0151633Y0071747D02*
X0151633Y0069481D01*
X0151633Y0071747D02*
X0151929Y0071747D01*
X0151929Y0069481D01*
X0151633Y0069481D01*
X0151633Y0071164D02*
X0151929Y0071164D01*
X0153602Y0071747D02*
X0153602Y0069481D01*
X0153602Y0071747D02*
X0153898Y0071747D01*
X0153898Y0069481D01*
X0153602Y0069481D01*
X0153602Y0071164D02*
X0153898Y0071164D01*
X0155867Y0071747D02*
X0155867Y0069481D01*
X0155571Y0069481D01*
X0155571Y0071747D01*
X0155867Y0071747D01*
X0155867Y0071164D02*
X0155571Y0071164D01*
X0157752Y0071747D02*
X0157752Y0069481D01*
X0157456Y0069481D01*
X0157456Y0071747D01*
X0157752Y0071747D01*
X0157752Y0071164D02*
X0157456Y0071164D01*
X0159720Y0071747D02*
X0159720Y0069481D01*
X0159424Y0069481D01*
X0159424Y0071747D01*
X0159720Y0071747D01*
X0159720Y0071164D02*
X0159424Y0071164D01*
X0161606Y0071747D02*
X0161606Y0069481D01*
X0161310Y0069481D01*
X0161310Y0071747D01*
X0161606Y0071747D01*
X0161606Y0071164D02*
X0161310Y0071164D01*
X0163574Y0071747D02*
X0163574Y0069481D01*
X0163278Y0069481D01*
X0163278Y0071747D01*
X0163574Y0071747D01*
X0163574Y0071164D02*
X0163278Y0071164D01*
X0165753Y0073926D02*
X0168019Y0073926D01*
X0165753Y0073926D02*
X0165753Y0074222D01*
X0168019Y0074222D01*
X0168019Y0073926D01*
X0168019Y0075894D02*
X0165753Y0075894D01*
X0165753Y0076190D01*
X0168019Y0076190D01*
X0168019Y0075894D01*
X0168019Y0077780D02*
X0165753Y0077780D01*
X0165753Y0078076D01*
X0168019Y0078076D01*
X0168019Y0077780D01*
X0168019Y0079748D02*
X0165753Y0079748D01*
X0165753Y0080044D01*
X0168019Y0080044D01*
X0168019Y0079748D01*
X0168019Y0081633D02*
X0165753Y0081633D01*
X0165753Y0081929D01*
X0168019Y0081929D01*
X0168019Y0081633D01*
X0168019Y0083602D02*
X0165753Y0083602D01*
X0165753Y0083898D01*
X0168019Y0083898D01*
X0168019Y0083602D01*
X0168019Y0085867D02*
X0165753Y0085867D01*
X0168019Y0085867D02*
X0168019Y0085571D01*
X0165753Y0085571D01*
X0165753Y0085867D01*
X0165753Y0087752D02*
X0168019Y0087752D01*
X0168019Y0087456D01*
X0165753Y0087456D01*
X0165753Y0087752D01*
X0165753Y0089720D02*
X0168019Y0089720D01*
X0168019Y0089424D01*
X0165753Y0089424D01*
X0165753Y0089720D01*
X0165753Y0091606D02*
X0168019Y0091606D01*
X0168019Y0091310D01*
X0165753Y0091310D01*
X0165753Y0091606D01*
X0165753Y0093574D02*
X0168019Y0093574D01*
X0168019Y0093278D01*
X0165753Y0093278D01*
X0165753Y0093574D01*
X0163574Y0095753D02*
X0163574Y0098019D01*
X0163574Y0095753D02*
X0163278Y0095753D01*
X0163278Y0098019D01*
X0163574Y0098019D01*
X0163574Y0097436D02*
X0163278Y0097436D01*
X0161606Y0098019D02*
X0161606Y0095753D01*
X0161310Y0095753D01*
X0161310Y0098019D01*
X0161606Y0098019D01*
X0161606Y0097436D02*
X0161310Y0097436D01*
X0159720Y0098019D02*
X0159720Y0095753D01*
X0159424Y0095753D01*
X0159424Y0098019D01*
X0159720Y0098019D01*
X0159720Y0097436D02*
X0159424Y0097436D01*
X0157752Y0098019D02*
X0157752Y0095753D01*
X0157456Y0095753D01*
X0157456Y0098019D01*
X0157752Y0098019D01*
X0157752Y0097436D02*
X0157456Y0097436D01*
X0155867Y0098019D02*
X0155867Y0095753D01*
X0155571Y0095753D01*
X0155571Y0098019D01*
X0155867Y0098019D01*
X0155867Y0097436D02*
X0155571Y0097436D01*
X0153898Y0098019D02*
X0153898Y0095753D01*
X0153602Y0095753D01*
X0153602Y0098019D01*
X0153898Y0098019D01*
X0153898Y0097436D02*
X0153602Y0097436D01*
X0151633Y0098019D02*
X0151633Y0095753D01*
X0151633Y0098019D02*
X0151929Y0098019D01*
X0151929Y0095753D01*
X0151633Y0095753D01*
X0151633Y0097436D02*
X0151929Y0097436D01*
X0149748Y0098019D02*
X0149748Y0095753D01*
X0149748Y0098019D02*
X0150044Y0098019D01*
X0150044Y0095753D01*
X0149748Y0095753D01*
X0149748Y0097436D02*
X0150044Y0097436D01*
X0147780Y0098019D02*
X0147780Y0095753D01*
X0147780Y0098019D02*
X0148076Y0098019D01*
X0148076Y0095753D01*
X0147780Y0095753D01*
X0147780Y0097436D02*
X0148076Y0097436D01*
X0145894Y0098019D02*
X0145894Y0095753D01*
X0145894Y0098019D02*
X0146190Y0098019D01*
X0146190Y0095753D01*
X0145894Y0095753D01*
X0145894Y0097436D02*
X0146190Y0097436D01*
X0143926Y0098019D02*
X0143926Y0095753D01*
X0143926Y0098019D02*
X0144222Y0098019D01*
X0144222Y0095753D01*
X0143926Y0095753D01*
X0143926Y0097436D02*
X0144222Y0097436D01*
X0143926Y0181481D02*
X0143926Y0183747D01*
X0144222Y0183747D01*
X0144222Y0181481D01*
X0143926Y0181481D01*
X0143926Y0183164D02*
X0144222Y0183164D01*
X0145894Y0183747D02*
X0145894Y0181481D01*
X0145894Y0183747D02*
X0146190Y0183747D01*
X0146190Y0181481D01*
X0145894Y0181481D01*
X0145894Y0183164D02*
X0146190Y0183164D01*
X0147780Y0183747D02*
X0147780Y0181481D01*
X0147780Y0183747D02*
X0148076Y0183747D01*
X0148076Y0181481D01*
X0147780Y0181481D01*
X0147780Y0183164D02*
X0148076Y0183164D01*
X0149748Y0183747D02*
X0149748Y0181481D01*
X0149748Y0183747D02*
X0150044Y0183747D01*
X0150044Y0181481D01*
X0149748Y0181481D01*
X0149748Y0183164D02*
X0150044Y0183164D01*
X0151633Y0183747D02*
X0151633Y0181481D01*
X0151633Y0183747D02*
X0151929Y0183747D01*
X0151929Y0181481D01*
X0151633Y0181481D01*
X0151633Y0183164D02*
X0151929Y0183164D01*
X0153602Y0183747D02*
X0153602Y0181481D01*
X0153602Y0183747D02*
X0153898Y0183747D01*
X0153898Y0181481D01*
X0153602Y0181481D01*
X0153602Y0183164D02*
X0153898Y0183164D01*
X0155867Y0183747D02*
X0155867Y0181481D01*
X0155571Y0181481D01*
X0155571Y0183747D01*
X0155867Y0183747D01*
X0155867Y0183164D02*
X0155571Y0183164D01*
X0157752Y0183747D02*
X0157752Y0181481D01*
X0157456Y0181481D01*
X0157456Y0183747D01*
X0157752Y0183747D01*
X0157752Y0183164D02*
X0157456Y0183164D01*
X0159720Y0183747D02*
X0159720Y0181481D01*
X0159424Y0181481D01*
X0159424Y0183747D01*
X0159720Y0183747D01*
X0159720Y0183164D02*
X0159424Y0183164D01*
X0161606Y0183747D02*
X0161606Y0181481D01*
X0161310Y0181481D01*
X0161310Y0183747D01*
X0161606Y0183747D01*
X0161606Y0183164D02*
X0161310Y0183164D01*
X0163574Y0183747D02*
X0163574Y0181481D01*
X0163278Y0181481D01*
X0163278Y0183747D01*
X0163574Y0183747D01*
X0163574Y0183164D02*
X0163278Y0183164D01*
X0165753Y0185926D02*
X0168019Y0185926D01*
X0165753Y0185926D02*
X0165753Y0186222D01*
X0168019Y0186222D01*
X0168019Y0185926D01*
X0168019Y0187894D02*
X0165753Y0187894D01*
X0165753Y0188190D01*
X0168019Y0188190D01*
X0168019Y0187894D01*
X0168019Y0189780D02*
X0165753Y0189780D01*
X0165753Y0190076D01*
X0168019Y0190076D01*
X0168019Y0189780D01*
X0168019Y0191748D02*
X0165753Y0191748D01*
X0165753Y0192044D01*
X0168019Y0192044D01*
X0168019Y0191748D01*
X0168019Y0193633D02*
X0165753Y0193633D01*
X0165753Y0193929D01*
X0168019Y0193929D01*
X0168019Y0193633D01*
X0168019Y0195602D02*
X0165753Y0195602D01*
X0165753Y0195898D01*
X0168019Y0195898D01*
X0168019Y0195602D01*
X0168019Y0197867D02*
X0165753Y0197867D01*
X0168019Y0197867D02*
X0168019Y0197571D01*
X0165753Y0197571D01*
X0165753Y0197867D01*
X0165753Y0199752D02*
X0168019Y0199752D01*
X0168019Y0199456D01*
X0165753Y0199456D01*
X0165753Y0199752D01*
X0165753Y0201720D02*
X0168019Y0201720D01*
X0168019Y0201424D01*
X0165753Y0201424D01*
X0165753Y0201720D01*
X0165753Y0203606D02*
X0168019Y0203606D01*
X0168019Y0203310D01*
X0165753Y0203310D01*
X0165753Y0203606D01*
X0165753Y0205574D02*
X0168019Y0205574D01*
X0168019Y0205278D01*
X0165753Y0205278D01*
X0165753Y0205574D01*
X0163574Y0207753D02*
X0163574Y0210019D01*
X0163574Y0207753D02*
X0163278Y0207753D01*
X0163278Y0210019D01*
X0163574Y0210019D01*
X0163574Y0209436D02*
X0163278Y0209436D01*
X0161606Y0210019D02*
X0161606Y0207753D01*
X0161310Y0207753D01*
X0161310Y0210019D01*
X0161606Y0210019D01*
X0161606Y0209436D02*
X0161310Y0209436D01*
X0159720Y0210019D02*
X0159720Y0207753D01*
X0159424Y0207753D01*
X0159424Y0210019D01*
X0159720Y0210019D01*
X0159720Y0209436D02*
X0159424Y0209436D01*
X0157752Y0210019D02*
X0157752Y0207753D01*
X0157456Y0207753D01*
X0157456Y0210019D01*
X0157752Y0210019D01*
X0157752Y0209436D02*
X0157456Y0209436D01*
X0155867Y0210019D02*
X0155867Y0207753D01*
X0155571Y0207753D01*
X0155571Y0210019D01*
X0155867Y0210019D01*
X0155867Y0209436D02*
X0155571Y0209436D01*
X0153898Y0210019D02*
X0153898Y0207753D01*
X0153602Y0207753D01*
X0153602Y0210019D01*
X0153898Y0210019D01*
X0153898Y0209436D02*
X0153602Y0209436D01*
X0151633Y0210019D02*
X0151633Y0207753D01*
X0151633Y0210019D02*
X0151929Y0210019D01*
X0151929Y0207753D01*
X0151633Y0207753D01*
X0151633Y0209436D02*
X0151929Y0209436D01*
X0149748Y0210019D02*
X0149748Y0207753D01*
X0149748Y0210019D02*
X0150044Y0210019D01*
X0150044Y0207753D01*
X0149748Y0207753D01*
X0149748Y0209436D02*
X0150044Y0209436D01*
X0147780Y0210019D02*
X0147780Y0207753D01*
X0147780Y0210019D02*
X0148076Y0210019D01*
X0148076Y0207753D01*
X0147780Y0207753D01*
X0147780Y0209436D02*
X0148076Y0209436D01*
X0145894Y0210019D02*
X0145894Y0207753D01*
X0145894Y0210019D02*
X0146190Y0210019D01*
X0146190Y0207753D01*
X0145894Y0207753D01*
X0145894Y0209436D02*
X0146190Y0209436D01*
X0143926Y0210019D02*
X0143926Y0207753D01*
X0143926Y0210019D02*
X0144222Y0210019D01*
X0144222Y0207753D01*
X0143926Y0207753D01*
X0143926Y0209436D02*
X0144222Y0209436D01*
X0141747Y0205574D02*
X0139481Y0205574D01*
X0141747Y0205574D02*
X0141747Y0205278D01*
X0139481Y0205278D01*
X0139481Y0205574D01*
X0139481Y0203606D02*
X0141747Y0203606D01*
X0141747Y0203310D01*
X0139481Y0203310D01*
X0139481Y0203606D01*
X0139481Y0201720D02*
X0141747Y0201720D01*
X0141747Y0201424D01*
X0139481Y0201424D01*
X0139481Y0201720D01*
X0139481Y0199752D02*
X0141747Y0199752D01*
X0141747Y0199456D01*
X0139481Y0199456D01*
X0139481Y0199752D01*
X0139481Y0197867D02*
X0141747Y0197867D01*
X0141747Y0197571D01*
X0139481Y0197571D01*
X0139481Y0197867D01*
X0139481Y0195898D02*
X0141747Y0195898D01*
X0141747Y0195602D01*
X0139481Y0195602D01*
X0139481Y0195898D01*
X0139481Y0193633D02*
X0141747Y0193633D01*
X0139481Y0193633D02*
X0139481Y0193929D01*
X0141747Y0193929D01*
X0141747Y0193633D01*
X0141747Y0191748D02*
X0139481Y0191748D01*
X0139481Y0192044D01*
X0141747Y0192044D01*
X0141747Y0191748D01*
X0141747Y0189780D02*
X0139481Y0189780D01*
X0139481Y0190076D01*
X0141747Y0190076D01*
X0141747Y0189780D01*
X0141747Y0187894D02*
X0139481Y0187894D01*
X0139481Y0188190D01*
X0141747Y0188190D01*
X0141747Y0187894D01*
X0141747Y0185926D02*
X0139481Y0185926D01*
X0139481Y0186222D01*
X0141747Y0186222D01*
X0141747Y0185926D01*
X0143926Y0293481D02*
X0143926Y0295747D01*
X0144222Y0295747D01*
X0144222Y0293481D01*
X0143926Y0293481D01*
X0143926Y0295164D02*
X0144222Y0295164D01*
X0145894Y0295747D02*
X0145894Y0293481D01*
X0145894Y0295747D02*
X0146190Y0295747D01*
X0146190Y0293481D01*
X0145894Y0293481D01*
X0145894Y0295164D02*
X0146190Y0295164D01*
X0147780Y0295747D02*
X0147780Y0293481D01*
X0147780Y0295747D02*
X0148076Y0295747D01*
X0148076Y0293481D01*
X0147780Y0293481D01*
X0147780Y0295164D02*
X0148076Y0295164D01*
X0149748Y0295747D02*
X0149748Y0293481D01*
X0149748Y0295747D02*
X0150044Y0295747D01*
X0150044Y0293481D01*
X0149748Y0293481D01*
X0149748Y0295164D02*
X0150044Y0295164D01*
X0151633Y0295747D02*
X0151633Y0293481D01*
X0151633Y0295747D02*
X0151929Y0295747D01*
X0151929Y0293481D01*
X0151633Y0293481D01*
X0151633Y0295164D02*
X0151929Y0295164D01*
X0153602Y0295747D02*
X0153602Y0293481D01*
X0153602Y0295747D02*
X0153898Y0295747D01*
X0153898Y0293481D01*
X0153602Y0293481D01*
X0153602Y0295164D02*
X0153898Y0295164D01*
X0155867Y0295747D02*
X0155867Y0293481D01*
X0155571Y0293481D01*
X0155571Y0295747D01*
X0155867Y0295747D01*
X0155867Y0295164D02*
X0155571Y0295164D01*
X0157752Y0295747D02*
X0157752Y0293481D01*
X0157456Y0293481D01*
X0157456Y0295747D01*
X0157752Y0295747D01*
X0157752Y0295164D02*
X0157456Y0295164D01*
X0159720Y0295747D02*
X0159720Y0293481D01*
X0159424Y0293481D01*
X0159424Y0295747D01*
X0159720Y0295747D01*
X0159720Y0295164D02*
X0159424Y0295164D01*
X0161606Y0295747D02*
X0161606Y0293481D01*
X0161310Y0293481D01*
X0161310Y0295747D01*
X0161606Y0295747D01*
X0161606Y0295164D02*
X0161310Y0295164D01*
X0163574Y0295747D02*
X0163574Y0293481D01*
X0163278Y0293481D01*
X0163278Y0295747D01*
X0163574Y0295747D01*
X0163574Y0295164D02*
X0163278Y0295164D01*
X0165753Y0297926D02*
X0168019Y0297926D01*
X0165753Y0297926D02*
X0165753Y0298222D01*
X0168019Y0298222D01*
X0168019Y0297926D01*
X0168019Y0299894D02*
X0165753Y0299894D01*
X0165753Y0300190D01*
X0168019Y0300190D01*
X0168019Y0299894D01*
X0168019Y0301780D02*
X0165753Y0301780D01*
X0165753Y0302076D01*
X0168019Y0302076D01*
X0168019Y0301780D01*
X0168019Y0303748D02*
X0165753Y0303748D01*
X0165753Y0304044D01*
X0168019Y0304044D01*
X0168019Y0303748D01*
X0168019Y0305633D02*
X0165753Y0305633D01*
X0165753Y0305929D01*
X0168019Y0305929D01*
X0168019Y0305633D01*
X0168019Y0307602D02*
X0165753Y0307602D01*
X0165753Y0307898D01*
X0168019Y0307898D01*
X0168019Y0307602D01*
X0168019Y0309867D02*
X0165753Y0309867D01*
X0168019Y0309867D02*
X0168019Y0309571D01*
X0165753Y0309571D01*
X0165753Y0309867D01*
X0165753Y0311752D02*
X0168019Y0311752D01*
X0168019Y0311456D01*
X0165753Y0311456D01*
X0165753Y0311752D01*
X0165753Y0313720D02*
X0168019Y0313720D01*
X0168019Y0313424D01*
X0165753Y0313424D01*
X0165753Y0313720D01*
X0165753Y0315606D02*
X0168019Y0315606D01*
X0168019Y0315310D01*
X0165753Y0315310D01*
X0165753Y0315606D01*
X0165753Y0317574D02*
X0168019Y0317574D01*
X0168019Y0317278D01*
X0165753Y0317278D01*
X0165753Y0317574D01*
X0163574Y0319753D02*
X0163574Y0322019D01*
X0163574Y0319753D02*
X0163278Y0319753D01*
X0163278Y0322019D01*
X0163574Y0322019D01*
X0163574Y0321436D02*
X0163278Y0321436D01*
X0161606Y0322019D02*
X0161606Y0319753D01*
X0161310Y0319753D01*
X0161310Y0322019D01*
X0161606Y0322019D01*
X0161606Y0321436D02*
X0161310Y0321436D01*
X0159720Y0322019D02*
X0159720Y0319753D01*
X0159424Y0319753D01*
X0159424Y0322019D01*
X0159720Y0322019D01*
X0159720Y0321436D02*
X0159424Y0321436D01*
X0157752Y0322019D02*
X0157752Y0319753D01*
X0157456Y0319753D01*
X0157456Y0322019D01*
X0157752Y0322019D01*
X0157752Y0321436D02*
X0157456Y0321436D01*
X0155867Y0322019D02*
X0155867Y0319753D01*
X0155571Y0319753D01*
X0155571Y0322019D01*
X0155867Y0322019D01*
X0155867Y0321436D02*
X0155571Y0321436D01*
X0153898Y0322019D02*
X0153898Y0319753D01*
X0153602Y0319753D01*
X0153602Y0322019D01*
X0153898Y0322019D01*
X0153898Y0321436D02*
X0153602Y0321436D01*
X0151633Y0322019D02*
X0151633Y0319753D01*
X0151633Y0322019D02*
X0151929Y0322019D01*
X0151929Y0319753D01*
X0151633Y0319753D01*
X0151633Y0321436D02*
X0151929Y0321436D01*
X0149748Y0322019D02*
X0149748Y0319753D01*
X0149748Y0322019D02*
X0150044Y0322019D01*
X0150044Y0319753D01*
X0149748Y0319753D01*
X0149748Y0321436D02*
X0150044Y0321436D01*
X0147780Y0322019D02*
X0147780Y0319753D01*
X0147780Y0322019D02*
X0148076Y0322019D01*
X0148076Y0319753D01*
X0147780Y0319753D01*
X0147780Y0321436D02*
X0148076Y0321436D01*
X0145894Y0322019D02*
X0145894Y0319753D01*
X0145894Y0322019D02*
X0146190Y0322019D01*
X0146190Y0319753D01*
X0145894Y0319753D01*
X0145894Y0321436D02*
X0146190Y0321436D01*
X0143926Y0322019D02*
X0143926Y0319753D01*
X0143926Y0322019D02*
X0144222Y0322019D01*
X0144222Y0319753D01*
X0143926Y0319753D01*
X0143926Y0321436D02*
X0144222Y0321436D01*
X0141747Y0317574D02*
X0139481Y0317574D01*
X0141747Y0317574D02*
X0141747Y0317278D01*
X0139481Y0317278D01*
X0139481Y0317574D01*
X0139481Y0315606D02*
X0141747Y0315606D01*
X0141747Y0315310D01*
X0139481Y0315310D01*
X0139481Y0315606D01*
X0139481Y0313720D02*
X0141747Y0313720D01*
X0141747Y0313424D01*
X0139481Y0313424D01*
X0139481Y0313720D01*
X0139481Y0311752D02*
X0141747Y0311752D01*
X0141747Y0311456D01*
X0139481Y0311456D01*
X0139481Y0311752D01*
X0139481Y0309867D02*
X0141747Y0309867D01*
X0141747Y0309571D01*
X0139481Y0309571D01*
X0139481Y0309867D01*
X0139481Y0307898D02*
X0141747Y0307898D01*
X0141747Y0307602D01*
X0139481Y0307602D01*
X0139481Y0307898D01*
X0139481Y0305633D02*
X0141747Y0305633D01*
X0139481Y0305633D02*
X0139481Y0305929D01*
X0141747Y0305929D01*
X0141747Y0305633D01*
X0141747Y0303748D02*
X0139481Y0303748D01*
X0139481Y0304044D01*
X0141747Y0304044D01*
X0141747Y0303748D01*
X0141747Y0301780D02*
X0139481Y0301780D01*
X0139481Y0302076D01*
X0141747Y0302076D01*
X0141747Y0301780D01*
X0141747Y0299894D02*
X0139481Y0299894D01*
X0139481Y0300190D01*
X0141747Y0300190D01*
X0141747Y0299894D01*
X0141747Y0297926D02*
X0139481Y0297926D01*
X0139481Y0298222D01*
X0141747Y0298222D01*
X0141747Y0297926D01*
X0301481Y0297926D02*
X0303747Y0297926D01*
X0301481Y0297926D02*
X0301481Y0298222D01*
X0303747Y0298222D01*
X0303747Y0297926D01*
X0303747Y0299894D02*
X0301481Y0299894D01*
X0301481Y0300190D01*
X0303747Y0300190D01*
X0303747Y0299894D01*
X0303747Y0301780D02*
X0301481Y0301780D01*
X0301481Y0302076D01*
X0303747Y0302076D01*
X0303747Y0301780D01*
X0303747Y0303748D02*
X0301481Y0303748D01*
X0301481Y0304044D01*
X0303747Y0304044D01*
X0303747Y0303748D01*
X0303747Y0305633D02*
X0301481Y0305633D01*
X0301481Y0305929D01*
X0303747Y0305929D01*
X0303747Y0305633D01*
X0303747Y0307898D02*
X0301481Y0307898D01*
X0303747Y0307898D02*
X0303747Y0307602D01*
X0301481Y0307602D01*
X0301481Y0307898D01*
X0301481Y0309867D02*
X0303747Y0309867D01*
X0303747Y0309571D01*
X0301481Y0309571D01*
X0301481Y0309867D01*
X0301481Y0311752D02*
X0303747Y0311752D01*
X0303747Y0311456D01*
X0301481Y0311456D01*
X0301481Y0311752D01*
X0301481Y0313720D02*
X0303747Y0313720D01*
X0303747Y0313424D01*
X0301481Y0313424D01*
X0301481Y0313720D01*
X0301481Y0315606D02*
X0303747Y0315606D01*
X0303747Y0315310D01*
X0301481Y0315310D01*
X0301481Y0315606D01*
X0301481Y0317574D02*
X0303747Y0317574D01*
X0303747Y0317278D01*
X0301481Y0317278D01*
X0301481Y0317574D01*
X0305926Y0319753D02*
X0305926Y0322019D01*
X0306222Y0322019D01*
X0306222Y0319753D01*
X0305926Y0319753D01*
X0305926Y0321436D02*
X0306222Y0321436D01*
X0307894Y0322019D02*
X0307894Y0319753D01*
X0307894Y0322019D02*
X0308190Y0322019D01*
X0308190Y0319753D01*
X0307894Y0319753D01*
X0307894Y0321436D02*
X0308190Y0321436D01*
X0309780Y0322019D02*
X0309780Y0319753D01*
X0309780Y0322019D02*
X0310076Y0322019D01*
X0310076Y0319753D01*
X0309780Y0319753D01*
X0309780Y0321436D02*
X0310076Y0321436D01*
X0311748Y0322019D02*
X0311748Y0319753D01*
X0311748Y0322019D02*
X0312044Y0322019D01*
X0312044Y0319753D01*
X0311748Y0319753D01*
X0311748Y0321436D02*
X0312044Y0321436D01*
X0313633Y0322019D02*
X0313633Y0319753D01*
X0313633Y0322019D02*
X0313929Y0322019D01*
X0313929Y0319753D01*
X0313633Y0319753D01*
X0313633Y0321436D02*
X0313929Y0321436D01*
X0315898Y0322019D02*
X0315898Y0319753D01*
X0315602Y0319753D01*
X0315602Y0322019D01*
X0315898Y0322019D01*
X0315898Y0321436D02*
X0315602Y0321436D01*
X0317867Y0322019D02*
X0317867Y0319753D01*
X0317571Y0319753D01*
X0317571Y0322019D01*
X0317867Y0322019D01*
X0317867Y0321436D02*
X0317571Y0321436D01*
X0319752Y0322019D02*
X0319752Y0319753D01*
X0319456Y0319753D01*
X0319456Y0322019D01*
X0319752Y0322019D01*
X0319752Y0321436D02*
X0319456Y0321436D01*
X0321720Y0322019D02*
X0321720Y0319753D01*
X0321424Y0319753D01*
X0321424Y0322019D01*
X0321720Y0322019D01*
X0321720Y0321436D02*
X0321424Y0321436D01*
X0323606Y0322019D02*
X0323606Y0319753D01*
X0323310Y0319753D01*
X0323310Y0322019D01*
X0323606Y0322019D01*
X0323606Y0321436D02*
X0323310Y0321436D01*
X0325574Y0322019D02*
X0325574Y0319753D01*
X0325278Y0319753D01*
X0325278Y0322019D01*
X0325574Y0322019D01*
X0325574Y0321436D02*
X0325278Y0321436D01*
X0327753Y0317574D02*
X0330019Y0317574D01*
X0330019Y0317278D01*
X0327753Y0317278D01*
X0327753Y0317574D01*
X0327753Y0315606D02*
X0330019Y0315606D01*
X0330019Y0315310D01*
X0327753Y0315310D01*
X0327753Y0315606D01*
X0327753Y0313720D02*
X0330019Y0313720D01*
X0330019Y0313424D01*
X0327753Y0313424D01*
X0327753Y0313720D01*
X0327753Y0311752D02*
X0330019Y0311752D01*
X0330019Y0311456D01*
X0327753Y0311456D01*
X0327753Y0311752D01*
X0327753Y0309867D02*
X0330019Y0309867D01*
X0330019Y0309571D01*
X0327753Y0309571D01*
X0327753Y0309867D01*
X0327753Y0307602D02*
X0330019Y0307602D01*
X0327753Y0307602D02*
X0327753Y0307898D01*
X0330019Y0307898D01*
X0330019Y0307602D01*
X0330019Y0305633D02*
X0327753Y0305633D01*
X0327753Y0305929D01*
X0330019Y0305929D01*
X0330019Y0305633D01*
X0330019Y0303748D02*
X0327753Y0303748D01*
X0327753Y0304044D01*
X0330019Y0304044D01*
X0330019Y0303748D01*
X0330019Y0301780D02*
X0327753Y0301780D01*
X0327753Y0302076D01*
X0330019Y0302076D01*
X0330019Y0301780D01*
X0330019Y0299894D02*
X0327753Y0299894D01*
X0327753Y0300190D01*
X0330019Y0300190D01*
X0330019Y0299894D01*
X0330019Y0297926D02*
X0327753Y0297926D01*
X0327753Y0298222D01*
X0330019Y0298222D01*
X0330019Y0297926D01*
X0325574Y0295747D02*
X0325574Y0293481D01*
X0325278Y0293481D01*
X0325278Y0295747D01*
X0325574Y0295747D01*
X0325574Y0295164D02*
X0325278Y0295164D01*
X0323606Y0295747D02*
X0323606Y0293481D01*
X0323310Y0293481D01*
X0323310Y0295747D01*
X0323606Y0295747D01*
X0323606Y0295164D02*
X0323310Y0295164D01*
X0321720Y0295747D02*
X0321720Y0293481D01*
X0321424Y0293481D01*
X0321424Y0295747D01*
X0321720Y0295747D01*
X0321720Y0295164D02*
X0321424Y0295164D01*
X0319752Y0295747D02*
X0319752Y0293481D01*
X0319456Y0293481D01*
X0319456Y0295747D01*
X0319752Y0295747D01*
X0319752Y0295164D02*
X0319456Y0295164D01*
X0317867Y0295747D02*
X0317867Y0293481D01*
X0317571Y0293481D01*
X0317571Y0295747D01*
X0317867Y0295747D01*
X0317867Y0295164D02*
X0317571Y0295164D01*
X0315602Y0295747D02*
X0315602Y0293481D01*
X0315602Y0295747D02*
X0315898Y0295747D01*
X0315898Y0293481D01*
X0315602Y0293481D01*
X0315602Y0295164D02*
X0315898Y0295164D01*
X0313633Y0295747D02*
X0313633Y0293481D01*
X0313633Y0295747D02*
X0313929Y0295747D01*
X0313929Y0293481D01*
X0313633Y0293481D01*
X0313633Y0295164D02*
X0313929Y0295164D01*
X0311748Y0295747D02*
X0311748Y0293481D01*
X0311748Y0295747D02*
X0312044Y0295747D01*
X0312044Y0293481D01*
X0311748Y0293481D01*
X0311748Y0295164D02*
X0312044Y0295164D01*
X0309780Y0295747D02*
X0309780Y0293481D01*
X0309780Y0295747D02*
X0310076Y0295747D01*
X0310076Y0293481D01*
X0309780Y0293481D01*
X0309780Y0295164D02*
X0310076Y0295164D01*
X0307894Y0295747D02*
X0307894Y0293481D01*
X0307894Y0295747D02*
X0308190Y0295747D01*
X0308190Y0293481D01*
X0307894Y0293481D01*
X0307894Y0295164D02*
X0308190Y0295164D01*
X0305926Y0295747D02*
X0305926Y0293481D01*
X0305926Y0295747D02*
X0306222Y0295747D01*
X0306222Y0293481D01*
X0305926Y0293481D01*
X0305926Y0295164D02*
X0306222Y0295164D01*
X0305926Y0210019D02*
X0305926Y0207753D01*
X0305926Y0210019D02*
X0306222Y0210019D01*
X0306222Y0207753D01*
X0305926Y0207753D01*
X0305926Y0209436D02*
X0306222Y0209436D01*
X0307894Y0210019D02*
X0307894Y0207753D01*
X0307894Y0210019D02*
X0308190Y0210019D01*
X0308190Y0207753D01*
X0307894Y0207753D01*
X0307894Y0209436D02*
X0308190Y0209436D01*
X0309780Y0210019D02*
X0309780Y0207753D01*
X0309780Y0210019D02*
X0310076Y0210019D01*
X0310076Y0207753D01*
X0309780Y0207753D01*
X0309780Y0209436D02*
X0310076Y0209436D01*
X0311748Y0210019D02*
X0311748Y0207753D01*
X0311748Y0210019D02*
X0312044Y0210019D01*
X0312044Y0207753D01*
X0311748Y0207753D01*
X0311748Y0209436D02*
X0312044Y0209436D01*
X0313633Y0210019D02*
X0313633Y0207753D01*
X0313633Y0210019D02*
X0313929Y0210019D01*
X0313929Y0207753D01*
X0313633Y0207753D01*
X0313633Y0209436D02*
X0313929Y0209436D01*
X0315898Y0210019D02*
X0315898Y0207753D01*
X0315602Y0207753D01*
X0315602Y0210019D01*
X0315898Y0210019D01*
X0315898Y0209436D02*
X0315602Y0209436D01*
X0317867Y0210019D02*
X0317867Y0207753D01*
X0317571Y0207753D01*
X0317571Y0210019D01*
X0317867Y0210019D01*
X0317867Y0209436D02*
X0317571Y0209436D01*
X0319752Y0210019D02*
X0319752Y0207753D01*
X0319456Y0207753D01*
X0319456Y0210019D01*
X0319752Y0210019D01*
X0319752Y0209436D02*
X0319456Y0209436D01*
X0321720Y0210019D02*
X0321720Y0207753D01*
X0321424Y0207753D01*
X0321424Y0210019D01*
X0321720Y0210019D01*
X0321720Y0209436D02*
X0321424Y0209436D01*
X0323606Y0210019D02*
X0323606Y0207753D01*
X0323310Y0207753D01*
X0323310Y0210019D01*
X0323606Y0210019D01*
X0323606Y0209436D02*
X0323310Y0209436D01*
X0325574Y0210019D02*
X0325574Y0207753D01*
X0325278Y0207753D01*
X0325278Y0210019D01*
X0325574Y0210019D01*
X0325574Y0209436D02*
X0325278Y0209436D01*
X0327753Y0205574D02*
X0330019Y0205574D01*
X0330019Y0205278D01*
X0327753Y0205278D01*
X0327753Y0205574D01*
X0327753Y0203606D02*
X0330019Y0203606D01*
X0330019Y0203310D01*
X0327753Y0203310D01*
X0327753Y0203606D01*
X0327753Y0201720D02*
X0330019Y0201720D01*
X0330019Y0201424D01*
X0327753Y0201424D01*
X0327753Y0201720D01*
X0327753Y0199752D02*
X0330019Y0199752D01*
X0330019Y0199456D01*
X0327753Y0199456D01*
X0327753Y0199752D01*
X0327753Y0197867D02*
X0330019Y0197867D01*
X0330019Y0197571D01*
X0327753Y0197571D01*
X0327753Y0197867D01*
X0327753Y0195602D02*
X0330019Y0195602D01*
X0327753Y0195602D02*
X0327753Y0195898D01*
X0330019Y0195898D01*
X0330019Y0195602D01*
X0330019Y0193633D02*
X0327753Y0193633D01*
X0327753Y0193929D01*
X0330019Y0193929D01*
X0330019Y0193633D01*
X0330019Y0191748D02*
X0327753Y0191748D01*
X0327753Y0192044D01*
X0330019Y0192044D01*
X0330019Y0191748D01*
X0330019Y0189780D02*
X0327753Y0189780D01*
X0327753Y0190076D01*
X0330019Y0190076D01*
X0330019Y0189780D01*
X0330019Y0187894D02*
X0327753Y0187894D01*
X0327753Y0188190D01*
X0330019Y0188190D01*
X0330019Y0187894D01*
X0330019Y0185926D02*
X0327753Y0185926D01*
X0327753Y0186222D01*
X0330019Y0186222D01*
X0330019Y0185926D01*
X0325574Y0183747D02*
X0325574Y0181481D01*
X0325278Y0181481D01*
X0325278Y0183747D01*
X0325574Y0183747D01*
X0325574Y0183164D02*
X0325278Y0183164D01*
X0323606Y0183747D02*
X0323606Y0181481D01*
X0323310Y0181481D01*
X0323310Y0183747D01*
X0323606Y0183747D01*
X0323606Y0183164D02*
X0323310Y0183164D01*
X0321720Y0183747D02*
X0321720Y0181481D01*
X0321424Y0181481D01*
X0321424Y0183747D01*
X0321720Y0183747D01*
X0321720Y0183164D02*
X0321424Y0183164D01*
X0319752Y0183747D02*
X0319752Y0181481D01*
X0319456Y0181481D01*
X0319456Y0183747D01*
X0319752Y0183747D01*
X0319752Y0183164D02*
X0319456Y0183164D01*
X0317867Y0183747D02*
X0317867Y0181481D01*
X0317571Y0181481D01*
X0317571Y0183747D01*
X0317867Y0183747D01*
X0317867Y0183164D02*
X0317571Y0183164D01*
X0315602Y0183747D02*
X0315602Y0181481D01*
X0315602Y0183747D02*
X0315898Y0183747D01*
X0315898Y0181481D01*
X0315602Y0181481D01*
X0315602Y0183164D02*
X0315898Y0183164D01*
X0313633Y0183747D02*
X0313633Y0181481D01*
X0313633Y0183747D02*
X0313929Y0183747D01*
X0313929Y0181481D01*
X0313633Y0181481D01*
X0313633Y0183164D02*
X0313929Y0183164D01*
X0311748Y0183747D02*
X0311748Y0181481D01*
X0311748Y0183747D02*
X0312044Y0183747D01*
X0312044Y0181481D01*
X0311748Y0181481D01*
X0311748Y0183164D02*
X0312044Y0183164D01*
X0309780Y0183747D02*
X0309780Y0181481D01*
X0309780Y0183747D02*
X0310076Y0183747D01*
X0310076Y0181481D01*
X0309780Y0181481D01*
X0309780Y0183164D02*
X0310076Y0183164D01*
X0307894Y0183747D02*
X0307894Y0181481D01*
X0307894Y0183747D02*
X0308190Y0183747D01*
X0308190Y0181481D01*
X0307894Y0181481D01*
X0307894Y0183164D02*
X0308190Y0183164D01*
X0305926Y0183747D02*
X0305926Y0181481D01*
X0305926Y0183747D02*
X0306222Y0183747D01*
X0306222Y0181481D01*
X0305926Y0181481D01*
X0305926Y0183164D02*
X0306222Y0183164D01*
X0303747Y0185926D02*
X0301481Y0185926D01*
X0301481Y0186222D01*
X0303747Y0186222D01*
X0303747Y0185926D01*
X0303747Y0187894D02*
X0301481Y0187894D01*
X0301481Y0188190D01*
X0303747Y0188190D01*
X0303747Y0187894D01*
X0303747Y0189780D02*
X0301481Y0189780D01*
X0301481Y0190076D01*
X0303747Y0190076D01*
X0303747Y0189780D01*
X0303747Y0191748D02*
X0301481Y0191748D01*
X0301481Y0192044D01*
X0303747Y0192044D01*
X0303747Y0191748D01*
X0303747Y0193633D02*
X0301481Y0193633D01*
X0301481Y0193929D01*
X0303747Y0193929D01*
X0303747Y0193633D01*
X0303747Y0195898D02*
X0301481Y0195898D01*
X0303747Y0195898D02*
X0303747Y0195602D01*
X0301481Y0195602D01*
X0301481Y0195898D01*
X0301481Y0197867D02*
X0303747Y0197867D01*
X0303747Y0197571D01*
X0301481Y0197571D01*
X0301481Y0197867D01*
X0301481Y0199752D02*
X0303747Y0199752D01*
X0303747Y0199456D01*
X0301481Y0199456D01*
X0301481Y0199752D01*
X0301481Y0201720D02*
X0303747Y0201720D01*
X0303747Y0201424D01*
X0301481Y0201424D01*
X0301481Y0201720D01*
X0301481Y0203606D02*
X0303747Y0203606D01*
X0303747Y0203310D01*
X0301481Y0203310D01*
X0301481Y0203606D01*
X0301481Y0205574D02*
X0303747Y0205574D01*
X0303747Y0205278D01*
X0301481Y0205278D01*
X0301481Y0205574D01*
X0305926Y0098019D02*
X0305926Y0095753D01*
X0305926Y0098019D02*
X0306222Y0098019D01*
X0306222Y0095753D01*
X0305926Y0095753D01*
X0305926Y0097436D02*
X0306222Y0097436D01*
X0307894Y0098019D02*
X0307894Y0095753D01*
X0307894Y0098019D02*
X0308190Y0098019D01*
X0308190Y0095753D01*
X0307894Y0095753D01*
X0307894Y0097436D02*
X0308190Y0097436D01*
X0309780Y0098019D02*
X0309780Y0095753D01*
X0309780Y0098019D02*
X0310076Y0098019D01*
X0310076Y0095753D01*
X0309780Y0095753D01*
X0309780Y0097436D02*
X0310076Y0097436D01*
X0311748Y0098019D02*
X0311748Y0095753D01*
X0311748Y0098019D02*
X0312044Y0098019D01*
X0312044Y0095753D01*
X0311748Y0095753D01*
X0311748Y0097436D02*
X0312044Y0097436D01*
X0313633Y0098019D02*
X0313633Y0095753D01*
X0313633Y0098019D02*
X0313929Y0098019D01*
X0313929Y0095753D01*
X0313633Y0095753D01*
X0313633Y0097436D02*
X0313929Y0097436D01*
X0315898Y0098019D02*
X0315898Y0095753D01*
X0315602Y0095753D01*
X0315602Y0098019D01*
X0315898Y0098019D01*
X0315898Y0097436D02*
X0315602Y0097436D01*
X0317867Y0098019D02*
X0317867Y0095753D01*
X0317571Y0095753D01*
X0317571Y0098019D01*
X0317867Y0098019D01*
X0317867Y0097436D02*
X0317571Y0097436D01*
X0319752Y0098019D02*
X0319752Y0095753D01*
X0319456Y0095753D01*
X0319456Y0098019D01*
X0319752Y0098019D01*
X0319752Y0097436D02*
X0319456Y0097436D01*
X0321720Y0098019D02*
X0321720Y0095753D01*
X0321424Y0095753D01*
X0321424Y0098019D01*
X0321720Y0098019D01*
X0321720Y0097436D02*
X0321424Y0097436D01*
X0323606Y0098019D02*
X0323606Y0095753D01*
X0323310Y0095753D01*
X0323310Y0098019D01*
X0323606Y0098019D01*
X0323606Y0097436D02*
X0323310Y0097436D01*
X0325574Y0098019D02*
X0325574Y0095753D01*
X0325278Y0095753D01*
X0325278Y0098019D01*
X0325574Y0098019D01*
X0325574Y0097436D02*
X0325278Y0097436D01*
X0327753Y0093574D02*
X0330019Y0093574D01*
X0330019Y0093278D01*
X0327753Y0093278D01*
X0327753Y0093574D01*
X0327753Y0091606D02*
X0330019Y0091606D01*
X0330019Y0091310D01*
X0327753Y0091310D01*
X0327753Y0091606D01*
X0327753Y0089720D02*
X0330019Y0089720D01*
X0330019Y0089424D01*
X0327753Y0089424D01*
X0327753Y0089720D01*
X0327753Y0087752D02*
X0330019Y0087752D01*
X0330019Y0087456D01*
X0327753Y0087456D01*
X0327753Y0087752D01*
X0327753Y0085867D02*
X0330019Y0085867D01*
X0330019Y0085571D01*
X0327753Y0085571D01*
X0327753Y0085867D01*
X0327753Y0083602D02*
X0330019Y0083602D01*
X0327753Y0083602D02*
X0327753Y0083898D01*
X0330019Y0083898D01*
X0330019Y0083602D01*
X0330019Y0081633D02*
X0327753Y0081633D01*
X0327753Y0081929D01*
X0330019Y0081929D01*
X0330019Y0081633D01*
X0330019Y0079748D02*
X0327753Y0079748D01*
X0327753Y0080044D01*
X0330019Y0080044D01*
X0330019Y0079748D01*
X0330019Y0077780D02*
X0327753Y0077780D01*
X0327753Y0078076D01*
X0330019Y0078076D01*
X0330019Y0077780D01*
X0330019Y0075894D02*
X0327753Y0075894D01*
X0327753Y0076190D01*
X0330019Y0076190D01*
X0330019Y0075894D01*
X0330019Y0073926D02*
X0327753Y0073926D01*
X0327753Y0074222D01*
X0330019Y0074222D01*
X0330019Y0073926D01*
X0325574Y0071747D02*
X0325574Y0069481D01*
X0325278Y0069481D01*
X0325278Y0071747D01*
X0325574Y0071747D01*
X0325574Y0071164D02*
X0325278Y0071164D01*
X0323606Y0071747D02*
X0323606Y0069481D01*
X0323310Y0069481D01*
X0323310Y0071747D01*
X0323606Y0071747D01*
X0323606Y0071164D02*
X0323310Y0071164D01*
X0321720Y0071747D02*
X0321720Y0069481D01*
X0321424Y0069481D01*
X0321424Y0071747D01*
X0321720Y0071747D01*
X0321720Y0071164D02*
X0321424Y0071164D01*
X0319752Y0071747D02*
X0319752Y0069481D01*
X0319456Y0069481D01*
X0319456Y0071747D01*
X0319752Y0071747D01*
X0319752Y0071164D02*
X0319456Y0071164D01*
X0317867Y0071747D02*
X0317867Y0069481D01*
X0317571Y0069481D01*
X0317571Y0071747D01*
X0317867Y0071747D01*
X0317867Y0071164D02*
X0317571Y0071164D01*
X0315602Y0071747D02*
X0315602Y0069481D01*
X0315602Y0071747D02*
X0315898Y0071747D01*
X0315898Y0069481D01*
X0315602Y0069481D01*
X0315602Y0071164D02*
X0315898Y0071164D01*
X0313633Y0071747D02*
X0313633Y0069481D01*
X0313633Y0071747D02*
X0313929Y0071747D01*
X0313929Y0069481D01*
X0313633Y0069481D01*
X0313633Y0071164D02*
X0313929Y0071164D01*
X0311748Y0071747D02*
X0311748Y0069481D01*
X0311748Y0071747D02*
X0312044Y0071747D01*
X0312044Y0069481D01*
X0311748Y0069481D01*
X0311748Y0071164D02*
X0312044Y0071164D01*
X0309780Y0071747D02*
X0309780Y0069481D01*
X0309780Y0071747D02*
X0310076Y0071747D01*
X0310076Y0069481D01*
X0309780Y0069481D01*
X0309780Y0071164D02*
X0310076Y0071164D01*
X0307894Y0071747D02*
X0307894Y0069481D01*
X0307894Y0071747D02*
X0308190Y0071747D01*
X0308190Y0069481D01*
X0307894Y0069481D01*
X0307894Y0071164D02*
X0308190Y0071164D01*
X0305926Y0071747D02*
X0305926Y0069481D01*
X0305926Y0071747D02*
X0306222Y0071747D01*
X0306222Y0069481D01*
X0305926Y0069481D01*
X0305926Y0071164D02*
X0306222Y0071164D01*
X0303747Y0073926D02*
X0301481Y0073926D01*
X0301481Y0074222D01*
X0303747Y0074222D01*
X0303747Y0073926D01*
X0303747Y0075894D02*
X0301481Y0075894D01*
X0301481Y0076190D01*
X0303747Y0076190D01*
X0303747Y0075894D01*
X0303747Y0077780D02*
X0301481Y0077780D01*
X0301481Y0078076D01*
X0303747Y0078076D01*
X0303747Y0077780D01*
X0303747Y0079748D02*
X0301481Y0079748D01*
X0301481Y0080044D01*
X0303747Y0080044D01*
X0303747Y0079748D01*
X0303747Y0081633D02*
X0301481Y0081633D01*
X0301481Y0081929D01*
X0303747Y0081929D01*
X0303747Y0081633D01*
X0303747Y0083898D02*
X0301481Y0083898D01*
X0303747Y0083898D02*
X0303747Y0083602D01*
X0301481Y0083602D01*
X0301481Y0083898D01*
X0301481Y0085867D02*
X0303747Y0085867D01*
X0303747Y0085571D01*
X0301481Y0085571D01*
X0301481Y0085867D01*
X0301481Y0087752D02*
X0303747Y0087752D01*
X0303747Y0087456D01*
X0301481Y0087456D01*
X0301481Y0087752D01*
X0301481Y0089720D02*
X0303747Y0089720D01*
X0303747Y0089424D01*
X0301481Y0089424D01*
X0301481Y0089720D01*
X0301481Y0091606D02*
X0303747Y0091606D01*
X0303747Y0091310D01*
X0301481Y0091310D01*
X0301481Y0091606D01*
X0301481Y0093574D02*
X0303747Y0093574D01*
X0303747Y0093278D01*
X0301481Y0093278D01*
X0301481Y0093574D01*
D29*
X0308467Y0062778D03*
X0308467Y0053722D03*
X0323033Y0053722D03*
X0323033Y0062778D03*
X0323033Y0165722D03*
X0323033Y0174778D03*
X0308467Y0174778D03*
X0308467Y0165722D03*
X0308467Y0277722D03*
X0308467Y0286778D03*
X0323033Y0286778D03*
X0323033Y0277722D03*
X0161033Y0277722D03*
X0161033Y0286778D03*
X0146467Y0286778D03*
X0146467Y0277722D03*
X0146467Y0174778D03*
X0146467Y0165722D03*
X0161033Y0165722D03*
X0161033Y0174778D03*
X0161033Y0062778D03*
X0161033Y0053722D03*
X0146467Y0053722D03*
X0146467Y0062778D03*
D30*
X0148750Y0043750D03*
X0138750Y0043750D03*
X0128750Y0043750D03*
X0128750Y0033750D03*
X0138750Y0033750D03*
X0148750Y0033750D03*
X0158750Y0033750D03*
X0168750Y0033750D03*
X0168750Y0043750D03*
X0158750Y0043750D03*
X0178750Y0043750D03*
X0178750Y0033750D03*
X0235750Y0063750D03*
X0235750Y0073750D03*
X0240750Y0043750D03*
X0250750Y0043750D03*
X0260750Y0043750D03*
X0260750Y0033750D03*
X0250750Y0033750D03*
X0240750Y0033750D03*
X0270750Y0033750D03*
X0280750Y0033750D03*
X0290750Y0033750D03*
X0300750Y0033750D03*
X0310750Y0033750D03*
X0310750Y0043750D03*
X0300750Y0043750D03*
X0290750Y0043750D03*
X0280750Y0043750D03*
X0270750Y0043750D03*
X0320750Y0043750D03*
X0330750Y0043750D03*
X0340750Y0043750D03*
X0340750Y0033750D03*
X0330750Y0033750D03*
X0320750Y0033750D03*
X0320750Y0123750D03*
X0330750Y0123750D03*
X0330750Y0133750D03*
X0320750Y0133750D03*
X0320750Y0145750D03*
X0330750Y0145750D03*
X0340750Y0145750D03*
X0340750Y0133750D03*
X0340750Y0155750D03*
X0330750Y0155750D03*
X0320750Y0155750D03*
X0310750Y0155750D03*
X0300750Y0155750D03*
X0290750Y0155750D03*
X0280750Y0155750D03*
X0270750Y0155750D03*
X0270750Y0145750D03*
X0280750Y0145750D03*
X0290750Y0145750D03*
X0300750Y0145750D03*
X0310750Y0145750D03*
X0310750Y0133750D03*
X0300750Y0133750D03*
X0290750Y0133750D03*
X0280750Y0133750D03*
X0270750Y0133750D03*
X0270750Y0123750D03*
X0280750Y0123750D03*
X0290750Y0123750D03*
X0300750Y0123750D03*
X0310750Y0123750D03*
X0260750Y0123750D03*
X0250750Y0123750D03*
X0240750Y0123750D03*
X0240750Y0133750D03*
X0250750Y0133750D03*
X0260750Y0133750D03*
X0260750Y0145750D03*
X0250750Y0145750D03*
X0240750Y0145750D03*
X0240750Y0155750D03*
X0250750Y0155750D03*
X0260750Y0155750D03*
X0235750Y0175750D03*
X0235750Y0185750D03*
X0240750Y0235750D03*
X0250750Y0235750D03*
X0260750Y0235750D03*
X0260750Y0245750D03*
X0250750Y0245750D03*
X0240750Y0245750D03*
X0240750Y0257750D03*
X0250750Y0257750D03*
X0260750Y0257750D03*
X0260750Y0267750D03*
X0250750Y0267750D03*
X0240750Y0267750D03*
X0235750Y0287750D03*
X0235750Y0297750D03*
X0270750Y0267750D03*
X0280750Y0267750D03*
X0290750Y0267750D03*
X0300750Y0267750D03*
X0310750Y0267750D03*
X0310750Y0257750D03*
X0300750Y0257750D03*
X0290750Y0257750D03*
X0280750Y0257750D03*
X0270750Y0257750D03*
X0270750Y0245750D03*
X0280750Y0245750D03*
X0290750Y0245750D03*
X0300750Y0245750D03*
X0310750Y0245750D03*
X0310750Y0235750D03*
X0300750Y0235750D03*
X0290750Y0235750D03*
X0280750Y0235750D03*
X0270750Y0235750D03*
X0320750Y0235750D03*
X0330750Y0235750D03*
X0330750Y0245750D03*
X0320750Y0245750D03*
X0320750Y0257750D03*
X0330750Y0257750D03*
X0340750Y0257750D03*
X0340750Y0245750D03*
X0340750Y0267750D03*
X0330750Y0267750D03*
X0320750Y0267750D03*
X0320750Y0347750D03*
X0330750Y0347750D03*
X0330750Y0357750D03*
X0320750Y0357750D03*
X0310750Y0357750D03*
X0300750Y0357750D03*
X0290750Y0357750D03*
X0280750Y0357750D03*
X0270750Y0357750D03*
X0270750Y0347750D03*
X0280750Y0347750D03*
X0290750Y0347750D03*
X0300750Y0347750D03*
X0310750Y0347750D03*
X0340750Y0357750D03*
X0260750Y0357750D03*
X0250750Y0357750D03*
X0240750Y0357750D03*
X0240750Y0347750D03*
X0250750Y0347750D03*
X0260750Y0347750D03*
X0178750Y0357750D03*
X0168750Y0357750D03*
X0158750Y0357750D03*
X0148750Y0357750D03*
X0138750Y0357750D03*
X0128750Y0357750D03*
X0128750Y0347750D03*
X0138750Y0347750D03*
X0148750Y0347750D03*
X0158750Y0347750D03*
X0168750Y0347750D03*
X0118750Y0347750D03*
X0108750Y0347750D03*
X0098750Y0347750D03*
X0088750Y0347750D03*
X0078750Y0347750D03*
X0078750Y0357750D03*
X0088750Y0357750D03*
X0098750Y0357750D03*
X0108750Y0357750D03*
X0118750Y0357750D03*
X0073750Y0297750D03*
X0073750Y0287750D03*
X0078750Y0267750D03*
X0088750Y0267750D03*
X0098750Y0267750D03*
X0108750Y0267750D03*
X0118750Y0267750D03*
X0118750Y0257750D03*
X0108750Y0257750D03*
X0098750Y0257750D03*
X0088750Y0257750D03*
X0078750Y0257750D03*
X0078750Y0245750D03*
X0088750Y0245750D03*
X0098750Y0245750D03*
X0108750Y0245750D03*
X0118750Y0245750D03*
X0118750Y0235750D03*
X0108750Y0235750D03*
X0098750Y0235750D03*
X0088750Y0235750D03*
X0078750Y0235750D03*
X0128750Y0235750D03*
X0138750Y0235750D03*
X0148750Y0235750D03*
X0158750Y0235750D03*
X0168750Y0235750D03*
X0168750Y0245750D03*
X0158750Y0245750D03*
X0148750Y0245750D03*
X0138750Y0245750D03*
X0128750Y0245750D03*
X0128750Y0257750D03*
X0138750Y0257750D03*
X0148750Y0257750D03*
X0158750Y0257750D03*
X0168750Y0257750D03*
X0168750Y0267750D03*
X0158750Y0267750D03*
X0148750Y0267750D03*
X0138750Y0267750D03*
X0128750Y0267750D03*
X0178750Y0267750D03*
X0178750Y0257750D03*
X0178750Y0245750D03*
X0178750Y0155750D03*
X0178750Y0145750D03*
X0178750Y0133750D03*
X0168750Y0133750D03*
X0158750Y0133750D03*
X0148750Y0133750D03*
X0138750Y0133750D03*
X0128750Y0133750D03*
X0128750Y0145750D03*
X0138750Y0145750D03*
X0148750Y0145750D03*
X0158750Y0145750D03*
X0168750Y0145750D03*
X0168750Y0155750D03*
X0158750Y0155750D03*
X0148750Y0155750D03*
X0138750Y0155750D03*
X0128750Y0155750D03*
X0118750Y0155750D03*
X0108750Y0155750D03*
X0098750Y0155750D03*
X0088750Y0155750D03*
X0078750Y0155750D03*
X0078750Y0145750D03*
X0088750Y0145750D03*
X0098750Y0145750D03*
X0108750Y0145750D03*
X0118750Y0145750D03*
X0118750Y0133750D03*
X0108750Y0133750D03*
X0098750Y0133750D03*
X0088750Y0133750D03*
X0078750Y0133750D03*
X0078750Y0123750D03*
X0088750Y0123750D03*
X0098750Y0123750D03*
X0108750Y0123750D03*
X0118750Y0123750D03*
X0128750Y0123750D03*
X0138750Y0123750D03*
X0148750Y0123750D03*
X0158750Y0123750D03*
X0168750Y0123750D03*
X0118750Y0043750D03*
X0108750Y0043750D03*
X0098750Y0043750D03*
X0088750Y0043750D03*
X0078750Y0043750D03*
X0078750Y0033750D03*
X0088750Y0033750D03*
X0098750Y0033750D03*
X0108750Y0033750D03*
X0118750Y0033750D03*
X0073750Y0063750D03*
X0073750Y0073750D03*
X0073750Y0175750D03*
X0073750Y0185750D03*
D31*
X0053750Y0237207D03*
X0053750Y0244293D03*
X0053750Y0349207D03*
X0053750Y0356293D03*
X0215750Y0356293D03*
X0215750Y0349207D03*
X0215750Y0244293D03*
X0215750Y0237207D03*
X0215750Y0132293D03*
X0215750Y0125207D03*
X0053750Y0125207D03*
X0053750Y0132293D03*
D32*
X0046073Y0128750D03*
X0061427Y0128750D03*
X0061427Y0240750D03*
X0046073Y0240750D03*
X0046073Y0352750D03*
X0061427Y0352750D03*
X0208073Y0352750D03*
X0223427Y0352750D03*
X0223427Y0240750D03*
X0208073Y0240750D03*
X0208073Y0128750D03*
X0223427Y0128750D03*
D33*
X0323750Y0371000D03*
X0055750Y0371000D03*
D34*
X0052185Y0020500D02*
X0052187Y0020619D01*
X0052193Y0020738D01*
X0052203Y0020857D01*
X0052217Y0020975D01*
X0052235Y0021093D01*
X0052256Y0021210D01*
X0052282Y0021326D01*
X0052312Y0021442D01*
X0052345Y0021556D01*
X0052382Y0021669D01*
X0052423Y0021781D01*
X0052468Y0021892D01*
X0052516Y0022001D01*
X0052568Y0022108D01*
X0052624Y0022213D01*
X0052683Y0022317D01*
X0052745Y0022418D01*
X0052811Y0022518D01*
X0052880Y0022615D01*
X0052952Y0022709D01*
X0053028Y0022802D01*
X0053106Y0022891D01*
X0053187Y0022978D01*
X0053272Y0023063D01*
X0053359Y0023144D01*
X0053448Y0023222D01*
X0053541Y0023298D01*
X0053635Y0023370D01*
X0053732Y0023439D01*
X0053832Y0023505D01*
X0053933Y0023567D01*
X0054037Y0023626D01*
X0054142Y0023682D01*
X0054249Y0023734D01*
X0054358Y0023782D01*
X0054469Y0023827D01*
X0054581Y0023868D01*
X0054694Y0023905D01*
X0054808Y0023938D01*
X0054924Y0023968D01*
X0055040Y0023994D01*
X0055157Y0024015D01*
X0055275Y0024033D01*
X0055393Y0024047D01*
X0055512Y0024057D01*
X0055631Y0024063D01*
X0055750Y0024065D01*
X0055869Y0024063D01*
X0055988Y0024057D01*
X0056107Y0024047D01*
X0056225Y0024033D01*
X0056343Y0024015D01*
X0056460Y0023994D01*
X0056576Y0023968D01*
X0056692Y0023938D01*
X0056806Y0023905D01*
X0056919Y0023868D01*
X0057031Y0023827D01*
X0057142Y0023782D01*
X0057251Y0023734D01*
X0057358Y0023682D01*
X0057463Y0023626D01*
X0057567Y0023567D01*
X0057668Y0023505D01*
X0057768Y0023439D01*
X0057865Y0023370D01*
X0057959Y0023298D01*
X0058052Y0023222D01*
X0058141Y0023144D01*
X0058228Y0023063D01*
X0058313Y0022978D01*
X0058394Y0022891D01*
X0058472Y0022802D01*
X0058548Y0022709D01*
X0058620Y0022615D01*
X0058689Y0022518D01*
X0058755Y0022418D01*
X0058817Y0022317D01*
X0058876Y0022213D01*
X0058932Y0022108D01*
X0058984Y0022001D01*
X0059032Y0021892D01*
X0059077Y0021781D01*
X0059118Y0021669D01*
X0059155Y0021556D01*
X0059188Y0021442D01*
X0059218Y0021326D01*
X0059244Y0021210D01*
X0059265Y0021093D01*
X0059283Y0020975D01*
X0059297Y0020857D01*
X0059307Y0020738D01*
X0059313Y0020619D01*
X0059315Y0020500D01*
X0059313Y0020381D01*
X0059307Y0020262D01*
X0059297Y0020143D01*
X0059283Y0020025D01*
X0059265Y0019907D01*
X0059244Y0019790D01*
X0059218Y0019674D01*
X0059188Y0019558D01*
X0059155Y0019444D01*
X0059118Y0019331D01*
X0059077Y0019219D01*
X0059032Y0019108D01*
X0058984Y0018999D01*
X0058932Y0018892D01*
X0058876Y0018787D01*
X0058817Y0018683D01*
X0058755Y0018582D01*
X0058689Y0018482D01*
X0058620Y0018385D01*
X0058548Y0018291D01*
X0058472Y0018198D01*
X0058394Y0018109D01*
X0058313Y0018022D01*
X0058228Y0017937D01*
X0058141Y0017856D01*
X0058052Y0017778D01*
X0057959Y0017702D01*
X0057865Y0017630D01*
X0057768Y0017561D01*
X0057668Y0017495D01*
X0057567Y0017433D01*
X0057463Y0017374D01*
X0057358Y0017318D01*
X0057251Y0017266D01*
X0057142Y0017218D01*
X0057031Y0017173D01*
X0056919Y0017132D01*
X0056806Y0017095D01*
X0056692Y0017062D01*
X0056576Y0017032D01*
X0056460Y0017006D01*
X0056343Y0016985D01*
X0056225Y0016967D01*
X0056107Y0016953D01*
X0055988Y0016943D01*
X0055869Y0016937D01*
X0055750Y0016935D01*
X0055631Y0016937D01*
X0055512Y0016943D01*
X0055393Y0016953D01*
X0055275Y0016967D01*
X0055157Y0016985D01*
X0055040Y0017006D01*
X0054924Y0017032D01*
X0054808Y0017062D01*
X0054694Y0017095D01*
X0054581Y0017132D01*
X0054469Y0017173D01*
X0054358Y0017218D01*
X0054249Y0017266D01*
X0054142Y0017318D01*
X0054037Y0017374D01*
X0053933Y0017433D01*
X0053832Y0017495D01*
X0053732Y0017561D01*
X0053635Y0017630D01*
X0053541Y0017702D01*
X0053448Y0017778D01*
X0053359Y0017856D01*
X0053272Y0017937D01*
X0053187Y0018022D01*
X0053106Y0018109D01*
X0053028Y0018198D01*
X0052952Y0018291D01*
X0052880Y0018385D01*
X0052811Y0018482D01*
X0052745Y0018582D01*
X0052683Y0018683D01*
X0052624Y0018787D01*
X0052568Y0018892D01*
X0052516Y0018999D01*
X0052468Y0019108D01*
X0052423Y0019219D01*
X0052382Y0019331D01*
X0052345Y0019444D01*
X0052312Y0019558D01*
X0052282Y0019674D01*
X0052256Y0019790D01*
X0052235Y0019907D01*
X0052217Y0020025D01*
X0052203Y0020143D01*
X0052193Y0020262D01*
X0052187Y0020381D01*
X0052185Y0020500D01*
D35*
X0055750Y0020500D03*
M02*
