G75*
%MOIN*%
%OFA0B0*%
%FSLAX25Y25*%
%IPPOS*%
%LPD*%
%AMOC8*
5,1,8,0,0,1.08239X$1,22.5*
%
%ADD10C,0.07493*%
%ADD11C,0.04343*%
%ADD12R,0.05800X0.03300*%
%ADD13C,0.00500*%
%ADD14C,0.08200*%
%ADD15C,0.03556*%
%ADD16R,0.12611X0.05524*%
%ADD17R,0.03300X0.05800*%
%ADD18C,0.04737*%
%ADD19C,0.05000*%
%ADD20C,0.06706*%
D10*
X0183750Y0133500D03*
X0183750Y0245500D03*
X0183750Y0357500D03*
X0350750Y0357500D03*
X0350750Y0245500D03*
X0350750Y0133500D03*
D11*
X0052844Y0039500D03*
X0064656Y0039500D03*
X0064656Y0151500D03*
X0052844Y0151500D03*
X0052844Y0263500D03*
X0064656Y0263500D03*
X0219844Y0263500D03*
X0231656Y0263500D03*
X0231656Y0151500D03*
X0219844Y0151500D03*
X0219844Y0039500D03*
X0231656Y0039500D03*
D12*
X0210750Y0066500D03*
X0210750Y0070500D03*
X0210750Y0178500D03*
X0210750Y0182500D03*
X0210750Y0290500D03*
X0210750Y0294500D03*
X0043750Y0294500D03*
X0043750Y0290500D03*
X0043750Y0182500D03*
X0043750Y0178500D03*
X0043750Y0070500D03*
X0043750Y0066500D03*
D13*
X0043250Y0067750D02*
X0044250Y0067750D01*
X0044250Y0069250D01*
X0043250Y0069250D01*
X0043250Y0067750D01*
X0043250Y0067882D02*
X0044250Y0067882D01*
X0044250Y0068381D02*
X0043250Y0068381D01*
X0043250Y0068879D02*
X0044250Y0068879D01*
X0044250Y0179750D02*
X0043250Y0179750D01*
X0043250Y0181250D01*
X0044250Y0181250D01*
X0044250Y0179750D01*
X0044250Y0180047D02*
X0043250Y0180047D01*
X0043250Y0180546D02*
X0044250Y0180546D01*
X0044250Y0181044D02*
X0043250Y0181044D01*
X0043250Y0291750D02*
X0044250Y0291750D01*
X0044250Y0293250D01*
X0043250Y0293250D01*
X0043250Y0291750D01*
X0043250Y0292212D02*
X0044250Y0292212D01*
X0044250Y0292711D02*
X0043250Y0292711D01*
X0043250Y0293210D02*
X0044250Y0293210D01*
X0210250Y0293210D02*
X0211250Y0293210D01*
X0211250Y0293250D02*
X0211250Y0291750D01*
X0210250Y0291750D01*
X0210250Y0293250D01*
X0211250Y0293250D01*
X0211250Y0292711D02*
X0210250Y0292711D01*
X0210250Y0292212D02*
X0211250Y0292212D01*
X0211250Y0181250D02*
X0210250Y0181250D01*
X0210250Y0179750D01*
X0211250Y0179750D01*
X0211250Y0181250D01*
X0211250Y0181044D02*
X0210250Y0181044D01*
X0210250Y0180546D02*
X0211250Y0180546D01*
X0211250Y0180047D02*
X0210250Y0180047D01*
X0210250Y0069250D02*
X0210250Y0067750D01*
X0211250Y0067750D01*
X0211250Y0069250D01*
X0210250Y0069250D01*
X0210250Y0068879D02*
X0211250Y0068879D01*
X0211250Y0068381D02*
X0210250Y0068381D01*
X0210250Y0067882D02*
X0211250Y0067882D01*
D14*
X0183750Y0043500D03*
X0173750Y0043500D03*
X0173750Y0033500D03*
X0183750Y0033500D03*
X0163750Y0033500D03*
X0153750Y0033500D03*
X0143750Y0033500D03*
X0133750Y0033500D03*
X0123750Y0033500D03*
X0113750Y0033500D03*
X0103750Y0033500D03*
X0103750Y0043500D03*
X0113750Y0043500D03*
X0123750Y0043500D03*
X0133750Y0043500D03*
X0143750Y0043500D03*
X0153750Y0043500D03*
X0163750Y0043500D03*
X0093750Y0043500D03*
X0083750Y0043500D03*
X0083750Y0033500D03*
X0093750Y0033500D03*
X0078750Y0063500D03*
X0078750Y0073500D03*
X0083750Y0123500D03*
X0093750Y0123500D03*
X0093750Y0133500D03*
X0083750Y0133500D03*
X0083750Y0145500D03*
X0083750Y0155500D03*
X0093750Y0155500D03*
X0093750Y0145500D03*
X0103750Y0145500D03*
X0103750Y0155500D03*
X0113750Y0155500D03*
X0113750Y0145500D03*
X0123750Y0145500D03*
X0123750Y0155500D03*
X0133750Y0155500D03*
X0133750Y0145500D03*
X0143750Y0145500D03*
X0143750Y0155500D03*
X0153750Y0155500D03*
X0153750Y0145500D03*
X0163750Y0145500D03*
X0163750Y0155500D03*
X0173750Y0155500D03*
X0173750Y0145500D03*
X0183750Y0145500D03*
X0183750Y0155500D03*
X0173750Y0133500D03*
X0173750Y0123500D03*
X0183750Y0123500D03*
X0163750Y0123500D03*
X0153750Y0123500D03*
X0143750Y0123500D03*
X0133750Y0123500D03*
X0123750Y0123500D03*
X0113750Y0123500D03*
X0103750Y0123500D03*
X0103750Y0133500D03*
X0113750Y0133500D03*
X0123750Y0133500D03*
X0133750Y0133500D03*
X0143750Y0133500D03*
X0153750Y0133500D03*
X0163750Y0133500D03*
X0245750Y0175500D03*
X0245750Y0185500D03*
X0250750Y0155500D03*
X0250750Y0145500D03*
X0260750Y0145500D03*
X0260750Y0155500D03*
X0270750Y0155500D03*
X0270750Y0145500D03*
X0280750Y0145500D03*
X0280750Y0155500D03*
X0290750Y0155500D03*
X0290750Y0145500D03*
X0300750Y0145500D03*
X0300750Y0155500D03*
X0310750Y0155500D03*
X0310750Y0145500D03*
X0320750Y0145500D03*
X0320750Y0155500D03*
X0330750Y0155500D03*
X0330750Y0145500D03*
X0340750Y0145500D03*
X0340750Y0155500D03*
X0350750Y0155500D03*
X0350750Y0145500D03*
X0340750Y0133500D03*
X0330750Y0133500D03*
X0320750Y0133500D03*
X0310750Y0133500D03*
X0300750Y0133500D03*
X0290750Y0133500D03*
X0290750Y0123500D03*
X0300750Y0123500D03*
X0310750Y0123500D03*
X0320750Y0123500D03*
X0330750Y0123500D03*
X0340750Y0123500D03*
X0350750Y0123500D03*
X0280750Y0123500D03*
X0270750Y0123500D03*
X0260750Y0123500D03*
X0250750Y0123500D03*
X0250750Y0133500D03*
X0260750Y0133500D03*
X0270750Y0133500D03*
X0280750Y0133500D03*
X0245750Y0073500D03*
X0245750Y0063500D03*
X0250750Y0043500D03*
X0260750Y0043500D03*
X0270750Y0043500D03*
X0280750Y0043500D03*
X0280750Y0033500D03*
X0270750Y0033500D03*
X0260750Y0033500D03*
X0250750Y0033500D03*
X0290750Y0033500D03*
X0300750Y0033500D03*
X0310750Y0033500D03*
X0320750Y0033500D03*
X0330750Y0033500D03*
X0340750Y0033500D03*
X0350750Y0033500D03*
X0350750Y0043500D03*
X0340750Y0043500D03*
X0330750Y0043500D03*
X0320750Y0043500D03*
X0310750Y0043500D03*
X0300750Y0043500D03*
X0290750Y0043500D03*
X0078750Y0175500D03*
X0078750Y0185500D03*
X0083750Y0235500D03*
X0083750Y0245500D03*
X0093750Y0245500D03*
X0093750Y0235500D03*
X0103750Y0235500D03*
X0103750Y0245500D03*
X0113750Y0245500D03*
X0113750Y0235500D03*
X0123750Y0235500D03*
X0123750Y0245500D03*
X0133750Y0245500D03*
X0133750Y0235500D03*
X0143750Y0235500D03*
X0143750Y0245500D03*
X0153750Y0245500D03*
X0153750Y0235500D03*
X0163750Y0235500D03*
X0163750Y0245500D03*
X0173750Y0245500D03*
X0173750Y0235500D03*
X0183750Y0235500D03*
X0183750Y0257500D03*
X0173750Y0257500D03*
X0173750Y0267500D03*
X0183750Y0267500D03*
X0163750Y0267500D03*
X0153750Y0267500D03*
X0143750Y0267500D03*
X0133750Y0267500D03*
X0123750Y0267500D03*
X0113750Y0267500D03*
X0103750Y0267500D03*
X0103750Y0257500D03*
X0113750Y0257500D03*
X0123750Y0257500D03*
X0133750Y0257500D03*
X0143750Y0257500D03*
X0153750Y0257500D03*
X0163750Y0257500D03*
X0093750Y0257500D03*
X0083750Y0257500D03*
X0083750Y0267500D03*
X0093750Y0267500D03*
X0078750Y0287500D03*
X0078750Y0297500D03*
X0083750Y0347500D03*
X0093750Y0347500D03*
X0093750Y0357500D03*
X0083750Y0357500D03*
X0103750Y0357500D03*
X0113750Y0357500D03*
X0123750Y0357500D03*
X0133750Y0357500D03*
X0143750Y0357500D03*
X0153750Y0357500D03*
X0163750Y0357500D03*
X0163750Y0347500D03*
X0153750Y0347500D03*
X0143750Y0347500D03*
X0133750Y0347500D03*
X0123750Y0347500D03*
X0113750Y0347500D03*
X0103750Y0347500D03*
X0173750Y0347500D03*
X0183750Y0347500D03*
X0173750Y0357500D03*
X0245750Y0297500D03*
X0245750Y0287500D03*
X0250750Y0267500D03*
X0260750Y0267500D03*
X0270750Y0267500D03*
X0280750Y0267500D03*
X0280750Y0257500D03*
X0270750Y0257500D03*
X0260750Y0257500D03*
X0250750Y0257500D03*
X0250750Y0245500D03*
X0250750Y0235500D03*
X0260750Y0235500D03*
X0260750Y0245500D03*
X0270750Y0245500D03*
X0270750Y0235500D03*
X0280750Y0235500D03*
X0280750Y0245500D03*
X0290750Y0245500D03*
X0290750Y0235500D03*
X0300750Y0235500D03*
X0300750Y0245500D03*
X0310750Y0245500D03*
X0310750Y0235500D03*
X0320750Y0235500D03*
X0320750Y0245500D03*
X0330750Y0245500D03*
X0330750Y0235500D03*
X0340750Y0235500D03*
X0340750Y0245500D03*
X0350750Y0235500D03*
X0350750Y0257500D03*
X0340750Y0257500D03*
X0330750Y0257500D03*
X0320750Y0257500D03*
X0310750Y0257500D03*
X0300750Y0257500D03*
X0290750Y0257500D03*
X0290750Y0267500D03*
X0300750Y0267500D03*
X0310750Y0267500D03*
X0320750Y0267500D03*
X0330750Y0267500D03*
X0340750Y0267500D03*
X0350750Y0267500D03*
X0350750Y0347500D03*
X0340750Y0347500D03*
X0330750Y0347500D03*
X0320750Y0347500D03*
X0310750Y0347500D03*
X0300750Y0347500D03*
X0290750Y0347500D03*
X0290750Y0357500D03*
X0300750Y0357500D03*
X0310750Y0357500D03*
X0320750Y0357500D03*
X0330750Y0357500D03*
X0340750Y0357500D03*
X0280750Y0357500D03*
X0270750Y0357500D03*
X0260750Y0357500D03*
X0250750Y0357500D03*
X0250750Y0347500D03*
X0260750Y0347500D03*
X0270750Y0347500D03*
X0280750Y0347500D03*
D15*
X0225750Y0347957D03*
X0225750Y0355043D03*
X0225750Y0243043D03*
X0225750Y0235957D03*
X0225750Y0131043D03*
X0225750Y0123957D03*
X0058750Y0123957D03*
X0058750Y0131043D03*
X0058750Y0235957D03*
X0058750Y0243043D03*
X0058750Y0347957D03*
X0058750Y0355043D03*
D16*
X0127222Y0335059D03*
X0127222Y0327185D03*
X0127222Y0319311D03*
X0127222Y0311437D03*
X0127222Y0303563D03*
X0127222Y0295689D03*
X0127222Y0287815D03*
X0127222Y0279941D03*
X0186278Y0279941D03*
X0186278Y0287815D03*
X0186278Y0295689D03*
X0186278Y0303563D03*
X0186278Y0311437D03*
X0186278Y0319311D03*
X0186278Y0327185D03*
X0186278Y0335059D03*
X0294222Y0335059D03*
X0294222Y0327185D03*
X0294222Y0319311D03*
X0294222Y0311437D03*
X0294222Y0303563D03*
X0294222Y0295689D03*
X0294222Y0287815D03*
X0294222Y0279941D03*
X0353278Y0279941D03*
X0353278Y0287815D03*
X0353278Y0295689D03*
X0353278Y0303563D03*
X0353278Y0311437D03*
X0353278Y0319311D03*
X0353278Y0327185D03*
X0353278Y0335059D03*
X0353278Y0223059D03*
X0353278Y0215185D03*
X0353278Y0207311D03*
X0353278Y0199437D03*
X0353278Y0191563D03*
X0353278Y0183689D03*
X0353278Y0175815D03*
X0353278Y0167941D03*
X0294222Y0167941D03*
X0294222Y0175815D03*
X0294222Y0183689D03*
X0294222Y0191563D03*
X0294222Y0199437D03*
X0294222Y0207311D03*
X0294222Y0215185D03*
X0294222Y0223059D03*
X0186278Y0223059D03*
X0186278Y0215185D03*
X0186278Y0207311D03*
X0186278Y0199437D03*
X0186278Y0191563D03*
X0186278Y0183689D03*
X0186278Y0175815D03*
X0186278Y0167941D03*
X0127222Y0167941D03*
X0127222Y0175815D03*
X0127222Y0183689D03*
X0127222Y0191563D03*
X0127222Y0199437D03*
X0127222Y0207311D03*
X0127222Y0215185D03*
X0127222Y0223059D03*
X0127222Y0111059D03*
X0127222Y0103185D03*
X0127222Y0095311D03*
X0127222Y0087437D03*
X0127222Y0079563D03*
X0127222Y0071689D03*
X0127222Y0063815D03*
X0127222Y0055941D03*
X0186278Y0055941D03*
X0186278Y0063815D03*
X0186278Y0071689D03*
X0186278Y0079563D03*
X0186278Y0087437D03*
X0186278Y0095311D03*
X0186278Y0103185D03*
X0186278Y0111059D03*
X0294222Y0111059D03*
X0294222Y0103185D03*
X0294222Y0095311D03*
X0294222Y0087437D03*
X0294222Y0079563D03*
X0294222Y0071689D03*
X0294222Y0063815D03*
X0294222Y0055941D03*
X0353278Y0055941D03*
X0353278Y0063815D03*
X0353278Y0071689D03*
X0353278Y0079563D03*
X0353278Y0087437D03*
X0353278Y0095311D03*
X0353278Y0103185D03*
X0353278Y0111059D03*
D17*
X0277350Y0068500D03*
X0274150Y0068500D03*
X0274150Y0058500D03*
X0277350Y0058500D03*
X0277350Y0170500D03*
X0274150Y0170500D03*
X0274150Y0180500D03*
X0277350Y0180500D03*
X0277350Y0282500D03*
X0274150Y0282500D03*
X0274150Y0292500D03*
X0277350Y0292500D03*
X0110350Y0292500D03*
X0107150Y0292500D03*
X0107150Y0282500D03*
X0110350Y0282500D03*
X0110350Y0180500D03*
X0107150Y0180500D03*
X0107150Y0170500D03*
X0110350Y0170500D03*
X0110350Y0068500D03*
X0107150Y0068500D03*
X0107150Y0058500D03*
X0110350Y0058500D03*
D18*
X0065750Y0370750D03*
X0328750Y0370750D03*
D19*
X0062185Y0020250D02*
X0062187Y0020369D01*
X0062193Y0020488D01*
X0062203Y0020607D01*
X0062217Y0020725D01*
X0062235Y0020843D01*
X0062256Y0020960D01*
X0062282Y0021076D01*
X0062312Y0021192D01*
X0062345Y0021306D01*
X0062382Y0021419D01*
X0062423Y0021531D01*
X0062468Y0021642D01*
X0062516Y0021751D01*
X0062568Y0021858D01*
X0062624Y0021963D01*
X0062683Y0022067D01*
X0062745Y0022168D01*
X0062811Y0022268D01*
X0062880Y0022365D01*
X0062952Y0022459D01*
X0063028Y0022552D01*
X0063106Y0022641D01*
X0063187Y0022728D01*
X0063272Y0022813D01*
X0063359Y0022894D01*
X0063448Y0022972D01*
X0063541Y0023048D01*
X0063635Y0023120D01*
X0063732Y0023189D01*
X0063832Y0023255D01*
X0063933Y0023317D01*
X0064037Y0023376D01*
X0064142Y0023432D01*
X0064249Y0023484D01*
X0064358Y0023532D01*
X0064469Y0023577D01*
X0064581Y0023618D01*
X0064694Y0023655D01*
X0064808Y0023688D01*
X0064924Y0023718D01*
X0065040Y0023744D01*
X0065157Y0023765D01*
X0065275Y0023783D01*
X0065393Y0023797D01*
X0065512Y0023807D01*
X0065631Y0023813D01*
X0065750Y0023815D01*
X0065869Y0023813D01*
X0065988Y0023807D01*
X0066107Y0023797D01*
X0066225Y0023783D01*
X0066343Y0023765D01*
X0066460Y0023744D01*
X0066576Y0023718D01*
X0066692Y0023688D01*
X0066806Y0023655D01*
X0066919Y0023618D01*
X0067031Y0023577D01*
X0067142Y0023532D01*
X0067251Y0023484D01*
X0067358Y0023432D01*
X0067463Y0023376D01*
X0067567Y0023317D01*
X0067668Y0023255D01*
X0067768Y0023189D01*
X0067865Y0023120D01*
X0067959Y0023048D01*
X0068052Y0022972D01*
X0068141Y0022894D01*
X0068228Y0022813D01*
X0068313Y0022728D01*
X0068394Y0022641D01*
X0068472Y0022552D01*
X0068548Y0022459D01*
X0068620Y0022365D01*
X0068689Y0022268D01*
X0068755Y0022168D01*
X0068817Y0022067D01*
X0068876Y0021963D01*
X0068932Y0021858D01*
X0068984Y0021751D01*
X0069032Y0021642D01*
X0069077Y0021531D01*
X0069118Y0021419D01*
X0069155Y0021306D01*
X0069188Y0021192D01*
X0069218Y0021076D01*
X0069244Y0020960D01*
X0069265Y0020843D01*
X0069283Y0020725D01*
X0069297Y0020607D01*
X0069307Y0020488D01*
X0069313Y0020369D01*
X0069315Y0020250D01*
X0069313Y0020131D01*
X0069307Y0020012D01*
X0069297Y0019893D01*
X0069283Y0019775D01*
X0069265Y0019657D01*
X0069244Y0019540D01*
X0069218Y0019424D01*
X0069188Y0019308D01*
X0069155Y0019194D01*
X0069118Y0019081D01*
X0069077Y0018969D01*
X0069032Y0018858D01*
X0068984Y0018749D01*
X0068932Y0018642D01*
X0068876Y0018537D01*
X0068817Y0018433D01*
X0068755Y0018332D01*
X0068689Y0018232D01*
X0068620Y0018135D01*
X0068548Y0018041D01*
X0068472Y0017948D01*
X0068394Y0017859D01*
X0068313Y0017772D01*
X0068228Y0017687D01*
X0068141Y0017606D01*
X0068052Y0017528D01*
X0067959Y0017452D01*
X0067865Y0017380D01*
X0067768Y0017311D01*
X0067668Y0017245D01*
X0067567Y0017183D01*
X0067463Y0017124D01*
X0067358Y0017068D01*
X0067251Y0017016D01*
X0067142Y0016968D01*
X0067031Y0016923D01*
X0066919Y0016882D01*
X0066806Y0016845D01*
X0066692Y0016812D01*
X0066576Y0016782D01*
X0066460Y0016756D01*
X0066343Y0016735D01*
X0066225Y0016717D01*
X0066107Y0016703D01*
X0065988Y0016693D01*
X0065869Y0016687D01*
X0065750Y0016685D01*
X0065631Y0016687D01*
X0065512Y0016693D01*
X0065393Y0016703D01*
X0065275Y0016717D01*
X0065157Y0016735D01*
X0065040Y0016756D01*
X0064924Y0016782D01*
X0064808Y0016812D01*
X0064694Y0016845D01*
X0064581Y0016882D01*
X0064469Y0016923D01*
X0064358Y0016968D01*
X0064249Y0017016D01*
X0064142Y0017068D01*
X0064037Y0017124D01*
X0063933Y0017183D01*
X0063832Y0017245D01*
X0063732Y0017311D01*
X0063635Y0017380D01*
X0063541Y0017452D01*
X0063448Y0017528D01*
X0063359Y0017606D01*
X0063272Y0017687D01*
X0063187Y0017772D01*
X0063106Y0017859D01*
X0063028Y0017948D01*
X0062952Y0018041D01*
X0062880Y0018135D01*
X0062811Y0018232D01*
X0062745Y0018332D01*
X0062683Y0018433D01*
X0062624Y0018537D01*
X0062568Y0018642D01*
X0062516Y0018749D01*
X0062468Y0018858D01*
X0062423Y0018969D01*
X0062382Y0019081D01*
X0062345Y0019194D01*
X0062312Y0019308D01*
X0062282Y0019424D01*
X0062256Y0019540D01*
X0062235Y0019657D01*
X0062217Y0019775D01*
X0062203Y0019893D01*
X0062193Y0020012D01*
X0062187Y0020131D01*
X0062185Y0020250D01*
D20*
X0065750Y0020250D03*
M02*
