%
M48
M72
T01C0.0120
T02C0.0200
T03C0.0276
T04C0.0354
T05C0.0400
T06C0.0669
%
T01
X5675Y5175
X8525Y6975
X9375Y6875
X11165Y6375
X11125Y5875
X11275Y5575
X12375Y5625
X13130Y6670
X13425Y7375
X13788Y7625
X14218Y7384
X14826Y7625
X14846Y7925
X15216Y8025
X14875Y8584
X14975Y8975
X15325Y8775
X15175Y9375
X14675Y9375
X14075Y8866
X13875Y8625
X13375Y8575
X13834Y9366
X13125Y9625
X13188Y10015
X13925Y10134
X14425Y10825
X14675Y11125
X15825Y10975
X16025Y9725
X16525Y9425
X17347Y8925
X17347Y8575
X17325Y8025
X18128Y7981
X17325Y7175
X17371Y6855
X17275Y6425
X16975Y5975
X16375Y6175
X16222Y5875
X16775Y4975
X14875Y5875
X16175Y6975
X16125Y7325
X16625Y7475
X16975Y7225
X15025Y7375
X11422Y7044
X11372Y7358
X11375Y7725
X11425Y8992
X11125Y10025
X11375Y11025
X11375Y11375
X9375Y10375
X8375Y10125
X7375Y10425
X6625Y11175
X5875Y11875
X5375Y11375
X5125Y10075
X6375Y8375
X4975Y7875
X3375Y8775
X3375Y11975
X5675Y16375
X8525Y18175
X9375Y18075
X11165Y17575
X11125Y17075
X11275Y16775
X12375Y16825
X13130Y17870
X13425Y18575
X13788Y18825
X14218Y18584
X14826Y18825
X14846Y19125
X15216Y19225
X14875Y19784
X14975Y20175
X15325Y19975
X15175Y20575
X14675Y20575
X14075Y20066
X13875Y19825
X13375Y19775
X13834Y20566
X13125Y20825
X13188Y21215
X13925Y21334
X14425Y22025
X14675Y22325
X15825Y22175
X16025Y20925
X16525Y20625
X17347Y20125
X17347Y19775
X17325Y19225
X18128Y19181
X17325Y18375
X17371Y18055
X17275Y17625
X16975Y17175
X16375Y17375
X16222Y17075
X16775Y16175
X14875Y17075
X16175Y18175
X16125Y18525
X16625Y18675
X16975Y18425
X15025Y18575
X11422Y18244
X11372Y18558
X11375Y18925
X11425Y20192
X11125Y21225
X11375Y22225
X11375Y22575
X9375Y21575
X8375Y21325
X7375Y21625
X6625Y22375
X5875Y23075
X5375Y22575
X5125Y21275
X6375Y19575
X4975Y19075
X3375Y19975
X3375Y23175
X5675Y27575
X8525Y29375
X9375Y29275
X11165Y28775
X11125Y28275
X11275Y27975
X12375Y28025
X13130Y29070
X13425Y29775
X13788Y30025
X14218Y29784
X14826Y30025
X14846Y30325
X15216Y30425
X14875Y30984
X14975Y31375
X15325Y31175
X15175Y31775
X14675Y31775
X14075Y31266
X13875Y31025
X13375Y30975
X13834Y31766
X13125Y32025
X13188Y32415
X13925Y32534
X14425Y33225
X14675Y33525
X15825Y33375
X16025Y32125
X16525Y31825
X17347Y31325
X17347Y30975
X17325Y30425
X18128Y30381
X17325Y29575
X17371Y29255
X17275Y28825
X16975Y28375
X16375Y28575
X16222Y28275
X16775Y27375
X14875Y28275
X16175Y29375
X16125Y29725
X16625Y29875
X16975Y29625
X15025Y29775
X11422Y29444
X11372Y29758
X11375Y30125
X11425Y31392
X11125Y32425
X11375Y33425
X11375Y33775
X9375Y32775
X8375Y32525
X7375Y32825
X6625Y33575
X5875Y34275
X5375Y33775
X5125Y32475
X6375Y30775
X4975Y30275
X3375Y31175
X3375Y34375
X8875Y31475
X10125Y31775
X10375Y26275
X10125Y20575
X8875Y20275
X10375Y15075
X10125Y9375
X8875Y9075
X10375Y3875
X19575Y8775
X21175Y7875
X22575Y8375
X21325Y10075
X21575Y11375
X22075Y11875
X22825Y11175
X23575Y10425
X24575Y10125
X25575Y10375
X26325Y9375
X27325Y10025
X27575Y11025
X27575Y11375
X29388Y10015
X29325Y9625
X30034Y9366
X30275Y8866
X30075Y8625
X29575Y8575
X29988Y7625
X29625Y7375
X29330Y6670
X28575Y5625
X27475Y5575
X27325Y5875
X27365Y6375
X27622Y7044
X27572Y7358
X27575Y7725
X27625Y8992
X25075Y9075
X24725Y6975
X25575Y6875
X26575Y3875
X30418Y7384
X31026Y7625
X31046Y7925
X31416Y8025
X31075Y8584
X31175Y8975
X31525Y8775
X31375Y9375
X30875Y9375
X30125Y10134
X30625Y10825
X30875Y11125
X32025Y10975
X32225Y9725
X32725Y9425
X33547Y8925
X33547Y8575
X33525Y8025
X32825Y7475
X33175Y7225
X33525Y7175
X33571Y6855
X33475Y6425
X33175Y5975
X32575Y6175
X32422Y5875
X32975Y4975
X31075Y5875
X32375Y6975
X32325Y7325
X31225Y7375
X34328Y7981
X26575Y15075
X27475Y16775
X27325Y17075
X27365Y17575
X27622Y18244
X27572Y18558
X27575Y18925
X27625Y20192
X26325Y20575
X27325Y21225
X27575Y22225
X27575Y22575
X25575Y21575
X24575Y21325
X25075Y20275
X23575Y21625
X22825Y22375
X22075Y23075
X21575Y22575
X21325Y21275
X19575Y19975
X21175Y19075
X22575Y19575
X24725Y18175
X25575Y18075
X28575Y16825
X29330Y17870
X29625Y18575
X29988Y18825
X30418Y18584
X31026Y18825
X31046Y19125
X31416Y19225
X31075Y19784
X31175Y20175
X31525Y19975
X31375Y20575
X30875Y20575
X30275Y20066
X30075Y19825
X29575Y19775
X30034Y20566
X29325Y20825
X29388Y21215
X30125Y21334
X30625Y22025
X30875Y22325
X32025Y22175
X32225Y20925
X32725Y20625
X33547Y20125
X33547Y19775
X33525Y19225
X32825Y18675
X33175Y18425
X33525Y18375
X33571Y18055
X33475Y17625
X33175Y17175
X32575Y17375
X32422Y17075
X32975Y16175
X31075Y17075
X32375Y18175
X32325Y18525
X31225Y18575
X34328Y19181
X26575Y26275
X27475Y27975
X27325Y28275
X27365Y28775
X27622Y29444
X27572Y29758
X27575Y30125
X27625Y31392
X26325Y31775
X27325Y32425
X27575Y33425
X27575Y33775
X25575Y32775
X24575Y32525
X23575Y32825
X22825Y33575
X22075Y34275
X21575Y33775
X21325Y32475
X19575Y31175
X21175Y30275
X22575Y30775
X24725Y29375
X25575Y29275
X25075Y31475
X28575Y28025
X29330Y29070
X29625Y29775
X29988Y30025
X30418Y29784
X31026Y30025
X31046Y30325
X31416Y30425
X31075Y30984
X31175Y31375
X31525Y31175
X31375Y31775
X30875Y31775
X30275Y31266
X30075Y31025
X29575Y30975
X30034Y31766
X29325Y32025
X29388Y32415
X30125Y32534
X30625Y33225
X30875Y33525
X32025Y33375
X32225Y32125
X32725Y31825
X33547Y31325
X33547Y30975
X33525Y30425
X32825Y29875
X33175Y29625
X33525Y29575
X33571Y29255
X33475Y28825
X33175Y28375
X32575Y28575
X32422Y28275
X32975Y27375
X31075Y28275
X32375Y29375
X32325Y29725
X31225Y29775
X34328Y30381
X21875Y27575
X19575Y23175
X21875Y16375
X19575Y11975
X21875Y5175
X19575Y34375
T02
X15375Y33775
X14375Y33775
X13375Y33775
X13375Y32775
X14375Y32775
X15375Y32775
X15375Y22575
X15375Y21575
X14375Y21575
X14375Y22575
X13375Y22575
X13375Y21575
X13375Y11375
X13375Y10375
X14375Y10375
X14375Y11375
X15375Y11375
X15375Y10375
X29575Y10375
X29575Y11375
X30575Y11375
X30575Y10375
X31575Y10375
X31575Y11375
X31575Y21575
X31575Y22575
X30575Y22575
X30575Y21575
X29575Y21575
X29575Y22575
X29575Y32775
X30575Y32775
X31575Y32775
X31575Y33775
X30575Y33775
X29575Y33775
T03
X21575Y34821
X21575Y35529
X21575Y24329
X21575Y23621
X21575Y13129
X21575Y12421
X5375Y12421
X5375Y13129
X5375Y23621
X5375Y24329
X5375Y34821
X5375Y35529
T04
X4784Y3975
X5966Y3975
X5966Y15175
X4784Y15175
X4784Y26375
X5966Y26375
X20984Y26375
X22166Y26375
X22166Y15175
X20984Y15175
X20984Y3975
X22166Y3975
T05
X24075Y4375
X25075Y4375
X26075Y4375
X27075Y4375
X28075Y4375
X28075Y3375
X27075Y3375
X26075Y3375
X25075Y3375
X24075Y3375
X23575Y6375
X23575Y7375
X24075Y12375
X25075Y12375
X26075Y12375
X27075Y12375
X28075Y12375
X28075Y13375
X27075Y13375
X26075Y13375
X25075Y13375
X24075Y13375
X24075Y14575
X25075Y14575
X26075Y14575
X27075Y14575
X28075Y14575
X28075Y15575
X27075Y15575
X26075Y15575
X25075Y15575
X24075Y15575
X23575Y17575
X23575Y18575
X24075Y23575
X24075Y24575
X25075Y24575
X25075Y23575
X26075Y23575
X26075Y24575
X27075Y24575
X27075Y23575
X28075Y23575
X28075Y24575
X29075Y24575
X29075Y23575
X30075Y23575
X30075Y24575
X31075Y24575
X31075Y23575
X32075Y23575
X32075Y24575
X33075Y24575
X33075Y23575
X34075Y23575
X34075Y25775
X34075Y26775
X33075Y26775
X32075Y26775
X31075Y26775
X30075Y26775
X29075Y26775
X29075Y25775
X30075Y25775
X31075Y25775
X32075Y25775
X33075Y25775
X28075Y25775
X27075Y25775
X26075Y25775
X25075Y25775
X24075Y25775
X24075Y26775
X25075Y26775
X26075Y26775
X27075Y26775
X28075Y26775
X23575Y28775
X23575Y29775
X24075Y34775
X24075Y35775
X25075Y35775
X25075Y34775
X26075Y34775
X26075Y35775
X27075Y35775
X27075Y34775
X28075Y34775
X28075Y35775
X29075Y35775
X29075Y34775
X30075Y34775
X30075Y35775
X31075Y35775
X31075Y34775
X32075Y34775
X32075Y35775
X33075Y35775
X33075Y34775
X34075Y34775
X17875Y34775
X16875Y34775
X16875Y35775
X15875Y35775
X15875Y34775
X14875Y34775
X14875Y35775
X13875Y35775
X13875Y34775
X12875Y34775
X12875Y35775
X11875Y35775
X11875Y34775
X10875Y34775
X10875Y35775
X9875Y35775
X9875Y34775
X8875Y34775
X8875Y35775
X7875Y35775
X7875Y34775
X7375Y29775
X7375Y28775
X7875Y26775
X8875Y26775
X9875Y26775
X10875Y26775
X10875Y25775
X9875Y25775
X8875Y25775
X7875Y25775
X7875Y24575
X7875Y23575
X8875Y23575
X8875Y24575
X9875Y24575
X9875Y23575
X10875Y23575
X10875Y24575
X11875Y24575
X11875Y23575
X12875Y23575
X12875Y24575
X13875Y24575
X13875Y23575
X14875Y23575
X14875Y24575
X15875Y24575
X15875Y23575
X16875Y23575
X16875Y24575
X17875Y23575
X17875Y25775
X16875Y25775
X16875Y26775
X17875Y26775
X15875Y26775
X14875Y26775
X13875Y26775
X12875Y26775
X11875Y26775
X11875Y25775
X12875Y25775
X13875Y25775
X14875Y25775
X15875Y25775
X7375Y18575
X7375Y17575
X7875Y15575
X8875Y15575
X9875Y15575
X10875Y15575
X10875Y14575
X9875Y14575
X8875Y14575
X7875Y14575
X7875Y13375
X8875Y13375
X9875Y13375
X10875Y13375
X10875Y12375
X9875Y12375
X8875Y12375
X7875Y12375
X11875Y12375
X12875Y12375
X13875Y12375
X14875Y12375
X15875Y12375
X15875Y13375
X14875Y13375
X13875Y13375
X12875Y13375
X11875Y13375
X11875Y14575
X12875Y14575
X13875Y14575
X14875Y14575
X15875Y14575
X15875Y15575
X14875Y15575
X13875Y15575
X12875Y15575
X11875Y15575
X16875Y15575
X17875Y15575
X17875Y14575
X16875Y14575
X16875Y13375
X16875Y12375
X17875Y12375
X17875Y4375
X16875Y4375
X16875Y3375
X17875Y3375
X15875Y3375
X14875Y3375
X13875Y3375
X12875Y3375
X11875Y3375
X11875Y4375
X12875Y4375
X13875Y4375
X14875Y4375
X15875Y4375
X10875Y4375
X9875Y4375
X8875Y4375
X7875Y4375
X7875Y3375
X8875Y3375
X9875Y3375
X10875Y3375
X7375Y6375
X7375Y7375
X29075Y4375
X30075Y4375
X31075Y4375
X32075Y4375
X33075Y4375
X33075Y3375
X32075Y3375
X31075Y3375
X30075Y3375
X29075Y3375
X34075Y3375
X34075Y4375
X34075Y12375
X33075Y12375
X32075Y12375
X31075Y12375
X30075Y12375
X29075Y12375
X29075Y13375
X30075Y13375
X31075Y13375
X32075Y13375
X33075Y13375
X33075Y14575
X32075Y14575
X31075Y14575
X30075Y14575
X29075Y14575
X29075Y15575
X30075Y15575
X31075Y15575
X32075Y15575
X33075Y15575
X34075Y15575
X34075Y14575
T06
X34075Y13375
X34075Y24575
X34075Y35775
X17875Y35775
X17875Y24575
X17875Y13375
M30
