G75*
%MOIN*%
%OFA0B0*%
%FSLAX25Y25*%
%IPPOS*%
%LPD*%
%AMOC8*
5,1,8,0,0,1.08239X$1,22.5*
%
%ADD10C,0.00600*%
%ADD11C,0.00000*%
%ADD12C,0.01500*%
%ADD13C,0.01100*%
%ADD14C,0.01000*%
%ADD15C,0.00079*%
D10*
X0038750Y0033750D02*
X0063750Y0033750D01*
X0068750Y0028750D01*
X0178750Y0028750D01*
X0178992Y0028753D01*
X0179233Y0028762D01*
X0179474Y0028776D01*
X0179715Y0028797D01*
X0179955Y0028823D01*
X0180195Y0028855D01*
X0180434Y0028893D01*
X0180671Y0028936D01*
X0180908Y0028986D01*
X0181143Y0029041D01*
X0181377Y0029101D01*
X0181609Y0029168D01*
X0181840Y0029239D01*
X0182069Y0029317D01*
X0182296Y0029400D01*
X0182521Y0029488D01*
X0182744Y0029582D01*
X0182964Y0029681D01*
X0183182Y0029786D01*
X0183397Y0029895D01*
X0183610Y0030010D01*
X0183820Y0030130D01*
X0184026Y0030255D01*
X0184230Y0030385D01*
X0184431Y0030520D01*
X0184628Y0030660D01*
X0184822Y0030804D01*
X0185012Y0030953D01*
X0185198Y0031107D01*
X0185381Y0031265D01*
X0185560Y0031427D01*
X0185735Y0031594D01*
X0185906Y0031765D01*
X0186073Y0031940D01*
X0186235Y0032119D01*
X0186393Y0032302D01*
X0186547Y0032488D01*
X0186696Y0032678D01*
X0186840Y0032872D01*
X0186980Y0033069D01*
X0187115Y0033270D01*
X0187245Y0033474D01*
X0187370Y0033680D01*
X0187490Y0033890D01*
X0187605Y0034103D01*
X0187714Y0034318D01*
X0187819Y0034536D01*
X0187918Y0034756D01*
X0188012Y0034979D01*
X0188100Y0035204D01*
X0188183Y0035431D01*
X0188261Y0035660D01*
X0188332Y0035891D01*
X0188399Y0036123D01*
X0188459Y0036357D01*
X0188514Y0036592D01*
X0188564Y0036829D01*
X0188607Y0037066D01*
X0188645Y0037305D01*
X0188677Y0037545D01*
X0188703Y0037785D01*
X0188724Y0038026D01*
X0188738Y0038267D01*
X0188747Y0038508D01*
X0188750Y0038750D01*
X0188750Y0128750D01*
X0190750Y0123750D02*
X0190750Y0043750D01*
X0190753Y0043508D01*
X0190762Y0043267D01*
X0190776Y0043026D01*
X0190797Y0042785D01*
X0190823Y0042545D01*
X0190855Y0042305D01*
X0190893Y0042066D01*
X0190936Y0041829D01*
X0190986Y0041592D01*
X0191041Y0041357D01*
X0191101Y0041123D01*
X0191168Y0040891D01*
X0191239Y0040660D01*
X0191317Y0040431D01*
X0191400Y0040204D01*
X0191488Y0039979D01*
X0191582Y0039756D01*
X0191681Y0039536D01*
X0191786Y0039318D01*
X0191895Y0039103D01*
X0192010Y0038890D01*
X0192130Y0038680D01*
X0192255Y0038474D01*
X0192385Y0038270D01*
X0192520Y0038069D01*
X0192660Y0037872D01*
X0192804Y0037678D01*
X0192953Y0037488D01*
X0193107Y0037302D01*
X0193265Y0037119D01*
X0193427Y0036940D01*
X0193594Y0036765D01*
X0193765Y0036594D01*
X0193940Y0036427D01*
X0194119Y0036265D01*
X0194302Y0036107D01*
X0194488Y0035953D01*
X0194678Y0035804D01*
X0194872Y0035660D01*
X0195069Y0035520D01*
X0195270Y0035385D01*
X0195474Y0035255D01*
X0195680Y0035130D01*
X0195890Y0035010D01*
X0196103Y0034895D01*
X0196318Y0034786D01*
X0196536Y0034681D01*
X0196756Y0034582D01*
X0196979Y0034488D01*
X0197204Y0034400D01*
X0197431Y0034317D01*
X0197660Y0034239D01*
X0197891Y0034168D01*
X0198123Y0034101D01*
X0198357Y0034041D01*
X0198592Y0033986D01*
X0198829Y0033936D01*
X0199066Y0033893D01*
X0199305Y0033855D01*
X0199545Y0033823D01*
X0199785Y0033797D01*
X0200026Y0033776D01*
X0200267Y0033762D01*
X0200508Y0033753D01*
X0200750Y0033750D01*
X0225750Y0033750D01*
X0230750Y0028750D01*
X0340750Y0028750D01*
X0340992Y0028753D01*
X0341233Y0028762D01*
X0341474Y0028776D01*
X0341715Y0028797D01*
X0341955Y0028823D01*
X0342195Y0028855D01*
X0342434Y0028893D01*
X0342671Y0028936D01*
X0342908Y0028986D01*
X0343143Y0029041D01*
X0343377Y0029101D01*
X0343609Y0029168D01*
X0343840Y0029239D01*
X0344069Y0029317D01*
X0344296Y0029400D01*
X0344521Y0029488D01*
X0344744Y0029582D01*
X0344964Y0029681D01*
X0345182Y0029786D01*
X0345397Y0029895D01*
X0345610Y0030010D01*
X0345820Y0030130D01*
X0346026Y0030255D01*
X0346230Y0030385D01*
X0346431Y0030520D01*
X0346628Y0030660D01*
X0346822Y0030804D01*
X0347012Y0030953D01*
X0347198Y0031107D01*
X0347381Y0031265D01*
X0347560Y0031427D01*
X0347735Y0031594D01*
X0347906Y0031765D01*
X0348073Y0031940D01*
X0348235Y0032119D01*
X0348393Y0032302D01*
X0348547Y0032488D01*
X0348696Y0032678D01*
X0348840Y0032872D01*
X0348980Y0033069D01*
X0349115Y0033270D01*
X0349245Y0033474D01*
X0349370Y0033680D01*
X0349490Y0033890D01*
X0349605Y0034103D01*
X0349714Y0034318D01*
X0349819Y0034536D01*
X0349918Y0034756D01*
X0350012Y0034979D01*
X0350100Y0035204D01*
X0350183Y0035431D01*
X0350261Y0035660D01*
X0350332Y0035891D01*
X0350399Y0036123D01*
X0350459Y0036357D01*
X0350514Y0036592D01*
X0350564Y0036829D01*
X0350607Y0037066D01*
X0350645Y0037305D01*
X0350677Y0037545D01*
X0350703Y0037785D01*
X0350724Y0038026D01*
X0350738Y0038267D01*
X0350747Y0038508D01*
X0350750Y0038750D01*
X0350750Y0128750D01*
X0350747Y0128992D01*
X0350738Y0129233D01*
X0350724Y0129474D01*
X0350703Y0129715D01*
X0350677Y0129955D01*
X0350645Y0130195D01*
X0350607Y0130434D01*
X0350564Y0130671D01*
X0350514Y0130908D01*
X0350459Y0131143D01*
X0350399Y0131377D01*
X0350332Y0131609D01*
X0350261Y0131840D01*
X0350183Y0132069D01*
X0350100Y0132296D01*
X0350012Y0132521D01*
X0349918Y0132744D01*
X0349819Y0132964D01*
X0349714Y0133182D01*
X0349605Y0133397D01*
X0349490Y0133610D01*
X0349370Y0133820D01*
X0349245Y0134026D01*
X0349115Y0134230D01*
X0348980Y0134431D01*
X0348840Y0134628D01*
X0348696Y0134822D01*
X0348547Y0135012D01*
X0348393Y0135198D01*
X0348235Y0135381D01*
X0348073Y0135560D01*
X0347906Y0135735D01*
X0347735Y0135906D01*
X0347560Y0136073D01*
X0347381Y0136235D01*
X0347198Y0136393D01*
X0347012Y0136547D01*
X0346822Y0136696D01*
X0346628Y0136840D01*
X0346431Y0136980D01*
X0346230Y0137115D01*
X0346026Y0137245D01*
X0345820Y0137370D01*
X0345610Y0137490D01*
X0345397Y0137605D01*
X0345182Y0137714D01*
X0344964Y0137819D01*
X0344744Y0137918D01*
X0344521Y0138012D01*
X0344296Y0138100D01*
X0344069Y0138183D01*
X0343840Y0138261D01*
X0343609Y0138332D01*
X0343377Y0138399D01*
X0343143Y0138459D01*
X0342908Y0138514D01*
X0342671Y0138564D01*
X0342434Y0138607D01*
X0342195Y0138645D01*
X0341955Y0138677D01*
X0341715Y0138703D01*
X0341474Y0138724D01*
X0341233Y0138738D01*
X0340992Y0138747D01*
X0340750Y0138750D01*
X0230750Y0138750D01*
X0225750Y0133750D01*
X0200750Y0133750D01*
X0200750Y0145750D02*
X0225750Y0145750D01*
X0230750Y0140750D01*
X0340750Y0140750D01*
X0340992Y0140753D01*
X0341233Y0140762D01*
X0341474Y0140776D01*
X0341715Y0140797D01*
X0341955Y0140823D01*
X0342195Y0140855D01*
X0342434Y0140893D01*
X0342671Y0140936D01*
X0342908Y0140986D01*
X0343143Y0141041D01*
X0343377Y0141101D01*
X0343609Y0141168D01*
X0343840Y0141239D01*
X0344069Y0141317D01*
X0344296Y0141400D01*
X0344521Y0141488D01*
X0344744Y0141582D01*
X0344964Y0141681D01*
X0345182Y0141786D01*
X0345397Y0141895D01*
X0345610Y0142010D01*
X0345820Y0142130D01*
X0346026Y0142255D01*
X0346230Y0142385D01*
X0346431Y0142520D01*
X0346628Y0142660D01*
X0346822Y0142804D01*
X0347012Y0142953D01*
X0347198Y0143107D01*
X0347381Y0143265D01*
X0347560Y0143427D01*
X0347735Y0143594D01*
X0347906Y0143765D01*
X0348073Y0143940D01*
X0348235Y0144119D01*
X0348393Y0144302D01*
X0348547Y0144488D01*
X0348696Y0144678D01*
X0348840Y0144872D01*
X0348980Y0145069D01*
X0349115Y0145270D01*
X0349245Y0145474D01*
X0349370Y0145680D01*
X0349490Y0145890D01*
X0349605Y0146103D01*
X0349714Y0146318D01*
X0349819Y0146536D01*
X0349918Y0146756D01*
X0350012Y0146979D01*
X0350100Y0147204D01*
X0350183Y0147431D01*
X0350261Y0147660D01*
X0350332Y0147891D01*
X0350399Y0148123D01*
X0350459Y0148357D01*
X0350514Y0148592D01*
X0350564Y0148829D01*
X0350607Y0149066D01*
X0350645Y0149305D01*
X0350677Y0149545D01*
X0350703Y0149785D01*
X0350724Y0150026D01*
X0350738Y0150267D01*
X0350747Y0150508D01*
X0350750Y0150750D01*
X0350750Y0240750D01*
X0350747Y0240992D01*
X0350738Y0241233D01*
X0350724Y0241474D01*
X0350703Y0241715D01*
X0350677Y0241955D01*
X0350645Y0242195D01*
X0350607Y0242434D01*
X0350564Y0242671D01*
X0350514Y0242908D01*
X0350459Y0243143D01*
X0350399Y0243377D01*
X0350332Y0243609D01*
X0350261Y0243840D01*
X0350183Y0244069D01*
X0350100Y0244296D01*
X0350012Y0244521D01*
X0349918Y0244744D01*
X0349819Y0244964D01*
X0349714Y0245182D01*
X0349605Y0245397D01*
X0349490Y0245610D01*
X0349370Y0245820D01*
X0349245Y0246026D01*
X0349115Y0246230D01*
X0348980Y0246431D01*
X0348840Y0246628D01*
X0348696Y0246822D01*
X0348547Y0247012D01*
X0348393Y0247198D01*
X0348235Y0247381D01*
X0348073Y0247560D01*
X0347906Y0247735D01*
X0347735Y0247906D01*
X0347560Y0248073D01*
X0347381Y0248235D01*
X0347198Y0248393D01*
X0347012Y0248547D01*
X0346822Y0248696D01*
X0346628Y0248840D01*
X0346431Y0248980D01*
X0346230Y0249115D01*
X0346026Y0249245D01*
X0345820Y0249370D01*
X0345610Y0249490D01*
X0345397Y0249605D01*
X0345182Y0249714D01*
X0344964Y0249819D01*
X0344744Y0249918D01*
X0344521Y0250012D01*
X0344296Y0250100D01*
X0344069Y0250183D01*
X0343840Y0250261D01*
X0343609Y0250332D01*
X0343377Y0250399D01*
X0343143Y0250459D01*
X0342908Y0250514D01*
X0342671Y0250564D01*
X0342434Y0250607D01*
X0342195Y0250645D01*
X0341955Y0250677D01*
X0341715Y0250703D01*
X0341474Y0250724D01*
X0341233Y0250738D01*
X0340992Y0250747D01*
X0340750Y0250750D01*
X0230750Y0250750D01*
X0225750Y0245750D01*
X0200750Y0245750D01*
X0200750Y0257750D02*
X0225750Y0257750D01*
X0230750Y0252750D01*
X0340750Y0252750D01*
X0340992Y0252753D01*
X0341233Y0252762D01*
X0341474Y0252776D01*
X0341715Y0252797D01*
X0341955Y0252823D01*
X0342195Y0252855D01*
X0342434Y0252893D01*
X0342671Y0252936D01*
X0342908Y0252986D01*
X0343143Y0253041D01*
X0343377Y0253101D01*
X0343609Y0253168D01*
X0343840Y0253239D01*
X0344069Y0253317D01*
X0344296Y0253400D01*
X0344521Y0253488D01*
X0344744Y0253582D01*
X0344964Y0253681D01*
X0345182Y0253786D01*
X0345397Y0253895D01*
X0345610Y0254010D01*
X0345820Y0254130D01*
X0346026Y0254255D01*
X0346230Y0254385D01*
X0346431Y0254520D01*
X0346628Y0254660D01*
X0346822Y0254804D01*
X0347012Y0254953D01*
X0347198Y0255107D01*
X0347381Y0255265D01*
X0347560Y0255427D01*
X0347735Y0255594D01*
X0347906Y0255765D01*
X0348073Y0255940D01*
X0348235Y0256119D01*
X0348393Y0256302D01*
X0348547Y0256488D01*
X0348696Y0256678D01*
X0348840Y0256872D01*
X0348980Y0257069D01*
X0349115Y0257270D01*
X0349245Y0257474D01*
X0349370Y0257680D01*
X0349490Y0257890D01*
X0349605Y0258103D01*
X0349714Y0258318D01*
X0349819Y0258536D01*
X0349918Y0258756D01*
X0350012Y0258979D01*
X0350100Y0259204D01*
X0350183Y0259431D01*
X0350261Y0259660D01*
X0350332Y0259891D01*
X0350399Y0260123D01*
X0350459Y0260357D01*
X0350514Y0260592D01*
X0350564Y0260829D01*
X0350607Y0261066D01*
X0350645Y0261305D01*
X0350677Y0261545D01*
X0350703Y0261785D01*
X0350724Y0262026D01*
X0350738Y0262267D01*
X0350747Y0262508D01*
X0350750Y0262750D01*
X0350750Y0352750D01*
X0350747Y0352992D01*
X0350738Y0353233D01*
X0350724Y0353474D01*
X0350703Y0353715D01*
X0350677Y0353955D01*
X0350645Y0354195D01*
X0350607Y0354434D01*
X0350564Y0354671D01*
X0350514Y0354908D01*
X0350459Y0355143D01*
X0350399Y0355377D01*
X0350332Y0355609D01*
X0350261Y0355840D01*
X0350183Y0356069D01*
X0350100Y0356296D01*
X0350012Y0356521D01*
X0349918Y0356744D01*
X0349819Y0356964D01*
X0349714Y0357182D01*
X0349605Y0357397D01*
X0349490Y0357610D01*
X0349370Y0357820D01*
X0349245Y0358026D01*
X0349115Y0358230D01*
X0348980Y0358431D01*
X0348840Y0358628D01*
X0348696Y0358822D01*
X0348547Y0359012D01*
X0348393Y0359198D01*
X0348235Y0359381D01*
X0348073Y0359560D01*
X0347906Y0359735D01*
X0347735Y0359906D01*
X0347560Y0360073D01*
X0347381Y0360235D01*
X0347198Y0360393D01*
X0347012Y0360547D01*
X0346822Y0360696D01*
X0346628Y0360840D01*
X0346431Y0360980D01*
X0346230Y0361115D01*
X0346026Y0361245D01*
X0345820Y0361370D01*
X0345610Y0361490D01*
X0345397Y0361605D01*
X0345182Y0361714D01*
X0344964Y0361819D01*
X0344744Y0361918D01*
X0344521Y0362012D01*
X0344296Y0362100D01*
X0344069Y0362183D01*
X0343840Y0362261D01*
X0343609Y0362332D01*
X0343377Y0362399D01*
X0343143Y0362459D01*
X0342908Y0362514D01*
X0342671Y0362564D01*
X0342434Y0362607D01*
X0342195Y0362645D01*
X0341955Y0362677D01*
X0341715Y0362703D01*
X0341474Y0362724D01*
X0341233Y0362738D01*
X0340992Y0362747D01*
X0340750Y0362750D01*
X0230750Y0362750D01*
X0225750Y0357750D01*
X0200750Y0357750D01*
X0188750Y0352750D02*
X0188750Y0262750D01*
X0190750Y0267750D02*
X0190750Y0347750D01*
X0190753Y0347992D01*
X0190762Y0348233D01*
X0190776Y0348474D01*
X0190797Y0348715D01*
X0190823Y0348955D01*
X0190855Y0349195D01*
X0190893Y0349434D01*
X0190936Y0349671D01*
X0190986Y0349908D01*
X0191041Y0350143D01*
X0191101Y0350377D01*
X0191168Y0350609D01*
X0191239Y0350840D01*
X0191317Y0351069D01*
X0191400Y0351296D01*
X0191488Y0351521D01*
X0191582Y0351744D01*
X0191681Y0351964D01*
X0191786Y0352182D01*
X0191895Y0352397D01*
X0192010Y0352610D01*
X0192130Y0352820D01*
X0192255Y0353026D01*
X0192385Y0353230D01*
X0192520Y0353431D01*
X0192660Y0353628D01*
X0192804Y0353822D01*
X0192953Y0354012D01*
X0193107Y0354198D01*
X0193265Y0354381D01*
X0193427Y0354560D01*
X0193594Y0354735D01*
X0193765Y0354906D01*
X0193940Y0355073D01*
X0194119Y0355235D01*
X0194302Y0355393D01*
X0194488Y0355547D01*
X0194678Y0355696D01*
X0194872Y0355840D01*
X0195069Y0355980D01*
X0195270Y0356115D01*
X0195474Y0356245D01*
X0195680Y0356370D01*
X0195890Y0356490D01*
X0196103Y0356605D01*
X0196318Y0356714D01*
X0196536Y0356819D01*
X0196756Y0356918D01*
X0196979Y0357012D01*
X0197204Y0357100D01*
X0197431Y0357183D01*
X0197660Y0357261D01*
X0197891Y0357332D01*
X0198123Y0357399D01*
X0198357Y0357459D01*
X0198592Y0357514D01*
X0198829Y0357564D01*
X0199066Y0357607D01*
X0199305Y0357645D01*
X0199545Y0357677D01*
X0199785Y0357703D01*
X0200026Y0357724D01*
X0200267Y0357738D01*
X0200508Y0357747D01*
X0200750Y0357750D01*
X0188750Y0352750D02*
X0188747Y0352992D01*
X0188738Y0353233D01*
X0188724Y0353474D01*
X0188703Y0353715D01*
X0188677Y0353955D01*
X0188645Y0354195D01*
X0188607Y0354434D01*
X0188564Y0354671D01*
X0188514Y0354908D01*
X0188459Y0355143D01*
X0188399Y0355377D01*
X0188332Y0355609D01*
X0188261Y0355840D01*
X0188183Y0356069D01*
X0188100Y0356296D01*
X0188012Y0356521D01*
X0187918Y0356744D01*
X0187819Y0356964D01*
X0187714Y0357182D01*
X0187605Y0357397D01*
X0187490Y0357610D01*
X0187370Y0357820D01*
X0187245Y0358026D01*
X0187115Y0358230D01*
X0186980Y0358431D01*
X0186840Y0358628D01*
X0186696Y0358822D01*
X0186547Y0359012D01*
X0186393Y0359198D01*
X0186235Y0359381D01*
X0186073Y0359560D01*
X0185906Y0359735D01*
X0185735Y0359906D01*
X0185560Y0360073D01*
X0185381Y0360235D01*
X0185198Y0360393D01*
X0185012Y0360547D01*
X0184822Y0360696D01*
X0184628Y0360840D01*
X0184431Y0360980D01*
X0184230Y0361115D01*
X0184026Y0361245D01*
X0183820Y0361370D01*
X0183610Y0361490D01*
X0183397Y0361605D01*
X0183182Y0361714D01*
X0182964Y0361819D01*
X0182744Y0361918D01*
X0182521Y0362012D01*
X0182296Y0362100D01*
X0182069Y0362183D01*
X0181840Y0362261D01*
X0181609Y0362332D01*
X0181377Y0362399D01*
X0181143Y0362459D01*
X0180908Y0362514D01*
X0180671Y0362564D01*
X0180434Y0362607D01*
X0180195Y0362645D01*
X0179955Y0362677D01*
X0179715Y0362703D01*
X0179474Y0362724D01*
X0179233Y0362738D01*
X0178992Y0362747D01*
X0178750Y0362750D01*
X0068750Y0362750D01*
X0063750Y0357750D01*
X0038750Y0357750D01*
X0038508Y0357747D01*
X0038267Y0357738D01*
X0038026Y0357724D01*
X0037785Y0357703D01*
X0037545Y0357677D01*
X0037305Y0357645D01*
X0037066Y0357607D01*
X0036829Y0357564D01*
X0036592Y0357514D01*
X0036357Y0357459D01*
X0036123Y0357399D01*
X0035891Y0357332D01*
X0035660Y0357261D01*
X0035431Y0357183D01*
X0035204Y0357100D01*
X0034979Y0357012D01*
X0034756Y0356918D01*
X0034536Y0356819D01*
X0034318Y0356714D01*
X0034103Y0356605D01*
X0033890Y0356490D01*
X0033680Y0356370D01*
X0033474Y0356245D01*
X0033270Y0356115D01*
X0033069Y0355980D01*
X0032872Y0355840D01*
X0032678Y0355696D01*
X0032488Y0355547D01*
X0032302Y0355393D01*
X0032119Y0355235D01*
X0031940Y0355073D01*
X0031765Y0354906D01*
X0031594Y0354735D01*
X0031427Y0354560D01*
X0031265Y0354381D01*
X0031107Y0354198D01*
X0030953Y0354012D01*
X0030804Y0353822D01*
X0030660Y0353628D01*
X0030520Y0353431D01*
X0030385Y0353230D01*
X0030255Y0353026D01*
X0030130Y0352820D01*
X0030010Y0352610D01*
X0029895Y0352397D01*
X0029786Y0352182D01*
X0029681Y0351964D01*
X0029582Y0351744D01*
X0029488Y0351521D01*
X0029400Y0351296D01*
X0029317Y0351069D01*
X0029239Y0350840D01*
X0029168Y0350609D01*
X0029101Y0350377D01*
X0029041Y0350143D01*
X0028986Y0349908D01*
X0028936Y0349671D01*
X0028893Y0349434D01*
X0028855Y0349195D01*
X0028823Y0348955D01*
X0028797Y0348715D01*
X0028776Y0348474D01*
X0028762Y0348233D01*
X0028753Y0347992D01*
X0028750Y0347750D01*
X0028750Y0267750D01*
X0028753Y0267508D01*
X0028762Y0267267D01*
X0028776Y0267026D01*
X0028797Y0266785D01*
X0028823Y0266545D01*
X0028855Y0266305D01*
X0028893Y0266066D01*
X0028936Y0265829D01*
X0028986Y0265592D01*
X0029041Y0265357D01*
X0029101Y0265123D01*
X0029168Y0264891D01*
X0029239Y0264660D01*
X0029317Y0264431D01*
X0029400Y0264204D01*
X0029488Y0263979D01*
X0029582Y0263756D01*
X0029681Y0263536D01*
X0029786Y0263318D01*
X0029895Y0263103D01*
X0030010Y0262890D01*
X0030130Y0262680D01*
X0030255Y0262474D01*
X0030385Y0262270D01*
X0030520Y0262069D01*
X0030660Y0261872D01*
X0030804Y0261678D01*
X0030953Y0261488D01*
X0031107Y0261302D01*
X0031265Y0261119D01*
X0031427Y0260940D01*
X0031594Y0260765D01*
X0031765Y0260594D01*
X0031940Y0260427D01*
X0032119Y0260265D01*
X0032302Y0260107D01*
X0032488Y0259953D01*
X0032678Y0259804D01*
X0032872Y0259660D01*
X0033069Y0259520D01*
X0033270Y0259385D01*
X0033474Y0259255D01*
X0033680Y0259130D01*
X0033890Y0259010D01*
X0034103Y0258895D01*
X0034318Y0258786D01*
X0034536Y0258681D01*
X0034756Y0258582D01*
X0034979Y0258488D01*
X0035204Y0258400D01*
X0035431Y0258317D01*
X0035660Y0258239D01*
X0035891Y0258168D01*
X0036123Y0258101D01*
X0036357Y0258041D01*
X0036592Y0257986D01*
X0036829Y0257936D01*
X0037066Y0257893D01*
X0037305Y0257855D01*
X0037545Y0257823D01*
X0037785Y0257797D01*
X0038026Y0257776D01*
X0038267Y0257762D01*
X0038508Y0257753D01*
X0038750Y0257750D01*
X0063750Y0257750D01*
X0068750Y0252750D01*
X0178750Y0252750D01*
X0178750Y0250750D02*
X0068750Y0250750D01*
X0063750Y0245750D01*
X0038750Y0245750D01*
X0038508Y0245747D01*
X0038267Y0245738D01*
X0038026Y0245724D01*
X0037785Y0245703D01*
X0037545Y0245677D01*
X0037305Y0245645D01*
X0037066Y0245607D01*
X0036829Y0245564D01*
X0036592Y0245514D01*
X0036357Y0245459D01*
X0036123Y0245399D01*
X0035891Y0245332D01*
X0035660Y0245261D01*
X0035431Y0245183D01*
X0035204Y0245100D01*
X0034979Y0245012D01*
X0034756Y0244918D01*
X0034536Y0244819D01*
X0034318Y0244714D01*
X0034103Y0244605D01*
X0033890Y0244490D01*
X0033680Y0244370D01*
X0033474Y0244245D01*
X0033270Y0244115D01*
X0033069Y0243980D01*
X0032872Y0243840D01*
X0032678Y0243696D01*
X0032488Y0243547D01*
X0032302Y0243393D01*
X0032119Y0243235D01*
X0031940Y0243073D01*
X0031765Y0242906D01*
X0031594Y0242735D01*
X0031427Y0242560D01*
X0031265Y0242381D01*
X0031107Y0242198D01*
X0030953Y0242012D01*
X0030804Y0241822D01*
X0030660Y0241628D01*
X0030520Y0241431D01*
X0030385Y0241230D01*
X0030255Y0241026D01*
X0030130Y0240820D01*
X0030010Y0240610D01*
X0029895Y0240397D01*
X0029786Y0240182D01*
X0029681Y0239964D01*
X0029582Y0239744D01*
X0029488Y0239521D01*
X0029400Y0239296D01*
X0029317Y0239069D01*
X0029239Y0238840D01*
X0029168Y0238609D01*
X0029101Y0238377D01*
X0029041Y0238143D01*
X0028986Y0237908D01*
X0028936Y0237671D01*
X0028893Y0237434D01*
X0028855Y0237195D01*
X0028823Y0236955D01*
X0028797Y0236715D01*
X0028776Y0236474D01*
X0028762Y0236233D01*
X0028753Y0235992D01*
X0028750Y0235750D01*
X0028750Y0155750D01*
X0028753Y0155508D01*
X0028762Y0155267D01*
X0028776Y0155026D01*
X0028797Y0154785D01*
X0028823Y0154545D01*
X0028855Y0154305D01*
X0028893Y0154066D01*
X0028936Y0153829D01*
X0028986Y0153592D01*
X0029041Y0153357D01*
X0029101Y0153123D01*
X0029168Y0152891D01*
X0029239Y0152660D01*
X0029317Y0152431D01*
X0029400Y0152204D01*
X0029488Y0151979D01*
X0029582Y0151756D01*
X0029681Y0151536D01*
X0029786Y0151318D01*
X0029895Y0151103D01*
X0030010Y0150890D01*
X0030130Y0150680D01*
X0030255Y0150474D01*
X0030385Y0150270D01*
X0030520Y0150069D01*
X0030660Y0149872D01*
X0030804Y0149678D01*
X0030953Y0149488D01*
X0031107Y0149302D01*
X0031265Y0149119D01*
X0031427Y0148940D01*
X0031594Y0148765D01*
X0031765Y0148594D01*
X0031940Y0148427D01*
X0032119Y0148265D01*
X0032302Y0148107D01*
X0032488Y0147953D01*
X0032678Y0147804D01*
X0032872Y0147660D01*
X0033069Y0147520D01*
X0033270Y0147385D01*
X0033474Y0147255D01*
X0033680Y0147130D01*
X0033890Y0147010D01*
X0034103Y0146895D01*
X0034318Y0146786D01*
X0034536Y0146681D01*
X0034756Y0146582D01*
X0034979Y0146488D01*
X0035204Y0146400D01*
X0035431Y0146317D01*
X0035660Y0146239D01*
X0035891Y0146168D01*
X0036123Y0146101D01*
X0036357Y0146041D01*
X0036592Y0145986D01*
X0036829Y0145936D01*
X0037066Y0145893D01*
X0037305Y0145855D01*
X0037545Y0145823D01*
X0037785Y0145797D01*
X0038026Y0145776D01*
X0038267Y0145762D01*
X0038508Y0145753D01*
X0038750Y0145750D01*
X0063750Y0145750D01*
X0068750Y0140750D01*
X0178750Y0140750D01*
X0178750Y0138750D02*
X0068750Y0138750D01*
X0063750Y0133750D01*
X0038750Y0133750D01*
X0038508Y0133747D01*
X0038267Y0133738D01*
X0038026Y0133724D01*
X0037785Y0133703D01*
X0037545Y0133677D01*
X0037305Y0133645D01*
X0037066Y0133607D01*
X0036829Y0133564D01*
X0036592Y0133514D01*
X0036357Y0133459D01*
X0036123Y0133399D01*
X0035891Y0133332D01*
X0035660Y0133261D01*
X0035431Y0133183D01*
X0035204Y0133100D01*
X0034979Y0133012D01*
X0034756Y0132918D01*
X0034536Y0132819D01*
X0034318Y0132714D01*
X0034103Y0132605D01*
X0033890Y0132490D01*
X0033680Y0132370D01*
X0033474Y0132245D01*
X0033270Y0132115D01*
X0033069Y0131980D01*
X0032872Y0131840D01*
X0032678Y0131696D01*
X0032488Y0131547D01*
X0032302Y0131393D01*
X0032119Y0131235D01*
X0031940Y0131073D01*
X0031765Y0130906D01*
X0031594Y0130735D01*
X0031427Y0130560D01*
X0031265Y0130381D01*
X0031107Y0130198D01*
X0030953Y0130012D01*
X0030804Y0129822D01*
X0030660Y0129628D01*
X0030520Y0129431D01*
X0030385Y0129230D01*
X0030255Y0129026D01*
X0030130Y0128820D01*
X0030010Y0128610D01*
X0029895Y0128397D01*
X0029786Y0128182D01*
X0029681Y0127964D01*
X0029582Y0127744D01*
X0029488Y0127521D01*
X0029400Y0127296D01*
X0029317Y0127069D01*
X0029239Y0126840D01*
X0029168Y0126609D01*
X0029101Y0126377D01*
X0029041Y0126143D01*
X0028986Y0125908D01*
X0028936Y0125671D01*
X0028893Y0125434D01*
X0028855Y0125195D01*
X0028823Y0124955D01*
X0028797Y0124715D01*
X0028776Y0124474D01*
X0028762Y0124233D01*
X0028753Y0123992D01*
X0028750Y0123750D01*
X0028750Y0043750D01*
X0028753Y0043508D01*
X0028762Y0043267D01*
X0028776Y0043026D01*
X0028797Y0042785D01*
X0028823Y0042545D01*
X0028855Y0042305D01*
X0028893Y0042066D01*
X0028936Y0041829D01*
X0028986Y0041592D01*
X0029041Y0041357D01*
X0029101Y0041123D01*
X0029168Y0040891D01*
X0029239Y0040660D01*
X0029317Y0040431D01*
X0029400Y0040204D01*
X0029488Y0039979D01*
X0029582Y0039756D01*
X0029681Y0039536D01*
X0029786Y0039318D01*
X0029895Y0039103D01*
X0030010Y0038890D01*
X0030130Y0038680D01*
X0030255Y0038474D01*
X0030385Y0038270D01*
X0030520Y0038069D01*
X0030660Y0037872D01*
X0030804Y0037678D01*
X0030953Y0037488D01*
X0031107Y0037302D01*
X0031265Y0037119D01*
X0031427Y0036940D01*
X0031594Y0036765D01*
X0031765Y0036594D01*
X0031940Y0036427D01*
X0032119Y0036265D01*
X0032302Y0036107D01*
X0032488Y0035953D01*
X0032678Y0035804D01*
X0032872Y0035660D01*
X0033069Y0035520D01*
X0033270Y0035385D01*
X0033474Y0035255D01*
X0033680Y0035130D01*
X0033890Y0035010D01*
X0034103Y0034895D01*
X0034318Y0034786D01*
X0034536Y0034681D01*
X0034756Y0034582D01*
X0034979Y0034488D01*
X0035204Y0034400D01*
X0035431Y0034317D01*
X0035660Y0034239D01*
X0035891Y0034168D01*
X0036123Y0034101D01*
X0036357Y0034041D01*
X0036592Y0033986D01*
X0036829Y0033936D01*
X0037066Y0033893D01*
X0037305Y0033855D01*
X0037545Y0033823D01*
X0037785Y0033797D01*
X0038026Y0033776D01*
X0038267Y0033762D01*
X0038508Y0033753D01*
X0038750Y0033750D01*
X0178750Y0138750D02*
X0178992Y0138747D01*
X0179233Y0138738D01*
X0179474Y0138724D01*
X0179715Y0138703D01*
X0179955Y0138677D01*
X0180195Y0138645D01*
X0180434Y0138607D01*
X0180671Y0138564D01*
X0180908Y0138514D01*
X0181143Y0138459D01*
X0181377Y0138399D01*
X0181609Y0138332D01*
X0181840Y0138261D01*
X0182069Y0138183D01*
X0182296Y0138100D01*
X0182521Y0138012D01*
X0182744Y0137918D01*
X0182964Y0137819D01*
X0183182Y0137714D01*
X0183397Y0137605D01*
X0183610Y0137490D01*
X0183820Y0137370D01*
X0184026Y0137245D01*
X0184230Y0137115D01*
X0184431Y0136980D01*
X0184628Y0136840D01*
X0184822Y0136696D01*
X0185012Y0136547D01*
X0185198Y0136393D01*
X0185381Y0136235D01*
X0185560Y0136073D01*
X0185735Y0135906D01*
X0185906Y0135735D01*
X0186073Y0135560D01*
X0186235Y0135381D01*
X0186393Y0135198D01*
X0186547Y0135012D01*
X0186696Y0134822D01*
X0186840Y0134628D01*
X0186980Y0134431D01*
X0187115Y0134230D01*
X0187245Y0134026D01*
X0187370Y0133820D01*
X0187490Y0133610D01*
X0187605Y0133397D01*
X0187714Y0133182D01*
X0187819Y0132964D01*
X0187918Y0132744D01*
X0188012Y0132521D01*
X0188100Y0132296D01*
X0188183Y0132069D01*
X0188261Y0131840D01*
X0188332Y0131609D01*
X0188399Y0131377D01*
X0188459Y0131143D01*
X0188514Y0130908D01*
X0188564Y0130671D01*
X0188607Y0130434D01*
X0188645Y0130195D01*
X0188677Y0129955D01*
X0188703Y0129715D01*
X0188724Y0129474D01*
X0188738Y0129233D01*
X0188747Y0128992D01*
X0188750Y0128750D01*
X0190750Y0123750D02*
X0190753Y0123992D01*
X0190762Y0124233D01*
X0190776Y0124474D01*
X0190797Y0124715D01*
X0190823Y0124955D01*
X0190855Y0125195D01*
X0190893Y0125434D01*
X0190936Y0125671D01*
X0190986Y0125908D01*
X0191041Y0126143D01*
X0191101Y0126377D01*
X0191168Y0126609D01*
X0191239Y0126840D01*
X0191317Y0127069D01*
X0191400Y0127296D01*
X0191488Y0127521D01*
X0191582Y0127744D01*
X0191681Y0127964D01*
X0191786Y0128182D01*
X0191895Y0128397D01*
X0192010Y0128610D01*
X0192130Y0128820D01*
X0192255Y0129026D01*
X0192385Y0129230D01*
X0192520Y0129431D01*
X0192660Y0129628D01*
X0192804Y0129822D01*
X0192953Y0130012D01*
X0193107Y0130198D01*
X0193265Y0130381D01*
X0193427Y0130560D01*
X0193594Y0130735D01*
X0193765Y0130906D01*
X0193940Y0131073D01*
X0194119Y0131235D01*
X0194302Y0131393D01*
X0194488Y0131547D01*
X0194678Y0131696D01*
X0194872Y0131840D01*
X0195069Y0131980D01*
X0195270Y0132115D01*
X0195474Y0132245D01*
X0195680Y0132370D01*
X0195890Y0132490D01*
X0196103Y0132605D01*
X0196318Y0132714D01*
X0196536Y0132819D01*
X0196756Y0132918D01*
X0196979Y0133012D01*
X0197204Y0133100D01*
X0197431Y0133183D01*
X0197660Y0133261D01*
X0197891Y0133332D01*
X0198123Y0133399D01*
X0198357Y0133459D01*
X0198592Y0133514D01*
X0198829Y0133564D01*
X0199066Y0133607D01*
X0199305Y0133645D01*
X0199545Y0133677D01*
X0199785Y0133703D01*
X0200026Y0133724D01*
X0200267Y0133738D01*
X0200508Y0133747D01*
X0200750Y0133750D01*
X0188750Y0150750D02*
X0188750Y0240750D01*
X0190750Y0235750D02*
X0190750Y0155750D01*
X0190753Y0155508D01*
X0190762Y0155267D01*
X0190776Y0155026D01*
X0190797Y0154785D01*
X0190823Y0154545D01*
X0190855Y0154305D01*
X0190893Y0154066D01*
X0190936Y0153829D01*
X0190986Y0153592D01*
X0191041Y0153357D01*
X0191101Y0153123D01*
X0191168Y0152891D01*
X0191239Y0152660D01*
X0191317Y0152431D01*
X0191400Y0152204D01*
X0191488Y0151979D01*
X0191582Y0151756D01*
X0191681Y0151536D01*
X0191786Y0151318D01*
X0191895Y0151103D01*
X0192010Y0150890D01*
X0192130Y0150680D01*
X0192255Y0150474D01*
X0192385Y0150270D01*
X0192520Y0150069D01*
X0192660Y0149872D01*
X0192804Y0149678D01*
X0192953Y0149488D01*
X0193107Y0149302D01*
X0193265Y0149119D01*
X0193427Y0148940D01*
X0193594Y0148765D01*
X0193765Y0148594D01*
X0193940Y0148427D01*
X0194119Y0148265D01*
X0194302Y0148107D01*
X0194488Y0147953D01*
X0194678Y0147804D01*
X0194872Y0147660D01*
X0195069Y0147520D01*
X0195270Y0147385D01*
X0195474Y0147255D01*
X0195680Y0147130D01*
X0195890Y0147010D01*
X0196103Y0146895D01*
X0196318Y0146786D01*
X0196536Y0146681D01*
X0196756Y0146582D01*
X0196979Y0146488D01*
X0197204Y0146400D01*
X0197431Y0146317D01*
X0197660Y0146239D01*
X0197891Y0146168D01*
X0198123Y0146101D01*
X0198357Y0146041D01*
X0198592Y0145986D01*
X0198829Y0145936D01*
X0199066Y0145893D01*
X0199305Y0145855D01*
X0199545Y0145823D01*
X0199785Y0145797D01*
X0200026Y0145776D01*
X0200267Y0145762D01*
X0200508Y0145753D01*
X0200750Y0145750D01*
X0188750Y0150750D02*
X0188747Y0150508D01*
X0188738Y0150267D01*
X0188724Y0150026D01*
X0188703Y0149785D01*
X0188677Y0149545D01*
X0188645Y0149305D01*
X0188607Y0149066D01*
X0188564Y0148829D01*
X0188514Y0148592D01*
X0188459Y0148357D01*
X0188399Y0148123D01*
X0188332Y0147891D01*
X0188261Y0147660D01*
X0188183Y0147431D01*
X0188100Y0147204D01*
X0188012Y0146979D01*
X0187918Y0146756D01*
X0187819Y0146536D01*
X0187714Y0146318D01*
X0187605Y0146103D01*
X0187490Y0145890D01*
X0187370Y0145680D01*
X0187245Y0145474D01*
X0187115Y0145270D01*
X0186980Y0145069D01*
X0186840Y0144872D01*
X0186696Y0144678D01*
X0186547Y0144488D01*
X0186393Y0144302D01*
X0186235Y0144119D01*
X0186073Y0143940D01*
X0185906Y0143765D01*
X0185735Y0143594D01*
X0185560Y0143427D01*
X0185381Y0143265D01*
X0185198Y0143107D01*
X0185012Y0142953D01*
X0184822Y0142804D01*
X0184628Y0142660D01*
X0184431Y0142520D01*
X0184230Y0142385D01*
X0184026Y0142255D01*
X0183820Y0142130D01*
X0183610Y0142010D01*
X0183397Y0141895D01*
X0183182Y0141786D01*
X0182964Y0141681D01*
X0182744Y0141582D01*
X0182521Y0141488D01*
X0182296Y0141400D01*
X0182069Y0141317D01*
X0181840Y0141239D01*
X0181609Y0141168D01*
X0181377Y0141101D01*
X0181143Y0141041D01*
X0180908Y0140986D01*
X0180671Y0140936D01*
X0180434Y0140893D01*
X0180195Y0140855D01*
X0179955Y0140823D01*
X0179715Y0140797D01*
X0179474Y0140776D01*
X0179233Y0140762D01*
X0178992Y0140753D01*
X0178750Y0140750D01*
X0190750Y0235750D02*
X0190753Y0235992D01*
X0190762Y0236233D01*
X0190776Y0236474D01*
X0190797Y0236715D01*
X0190823Y0236955D01*
X0190855Y0237195D01*
X0190893Y0237434D01*
X0190936Y0237671D01*
X0190986Y0237908D01*
X0191041Y0238143D01*
X0191101Y0238377D01*
X0191168Y0238609D01*
X0191239Y0238840D01*
X0191317Y0239069D01*
X0191400Y0239296D01*
X0191488Y0239521D01*
X0191582Y0239744D01*
X0191681Y0239964D01*
X0191786Y0240182D01*
X0191895Y0240397D01*
X0192010Y0240610D01*
X0192130Y0240820D01*
X0192255Y0241026D01*
X0192385Y0241230D01*
X0192520Y0241431D01*
X0192660Y0241628D01*
X0192804Y0241822D01*
X0192953Y0242012D01*
X0193107Y0242198D01*
X0193265Y0242381D01*
X0193427Y0242560D01*
X0193594Y0242735D01*
X0193765Y0242906D01*
X0193940Y0243073D01*
X0194119Y0243235D01*
X0194302Y0243393D01*
X0194488Y0243547D01*
X0194678Y0243696D01*
X0194872Y0243840D01*
X0195069Y0243980D01*
X0195270Y0244115D01*
X0195474Y0244245D01*
X0195680Y0244370D01*
X0195890Y0244490D01*
X0196103Y0244605D01*
X0196318Y0244714D01*
X0196536Y0244819D01*
X0196756Y0244918D01*
X0196979Y0245012D01*
X0197204Y0245100D01*
X0197431Y0245183D01*
X0197660Y0245261D01*
X0197891Y0245332D01*
X0198123Y0245399D01*
X0198357Y0245459D01*
X0198592Y0245514D01*
X0198829Y0245564D01*
X0199066Y0245607D01*
X0199305Y0245645D01*
X0199545Y0245677D01*
X0199785Y0245703D01*
X0200026Y0245724D01*
X0200267Y0245738D01*
X0200508Y0245747D01*
X0200750Y0245750D01*
X0188750Y0240750D02*
X0188747Y0240992D01*
X0188738Y0241233D01*
X0188724Y0241474D01*
X0188703Y0241715D01*
X0188677Y0241955D01*
X0188645Y0242195D01*
X0188607Y0242434D01*
X0188564Y0242671D01*
X0188514Y0242908D01*
X0188459Y0243143D01*
X0188399Y0243377D01*
X0188332Y0243609D01*
X0188261Y0243840D01*
X0188183Y0244069D01*
X0188100Y0244296D01*
X0188012Y0244521D01*
X0187918Y0244744D01*
X0187819Y0244964D01*
X0187714Y0245182D01*
X0187605Y0245397D01*
X0187490Y0245610D01*
X0187370Y0245820D01*
X0187245Y0246026D01*
X0187115Y0246230D01*
X0186980Y0246431D01*
X0186840Y0246628D01*
X0186696Y0246822D01*
X0186547Y0247012D01*
X0186393Y0247198D01*
X0186235Y0247381D01*
X0186073Y0247560D01*
X0185906Y0247735D01*
X0185735Y0247906D01*
X0185560Y0248073D01*
X0185381Y0248235D01*
X0185198Y0248393D01*
X0185012Y0248547D01*
X0184822Y0248696D01*
X0184628Y0248840D01*
X0184431Y0248980D01*
X0184230Y0249115D01*
X0184026Y0249245D01*
X0183820Y0249370D01*
X0183610Y0249490D01*
X0183397Y0249605D01*
X0183182Y0249714D01*
X0182964Y0249819D01*
X0182744Y0249918D01*
X0182521Y0250012D01*
X0182296Y0250100D01*
X0182069Y0250183D01*
X0181840Y0250261D01*
X0181609Y0250332D01*
X0181377Y0250399D01*
X0181143Y0250459D01*
X0180908Y0250514D01*
X0180671Y0250564D01*
X0180434Y0250607D01*
X0180195Y0250645D01*
X0179955Y0250677D01*
X0179715Y0250703D01*
X0179474Y0250724D01*
X0179233Y0250738D01*
X0178992Y0250747D01*
X0178750Y0250750D01*
X0178750Y0252750D02*
X0178992Y0252753D01*
X0179233Y0252762D01*
X0179474Y0252776D01*
X0179715Y0252797D01*
X0179955Y0252823D01*
X0180195Y0252855D01*
X0180434Y0252893D01*
X0180671Y0252936D01*
X0180908Y0252986D01*
X0181143Y0253041D01*
X0181377Y0253101D01*
X0181609Y0253168D01*
X0181840Y0253239D01*
X0182069Y0253317D01*
X0182296Y0253400D01*
X0182521Y0253488D01*
X0182744Y0253582D01*
X0182964Y0253681D01*
X0183182Y0253786D01*
X0183397Y0253895D01*
X0183610Y0254010D01*
X0183820Y0254130D01*
X0184026Y0254255D01*
X0184230Y0254385D01*
X0184431Y0254520D01*
X0184628Y0254660D01*
X0184822Y0254804D01*
X0185012Y0254953D01*
X0185198Y0255107D01*
X0185381Y0255265D01*
X0185560Y0255427D01*
X0185735Y0255594D01*
X0185906Y0255765D01*
X0186073Y0255940D01*
X0186235Y0256119D01*
X0186393Y0256302D01*
X0186547Y0256488D01*
X0186696Y0256678D01*
X0186840Y0256872D01*
X0186980Y0257069D01*
X0187115Y0257270D01*
X0187245Y0257474D01*
X0187370Y0257680D01*
X0187490Y0257890D01*
X0187605Y0258103D01*
X0187714Y0258318D01*
X0187819Y0258536D01*
X0187918Y0258756D01*
X0188012Y0258979D01*
X0188100Y0259204D01*
X0188183Y0259431D01*
X0188261Y0259660D01*
X0188332Y0259891D01*
X0188399Y0260123D01*
X0188459Y0260357D01*
X0188514Y0260592D01*
X0188564Y0260829D01*
X0188607Y0261066D01*
X0188645Y0261305D01*
X0188677Y0261545D01*
X0188703Y0261785D01*
X0188724Y0262026D01*
X0188738Y0262267D01*
X0188747Y0262508D01*
X0188750Y0262750D01*
X0190750Y0267750D02*
X0190753Y0267508D01*
X0190762Y0267267D01*
X0190776Y0267026D01*
X0190797Y0266785D01*
X0190823Y0266545D01*
X0190855Y0266305D01*
X0190893Y0266066D01*
X0190936Y0265829D01*
X0190986Y0265592D01*
X0191041Y0265357D01*
X0191101Y0265123D01*
X0191168Y0264891D01*
X0191239Y0264660D01*
X0191317Y0264431D01*
X0191400Y0264204D01*
X0191488Y0263979D01*
X0191582Y0263756D01*
X0191681Y0263536D01*
X0191786Y0263318D01*
X0191895Y0263103D01*
X0192010Y0262890D01*
X0192130Y0262680D01*
X0192255Y0262474D01*
X0192385Y0262270D01*
X0192520Y0262069D01*
X0192660Y0261872D01*
X0192804Y0261678D01*
X0192953Y0261488D01*
X0193107Y0261302D01*
X0193265Y0261119D01*
X0193427Y0260940D01*
X0193594Y0260765D01*
X0193765Y0260594D01*
X0193940Y0260427D01*
X0194119Y0260265D01*
X0194302Y0260107D01*
X0194488Y0259953D01*
X0194678Y0259804D01*
X0194872Y0259660D01*
X0195069Y0259520D01*
X0195270Y0259385D01*
X0195474Y0259255D01*
X0195680Y0259130D01*
X0195890Y0259010D01*
X0196103Y0258895D01*
X0196318Y0258786D01*
X0196536Y0258681D01*
X0196756Y0258582D01*
X0196979Y0258488D01*
X0197204Y0258400D01*
X0197431Y0258317D01*
X0197660Y0258239D01*
X0197891Y0258168D01*
X0198123Y0258101D01*
X0198357Y0258041D01*
X0198592Y0257986D01*
X0198829Y0257936D01*
X0199066Y0257893D01*
X0199305Y0257855D01*
X0199545Y0257823D01*
X0199785Y0257797D01*
X0200026Y0257776D01*
X0200267Y0257762D01*
X0200508Y0257753D01*
X0200750Y0257750D01*
D11*
X0208072Y0262750D02*
X0208074Y0262834D01*
X0208080Y0262917D01*
X0208090Y0263000D01*
X0208104Y0263083D01*
X0208121Y0263165D01*
X0208143Y0263246D01*
X0208168Y0263325D01*
X0208197Y0263404D01*
X0208230Y0263481D01*
X0208266Y0263556D01*
X0208306Y0263630D01*
X0208349Y0263702D01*
X0208396Y0263771D01*
X0208446Y0263838D01*
X0208499Y0263903D01*
X0208555Y0263965D01*
X0208613Y0264025D01*
X0208675Y0264082D01*
X0208739Y0264135D01*
X0208806Y0264186D01*
X0208875Y0264233D01*
X0208946Y0264278D01*
X0209019Y0264318D01*
X0209094Y0264355D01*
X0209171Y0264389D01*
X0209249Y0264419D01*
X0209328Y0264445D01*
X0209409Y0264468D01*
X0209491Y0264486D01*
X0209573Y0264501D01*
X0209656Y0264512D01*
X0209739Y0264519D01*
X0209823Y0264522D01*
X0209907Y0264521D01*
X0209990Y0264516D01*
X0210074Y0264507D01*
X0210156Y0264494D01*
X0210238Y0264478D01*
X0210319Y0264457D01*
X0210400Y0264433D01*
X0210478Y0264405D01*
X0210556Y0264373D01*
X0210632Y0264337D01*
X0210706Y0264298D01*
X0210778Y0264256D01*
X0210848Y0264210D01*
X0210916Y0264161D01*
X0210981Y0264109D01*
X0211044Y0264054D01*
X0211104Y0263996D01*
X0211162Y0263935D01*
X0211216Y0263871D01*
X0211268Y0263805D01*
X0211316Y0263737D01*
X0211361Y0263666D01*
X0211402Y0263593D01*
X0211441Y0263519D01*
X0211475Y0263443D01*
X0211506Y0263365D01*
X0211533Y0263286D01*
X0211557Y0263205D01*
X0211576Y0263124D01*
X0211592Y0263042D01*
X0211604Y0262959D01*
X0211612Y0262875D01*
X0211616Y0262792D01*
X0211616Y0262708D01*
X0211612Y0262625D01*
X0211604Y0262541D01*
X0211592Y0262458D01*
X0211576Y0262376D01*
X0211557Y0262295D01*
X0211533Y0262214D01*
X0211506Y0262135D01*
X0211475Y0262057D01*
X0211441Y0261981D01*
X0211402Y0261907D01*
X0211361Y0261834D01*
X0211316Y0261763D01*
X0211268Y0261695D01*
X0211216Y0261629D01*
X0211162Y0261565D01*
X0211104Y0261504D01*
X0211044Y0261446D01*
X0210981Y0261391D01*
X0210916Y0261339D01*
X0210848Y0261290D01*
X0210778Y0261244D01*
X0210706Y0261202D01*
X0210632Y0261163D01*
X0210556Y0261127D01*
X0210478Y0261095D01*
X0210400Y0261067D01*
X0210319Y0261043D01*
X0210238Y0261022D01*
X0210156Y0261006D01*
X0210074Y0260993D01*
X0209990Y0260984D01*
X0209907Y0260979D01*
X0209823Y0260978D01*
X0209739Y0260981D01*
X0209656Y0260988D01*
X0209573Y0260999D01*
X0209491Y0261014D01*
X0209409Y0261032D01*
X0209328Y0261055D01*
X0209249Y0261081D01*
X0209171Y0261111D01*
X0209094Y0261145D01*
X0209019Y0261182D01*
X0208946Y0261222D01*
X0208875Y0261267D01*
X0208806Y0261314D01*
X0208739Y0261365D01*
X0208675Y0261418D01*
X0208613Y0261475D01*
X0208555Y0261535D01*
X0208499Y0261597D01*
X0208446Y0261662D01*
X0208396Y0261729D01*
X0208349Y0261798D01*
X0208306Y0261870D01*
X0208266Y0261944D01*
X0208230Y0262019D01*
X0208197Y0262096D01*
X0208168Y0262175D01*
X0208143Y0262254D01*
X0208121Y0262335D01*
X0208104Y0262417D01*
X0208090Y0262500D01*
X0208080Y0262583D01*
X0208074Y0262666D01*
X0208072Y0262750D01*
X0219884Y0262750D02*
X0219886Y0262834D01*
X0219892Y0262917D01*
X0219902Y0263000D01*
X0219916Y0263083D01*
X0219933Y0263165D01*
X0219955Y0263246D01*
X0219980Y0263325D01*
X0220009Y0263404D01*
X0220042Y0263481D01*
X0220078Y0263556D01*
X0220118Y0263630D01*
X0220161Y0263702D01*
X0220208Y0263771D01*
X0220258Y0263838D01*
X0220311Y0263903D01*
X0220367Y0263965D01*
X0220425Y0264025D01*
X0220487Y0264082D01*
X0220551Y0264135D01*
X0220618Y0264186D01*
X0220687Y0264233D01*
X0220758Y0264278D01*
X0220831Y0264318D01*
X0220906Y0264355D01*
X0220983Y0264389D01*
X0221061Y0264419D01*
X0221140Y0264445D01*
X0221221Y0264468D01*
X0221303Y0264486D01*
X0221385Y0264501D01*
X0221468Y0264512D01*
X0221551Y0264519D01*
X0221635Y0264522D01*
X0221719Y0264521D01*
X0221802Y0264516D01*
X0221886Y0264507D01*
X0221968Y0264494D01*
X0222050Y0264478D01*
X0222131Y0264457D01*
X0222212Y0264433D01*
X0222290Y0264405D01*
X0222368Y0264373D01*
X0222444Y0264337D01*
X0222518Y0264298D01*
X0222590Y0264256D01*
X0222660Y0264210D01*
X0222728Y0264161D01*
X0222793Y0264109D01*
X0222856Y0264054D01*
X0222916Y0263996D01*
X0222974Y0263935D01*
X0223028Y0263871D01*
X0223080Y0263805D01*
X0223128Y0263737D01*
X0223173Y0263666D01*
X0223214Y0263593D01*
X0223253Y0263519D01*
X0223287Y0263443D01*
X0223318Y0263365D01*
X0223345Y0263286D01*
X0223369Y0263205D01*
X0223388Y0263124D01*
X0223404Y0263042D01*
X0223416Y0262959D01*
X0223424Y0262875D01*
X0223428Y0262792D01*
X0223428Y0262708D01*
X0223424Y0262625D01*
X0223416Y0262541D01*
X0223404Y0262458D01*
X0223388Y0262376D01*
X0223369Y0262295D01*
X0223345Y0262214D01*
X0223318Y0262135D01*
X0223287Y0262057D01*
X0223253Y0261981D01*
X0223214Y0261907D01*
X0223173Y0261834D01*
X0223128Y0261763D01*
X0223080Y0261695D01*
X0223028Y0261629D01*
X0222974Y0261565D01*
X0222916Y0261504D01*
X0222856Y0261446D01*
X0222793Y0261391D01*
X0222728Y0261339D01*
X0222660Y0261290D01*
X0222590Y0261244D01*
X0222518Y0261202D01*
X0222444Y0261163D01*
X0222368Y0261127D01*
X0222290Y0261095D01*
X0222212Y0261067D01*
X0222131Y0261043D01*
X0222050Y0261022D01*
X0221968Y0261006D01*
X0221886Y0260993D01*
X0221802Y0260984D01*
X0221719Y0260979D01*
X0221635Y0260978D01*
X0221551Y0260981D01*
X0221468Y0260988D01*
X0221385Y0260999D01*
X0221303Y0261014D01*
X0221221Y0261032D01*
X0221140Y0261055D01*
X0221061Y0261081D01*
X0220983Y0261111D01*
X0220906Y0261145D01*
X0220831Y0261182D01*
X0220758Y0261222D01*
X0220687Y0261267D01*
X0220618Y0261314D01*
X0220551Y0261365D01*
X0220487Y0261418D01*
X0220425Y0261475D01*
X0220367Y0261535D01*
X0220311Y0261597D01*
X0220258Y0261662D01*
X0220208Y0261729D01*
X0220161Y0261798D01*
X0220118Y0261870D01*
X0220078Y0261944D01*
X0220042Y0262019D01*
X0220009Y0262096D01*
X0219980Y0262175D01*
X0219955Y0262254D01*
X0219933Y0262335D01*
X0219916Y0262417D01*
X0219902Y0262500D01*
X0219892Y0262583D01*
X0219886Y0262666D01*
X0219884Y0262750D01*
X0214372Y0244293D02*
X0214374Y0244367D01*
X0214380Y0244441D01*
X0214390Y0244514D01*
X0214404Y0244587D01*
X0214421Y0244659D01*
X0214443Y0244729D01*
X0214468Y0244799D01*
X0214497Y0244867D01*
X0214530Y0244933D01*
X0214566Y0244998D01*
X0214606Y0245060D01*
X0214648Y0245121D01*
X0214694Y0245179D01*
X0214743Y0245234D01*
X0214795Y0245287D01*
X0214850Y0245337D01*
X0214907Y0245383D01*
X0214967Y0245427D01*
X0215029Y0245467D01*
X0215093Y0245504D01*
X0215159Y0245538D01*
X0215227Y0245568D01*
X0215296Y0245594D01*
X0215367Y0245617D01*
X0215438Y0245635D01*
X0215511Y0245650D01*
X0215584Y0245661D01*
X0215658Y0245668D01*
X0215732Y0245671D01*
X0215805Y0245670D01*
X0215879Y0245665D01*
X0215953Y0245656D01*
X0216026Y0245643D01*
X0216098Y0245626D01*
X0216169Y0245606D01*
X0216239Y0245581D01*
X0216307Y0245553D01*
X0216374Y0245522D01*
X0216439Y0245486D01*
X0216502Y0245448D01*
X0216563Y0245406D01*
X0216622Y0245360D01*
X0216678Y0245312D01*
X0216731Y0245261D01*
X0216781Y0245207D01*
X0216829Y0245150D01*
X0216873Y0245091D01*
X0216915Y0245029D01*
X0216953Y0244966D01*
X0216987Y0244900D01*
X0217018Y0244833D01*
X0217045Y0244764D01*
X0217068Y0244694D01*
X0217088Y0244623D01*
X0217104Y0244550D01*
X0217116Y0244477D01*
X0217124Y0244404D01*
X0217128Y0244330D01*
X0217128Y0244256D01*
X0217124Y0244182D01*
X0217116Y0244109D01*
X0217104Y0244036D01*
X0217088Y0243963D01*
X0217068Y0243892D01*
X0217045Y0243822D01*
X0217018Y0243753D01*
X0216987Y0243686D01*
X0216953Y0243620D01*
X0216915Y0243557D01*
X0216873Y0243495D01*
X0216829Y0243436D01*
X0216781Y0243379D01*
X0216731Y0243325D01*
X0216678Y0243274D01*
X0216622Y0243226D01*
X0216563Y0243180D01*
X0216502Y0243138D01*
X0216439Y0243100D01*
X0216374Y0243064D01*
X0216307Y0243033D01*
X0216239Y0243005D01*
X0216169Y0242980D01*
X0216098Y0242960D01*
X0216026Y0242943D01*
X0215953Y0242930D01*
X0215879Y0242921D01*
X0215805Y0242916D01*
X0215732Y0242915D01*
X0215658Y0242918D01*
X0215584Y0242925D01*
X0215511Y0242936D01*
X0215438Y0242951D01*
X0215367Y0242969D01*
X0215296Y0242992D01*
X0215227Y0243018D01*
X0215159Y0243048D01*
X0215093Y0243082D01*
X0215029Y0243119D01*
X0214967Y0243159D01*
X0214907Y0243203D01*
X0214850Y0243249D01*
X0214795Y0243299D01*
X0214743Y0243352D01*
X0214694Y0243407D01*
X0214648Y0243465D01*
X0214606Y0243526D01*
X0214566Y0243588D01*
X0214530Y0243653D01*
X0214497Y0243719D01*
X0214468Y0243787D01*
X0214443Y0243857D01*
X0214421Y0243927D01*
X0214404Y0243999D01*
X0214390Y0244072D01*
X0214380Y0244145D01*
X0214374Y0244219D01*
X0214372Y0244293D01*
X0214372Y0237207D02*
X0214374Y0237281D01*
X0214380Y0237355D01*
X0214390Y0237428D01*
X0214404Y0237501D01*
X0214421Y0237573D01*
X0214443Y0237643D01*
X0214468Y0237713D01*
X0214497Y0237781D01*
X0214530Y0237847D01*
X0214566Y0237912D01*
X0214606Y0237974D01*
X0214648Y0238035D01*
X0214694Y0238093D01*
X0214743Y0238148D01*
X0214795Y0238201D01*
X0214850Y0238251D01*
X0214907Y0238297D01*
X0214967Y0238341D01*
X0215029Y0238381D01*
X0215093Y0238418D01*
X0215159Y0238452D01*
X0215227Y0238482D01*
X0215296Y0238508D01*
X0215367Y0238531D01*
X0215438Y0238549D01*
X0215511Y0238564D01*
X0215584Y0238575D01*
X0215658Y0238582D01*
X0215732Y0238585D01*
X0215805Y0238584D01*
X0215879Y0238579D01*
X0215953Y0238570D01*
X0216026Y0238557D01*
X0216098Y0238540D01*
X0216169Y0238520D01*
X0216239Y0238495D01*
X0216307Y0238467D01*
X0216374Y0238436D01*
X0216439Y0238400D01*
X0216502Y0238362D01*
X0216563Y0238320D01*
X0216622Y0238274D01*
X0216678Y0238226D01*
X0216731Y0238175D01*
X0216781Y0238121D01*
X0216829Y0238064D01*
X0216873Y0238005D01*
X0216915Y0237943D01*
X0216953Y0237880D01*
X0216987Y0237814D01*
X0217018Y0237747D01*
X0217045Y0237678D01*
X0217068Y0237608D01*
X0217088Y0237537D01*
X0217104Y0237464D01*
X0217116Y0237391D01*
X0217124Y0237318D01*
X0217128Y0237244D01*
X0217128Y0237170D01*
X0217124Y0237096D01*
X0217116Y0237023D01*
X0217104Y0236950D01*
X0217088Y0236877D01*
X0217068Y0236806D01*
X0217045Y0236736D01*
X0217018Y0236667D01*
X0216987Y0236600D01*
X0216953Y0236534D01*
X0216915Y0236471D01*
X0216873Y0236409D01*
X0216829Y0236350D01*
X0216781Y0236293D01*
X0216731Y0236239D01*
X0216678Y0236188D01*
X0216622Y0236140D01*
X0216563Y0236094D01*
X0216502Y0236052D01*
X0216439Y0236014D01*
X0216374Y0235978D01*
X0216307Y0235947D01*
X0216239Y0235919D01*
X0216169Y0235894D01*
X0216098Y0235874D01*
X0216026Y0235857D01*
X0215953Y0235844D01*
X0215879Y0235835D01*
X0215805Y0235830D01*
X0215732Y0235829D01*
X0215658Y0235832D01*
X0215584Y0235839D01*
X0215511Y0235850D01*
X0215438Y0235865D01*
X0215367Y0235883D01*
X0215296Y0235906D01*
X0215227Y0235932D01*
X0215159Y0235962D01*
X0215093Y0235996D01*
X0215029Y0236033D01*
X0214967Y0236073D01*
X0214907Y0236117D01*
X0214850Y0236163D01*
X0214795Y0236213D01*
X0214743Y0236266D01*
X0214694Y0236321D01*
X0214648Y0236379D01*
X0214606Y0236440D01*
X0214566Y0236502D01*
X0214530Y0236567D01*
X0214497Y0236633D01*
X0214468Y0236701D01*
X0214443Y0236771D01*
X0214421Y0236841D01*
X0214404Y0236913D01*
X0214390Y0236986D01*
X0214380Y0237059D01*
X0214374Y0237133D01*
X0214372Y0237207D01*
X0176750Y0235750D02*
X0176752Y0235839D01*
X0176758Y0235928D01*
X0176768Y0236017D01*
X0176782Y0236105D01*
X0176799Y0236192D01*
X0176821Y0236278D01*
X0176847Y0236364D01*
X0176876Y0236448D01*
X0176909Y0236531D01*
X0176945Y0236612D01*
X0176986Y0236692D01*
X0177029Y0236769D01*
X0177076Y0236845D01*
X0177127Y0236918D01*
X0177180Y0236989D01*
X0177237Y0237058D01*
X0177297Y0237124D01*
X0177360Y0237188D01*
X0177425Y0237248D01*
X0177493Y0237306D01*
X0177564Y0237360D01*
X0177637Y0237411D01*
X0177712Y0237459D01*
X0177789Y0237504D01*
X0177868Y0237545D01*
X0177949Y0237582D01*
X0178031Y0237616D01*
X0178115Y0237647D01*
X0178200Y0237673D01*
X0178286Y0237696D01*
X0178373Y0237714D01*
X0178461Y0237729D01*
X0178550Y0237740D01*
X0178639Y0237747D01*
X0178728Y0237750D01*
X0178817Y0237749D01*
X0178906Y0237744D01*
X0178994Y0237735D01*
X0179083Y0237722D01*
X0179170Y0237705D01*
X0179257Y0237685D01*
X0179343Y0237660D01*
X0179427Y0237632D01*
X0179510Y0237600D01*
X0179592Y0237564D01*
X0179672Y0237525D01*
X0179750Y0237482D01*
X0179826Y0237436D01*
X0179900Y0237386D01*
X0179972Y0237333D01*
X0180041Y0237277D01*
X0180108Y0237218D01*
X0180172Y0237156D01*
X0180233Y0237092D01*
X0180292Y0237024D01*
X0180347Y0236954D01*
X0180399Y0236882D01*
X0180448Y0236807D01*
X0180493Y0236731D01*
X0180535Y0236652D01*
X0180573Y0236572D01*
X0180608Y0236490D01*
X0180639Y0236406D01*
X0180667Y0236321D01*
X0180690Y0236235D01*
X0180710Y0236148D01*
X0180726Y0236061D01*
X0180738Y0235972D01*
X0180746Y0235884D01*
X0180750Y0235795D01*
X0180750Y0235705D01*
X0180746Y0235616D01*
X0180738Y0235528D01*
X0180726Y0235439D01*
X0180710Y0235352D01*
X0180690Y0235265D01*
X0180667Y0235179D01*
X0180639Y0235094D01*
X0180608Y0235010D01*
X0180573Y0234928D01*
X0180535Y0234848D01*
X0180493Y0234769D01*
X0180448Y0234693D01*
X0180399Y0234618D01*
X0180347Y0234546D01*
X0180292Y0234476D01*
X0180233Y0234408D01*
X0180172Y0234344D01*
X0180108Y0234282D01*
X0180041Y0234223D01*
X0179972Y0234167D01*
X0179900Y0234114D01*
X0179826Y0234064D01*
X0179750Y0234018D01*
X0179672Y0233975D01*
X0179592Y0233936D01*
X0179510Y0233900D01*
X0179427Y0233868D01*
X0179343Y0233840D01*
X0179257Y0233815D01*
X0179170Y0233795D01*
X0179083Y0233778D01*
X0178994Y0233765D01*
X0178906Y0233756D01*
X0178817Y0233751D01*
X0178728Y0233750D01*
X0178639Y0233753D01*
X0178550Y0233760D01*
X0178461Y0233771D01*
X0178373Y0233786D01*
X0178286Y0233804D01*
X0178200Y0233827D01*
X0178115Y0233853D01*
X0178031Y0233884D01*
X0177949Y0233918D01*
X0177868Y0233955D01*
X0177789Y0233996D01*
X0177712Y0234041D01*
X0177637Y0234089D01*
X0177564Y0234140D01*
X0177493Y0234194D01*
X0177425Y0234252D01*
X0177360Y0234312D01*
X0177297Y0234376D01*
X0177237Y0234442D01*
X0177180Y0234511D01*
X0177127Y0234582D01*
X0177076Y0234655D01*
X0177029Y0234731D01*
X0176986Y0234808D01*
X0176945Y0234888D01*
X0176909Y0234969D01*
X0176876Y0235052D01*
X0176847Y0235136D01*
X0176821Y0235222D01*
X0176799Y0235308D01*
X0176782Y0235395D01*
X0176768Y0235483D01*
X0176758Y0235572D01*
X0176752Y0235661D01*
X0176750Y0235750D01*
X0208072Y0150750D02*
X0208074Y0150834D01*
X0208080Y0150917D01*
X0208090Y0151000D01*
X0208104Y0151083D01*
X0208121Y0151165D01*
X0208143Y0151246D01*
X0208168Y0151325D01*
X0208197Y0151404D01*
X0208230Y0151481D01*
X0208266Y0151556D01*
X0208306Y0151630D01*
X0208349Y0151702D01*
X0208396Y0151771D01*
X0208446Y0151838D01*
X0208499Y0151903D01*
X0208555Y0151965D01*
X0208613Y0152025D01*
X0208675Y0152082D01*
X0208739Y0152135D01*
X0208806Y0152186D01*
X0208875Y0152233D01*
X0208946Y0152278D01*
X0209019Y0152318D01*
X0209094Y0152355D01*
X0209171Y0152389D01*
X0209249Y0152419D01*
X0209328Y0152445D01*
X0209409Y0152468D01*
X0209491Y0152486D01*
X0209573Y0152501D01*
X0209656Y0152512D01*
X0209739Y0152519D01*
X0209823Y0152522D01*
X0209907Y0152521D01*
X0209990Y0152516D01*
X0210074Y0152507D01*
X0210156Y0152494D01*
X0210238Y0152478D01*
X0210319Y0152457D01*
X0210400Y0152433D01*
X0210478Y0152405D01*
X0210556Y0152373D01*
X0210632Y0152337D01*
X0210706Y0152298D01*
X0210778Y0152256D01*
X0210848Y0152210D01*
X0210916Y0152161D01*
X0210981Y0152109D01*
X0211044Y0152054D01*
X0211104Y0151996D01*
X0211162Y0151935D01*
X0211216Y0151871D01*
X0211268Y0151805D01*
X0211316Y0151737D01*
X0211361Y0151666D01*
X0211402Y0151593D01*
X0211441Y0151519D01*
X0211475Y0151443D01*
X0211506Y0151365D01*
X0211533Y0151286D01*
X0211557Y0151205D01*
X0211576Y0151124D01*
X0211592Y0151042D01*
X0211604Y0150959D01*
X0211612Y0150875D01*
X0211616Y0150792D01*
X0211616Y0150708D01*
X0211612Y0150625D01*
X0211604Y0150541D01*
X0211592Y0150458D01*
X0211576Y0150376D01*
X0211557Y0150295D01*
X0211533Y0150214D01*
X0211506Y0150135D01*
X0211475Y0150057D01*
X0211441Y0149981D01*
X0211402Y0149907D01*
X0211361Y0149834D01*
X0211316Y0149763D01*
X0211268Y0149695D01*
X0211216Y0149629D01*
X0211162Y0149565D01*
X0211104Y0149504D01*
X0211044Y0149446D01*
X0210981Y0149391D01*
X0210916Y0149339D01*
X0210848Y0149290D01*
X0210778Y0149244D01*
X0210706Y0149202D01*
X0210632Y0149163D01*
X0210556Y0149127D01*
X0210478Y0149095D01*
X0210400Y0149067D01*
X0210319Y0149043D01*
X0210238Y0149022D01*
X0210156Y0149006D01*
X0210074Y0148993D01*
X0209990Y0148984D01*
X0209907Y0148979D01*
X0209823Y0148978D01*
X0209739Y0148981D01*
X0209656Y0148988D01*
X0209573Y0148999D01*
X0209491Y0149014D01*
X0209409Y0149032D01*
X0209328Y0149055D01*
X0209249Y0149081D01*
X0209171Y0149111D01*
X0209094Y0149145D01*
X0209019Y0149182D01*
X0208946Y0149222D01*
X0208875Y0149267D01*
X0208806Y0149314D01*
X0208739Y0149365D01*
X0208675Y0149418D01*
X0208613Y0149475D01*
X0208555Y0149535D01*
X0208499Y0149597D01*
X0208446Y0149662D01*
X0208396Y0149729D01*
X0208349Y0149798D01*
X0208306Y0149870D01*
X0208266Y0149944D01*
X0208230Y0150019D01*
X0208197Y0150096D01*
X0208168Y0150175D01*
X0208143Y0150254D01*
X0208121Y0150335D01*
X0208104Y0150417D01*
X0208090Y0150500D01*
X0208080Y0150583D01*
X0208074Y0150666D01*
X0208072Y0150750D01*
X0219884Y0150750D02*
X0219886Y0150834D01*
X0219892Y0150917D01*
X0219902Y0151000D01*
X0219916Y0151083D01*
X0219933Y0151165D01*
X0219955Y0151246D01*
X0219980Y0151325D01*
X0220009Y0151404D01*
X0220042Y0151481D01*
X0220078Y0151556D01*
X0220118Y0151630D01*
X0220161Y0151702D01*
X0220208Y0151771D01*
X0220258Y0151838D01*
X0220311Y0151903D01*
X0220367Y0151965D01*
X0220425Y0152025D01*
X0220487Y0152082D01*
X0220551Y0152135D01*
X0220618Y0152186D01*
X0220687Y0152233D01*
X0220758Y0152278D01*
X0220831Y0152318D01*
X0220906Y0152355D01*
X0220983Y0152389D01*
X0221061Y0152419D01*
X0221140Y0152445D01*
X0221221Y0152468D01*
X0221303Y0152486D01*
X0221385Y0152501D01*
X0221468Y0152512D01*
X0221551Y0152519D01*
X0221635Y0152522D01*
X0221719Y0152521D01*
X0221802Y0152516D01*
X0221886Y0152507D01*
X0221968Y0152494D01*
X0222050Y0152478D01*
X0222131Y0152457D01*
X0222212Y0152433D01*
X0222290Y0152405D01*
X0222368Y0152373D01*
X0222444Y0152337D01*
X0222518Y0152298D01*
X0222590Y0152256D01*
X0222660Y0152210D01*
X0222728Y0152161D01*
X0222793Y0152109D01*
X0222856Y0152054D01*
X0222916Y0151996D01*
X0222974Y0151935D01*
X0223028Y0151871D01*
X0223080Y0151805D01*
X0223128Y0151737D01*
X0223173Y0151666D01*
X0223214Y0151593D01*
X0223253Y0151519D01*
X0223287Y0151443D01*
X0223318Y0151365D01*
X0223345Y0151286D01*
X0223369Y0151205D01*
X0223388Y0151124D01*
X0223404Y0151042D01*
X0223416Y0150959D01*
X0223424Y0150875D01*
X0223428Y0150792D01*
X0223428Y0150708D01*
X0223424Y0150625D01*
X0223416Y0150541D01*
X0223404Y0150458D01*
X0223388Y0150376D01*
X0223369Y0150295D01*
X0223345Y0150214D01*
X0223318Y0150135D01*
X0223287Y0150057D01*
X0223253Y0149981D01*
X0223214Y0149907D01*
X0223173Y0149834D01*
X0223128Y0149763D01*
X0223080Y0149695D01*
X0223028Y0149629D01*
X0222974Y0149565D01*
X0222916Y0149504D01*
X0222856Y0149446D01*
X0222793Y0149391D01*
X0222728Y0149339D01*
X0222660Y0149290D01*
X0222590Y0149244D01*
X0222518Y0149202D01*
X0222444Y0149163D01*
X0222368Y0149127D01*
X0222290Y0149095D01*
X0222212Y0149067D01*
X0222131Y0149043D01*
X0222050Y0149022D01*
X0221968Y0149006D01*
X0221886Y0148993D01*
X0221802Y0148984D01*
X0221719Y0148979D01*
X0221635Y0148978D01*
X0221551Y0148981D01*
X0221468Y0148988D01*
X0221385Y0148999D01*
X0221303Y0149014D01*
X0221221Y0149032D01*
X0221140Y0149055D01*
X0221061Y0149081D01*
X0220983Y0149111D01*
X0220906Y0149145D01*
X0220831Y0149182D01*
X0220758Y0149222D01*
X0220687Y0149267D01*
X0220618Y0149314D01*
X0220551Y0149365D01*
X0220487Y0149418D01*
X0220425Y0149475D01*
X0220367Y0149535D01*
X0220311Y0149597D01*
X0220258Y0149662D01*
X0220208Y0149729D01*
X0220161Y0149798D01*
X0220118Y0149870D01*
X0220078Y0149944D01*
X0220042Y0150019D01*
X0220009Y0150096D01*
X0219980Y0150175D01*
X0219955Y0150254D01*
X0219933Y0150335D01*
X0219916Y0150417D01*
X0219902Y0150500D01*
X0219892Y0150583D01*
X0219886Y0150666D01*
X0219884Y0150750D01*
X0214372Y0132293D02*
X0214374Y0132367D01*
X0214380Y0132441D01*
X0214390Y0132514D01*
X0214404Y0132587D01*
X0214421Y0132659D01*
X0214443Y0132729D01*
X0214468Y0132799D01*
X0214497Y0132867D01*
X0214530Y0132933D01*
X0214566Y0132998D01*
X0214606Y0133060D01*
X0214648Y0133121D01*
X0214694Y0133179D01*
X0214743Y0133234D01*
X0214795Y0133287D01*
X0214850Y0133337D01*
X0214907Y0133383D01*
X0214967Y0133427D01*
X0215029Y0133467D01*
X0215093Y0133504D01*
X0215159Y0133538D01*
X0215227Y0133568D01*
X0215296Y0133594D01*
X0215367Y0133617D01*
X0215438Y0133635D01*
X0215511Y0133650D01*
X0215584Y0133661D01*
X0215658Y0133668D01*
X0215732Y0133671D01*
X0215805Y0133670D01*
X0215879Y0133665D01*
X0215953Y0133656D01*
X0216026Y0133643D01*
X0216098Y0133626D01*
X0216169Y0133606D01*
X0216239Y0133581D01*
X0216307Y0133553D01*
X0216374Y0133522D01*
X0216439Y0133486D01*
X0216502Y0133448D01*
X0216563Y0133406D01*
X0216622Y0133360D01*
X0216678Y0133312D01*
X0216731Y0133261D01*
X0216781Y0133207D01*
X0216829Y0133150D01*
X0216873Y0133091D01*
X0216915Y0133029D01*
X0216953Y0132966D01*
X0216987Y0132900D01*
X0217018Y0132833D01*
X0217045Y0132764D01*
X0217068Y0132694D01*
X0217088Y0132623D01*
X0217104Y0132550D01*
X0217116Y0132477D01*
X0217124Y0132404D01*
X0217128Y0132330D01*
X0217128Y0132256D01*
X0217124Y0132182D01*
X0217116Y0132109D01*
X0217104Y0132036D01*
X0217088Y0131963D01*
X0217068Y0131892D01*
X0217045Y0131822D01*
X0217018Y0131753D01*
X0216987Y0131686D01*
X0216953Y0131620D01*
X0216915Y0131557D01*
X0216873Y0131495D01*
X0216829Y0131436D01*
X0216781Y0131379D01*
X0216731Y0131325D01*
X0216678Y0131274D01*
X0216622Y0131226D01*
X0216563Y0131180D01*
X0216502Y0131138D01*
X0216439Y0131100D01*
X0216374Y0131064D01*
X0216307Y0131033D01*
X0216239Y0131005D01*
X0216169Y0130980D01*
X0216098Y0130960D01*
X0216026Y0130943D01*
X0215953Y0130930D01*
X0215879Y0130921D01*
X0215805Y0130916D01*
X0215732Y0130915D01*
X0215658Y0130918D01*
X0215584Y0130925D01*
X0215511Y0130936D01*
X0215438Y0130951D01*
X0215367Y0130969D01*
X0215296Y0130992D01*
X0215227Y0131018D01*
X0215159Y0131048D01*
X0215093Y0131082D01*
X0215029Y0131119D01*
X0214967Y0131159D01*
X0214907Y0131203D01*
X0214850Y0131249D01*
X0214795Y0131299D01*
X0214743Y0131352D01*
X0214694Y0131407D01*
X0214648Y0131465D01*
X0214606Y0131526D01*
X0214566Y0131588D01*
X0214530Y0131653D01*
X0214497Y0131719D01*
X0214468Y0131787D01*
X0214443Y0131857D01*
X0214421Y0131927D01*
X0214404Y0131999D01*
X0214390Y0132072D01*
X0214380Y0132145D01*
X0214374Y0132219D01*
X0214372Y0132293D01*
X0214372Y0125207D02*
X0214374Y0125281D01*
X0214380Y0125355D01*
X0214390Y0125428D01*
X0214404Y0125501D01*
X0214421Y0125573D01*
X0214443Y0125643D01*
X0214468Y0125713D01*
X0214497Y0125781D01*
X0214530Y0125847D01*
X0214566Y0125912D01*
X0214606Y0125974D01*
X0214648Y0126035D01*
X0214694Y0126093D01*
X0214743Y0126148D01*
X0214795Y0126201D01*
X0214850Y0126251D01*
X0214907Y0126297D01*
X0214967Y0126341D01*
X0215029Y0126381D01*
X0215093Y0126418D01*
X0215159Y0126452D01*
X0215227Y0126482D01*
X0215296Y0126508D01*
X0215367Y0126531D01*
X0215438Y0126549D01*
X0215511Y0126564D01*
X0215584Y0126575D01*
X0215658Y0126582D01*
X0215732Y0126585D01*
X0215805Y0126584D01*
X0215879Y0126579D01*
X0215953Y0126570D01*
X0216026Y0126557D01*
X0216098Y0126540D01*
X0216169Y0126520D01*
X0216239Y0126495D01*
X0216307Y0126467D01*
X0216374Y0126436D01*
X0216439Y0126400D01*
X0216502Y0126362D01*
X0216563Y0126320D01*
X0216622Y0126274D01*
X0216678Y0126226D01*
X0216731Y0126175D01*
X0216781Y0126121D01*
X0216829Y0126064D01*
X0216873Y0126005D01*
X0216915Y0125943D01*
X0216953Y0125880D01*
X0216987Y0125814D01*
X0217018Y0125747D01*
X0217045Y0125678D01*
X0217068Y0125608D01*
X0217088Y0125537D01*
X0217104Y0125464D01*
X0217116Y0125391D01*
X0217124Y0125318D01*
X0217128Y0125244D01*
X0217128Y0125170D01*
X0217124Y0125096D01*
X0217116Y0125023D01*
X0217104Y0124950D01*
X0217088Y0124877D01*
X0217068Y0124806D01*
X0217045Y0124736D01*
X0217018Y0124667D01*
X0216987Y0124600D01*
X0216953Y0124534D01*
X0216915Y0124471D01*
X0216873Y0124409D01*
X0216829Y0124350D01*
X0216781Y0124293D01*
X0216731Y0124239D01*
X0216678Y0124188D01*
X0216622Y0124140D01*
X0216563Y0124094D01*
X0216502Y0124052D01*
X0216439Y0124014D01*
X0216374Y0123978D01*
X0216307Y0123947D01*
X0216239Y0123919D01*
X0216169Y0123894D01*
X0216098Y0123874D01*
X0216026Y0123857D01*
X0215953Y0123844D01*
X0215879Y0123835D01*
X0215805Y0123830D01*
X0215732Y0123829D01*
X0215658Y0123832D01*
X0215584Y0123839D01*
X0215511Y0123850D01*
X0215438Y0123865D01*
X0215367Y0123883D01*
X0215296Y0123906D01*
X0215227Y0123932D01*
X0215159Y0123962D01*
X0215093Y0123996D01*
X0215029Y0124033D01*
X0214967Y0124073D01*
X0214907Y0124117D01*
X0214850Y0124163D01*
X0214795Y0124213D01*
X0214743Y0124266D01*
X0214694Y0124321D01*
X0214648Y0124379D01*
X0214606Y0124440D01*
X0214566Y0124502D01*
X0214530Y0124567D01*
X0214497Y0124633D01*
X0214468Y0124701D01*
X0214443Y0124771D01*
X0214421Y0124841D01*
X0214404Y0124913D01*
X0214390Y0124986D01*
X0214380Y0125059D01*
X0214374Y0125133D01*
X0214372Y0125207D01*
X0176750Y0123750D02*
X0176752Y0123839D01*
X0176758Y0123928D01*
X0176768Y0124017D01*
X0176782Y0124105D01*
X0176799Y0124192D01*
X0176821Y0124278D01*
X0176847Y0124364D01*
X0176876Y0124448D01*
X0176909Y0124531D01*
X0176945Y0124612D01*
X0176986Y0124692D01*
X0177029Y0124769D01*
X0177076Y0124845D01*
X0177127Y0124918D01*
X0177180Y0124989D01*
X0177237Y0125058D01*
X0177297Y0125124D01*
X0177360Y0125188D01*
X0177425Y0125248D01*
X0177493Y0125306D01*
X0177564Y0125360D01*
X0177637Y0125411D01*
X0177712Y0125459D01*
X0177789Y0125504D01*
X0177868Y0125545D01*
X0177949Y0125582D01*
X0178031Y0125616D01*
X0178115Y0125647D01*
X0178200Y0125673D01*
X0178286Y0125696D01*
X0178373Y0125714D01*
X0178461Y0125729D01*
X0178550Y0125740D01*
X0178639Y0125747D01*
X0178728Y0125750D01*
X0178817Y0125749D01*
X0178906Y0125744D01*
X0178994Y0125735D01*
X0179083Y0125722D01*
X0179170Y0125705D01*
X0179257Y0125685D01*
X0179343Y0125660D01*
X0179427Y0125632D01*
X0179510Y0125600D01*
X0179592Y0125564D01*
X0179672Y0125525D01*
X0179750Y0125482D01*
X0179826Y0125436D01*
X0179900Y0125386D01*
X0179972Y0125333D01*
X0180041Y0125277D01*
X0180108Y0125218D01*
X0180172Y0125156D01*
X0180233Y0125092D01*
X0180292Y0125024D01*
X0180347Y0124954D01*
X0180399Y0124882D01*
X0180448Y0124807D01*
X0180493Y0124731D01*
X0180535Y0124652D01*
X0180573Y0124572D01*
X0180608Y0124490D01*
X0180639Y0124406D01*
X0180667Y0124321D01*
X0180690Y0124235D01*
X0180710Y0124148D01*
X0180726Y0124061D01*
X0180738Y0123972D01*
X0180746Y0123884D01*
X0180750Y0123795D01*
X0180750Y0123705D01*
X0180746Y0123616D01*
X0180738Y0123528D01*
X0180726Y0123439D01*
X0180710Y0123352D01*
X0180690Y0123265D01*
X0180667Y0123179D01*
X0180639Y0123094D01*
X0180608Y0123010D01*
X0180573Y0122928D01*
X0180535Y0122848D01*
X0180493Y0122769D01*
X0180448Y0122693D01*
X0180399Y0122618D01*
X0180347Y0122546D01*
X0180292Y0122476D01*
X0180233Y0122408D01*
X0180172Y0122344D01*
X0180108Y0122282D01*
X0180041Y0122223D01*
X0179972Y0122167D01*
X0179900Y0122114D01*
X0179826Y0122064D01*
X0179750Y0122018D01*
X0179672Y0121975D01*
X0179592Y0121936D01*
X0179510Y0121900D01*
X0179427Y0121868D01*
X0179343Y0121840D01*
X0179257Y0121815D01*
X0179170Y0121795D01*
X0179083Y0121778D01*
X0178994Y0121765D01*
X0178906Y0121756D01*
X0178817Y0121751D01*
X0178728Y0121750D01*
X0178639Y0121753D01*
X0178550Y0121760D01*
X0178461Y0121771D01*
X0178373Y0121786D01*
X0178286Y0121804D01*
X0178200Y0121827D01*
X0178115Y0121853D01*
X0178031Y0121884D01*
X0177949Y0121918D01*
X0177868Y0121955D01*
X0177789Y0121996D01*
X0177712Y0122041D01*
X0177637Y0122089D01*
X0177564Y0122140D01*
X0177493Y0122194D01*
X0177425Y0122252D01*
X0177360Y0122312D01*
X0177297Y0122376D01*
X0177237Y0122442D01*
X0177180Y0122511D01*
X0177127Y0122582D01*
X0177076Y0122655D01*
X0177029Y0122731D01*
X0176986Y0122808D01*
X0176945Y0122888D01*
X0176909Y0122969D01*
X0176876Y0123052D01*
X0176847Y0123136D01*
X0176821Y0123222D01*
X0176799Y0123308D01*
X0176782Y0123395D01*
X0176768Y0123483D01*
X0176758Y0123572D01*
X0176752Y0123661D01*
X0176750Y0123750D01*
X0208072Y0038750D02*
X0208074Y0038834D01*
X0208080Y0038917D01*
X0208090Y0039000D01*
X0208104Y0039083D01*
X0208121Y0039165D01*
X0208143Y0039246D01*
X0208168Y0039325D01*
X0208197Y0039404D01*
X0208230Y0039481D01*
X0208266Y0039556D01*
X0208306Y0039630D01*
X0208349Y0039702D01*
X0208396Y0039771D01*
X0208446Y0039838D01*
X0208499Y0039903D01*
X0208555Y0039965D01*
X0208613Y0040025D01*
X0208675Y0040082D01*
X0208739Y0040135D01*
X0208806Y0040186D01*
X0208875Y0040233D01*
X0208946Y0040278D01*
X0209019Y0040318D01*
X0209094Y0040355D01*
X0209171Y0040389D01*
X0209249Y0040419D01*
X0209328Y0040445D01*
X0209409Y0040468D01*
X0209491Y0040486D01*
X0209573Y0040501D01*
X0209656Y0040512D01*
X0209739Y0040519D01*
X0209823Y0040522D01*
X0209907Y0040521D01*
X0209990Y0040516D01*
X0210074Y0040507D01*
X0210156Y0040494D01*
X0210238Y0040478D01*
X0210319Y0040457D01*
X0210400Y0040433D01*
X0210478Y0040405D01*
X0210556Y0040373D01*
X0210632Y0040337D01*
X0210706Y0040298D01*
X0210778Y0040256D01*
X0210848Y0040210D01*
X0210916Y0040161D01*
X0210981Y0040109D01*
X0211044Y0040054D01*
X0211104Y0039996D01*
X0211162Y0039935D01*
X0211216Y0039871D01*
X0211268Y0039805D01*
X0211316Y0039737D01*
X0211361Y0039666D01*
X0211402Y0039593D01*
X0211441Y0039519D01*
X0211475Y0039443D01*
X0211506Y0039365D01*
X0211533Y0039286D01*
X0211557Y0039205D01*
X0211576Y0039124D01*
X0211592Y0039042D01*
X0211604Y0038959D01*
X0211612Y0038875D01*
X0211616Y0038792D01*
X0211616Y0038708D01*
X0211612Y0038625D01*
X0211604Y0038541D01*
X0211592Y0038458D01*
X0211576Y0038376D01*
X0211557Y0038295D01*
X0211533Y0038214D01*
X0211506Y0038135D01*
X0211475Y0038057D01*
X0211441Y0037981D01*
X0211402Y0037907D01*
X0211361Y0037834D01*
X0211316Y0037763D01*
X0211268Y0037695D01*
X0211216Y0037629D01*
X0211162Y0037565D01*
X0211104Y0037504D01*
X0211044Y0037446D01*
X0210981Y0037391D01*
X0210916Y0037339D01*
X0210848Y0037290D01*
X0210778Y0037244D01*
X0210706Y0037202D01*
X0210632Y0037163D01*
X0210556Y0037127D01*
X0210478Y0037095D01*
X0210400Y0037067D01*
X0210319Y0037043D01*
X0210238Y0037022D01*
X0210156Y0037006D01*
X0210074Y0036993D01*
X0209990Y0036984D01*
X0209907Y0036979D01*
X0209823Y0036978D01*
X0209739Y0036981D01*
X0209656Y0036988D01*
X0209573Y0036999D01*
X0209491Y0037014D01*
X0209409Y0037032D01*
X0209328Y0037055D01*
X0209249Y0037081D01*
X0209171Y0037111D01*
X0209094Y0037145D01*
X0209019Y0037182D01*
X0208946Y0037222D01*
X0208875Y0037267D01*
X0208806Y0037314D01*
X0208739Y0037365D01*
X0208675Y0037418D01*
X0208613Y0037475D01*
X0208555Y0037535D01*
X0208499Y0037597D01*
X0208446Y0037662D01*
X0208396Y0037729D01*
X0208349Y0037798D01*
X0208306Y0037870D01*
X0208266Y0037944D01*
X0208230Y0038019D01*
X0208197Y0038096D01*
X0208168Y0038175D01*
X0208143Y0038254D01*
X0208121Y0038335D01*
X0208104Y0038417D01*
X0208090Y0038500D01*
X0208080Y0038583D01*
X0208074Y0038666D01*
X0208072Y0038750D01*
X0219884Y0038750D02*
X0219886Y0038834D01*
X0219892Y0038917D01*
X0219902Y0039000D01*
X0219916Y0039083D01*
X0219933Y0039165D01*
X0219955Y0039246D01*
X0219980Y0039325D01*
X0220009Y0039404D01*
X0220042Y0039481D01*
X0220078Y0039556D01*
X0220118Y0039630D01*
X0220161Y0039702D01*
X0220208Y0039771D01*
X0220258Y0039838D01*
X0220311Y0039903D01*
X0220367Y0039965D01*
X0220425Y0040025D01*
X0220487Y0040082D01*
X0220551Y0040135D01*
X0220618Y0040186D01*
X0220687Y0040233D01*
X0220758Y0040278D01*
X0220831Y0040318D01*
X0220906Y0040355D01*
X0220983Y0040389D01*
X0221061Y0040419D01*
X0221140Y0040445D01*
X0221221Y0040468D01*
X0221303Y0040486D01*
X0221385Y0040501D01*
X0221468Y0040512D01*
X0221551Y0040519D01*
X0221635Y0040522D01*
X0221719Y0040521D01*
X0221802Y0040516D01*
X0221886Y0040507D01*
X0221968Y0040494D01*
X0222050Y0040478D01*
X0222131Y0040457D01*
X0222212Y0040433D01*
X0222290Y0040405D01*
X0222368Y0040373D01*
X0222444Y0040337D01*
X0222518Y0040298D01*
X0222590Y0040256D01*
X0222660Y0040210D01*
X0222728Y0040161D01*
X0222793Y0040109D01*
X0222856Y0040054D01*
X0222916Y0039996D01*
X0222974Y0039935D01*
X0223028Y0039871D01*
X0223080Y0039805D01*
X0223128Y0039737D01*
X0223173Y0039666D01*
X0223214Y0039593D01*
X0223253Y0039519D01*
X0223287Y0039443D01*
X0223318Y0039365D01*
X0223345Y0039286D01*
X0223369Y0039205D01*
X0223388Y0039124D01*
X0223404Y0039042D01*
X0223416Y0038959D01*
X0223424Y0038875D01*
X0223428Y0038792D01*
X0223428Y0038708D01*
X0223424Y0038625D01*
X0223416Y0038541D01*
X0223404Y0038458D01*
X0223388Y0038376D01*
X0223369Y0038295D01*
X0223345Y0038214D01*
X0223318Y0038135D01*
X0223287Y0038057D01*
X0223253Y0037981D01*
X0223214Y0037907D01*
X0223173Y0037834D01*
X0223128Y0037763D01*
X0223080Y0037695D01*
X0223028Y0037629D01*
X0222974Y0037565D01*
X0222916Y0037504D01*
X0222856Y0037446D01*
X0222793Y0037391D01*
X0222728Y0037339D01*
X0222660Y0037290D01*
X0222590Y0037244D01*
X0222518Y0037202D01*
X0222444Y0037163D01*
X0222368Y0037127D01*
X0222290Y0037095D01*
X0222212Y0037067D01*
X0222131Y0037043D01*
X0222050Y0037022D01*
X0221968Y0037006D01*
X0221886Y0036993D01*
X0221802Y0036984D01*
X0221719Y0036979D01*
X0221635Y0036978D01*
X0221551Y0036981D01*
X0221468Y0036988D01*
X0221385Y0036999D01*
X0221303Y0037014D01*
X0221221Y0037032D01*
X0221140Y0037055D01*
X0221061Y0037081D01*
X0220983Y0037111D01*
X0220906Y0037145D01*
X0220831Y0037182D01*
X0220758Y0037222D01*
X0220687Y0037267D01*
X0220618Y0037314D01*
X0220551Y0037365D01*
X0220487Y0037418D01*
X0220425Y0037475D01*
X0220367Y0037535D01*
X0220311Y0037597D01*
X0220258Y0037662D01*
X0220208Y0037729D01*
X0220161Y0037798D01*
X0220118Y0037870D01*
X0220078Y0037944D01*
X0220042Y0038019D01*
X0220009Y0038096D01*
X0219980Y0038175D01*
X0219955Y0038254D01*
X0219933Y0038335D01*
X0219916Y0038417D01*
X0219902Y0038500D01*
X0219892Y0038583D01*
X0219886Y0038666D01*
X0219884Y0038750D01*
X0338750Y0123750D02*
X0338752Y0123839D01*
X0338758Y0123928D01*
X0338768Y0124017D01*
X0338782Y0124105D01*
X0338799Y0124192D01*
X0338821Y0124278D01*
X0338847Y0124364D01*
X0338876Y0124448D01*
X0338909Y0124531D01*
X0338945Y0124612D01*
X0338986Y0124692D01*
X0339029Y0124769D01*
X0339076Y0124845D01*
X0339127Y0124918D01*
X0339180Y0124989D01*
X0339237Y0125058D01*
X0339297Y0125124D01*
X0339360Y0125188D01*
X0339425Y0125248D01*
X0339493Y0125306D01*
X0339564Y0125360D01*
X0339637Y0125411D01*
X0339712Y0125459D01*
X0339789Y0125504D01*
X0339868Y0125545D01*
X0339949Y0125582D01*
X0340031Y0125616D01*
X0340115Y0125647D01*
X0340200Y0125673D01*
X0340286Y0125696D01*
X0340373Y0125714D01*
X0340461Y0125729D01*
X0340550Y0125740D01*
X0340639Y0125747D01*
X0340728Y0125750D01*
X0340817Y0125749D01*
X0340906Y0125744D01*
X0340994Y0125735D01*
X0341083Y0125722D01*
X0341170Y0125705D01*
X0341257Y0125685D01*
X0341343Y0125660D01*
X0341427Y0125632D01*
X0341510Y0125600D01*
X0341592Y0125564D01*
X0341672Y0125525D01*
X0341750Y0125482D01*
X0341826Y0125436D01*
X0341900Y0125386D01*
X0341972Y0125333D01*
X0342041Y0125277D01*
X0342108Y0125218D01*
X0342172Y0125156D01*
X0342233Y0125092D01*
X0342292Y0125024D01*
X0342347Y0124954D01*
X0342399Y0124882D01*
X0342448Y0124807D01*
X0342493Y0124731D01*
X0342535Y0124652D01*
X0342573Y0124572D01*
X0342608Y0124490D01*
X0342639Y0124406D01*
X0342667Y0124321D01*
X0342690Y0124235D01*
X0342710Y0124148D01*
X0342726Y0124061D01*
X0342738Y0123972D01*
X0342746Y0123884D01*
X0342750Y0123795D01*
X0342750Y0123705D01*
X0342746Y0123616D01*
X0342738Y0123528D01*
X0342726Y0123439D01*
X0342710Y0123352D01*
X0342690Y0123265D01*
X0342667Y0123179D01*
X0342639Y0123094D01*
X0342608Y0123010D01*
X0342573Y0122928D01*
X0342535Y0122848D01*
X0342493Y0122769D01*
X0342448Y0122693D01*
X0342399Y0122618D01*
X0342347Y0122546D01*
X0342292Y0122476D01*
X0342233Y0122408D01*
X0342172Y0122344D01*
X0342108Y0122282D01*
X0342041Y0122223D01*
X0341972Y0122167D01*
X0341900Y0122114D01*
X0341826Y0122064D01*
X0341750Y0122018D01*
X0341672Y0121975D01*
X0341592Y0121936D01*
X0341510Y0121900D01*
X0341427Y0121868D01*
X0341343Y0121840D01*
X0341257Y0121815D01*
X0341170Y0121795D01*
X0341083Y0121778D01*
X0340994Y0121765D01*
X0340906Y0121756D01*
X0340817Y0121751D01*
X0340728Y0121750D01*
X0340639Y0121753D01*
X0340550Y0121760D01*
X0340461Y0121771D01*
X0340373Y0121786D01*
X0340286Y0121804D01*
X0340200Y0121827D01*
X0340115Y0121853D01*
X0340031Y0121884D01*
X0339949Y0121918D01*
X0339868Y0121955D01*
X0339789Y0121996D01*
X0339712Y0122041D01*
X0339637Y0122089D01*
X0339564Y0122140D01*
X0339493Y0122194D01*
X0339425Y0122252D01*
X0339360Y0122312D01*
X0339297Y0122376D01*
X0339237Y0122442D01*
X0339180Y0122511D01*
X0339127Y0122582D01*
X0339076Y0122655D01*
X0339029Y0122731D01*
X0338986Y0122808D01*
X0338945Y0122888D01*
X0338909Y0122969D01*
X0338876Y0123052D01*
X0338847Y0123136D01*
X0338821Y0123222D01*
X0338799Y0123308D01*
X0338782Y0123395D01*
X0338768Y0123483D01*
X0338758Y0123572D01*
X0338752Y0123661D01*
X0338750Y0123750D01*
X0338750Y0235750D02*
X0338752Y0235839D01*
X0338758Y0235928D01*
X0338768Y0236017D01*
X0338782Y0236105D01*
X0338799Y0236192D01*
X0338821Y0236278D01*
X0338847Y0236364D01*
X0338876Y0236448D01*
X0338909Y0236531D01*
X0338945Y0236612D01*
X0338986Y0236692D01*
X0339029Y0236769D01*
X0339076Y0236845D01*
X0339127Y0236918D01*
X0339180Y0236989D01*
X0339237Y0237058D01*
X0339297Y0237124D01*
X0339360Y0237188D01*
X0339425Y0237248D01*
X0339493Y0237306D01*
X0339564Y0237360D01*
X0339637Y0237411D01*
X0339712Y0237459D01*
X0339789Y0237504D01*
X0339868Y0237545D01*
X0339949Y0237582D01*
X0340031Y0237616D01*
X0340115Y0237647D01*
X0340200Y0237673D01*
X0340286Y0237696D01*
X0340373Y0237714D01*
X0340461Y0237729D01*
X0340550Y0237740D01*
X0340639Y0237747D01*
X0340728Y0237750D01*
X0340817Y0237749D01*
X0340906Y0237744D01*
X0340994Y0237735D01*
X0341083Y0237722D01*
X0341170Y0237705D01*
X0341257Y0237685D01*
X0341343Y0237660D01*
X0341427Y0237632D01*
X0341510Y0237600D01*
X0341592Y0237564D01*
X0341672Y0237525D01*
X0341750Y0237482D01*
X0341826Y0237436D01*
X0341900Y0237386D01*
X0341972Y0237333D01*
X0342041Y0237277D01*
X0342108Y0237218D01*
X0342172Y0237156D01*
X0342233Y0237092D01*
X0342292Y0237024D01*
X0342347Y0236954D01*
X0342399Y0236882D01*
X0342448Y0236807D01*
X0342493Y0236731D01*
X0342535Y0236652D01*
X0342573Y0236572D01*
X0342608Y0236490D01*
X0342639Y0236406D01*
X0342667Y0236321D01*
X0342690Y0236235D01*
X0342710Y0236148D01*
X0342726Y0236061D01*
X0342738Y0235972D01*
X0342746Y0235884D01*
X0342750Y0235795D01*
X0342750Y0235705D01*
X0342746Y0235616D01*
X0342738Y0235528D01*
X0342726Y0235439D01*
X0342710Y0235352D01*
X0342690Y0235265D01*
X0342667Y0235179D01*
X0342639Y0235094D01*
X0342608Y0235010D01*
X0342573Y0234928D01*
X0342535Y0234848D01*
X0342493Y0234769D01*
X0342448Y0234693D01*
X0342399Y0234618D01*
X0342347Y0234546D01*
X0342292Y0234476D01*
X0342233Y0234408D01*
X0342172Y0234344D01*
X0342108Y0234282D01*
X0342041Y0234223D01*
X0341972Y0234167D01*
X0341900Y0234114D01*
X0341826Y0234064D01*
X0341750Y0234018D01*
X0341672Y0233975D01*
X0341592Y0233936D01*
X0341510Y0233900D01*
X0341427Y0233868D01*
X0341343Y0233840D01*
X0341257Y0233815D01*
X0341170Y0233795D01*
X0341083Y0233778D01*
X0340994Y0233765D01*
X0340906Y0233756D01*
X0340817Y0233751D01*
X0340728Y0233750D01*
X0340639Y0233753D01*
X0340550Y0233760D01*
X0340461Y0233771D01*
X0340373Y0233786D01*
X0340286Y0233804D01*
X0340200Y0233827D01*
X0340115Y0233853D01*
X0340031Y0233884D01*
X0339949Y0233918D01*
X0339868Y0233955D01*
X0339789Y0233996D01*
X0339712Y0234041D01*
X0339637Y0234089D01*
X0339564Y0234140D01*
X0339493Y0234194D01*
X0339425Y0234252D01*
X0339360Y0234312D01*
X0339297Y0234376D01*
X0339237Y0234442D01*
X0339180Y0234511D01*
X0339127Y0234582D01*
X0339076Y0234655D01*
X0339029Y0234731D01*
X0338986Y0234808D01*
X0338945Y0234888D01*
X0338909Y0234969D01*
X0338876Y0235052D01*
X0338847Y0235136D01*
X0338821Y0235222D01*
X0338799Y0235308D01*
X0338782Y0235395D01*
X0338768Y0235483D01*
X0338758Y0235572D01*
X0338752Y0235661D01*
X0338750Y0235750D01*
X0338750Y0347750D02*
X0338752Y0347839D01*
X0338758Y0347928D01*
X0338768Y0348017D01*
X0338782Y0348105D01*
X0338799Y0348192D01*
X0338821Y0348278D01*
X0338847Y0348364D01*
X0338876Y0348448D01*
X0338909Y0348531D01*
X0338945Y0348612D01*
X0338986Y0348692D01*
X0339029Y0348769D01*
X0339076Y0348845D01*
X0339127Y0348918D01*
X0339180Y0348989D01*
X0339237Y0349058D01*
X0339297Y0349124D01*
X0339360Y0349188D01*
X0339425Y0349248D01*
X0339493Y0349306D01*
X0339564Y0349360D01*
X0339637Y0349411D01*
X0339712Y0349459D01*
X0339789Y0349504D01*
X0339868Y0349545D01*
X0339949Y0349582D01*
X0340031Y0349616D01*
X0340115Y0349647D01*
X0340200Y0349673D01*
X0340286Y0349696D01*
X0340373Y0349714D01*
X0340461Y0349729D01*
X0340550Y0349740D01*
X0340639Y0349747D01*
X0340728Y0349750D01*
X0340817Y0349749D01*
X0340906Y0349744D01*
X0340994Y0349735D01*
X0341083Y0349722D01*
X0341170Y0349705D01*
X0341257Y0349685D01*
X0341343Y0349660D01*
X0341427Y0349632D01*
X0341510Y0349600D01*
X0341592Y0349564D01*
X0341672Y0349525D01*
X0341750Y0349482D01*
X0341826Y0349436D01*
X0341900Y0349386D01*
X0341972Y0349333D01*
X0342041Y0349277D01*
X0342108Y0349218D01*
X0342172Y0349156D01*
X0342233Y0349092D01*
X0342292Y0349024D01*
X0342347Y0348954D01*
X0342399Y0348882D01*
X0342448Y0348807D01*
X0342493Y0348731D01*
X0342535Y0348652D01*
X0342573Y0348572D01*
X0342608Y0348490D01*
X0342639Y0348406D01*
X0342667Y0348321D01*
X0342690Y0348235D01*
X0342710Y0348148D01*
X0342726Y0348061D01*
X0342738Y0347972D01*
X0342746Y0347884D01*
X0342750Y0347795D01*
X0342750Y0347705D01*
X0342746Y0347616D01*
X0342738Y0347528D01*
X0342726Y0347439D01*
X0342710Y0347352D01*
X0342690Y0347265D01*
X0342667Y0347179D01*
X0342639Y0347094D01*
X0342608Y0347010D01*
X0342573Y0346928D01*
X0342535Y0346848D01*
X0342493Y0346769D01*
X0342448Y0346693D01*
X0342399Y0346618D01*
X0342347Y0346546D01*
X0342292Y0346476D01*
X0342233Y0346408D01*
X0342172Y0346344D01*
X0342108Y0346282D01*
X0342041Y0346223D01*
X0341972Y0346167D01*
X0341900Y0346114D01*
X0341826Y0346064D01*
X0341750Y0346018D01*
X0341672Y0345975D01*
X0341592Y0345936D01*
X0341510Y0345900D01*
X0341427Y0345868D01*
X0341343Y0345840D01*
X0341257Y0345815D01*
X0341170Y0345795D01*
X0341083Y0345778D01*
X0340994Y0345765D01*
X0340906Y0345756D01*
X0340817Y0345751D01*
X0340728Y0345750D01*
X0340639Y0345753D01*
X0340550Y0345760D01*
X0340461Y0345771D01*
X0340373Y0345786D01*
X0340286Y0345804D01*
X0340200Y0345827D01*
X0340115Y0345853D01*
X0340031Y0345884D01*
X0339949Y0345918D01*
X0339868Y0345955D01*
X0339789Y0345996D01*
X0339712Y0346041D01*
X0339637Y0346089D01*
X0339564Y0346140D01*
X0339493Y0346194D01*
X0339425Y0346252D01*
X0339360Y0346312D01*
X0339297Y0346376D01*
X0339237Y0346442D01*
X0339180Y0346511D01*
X0339127Y0346582D01*
X0339076Y0346655D01*
X0339029Y0346731D01*
X0338986Y0346808D01*
X0338945Y0346888D01*
X0338909Y0346969D01*
X0338876Y0347052D01*
X0338847Y0347136D01*
X0338821Y0347222D01*
X0338799Y0347308D01*
X0338782Y0347395D01*
X0338768Y0347483D01*
X0338758Y0347572D01*
X0338752Y0347661D01*
X0338750Y0347750D01*
X0214372Y0349207D02*
X0214374Y0349281D01*
X0214380Y0349355D01*
X0214390Y0349428D01*
X0214404Y0349501D01*
X0214421Y0349573D01*
X0214443Y0349643D01*
X0214468Y0349713D01*
X0214497Y0349781D01*
X0214530Y0349847D01*
X0214566Y0349912D01*
X0214606Y0349974D01*
X0214648Y0350035D01*
X0214694Y0350093D01*
X0214743Y0350148D01*
X0214795Y0350201D01*
X0214850Y0350251D01*
X0214907Y0350297D01*
X0214967Y0350341D01*
X0215029Y0350381D01*
X0215093Y0350418D01*
X0215159Y0350452D01*
X0215227Y0350482D01*
X0215296Y0350508D01*
X0215367Y0350531D01*
X0215438Y0350549D01*
X0215511Y0350564D01*
X0215584Y0350575D01*
X0215658Y0350582D01*
X0215732Y0350585D01*
X0215805Y0350584D01*
X0215879Y0350579D01*
X0215953Y0350570D01*
X0216026Y0350557D01*
X0216098Y0350540D01*
X0216169Y0350520D01*
X0216239Y0350495D01*
X0216307Y0350467D01*
X0216374Y0350436D01*
X0216439Y0350400D01*
X0216502Y0350362D01*
X0216563Y0350320D01*
X0216622Y0350274D01*
X0216678Y0350226D01*
X0216731Y0350175D01*
X0216781Y0350121D01*
X0216829Y0350064D01*
X0216873Y0350005D01*
X0216915Y0349943D01*
X0216953Y0349880D01*
X0216987Y0349814D01*
X0217018Y0349747D01*
X0217045Y0349678D01*
X0217068Y0349608D01*
X0217088Y0349537D01*
X0217104Y0349464D01*
X0217116Y0349391D01*
X0217124Y0349318D01*
X0217128Y0349244D01*
X0217128Y0349170D01*
X0217124Y0349096D01*
X0217116Y0349023D01*
X0217104Y0348950D01*
X0217088Y0348877D01*
X0217068Y0348806D01*
X0217045Y0348736D01*
X0217018Y0348667D01*
X0216987Y0348600D01*
X0216953Y0348534D01*
X0216915Y0348471D01*
X0216873Y0348409D01*
X0216829Y0348350D01*
X0216781Y0348293D01*
X0216731Y0348239D01*
X0216678Y0348188D01*
X0216622Y0348140D01*
X0216563Y0348094D01*
X0216502Y0348052D01*
X0216439Y0348014D01*
X0216374Y0347978D01*
X0216307Y0347947D01*
X0216239Y0347919D01*
X0216169Y0347894D01*
X0216098Y0347874D01*
X0216026Y0347857D01*
X0215953Y0347844D01*
X0215879Y0347835D01*
X0215805Y0347830D01*
X0215732Y0347829D01*
X0215658Y0347832D01*
X0215584Y0347839D01*
X0215511Y0347850D01*
X0215438Y0347865D01*
X0215367Y0347883D01*
X0215296Y0347906D01*
X0215227Y0347932D01*
X0215159Y0347962D01*
X0215093Y0347996D01*
X0215029Y0348033D01*
X0214967Y0348073D01*
X0214907Y0348117D01*
X0214850Y0348163D01*
X0214795Y0348213D01*
X0214743Y0348266D01*
X0214694Y0348321D01*
X0214648Y0348379D01*
X0214606Y0348440D01*
X0214566Y0348502D01*
X0214530Y0348567D01*
X0214497Y0348633D01*
X0214468Y0348701D01*
X0214443Y0348771D01*
X0214421Y0348841D01*
X0214404Y0348913D01*
X0214390Y0348986D01*
X0214380Y0349059D01*
X0214374Y0349133D01*
X0214372Y0349207D01*
X0214372Y0356293D02*
X0214374Y0356367D01*
X0214380Y0356441D01*
X0214390Y0356514D01*
X0214404Y0356587D01*
X0214421Y0356659D01*
X0214443Y0356729D01*
X0214468Y0356799D01*
X0214497Y0356867D01*
X0214530Y0356933D01*
X0214566Y0356998D01*
X0214606Y0357060D01*
X0214648Y0357121D01*
X0214694Y0357179D01*
X0214743Y0357234D01*
X0214795Y0357287D01*
X0214850Y0357337D01*
X0214907Y0357383D01*
X0214967Y0357427D01*
X0215029Y0357467D01*
X0215093Y0357504D01*
X0215159Y0357538D01*
X0215227Y0357568D01*
X0215296Y0357594D01*
X0215367Y0357617D01*
X0215438Y0357635D01*
X0215511Y0357650D01*
X0215584Y0357661D01*
X0215658Y0357668D01*
X0215732Y0357671D01*
X0215805Y0357670D01*
X0215879Y0357665D01*
X0215953Y0357656D01*
X0216026Y0357643D01*
X0216098Y0357626D01*
X0216169Y0357606D01*
X0216239Y0357581D01*
X0216307Y0357553D01*
X0216374Y0357522D01*
X0216439Y0357486D01*
X0216502Y0357448D01*
X0216563Y0357406D01*
X0216622Y0357360D01*
X0216678Y0357312D01*
X0216731Y0357261D01*
X0216781Y0357207D01*
X0216829Y0357150D01*
X0216873Y0357091D01*
X0216915Y0357029D01*
X0216953Y0356966D01*
X0216987Y0356900D01*
X0217018Y0356833D01*
X0217045Y0356764D01*
X0217068Y0356694D01*
X0217088Y0356623D01*
X0217104Y0356550D01*
X0217116Y0356477D01*
X0217124Y0356404D01*
X0217128Y0356330D01*
X0217128Y0356256D01*
X0217124Y0356182D01*
X0217116Y0356109D01*
X0217104Y0356036D01*
X0217088Y0355963D01*
X0217068Y0355892D01*
X0217045Y0355822D01*
X0217018Y0355753D01*
X0216987Y0355686D01*
X0216953Y0355620D01*
X0216915Y0355557D01*
X0216873Y0355495D01*
X0216829Y0355436D01*
X0216781Y0355379D01*
X0216731Y0355325D01*
X0216678Y0355274D01*
X0216622Y0355226D01*
X0216563Y0355180D01*
X0216502Y0355138D01*
X0216439Y0355100D01*
X0216374Y0355064D01*
X0216307Y0355033D01*
X0216239Y0355005D01*
X0216169Y0354980D01*
X0216098Y0354960D01*
X0216026Y0354943D01*
X0215953Y0354930D01*
X0215879Y0354921D01*
X0215805Y0354916D01*
X0215732Y0354915D01*
X0215658Y0354918D01*
X0215584Y0354925D01*
X0215511Y0354936D01*
X0215438Y0354951D01*
X0215367Y0354969D01*
X0215296Y0354992D01*
X0215227Y0355018D01*
X0215159Y0355048D01*
X0215093Y0355082D01*
X0215029Y0355119D01*
X0214967Y0355159D01*
X0214907Y0355203D01*
X0214850Y0355249D01*
X0214795Y0355299D01*
X0214743Y0355352D01*
X0214694Y0355407D01*
X0214648Y0355465D01*
X0214606Y0355526D01*
X0214566Y0355588D01*
X0214530Y0355653D01*
X0214497Y0355719D01*
X0214468Y0355787D01*
X0214443Y0355857D01*
X0214421Y0355927D01*
X0214404Y0355999D01*
X0214390Y0356072D01*
X0214380Y0356145D01*
X0214374Y0356219D01*
X0214372Y0356293D01*
X0176750Y0347750D02*
X0176752Y0347839D01*
X0176758Y0347928D01*
X0176768Y0348017D01*
X0176782Y0348105D01*
X0176799Y0348192D01*
X0176821Y0348278D01*
X0176847Y0348364D01*
X0176876Y0348448D01*
X0176909Y0348531D01*
X0176945Y0348612D01*
X0176986Y0348692D01*
X0177029Y0348769D01*
X0177076Y0348845D01*
X0177127Y0348918D01*
X0177180Y0348989D01*
X0177237Y0349058D01*
X0177297Y0349124D01*
X0177360Y0349188D01*
X0177425Y0349248D01*
X0177493Y0349306D01*
X0177564Y0349360D01*
X0177637Y0349411D01*
X0177712Y0349459D01*
X0177789Y0349504D01*
X0177868Y0349545D01*
X0177949Y0349582D01*
X0178031Y0349616D01*
X0178115Y0349647D01*
X0178200Y0349673D01*
X0178286Y0349696D01*
X0178373Y0349714D01*
X0178461Y0349729D01*
X0178550Y0349740D01*
X0178639Y0349747D01*
X0178728Y0349750D01*
X0178817Y0349749D01*
X0178906Y0349744D01*
X0178994Y0349735D01*
X0179083Y0349722D01*
X0179170Y0349705D01*
X0179257Y0349685D01*
X0179343Y0349660D01*
X0179427Y0349632D01*
X0179510Y0349600D01*
X0179592Y0349564D01*
X0179672Y0349525D01*
X0179750Y0349482D01*
X0179826Y0349436D01*
X0179900Y0349386D01*
X0179972Y0349333D01*
X0180041Y0349277D01*
X0180108Y0349218D01*
X0180172Y0349156D01*
X0180233Y0349092D01*
X0180292Y0349024D01*
X0180347Y0348954D01*
X0180399Y0348882D01*
X0180448Y0348807D01*
X0180493Y0348731D01*
X0180535Y0348652D01*
X0180573Y0348572D01*
X0180608Y0348490D01*
X0180639Y0348406D01*
X0180667Y0348321D01*
X0180690Y0348235D01*
X0180710Y0348148D01*
X0180726Y0348061D01*
X0180738Y0347972D01*
X0180746Y0347884D01*
X0180750Y0347795D01*
X0180750Y0347705D01*
X0180746Y0347616D01*
X0180738Y0347528D01*
X0180726Y0347439D01*
X0180710Y0347352D01*
X0180690Y0347265D01*
X0180667Y0347179D01*
X0180639Y0347094D01*
X0180608Y0347010D01*
X0180573Y0346928D01*
X0180535Y0346848D01*
X0180493Y0346769D01*
X0180448Y0346693D01*
X0180399Y0346618D01*
X0180347Y0346546D01*
X0180292Y0346476D01*
X0180233Y0346408D01*
X0180172Y0346344D01*
X0180108Y0346282D01*
X0180041Y0346223D01*
X0179972Y0346167D01*
X0179900Y0346114D01*
X0179826Y0346064D01*
X0179750Y0346018D01*
X0179672Y0345975D01*
X0179592Y0345936D01*
X0179510Y0345900D01*
X0179427Y0345868D01*
X0179343Y0345840D01*
X0179257Y0345815D01*
X0179170Y0345795D01*
X0179083Y0345778D01*
X0178994Y0345765D01*
X0178906Y0345756D01*
X0178817Y0345751D01*
X0178728Y0345750D01*
X0178639Y0345753D01*
X0178550Y0345760D01*
X0178461Y0345771D01*
X0178373Y0345786D01*
X0178286Y0345804D01*
X0178200Y0345827D01*
X0178115Y0345853D01*
X0178031Y0345884D01*
X0177949Y0345918D01*
X0177868Y0345955D01*
X0177789Y0345996D01*
X0177712Y0346041D01*
X0177637Y0346089D01*
X0177564Y0346140D01*
X0177493Y0346194D01*
X0177425Y0346252D01*
X0177360Y0346312D01*
X0177297Y0346376D01*
X0177237Y0346442D01*
X0177180Y0346511D01*
X0177127Y0346582D01*
X0177076Y0346655D01*
X0177029Y0346731D01*
X0176986Y0346808D01*
X0176945Y0346888D01*
X0176909Y0346969D01*
X0176876Y0347052D01*
X0176847Y0347136D01*
X0176821Y0347222D01*
X0176799Y0347308D01*
X0176782Y0347395D01*
X0176768Y0347483D01*
X0176758Y0347572D01*
X0176752Y0347661D01*
X0176750Y0347750D01*
X0057884Y0262750D02*
X0057886Y0262834D01*
X0057892Y0262917D01*
X0057902Y0263000D01*
X0057916Y0263083D01*
X0057933Y0263165D01*
X0057955Y0263246D01*
X0057980Y0263325D01*
X0058009Y0263404D01*
X0058042Y0263481D01*
X0058078Y0263556D01*
X0058118Y0263630D01*
X0058161Y0263702D01*
X0058208Y0263771D01*
X0058258Y0263838D01*
X0058311Y0263903D01*
X0058367Y0263965D01*
X0058425Y0264025D01*
X0058487Y0264082D01*
X0058551Y0264135D01*
X0058618Y0264186D01*
X0058687Y0264233D01*
X0058758Y0264278D01*
X0058831Y0264318D01*
X0058906Y0264355D01*
X0058983Y0264389D01*
X0059061Y0264419D01*
X0059140Y0264445D01*
X0059221Y0264468D01*
X0059303Y0264486D01*
X0059385Y0264501D01*
X0059468Y0264512D01*
X0059551Y0264519D01*
X0059635Y0264522D01*
X0059719Y0264521D01*
X0059802Y0264516D01*
X0059886Y0264507D01*
X0059968Y0264494D01*
X0060050Y0264478D01*
X0060131Y0264457D01*
X0060212Y0264433D01*
X0060290Y0264405D01*
X0060368Y0264373D01*
X0060444Y0264337D01*
X0060518Y0264298D01*
X0060590Y0264256D01*
X0060660Y0264210D01*
X0060728Y0264161D01*
X0060793Y0264109D01*
X0060856Y0264054D01*
X0060916Y0263996D01*
X0060974Y0263935D01*
X0061028Y0263871D01*
X0061080Y0263805D01*
X0061128Y0263737D01*
X0061173Y0263666D01*
X0061214Y0263593D01*
X0061253Y0263519D01*
X0061287Y0263443D01*
X0061318Y0263365D01*
X0061345Y0263286D01*
X0061369Y0263205D01*
X0061388Y0263124D01*
X0061404Y0263042D01*
X0061416Y0262959D01*
X0061424Y0262875D01*
X0061428Y0262792D01*
X0061428Y0262708D01*
X0061424Y0262625D01*
X0061416Y0262541D01*
X0061404Y0262458D01*
X0061388Y0262376D01*
X0061369Y0262295D01*
X0061345Y0262214D01*
X0061318Y0262135D01*
X0061287Y0262057D01*
X0061253Y0261981D01*
X0061214Y0261907D01*
X0061173Y0261834D01*
X0061128Y0261763D01*
X0061080Y0261695D01*
X0061028Y0261629D01*
X0060974Y0261565D01*
X0060916Y0261504D01*
X0060856Y0261446D01*
X0060793Y0261391D01*
X0060728Y0261339D01*
X0060660Y0261290D01*
X0060590Y0261244D01*
X0060518Y0261202D01*
X0060444Y0261163D01*
X0060368Y0261127D01*
X0060290Y0261095D01*
X0060212Y0261067D01*
X0060131Y0261043D01*
X0060050Y0261022D01*
X0059968Y0261006D01*
X0059886Y0260993D01*
X0059802Y0260984D01*
X0059719Y0260979D01*
X0059635Y0260978D01*
X0059551Y0260981D01*
X0059468Y0260988D01*
X0059385Y0260999D01*
X0059303Y0261014D01*
X0059221Y0261032D01*
X0059140Y0261055D01*
X0059061Y0261081D01*
X0058983Y0261111D01*
X0058906Y0261145D01*
X0058831Y0261182D01*
X0058758Y0261222D01*
X0058687Y0261267D01*
X0058618Y0261314D01*
X0058551Y0261365D01*
X0058487Y0261418D01*
X0058425Y0261475D01*
X0058367Y0261535D01*
X0058311Y0261597D01*
X0058258Y0261662D01*
X0058208Y0261729D01*
X0058161Y0261798D01*
X0058118Y0261870D01*
X0058078Y0261944D01*
X0058042Y0262019D01*
X0058009Y0262096D01*
X0057980Y0262175D01*
X0057955Y0262254D01*
X0057933Y0262335D01*
X0057916Y0262417D01*
X0057902Y0262500D01*
X0057892Y0262583D01*
X0057886Y0262666D01*
X0057884Y0262750D01*
X0046072Y0262750D02*
X0046074Y0262834D01*
X0046080Y0262917D01*
X0046090Y0263000D01*
X0046104Y0263083D01*
X0046121Y0263165D01*
X0046143Y0263246D01*
X0046168Y0263325D01*
X0046197Y0263404D01*
X0046230Y0263481D01*
X0046266Y0263556D01*
X0046306Y0263630D01*
X0046349Y0263702D01*
X0046396Y0263771D01*
X0046446Y0263838D01*
X0046499Y0263903D01*
X0046555Y0263965D01*
X0046613Y0264025D01*
X0046675Y0264082D01*
X0046739Y0264135D01*
X0046806Y0264186D01*
X0046875Y0264233D01*
X0046946Y0264278D01*
X0047019Y0264318D01*
X0047094Y0264355D01*
X0047171Y0264389D01*
X0047249Y0264419D01*
X0047328Y0264445D01*
X0047409Y0264468D01*
X0047491Y0264486D01*
X0047573Y0264501D01*
X0047656Y0264512D01*
X0047739Y0264519D01*
X0047823Y0264522D01*
X0047907Y0264521D01*
X0047990Y0264516D01*
X0048074Y0264507D01*
X0048156Y0264494D01*
X0048238Y0264478D01*
X0048319Y0264457D01*
X0048400Y0264433D01*
X0048478Y0264405D01*
X0048556Y0264373D01*
X0048632Y0264337D01*
X0048706Y0264298D01*
X0048778Y0264256D01*
X0048848Y0264210D01*
X0048916Y0264161D01*
X0048981Y0264109D01*
X0049044Y0264054D01*
X0049104Y0263996D01*
X0049162Y0263935D01*
X0049216Y0263871D01*
X0049268Y0263805D01*
X0049316Y0263737D01*
X0049361Y0263666D01*
X0049402Y0263593D01*
X0049441Y0263519D01*
X0049475Y0263443D01*
X0049506Y0263365D01*
X0049533Y0263286D01*
X0049557Y0263205D01*
X0049576Y0263124D01*
X0049592Y0263042D01*
X0049604Y0262959D01*
X0049612Y0262875D01*
X0049616Y0262792D01*
X0049616Y0262708D01*
X0049612Y0262625D01*
X0049604Y0262541D01*
X0049592Y0262458D01*
X0049576Y0262376D01*
X0049557Y0262295D01*
X0049533Y0262214D01*
X0049506Y0262135D01*
X0049475Y0262057D01*
X0049441Y0261981D01*
X0049402Y0261907D01*
X0049361Y0261834D01*
X0049316Y0261763D01*
X0049268Y0261695D01*
X0049216Y0261629D01*
X0049162Y0261565D01*
X0049104Y0261504D01*
X0049044Y0261446D01*
X0048981Y0261391D01*
X0048916Y0261339D01*
X0048848Y0261290D01*
X0048778Y0261244D01*
X0048706Y0261202D01*
X0048632Y0261163D01*
X0048556Y0261127D01*
X0048478Y0261095D01*
X0048400Y0261067D01*
X0048319Y0261043D01*
X0048238Y0261022D01*
X0048156Y0261006D01*
X0048074Y0260993D01*
X0047990Y0260984D01*
X0047907Y0260979D01*
X0047823Y0260978D01*
X0047739Y0260981D01*
X0047656Y0260988D01*
X0047573Y0260999D01*
X0047491Y0261014D01*
X0047409Y0261032D01*
X0047328Y0261055D01*
X0047249Y0261081D01*
X0047171Y0261111D01*
X0047094Y0261145D01*
X0047019Y0261182D01*
X0046946Y0261222D01*
X0046875Y0261267D01*
X0046806Y0261314D01*
X0046739Y0261365D01*
X0046675Y0261418D01*
X0046613Y0261475D01*
X0046555Y0261535D01*
X0046499Y0261597D01*
X0046446Y0261662D01*
X0046396Y0261729D01*
X0046349Y0261798D01*
X0046306Y0261870D01*
X0046266Y0261944D01*
X0046230Y0262019D01*
X0046197Y0262096D01*
X0046168Y0262175D01*
X0046143Y0262254D01*
X0046121Y0262335D01*
X0046104Y0262417D01*
X0046090Y0262500D01*
X0046080Y0262583D01*
X0046074Y0262666D01*
X0046072Y0262750D01*
X0052372Y0244293D02*
X0052374Y0244367D01*
X0052380Y0244441D01*
X0052390Y0244514D01*
X0052404Y0244587D01*
X0052421Y0244659D01*
X0052443Y0244729D01*
X0052468Y0244799D01*
X0052497Y0244867D01*
X0052530Y0244933D01*
X0052566Y0244998D01*
X0052606Y0245060D01*
X0052648Y0245121D01*
X0052694Y0245179D01*
X0052743Y0245234D01*
X0052795Y0245287D01*
X0052850Y0245337D01*
X0052907Y0245383D01*
X0052967Y0245427D01*
X0053029Y0245467D01*
X0053093Y0245504D01*
X0053159Y0245538D01*
X0053227Y0245568D01*
X0053296Y0245594D01*
X0053367Y0245617D01*
X0053438Y0245635D01*
X0053511Y0245650D01*
X0053584Y0245661D01*
X0053658Y0245668D01*
X0053732Y0245671D01*
X0053805Y0245670D01*
X0053879Y0245665D01*
X0053953Y0245656D01*
X0054026Y0245643D01*
X0054098Y0245626D01*
X0054169Y0245606D01*
X0054239Y0245581D01*
X0054307Y0245553D01*
X0054374Y0245522D01*
X0054439Y0245486D01*
X0054502Y0245448D01*
X0054563Y0245406D01*
X0054622Y0245360D01*
X0054678Y0245312D01*
X0054731Y0245261D01*
X0054781Y0245207D01*
X0054829Y0245150D01*
X0054873Y0245091D01*
X0054915Y0245029D01*
X0054953Y0244966D01*
X0054987Y0244900D01*
X0055018Y0244833D01*
X0055045Y0244764D01*
X0055068Y0244694D01*
X0055088Y0244623D01*
X0055104Y0244550D01*
X0055116Y0244477D01*
X0055124Y0244404D01*
X0055128Y0244330D01*
X0055128Y0244256D01*
X0055124Y0244182D01*
X0055116Y0244109D01*
X0055104Y0244036D01*
X0055088Y0243963D01*
X0055068Y0243892D01*
X0055045Y0243822D01*
X0055018Y0243753D01*
X0054987Y0243686D01*
X0054953Y0243620D01*
X0054915Y0243557D01*
X0054873Y0243495D01*
X0054829Y0243436D01*
X0054781Y0243379D01*
X0054731Y0243325D01*
X0054678Y0243274D01*
X0054622Y0243226D01*
X0054563Y0243180D01*
X0054502Y0243138D01*
X0054439Y0243100D01*
X0054374Y0243064D01*
X0054307Y0243033D01*
X0054239Y0243005D01*
X0054169Y0242980D01*
X0054098Y0242960D01*
X0054026Y0242943D01*
X0053953Y0242930D01*
X0053879Y0242921D01*
X0053805Y0242916D01*
X0053732Y0242915D01*
X0053658Y0242918D01*
X0053584Y0242925D01*
X0053511Y0242936D01*
X0053438Y0242951D01*
X0053367Y0242969D01*
X0053296Y0242992D01*
X0053227Y0243018D01*
X0053159Y0243048D01*
X0053093Y0243082D01*
X0053029Y0243119D01*
X0052967Y0243159D01*
X0052907Y0243203D01*
X0052850Y0243249D01*
X0052795Y0243299D01*
X0052743Y0243352D01*
X0052694Y0243407D01*
X0052648Y0243465D01*
X0052606Y0243526D01*
X0052566Y0243588D01*
X0052530Y0243653D01*
X0052497Y0243719D01*
X0052468Y0243787D01*
X0052443Y0243857D01*
X0052421Y0243927D01*
X0052404Y0243999D01*
X0052390Y0244072D01*
X0052380Y0244145D01*
X0052374Y0244219D01*
X0052372Y0244293D01*
X0052372Y0237207D02*
X0052374Y0237281D01*
X0052380Y0237355D01*
X0052390Y0237428D01*
X0052404Y0237501D01*
X0052421Y0237573D01*
X0052443Y0237643D01*
X0052468Y0237713D01*
X0052497Y0237781D01*
X0052530Y0237847D01*
X0052566Y0237912D01*
X0052606Y0237974D01*
X0052648Y0238035D01*
X0052694Y0238093D01*
X0052743Y0238148D01*
X0052795Y0238201D01*
X0052850Y0238251D01*
X0052907Y0238297D01*
X0052967Y0238341D01*
X0053029Y0238381D01*
X0053093Y0238418D01*
X0053159Y0238452D01*
X0053227Y0238482D01*
X0053296Y0238508D01*
X0053367Y0238531D01*
X0053438Y0238549D01*
X0053511Y0238564D01*
X0053584Y0238575D01*
X0053658Y0238582D01*
X0053732Y0238585D01*
X0053805Y0238584D01*
X0053879Y0238579D01*
X0053953Y0238570D01*
X0054026Y0238557D01*
X0054098Y0238540D01*
X0054169Y0238520D01*
X0054239Y0238495D01*
X0054307Y0238467D01*
X0054374Y0238436D01*
X0054439Y0238400D01*
X0054502Y0238362D01*
X0054563Y0238320D01*
X0054622Y0238274D01*
X0054678Y0238226D01*
X0054731Y0238175D01*
X0054781Y0238121D01*
X0054829Y0238064D01*
X0054873Y0238005D01*
X0054915Y0237943D01*
X0054953Y0237880D01*
X0054987Y0237814D01*
X0055018Y0237747D01*
X0055045Y0237678D01*
X0055068Y0237608D01*
X0055088Y0237537D01*
X0055104Y0237464D01*
X0055116Y0237391D01*
X0055124Y0237318D01*
X0055128Y0237244D01*
X0055128Y0237170D01*
X0055124Y0237096D01*
X0055116Y0237023D01*
X0055104Y0236950D01*
X0055088Y0236877D01*
X0055068Y0236806D01*
X0055045Y0236736D01*
X0055018Y0236667D01*
X0054987Y0236600D01*
X0054953Y0236534D01*
X0054915Y0236471D01*
X0054873Y0236409D01*
X0054829Y0236350D01*
X0054781Y0236293D01*
X0054731Y0236239D01*
X0054678Y0236188D01*
X0054622Y0236140D01*
X0054563Y0236094D01*
X0054502Y0236052D01*
X0054439Y0236014D01*
X0054374Y0235978D01*
X0054307Y0235947D01*
X0054239Y0235919D01*
X0054169Y0235894D01*
X0054098Y0235874D01*
X0054026Y0235857D01*
X0053953Y0235844D01*
X0053879Y0235835D01*
X0053805Y0235830D01*
X0053732Y0235829D01*
X0053658Y0235832D01*
X0053584Y0235839D01*
X0053511Y0235850D01*
X0053438Y0235865D01*
X0053367Y0235883D01*
X0053296Y0235906D01*
X0053227Y0235932D01*
X0053159Y0235962D01*
X0053093Y0235996D01*
X0053029Y0236033D01*
X0052967Y0236073D01*
X0052907Y0236117D01*
X0052850Y0236163D01*
X0052795Y0236213D01*
X0052743Y0236266D01*
X0052694Y0236321D01*
X0052648Y0236379D01*
X0052606Y0236440D01*
X0052566Y0236502D01*
X0052530Y0236567D01*
X0052497Y0236633D01*
X0052468Y0236701D01*
X0052443Y0236771D01*
X0052421Y0236841D01*
X0052404Y0236913D01*
X0052390Y0236986D01*
X0052380Y0237059D01*
X0052374Y0237133D01*
X0052372Y0237207D01*
X0046072Y0150750D02*
X0046074Y0150834D01*
X0046080Y0150917D01*
X0046090Y0151000D01*
X0046104Y0151083D01*
X0046121Y0151165D01*
X0046143Y0151246D01*
X0046168Y0151325D01*
X0046197Y0151404D01*
X0046230Y0151481D01*
X0046266Y0151556D01*
X0046306Y0151630D01*
X0046349Y0151702D01*
X0046396Y0151771D01*
X0046446Y0151838D01*
X0046499Y0151903D01*
X0046555Y0151965D01*
X0046613Y0152025D01*
X0046675Y0152082D01*
X0046739Y0152135D01*
X0046806Y0152186D01*
X0046875Y0152233D01*
X0046946Y0152278D01*
X0047019Y0152318D01*
X0047094Y0152355D01*
X0047171Y0152389D01*
X0047249Y0152419D01*
X0047328Y0152445D01*
X0047409Y0152468D01*
X0047491Y0152486D01*
X0047573Y0152501D01*
X0047656Y0152512D01*
X0047739Y0152519D01*
X0047823Y0152522D01*
X0047907Y0152521D01*
X0047990Y0152516D01*
X0048074Y0152507D01*
X0048156Y0152494D01*
X0048238Y0152478D01*
X0048319Y0152457D01*
X0048400Y0152433D01*
X0048478Y0152405D01*
X0048556Y0152373D01*
X0048632Y0152337D01*
X0048706Y0152298D01*
X0048778Y0152256D01*
X0048848Y0152210D01*
X0048916Y0152161D01*
X0048981Y0152109D01*
X0049044Y0152054D01*
X0049104Y0151996D01*
X0049162Y0151935D01*
X0049216Y0151871D01*
X0049268Y0151805D01*
X0049316Y0151737D01*
X0049361Y0151666D01*
X0049402Y0151593D01*
X0049441Y0151519D01*
X0049475Y0151443D01*
X0049506Y0151365D01*
X0049533Y0151286D01*
X0049557Y0151205D01*
X0049576Y0151124D01*
X0049592Y0151042D01*
X0049604Y0150959D01*
X0049612Y0150875D01*
X0049616Y0150792D01*
X0049616Y0150708D01*
X0049612Y0150625D01*
X0049604Y0150541D01*
X0049592Y0150458D01*
X0049576Y0150376D01*
X0049557Y0150295D01*
X0049533Y0150214D01*
X0049506Y0150135D01*
X0049475Y0150057D01*
X0049441Y0149981D01*
X0049402Y0149907D01*
X0049361Y0149834D01*
X0049316Y0149763D01*
X0049268Y0149695D01*
X0049216Y0149629D01*
X0049162Y0149565D01*
X0049104Y0149504D01*
X0049044Y0149446D01*
X0048981Y0149391D01*
X0048916Y0149339D01*
X0048848Y0149290D01*
X0048778Y0149244D01*
X0048706Y0149202D01*
X0048632Y0149163D01*
X0048556Y0149127D01*
X0048478Y0149095D01*
X0048400Y0149067D01*
X0048319Y0149043D01*
X0048238Y0149022D01*
X0048156Y0149006D01*
X0048074Y0148993D01*
X0047990Y0148984D01*
X0047907Y0148979D01*
X0047823Y0148978D01*
X0047739Y0148981D01*
X0047656Y0148988D01*
X0047573Y0148999D01*
X0047491Y0149014D01*
X0047409Y0149032D01*
X0047328Y0149055D01*
X0047249Y0149081D01*
X0047171Y0149111D01*
X0047094Y0149145D01*
X0047019Y0149182D01*
X0046946Y0149222D01*
X0046875Y0149267D01*
X0046806Y0149314D01*
X0046739Y0149365D01*
X0046675Y0149418D01*
X0046613Y0149475D01*
X0046555Y0149535D01*
X0046499Y0149597D01*
X0046446Y0149662D01*
X0046396Y0149729D01*
X0046349Y0149798D01*
X0046306Y0149870D01*
X0046266Y0149944D01*
X0046230Y0150019D01*
X0046197Y0150096D01*
X0046168Y0150175D01*
X0046143Y0150254D01*
X0046121Y0150335D01*
X0046104Y0150417D01*
X0046090Y0150500D01*
X0046080Y0150583D01*
X0046074Y0150666D01*
X0046072Y0150750D01*
X0057884Y0150750D02*
X0057886Y0150834D01*
X0057892Y0150917D01*
X0057902Y0151000D01*
X0057916Y0151083D01*
X0057933Y0151165D01*
X0057955Y0151246D01*
X0057980Y0151325D01*
X0058009Y0151404D01*
X0058042Y0151481D01*
X0058078Y0151556D01*
X0058118Y0151630D01*
X0058161Y0151702D01*
X0058208Y0151771D01*
X0058258Y0151838D01*
X0058311Y0151903D01*
X0058367Y0151965D01*
X0058425Y0152025D01*
X0058487Y0152082D01*
X0058551Y0152135D01*
X0058618Y0152186D01*
X0058687Y0152233D01*
X0058758Y0152278D01*
X0058831Y0152318D01*
X0058906Y0152355D01*
X0058983Y0152389D01*
X0059061Y0152419D01*
X0059140Y0152445D01*
X0059221Y0152468D01*
X0059303Y0152486D01*
X0059385Y0152501D01*
X0059468Y0152512D01*
X0059551Y0152519D01*
X0059635Y0152522D01*
X0059719Y0152521D01*
X0059802Y0152516D01*
X0059886Y0152507D01*
X0059968Y0152494D01*
X0060050Y0152478D01*
X0060131Y0152457D01*
X0060212Y0152433D01*
X0060290Y0152405D01*
X0060368Y0152373D01*
X0060444Y0152337D01*
X0060518Y0152298D01*
X0060590Y0152256D01*
X0060660Y0152210D01*
X0060728Y0152161D01*
X0060793Y0152109D01*
X0060856Y0152054D01*
X0060916Y0151996D01*
X0060974Y0151935D01*
X0061028Y0151871D01*
X0061080Y0151805D01*
X0061128Y0151737D01*
X0061173Y0151666D01*
X0061214Y0151593D01*
X0061253Y0151519D01*
X0061287Y0151443D01*
X0061318Y0151365D01*
X0061345Y0151286D01*
X0061369Y0151205D01*
X0061388Y0151124D01*
X0061404Y0151042D01*
X0061416Y0150959D01*
X0061424Y0150875D01*
X0061428Y0150792D01*
X0061428Y0150708D01*
X0061424Y0150625D01*
X0061416Y0150541D01*
X0061404Y0150458D01*
X0061388Y0150376D01*
X0061369Y0150295D01*
X0061345Y0150214D01*
X0061318Y0150135D01*
X0061287Y0150057D01*
X0061253Y0149981D01*
X0061214Y0149907D01*
X0061173Y0149834D01*
X0061128Y0149763D01*
X0061080Y0149695D01*
X0061028Y0149629D01*
X0060974Y0149565D01*
X0060916Y0149504D01*
X0060856Y0149446D01*
X0060793Y0149391D01*
X0060728Y0149339D01*
X0060660Y0149290D01*
X0060590Y0149244D01*
X0060518Y0149202D01*
X0060444Y0149163D01*
X0060368Y0149127D01*
X0060290Y0149095D01*
X0060212Y0149067D01*
X0060131Y0149043D01*
X0060050Y0149022D01*
X0059968Y0149006D01*
X0059886Y0148993D01*
X0059802Y0148984D01*
X0059719Y0148979D01*
X0059635Y0148978D01*
X0059551Y0148981D01*
X0059468Y0148988D01*
X0059385Y0148999D01*
X0059303Y0149014D01*
X0059221Y0149032D01*
X0059140Y0149055D01*
X0059061Y0149081D01*
X0058983Y0149111D01*
X0058906Y0149145D01*
X0058831Y0149182D01*
X0058758Y0149222D01*
X0058687Y0149267D01*
X0058618Y0149314D01*
X0058551Y0149365D01*
X0058487Y0149418D01*
X0058425Y0149475D01*
X0058367Y0149535D01*
X0058311Y0149597D01*
X0058258Y0149662D01*
X0058208Y0149729D01*
X0058161Y0149798D01*
X0058118Y0149870D01*
X0058078Y0149944D01*
X0058042Y0150019D01*
X0058009Y0150096D01*
X0057980Y0150175D01*
X0057955Y0150254D01*
X0057933Y0150335D01*
X0057916Y0150417D01*
X0057902Y0150500D01*
X0057892Y0150583D01*
X0057886Y0150666D01*
X0057884Y0150750D01*
X0052372Y0132293D02*
X0052374Y0132367D01*
X0052380Y0132441D01*
X0052390Y0132514D01*
X0052404Y0132587D01*
X0052421Y0132659D01*
X0052443Y0132729D01*
X0052468Y0132799D01*
X0052497Y0132867D01*
X0052530Y0132933D01*
X0052566Y0132998D01*
X0052606Y0133060D01*
X0052648Y0133121D01*
X0052694Y0133179D01*
X0052743Y0133234D01*
X0052795Y0133287D01*
X0052850Y0133337D01*
X0052907Y0133383D01*
X0052967Y0133427D01*
X0053029Y0133467D01*
X0053093Y0133504D01*
X0053159Y0133538D01*
X0053227Y0133568D01*
X0053296Y0133594D01*
X0053367Y0133617D01*
X0053438Y0133635D01*
X0053511Y0133650D01*
X0053584Y0133661D01*
X0053658Y0133668D01*
X0053732Y0133671D01*
X0053805Y0133670D01*
X0053879Y0133665D01*
X0053953Y0133656D01*
X0054026Y0133643D01*
X0054098Y0133626D01*
X0054169Y0133606D01*
X0054239Y0133581D01*
X0054307Y0133553D01*
X0054374Y0133522D01*
X0054439Y0133486D01*
X0054502Y0133448D01*
X0054563Y0133406D01*
X0054622Y0133360D01*
X0054678Y0133312D01*
X0054731Y0133261D01*
X0054781Y0133207D01*
X0054829Y0133150D01*
X0054873Y0133091D01*
X0054915Y0133029D01*
X0054953Y0132966D01*
X0054987Y0132900D01*
X0055018Y0132833D01*
X0055045Y0132764D01*
X0055068Y0132694D01*
X0055088Y0132623D01*
X0055104Y0132550D01*
X0055116Y0132477D01*
X0055124Y0132404D01*
X0055128Y0132330D01*
X0055128Y0132256D01*
X0055124Y0132182D01*
X0055116Y0132109D01*
X0055104Y0132036D01*
X0055088Y0131963D01*
X0055068Y0131892D01*
X0055045Y0131822D01*
X0055018Y0131753D01*
X0054987Y0131686D01*
X0054953Y0131620D01*
X0054915Y0131557D01*
X0054873Y0131495D01*
X0054829Y0131436D01*
X0054781Y0131379D01*
X0054731Y0131325D01*
X0054678Y0131274D01*
X0054622Y0131226D01*
X0054563Y0131180D01*
X0054502Y0131138D01*
X0054439Y0131100D01*
X0054374Y0131064D01*
X0054307Y0131033D01*
X0054239Y0131005D01*
X0054169Y0130980D01*
X0054098Y0130960D01*
X0054026Y0130943D01*
X0053953Y0130930D01*
X0053879Y0130921D01*
X0053805Y0130916D01*
X0053732Y0130915D01*
X0053658Y0130918D01*
X0053584Y0130925D01*
X0053511Y0130936D01*
X0053438Y0130951D01*
X0053367Y0130969D01*
X0053296Y0130992D01*
X0053227Y0131018D01*
X0053159Y0131048D01*
X0053093Y0131082D01*
X0053029Y0131119D01*
X0052967Y0131159D01*
X0052907Y0131203D01*
X0052850Y0131249D01*
X0052795Y0131299D01*
X0052743Y0131352D01*
X0052694Y0131407D01*
X0052648Y0131465D01*
X0052606Y0131526D01*
X0052566Y0131588D01*
X0052530Y0131653D01*
X0052497Y0131719D01*
X0052468Y0131787D01*
X0052443Y0131857D01*
X0052421Y0131927D01*
X0052404Y0131999D01*
X0052390Y0132072D01*
X0052380Y0132145D01*
X0052374Y0132219D01*
X0052372Y0132293D01*
X0052372Y0125207D02*
X0052374Y0125281D01*
X0052380Y0125355D01*
X0052390Y0125428D01*
X0052404Y0125501D01*
X0052421Y0125573D01*
X0052443Y0125643D01*
X0052468Y0125713D01*
X0052497Y0125781D01*
X0052530Y0125847D01*
X0052566Y0125912D01*
X0052606Y0125974D01*
X0052648Y0126035D01*
X0052694Y0126093D01*
X0052743Y0126148D01*
X0052795Y0126201D01*
X0052850Y0126251D01*
X0052907Y0126297D01*
X0052967Y0126341D01*
X0053029Y0126381D01*
X0053093Y0126418D01*
X0053159Y0126452D01*
X0053227Y0126482D01*
X0053296Y0126508D01*
X0053367Y0126531D01*
X0053438Y0126549D01*
X0053511Y0126564D01*
X0053584Y0126575D01*
X0053658Y0126582D01*
X0053732Y0126585D01*
X0053805Y0126584D01*
X0053879Y0126579D01*
X0053953Y0126570D01*
X0054026Y0126557D01*
X0054098Y0126540D01*
X0054169Y0126520D01*
X0054239Y0126495D01*
X0054307Y0126467D01*
X0054374Y0126436D01*
X0054439Y0126400D01*
X0054502Y0126362D01*
X0054563Y0126320D01*
X0054622Y0126274D01*
X0054678Y0126226D01*
X0054731Y0126175D01*
X0054781Y0126121D01*
X0054829Y0126064D01*
X0054873Y0126005D01*
X0054915Y0125943D01*
X0054953Y0125880D01*
X0054987Y0125814D01*
X0055018Y0125747D01*
X0055045Y0125678D01*
X0055068Y0125608D01*
X0055088Y0125537D01*
X0055104Y0125464D01*
X0055116Y0125391D01*
X0055124Y0125318D01*
X0055128Y0125244D01*
X0055128Y0125170D01*
X0055124Y0125096D01*
X0055116Y0125023D01*
X0055104Y0124950D01*
X0055088Y0124877D01*
X0055068Y0124806D01*
X0055045Y0124736D01*
X0055018Y0124667D01*
X0054987Y0124600D01*
X0054953Y0124534D01*
X0054915Y0124471D01*
X0054873Y0124409D01*
X0054829Y0124350D01*
X0054781Y0124293D01*
X0054731Y0124239D01*
X0054678Y0124188D01*
X0054622Y0124140D01*
X0054563Y0124094D01*
X0054502Y0124052D01*
X0054439Y0124014D01*
X0054374Y0123978D01*
X0054307Y0123947D01*
X0054239Y0123919D01*
X0054169Y0123894D01*
X0054098Y0123874D01*
X0054026Y0123857D01*
X0053953Y0123844D01*
X0053879Y0123835D01*
X0053805Y0123830D01*
X0053732Y0123829D01*
X0053658Y0123832D01*
X0053584Y0123839D01*
X0053511Y0123850D01*
X0053438Y0123865D01*
X0053367Y0123883D01*
X0053296Y0123906D01*
X0053227Y0123932D01*
X0053159Y0123962D01*
X0053093Y0123996D01*
X0053029Y0124033D01*
X0052967Y0124073D01*
X0052907Y0124117D01*
X0052850Y0124163D01*
X0052795Y0124213D01*
X0052743Y0124266D01*
X0052694Y0124321D01*
X0052648Y0124379D01*
X0052606Y0124440D01*
X0052566Y0124502D01*
X0052530Y0124567D01*
X0052497Y0124633D01*
X0052468Y0124701D01*
X0052443Y0124771D01*
X0052421Y0124841D01*
X0052404Y0124913D01*
X0052390Y0124986D01*
X0052380Y0125059D01*
X0052374Y0125133D01*
X0052372Y0125207D01*
X0046072Y0038750D02*
X0046074Y0038834D01*
X0046080Y0038917D01*
X0046090Y0039000D01*
X0046104Y0039083D01*
X0046121Y0039165D01*
X0046143Y0039246D01*
X0046168Y0039325D01*
X0046197Y0039404D01*
X0046230Y0039481D01*
X0046266Y0039556D01*
X0046306Y0039630D01*
X0046349Y0039702D01*
X0046396Y0039771D01*
X0046446Y0039838D01*
X0046499Y0039903D01*
X0046555Y0039965D01*
X0046613Y0040025D01*
X0046675Y0040082D01*
X0046739Y0040135D01*
X0046806Y0040186D01*
X0046875Y0040233D01*
X0046946Y0040278D01*
X0047019Y0040318D01*
X0047094Y0040355D01*
X0047171Y0040389D01*
X0047249Y0040419D01*
X0047328Y0040445D01*
X0047409Y0040468D01*
X0047491Y0040486D01*
X0047573Y0040501D01*
X0047656Y0040512D01*
X0047739Y0040519D01*
X0047823Y0040522D01*
X0047907Y0040521D01*
X0047990Y0040516D01*
X0048074Y0040507D01*
X0048156Y0040494D01*
X0048238Y0040478D01*
X0048319Y0040457D01*
X0048400Y0040433D01*
X0048478Y0040405D01*
X0048556Y0040373D01*
X0048632Y0040337D01*
X0048706Y0040298D01*
X0048778Y0040256D01*
X0048848Y0040210D01*
X0048916Y0040161D01*
X0048981Y0040109D01*
X0049044Y0040054D01*
X0049104Y0039996D01*
X0049162Y0039935D01*
X0049216Y0039871D01*
X0049268Y0039805D01*
X0049316Y0039737D01*
X0049361Y0039666D01*
X0049402Y0039593D01*
X0049441Y0039519D01*
X0049475Y0039443D01*
X0049506Y0039365D01*
X0049533Y0039286D01*
X0049557Y0039205D01*
X0049576Y0039124D01*
X0049592Y0039042D01*
X0049604Y0038959D01*
X0049612Y0038875D01*
X0049616Y0038792D01*
X0049616Y0038708D01*
X0049612Y0038625D01*
X0049604Y0038541D01*
X0049592Y0038458D01*
X0049576Y0038376D01*
X0049557Y0038295D01*
X0049533Y0038214D01*
X0049506Y0038135D01*
X0049475Y0038057D01*
X0049441Y0037981D01*
X0049402Y0037907D01*
X0049361Y0037834D01*
X0049316Y0037763D01*
X0049268Y0037695D01*
X0049216Y0037629D01*
X0049162Y0037565D01*
X0049104Y0037504D01*
X0049044Y0037446D01*
X0048981Y0037391D01*
X0048916Y0037339D01*
X0048848Y0037290D01*
X0048778Y0037244D01*
X0048706Y0037202D01*
X0048632Y0037163D01*
X0048556Y0037127D01*
X0048478Y0037095D01*
X0048400Y0037067D01*
X0048319Y0037043D01*
X0048238Y0037022D01*
X0048156Y0037006D01*
X0048074Y0036993D01*
X0047990Y0036984D01*
X0047907Y0036979D01*
X0047823Y0036978D01*
X0047739Y0036981D01*
X0047656Y0036988D01*
X0047573Y0036999D01*
X0047491Y0037014D01*
X0047409Y0037032D01*
X0047328Y0037055D01*
X0047249Y0037081D01*
X0047171Y0037111D01*
X0047094Y0037145D01*
X0047019Y0037182D01*
X0046946Y0037222D01*
X0046875Y0037267D01*
X0046806Y0037314D01*
X0046739Y0037365D01*
X0046675Y0037418D01*
X0046613Y0037475D01*
X0046555Y0037535D01*
X0046499Y0037597D01*
X0046446Y0037662D01*
X0046396Y0037729D01*
X0046349Y0037798D01*
X0046306Y0037870D01*
X0046266Y0037944D01*
X0046230Y0038019D01*
X0046197Y0038096D01*
X0046168Y0038175D01*
X0046143Y0038254D01*
X0046121Y0038335D01*
X0046104Y0038417D01*
X0046090Y0038500D01*
X0046080Y0038583D01*
X0046074Y0038666D01*
X0046072Y0038750D01*
X0057884Y0038750D02*
X0057886Y0038834D01*
X0057892Y0038917D01*
X0057902Y0039000D01*
X0057916Y0039083D01*
X0057933Y0039165D01*
X0057955Y0039246D01*
X0057980Y0039325D01*
X0058009Y0039404D01*
X0058042Y0039481D01*
X0058078Y0039556D01*
X0058118Y0039630D01*
X0058161Y0039702D01*
X0058208Y0039771D01*
X0058258Y0039838D01*
X0058311Y0039903D01*
X0058367Y0039965D01*
X0058425Y0040025D01*
X0058487Y0040082D01*
X0058551Y0040135D01*
X0058618Y0040186D01*
X0058687Y0040233D01*
X0058758Y0040278D01*
X0058831Y0040318D01*
X0058906Y0040355D01*
X0058983Y0040389D01*
X0059061Y0040419D01*
X0059140Y0040445D01*
X0059221Y0040468D01*
X0059303Y0040486D01*
X0059385Y0040501D01*
X0059468Y0040512D01*
X0059551Y0040519D01*
X0059635Y0040522D01*
X0059719Y0040521D01*
X0059802Y0040516D01*
X0059886Y0040507D01*
X0059968Y0040494D01*
X0060050Y0040478D01*
X0060131Y0040457D01*
X0060212Y0040433D01*
X0060290Y0040405D01*
X0060368Y0040373D01*
X0060444Y0040337D01*
X0060518Y0040298D01*
X0060590Y0040256D01*
X0060660Y0040210D01*
X0060728Y0040161D01*
X0060793Y0040109D01*
X0060856Y0040054D01*
X0060916Y0039996D01*
X0060974Y0039935D01*
X0061028Y0039871D01*
X0061080Y0039805D01*
X0061128Y0039737D01*
X0061173Y0039666D01*
X0061214Y0039593D01*
X0061253Y0039519D01*
X0061287Y0039443D01*
X0061318Y0039365D01*
X0061345Y0039286D01*
X0061369Y0039205D01*
X0061388Y0039124D01*
X0061404Y0039042D01*
X0061416Y0038959D01*
X0061424Y0038875D01*
X0061428Y0038792D01*
X0061428Y0038708D01*
X0061424Y0038625D01*
X0061416Y0038541D01*
X0061404Y0038458D01*
X0061388Y0038376D01*
X0061369Y0038295D01*
X0061345Y0038214D01*
X0061318Y0038135D01*
X0061287Y0038057D01*
X0061253Y0037981D01*
X0061214Y0037907D01*
X0061173Y0037834D01*
X0061128Y0037763D01*
X0061080Y0037695D01*
X0061028Y0037629D01*
X0060974Y0037565D01*
X0060916Y0037504D01*
X0060856Y0037446D01*
X0060793Y0037391D01*
X0060728Y0037339D01*
X0060660Y0037290D01*
X0060590Y0037244D01*
X0060518Y0037202D01*
X0060444Y0037163D01*
X0060368Y0037127D01*
X0060290Y0037095D01*
X0060212Y0037067D01*
X0060131Y0037043D01*
X0060050Y0037022D01*
X0059968Y0037006D01*
X0059886Y0036993D01*
X0059802Y0036984D01*
X0059719Y0036979D01*
X0059635Y0036978D01*
X0059551Y0036981D01*
X0059468Y0036988D01*
X0059385Y0036999D01*
X0059303Y0037014D01*
X0059221Y0037032D01*
X0059140Y0037055D01*
X0059061Y0037081D01*
X0058983Y0037111D01*
X0058906Y0037145D01*
X0058831Y0037182D01*
X0058758Y0037222D01*
X0058687Y0037267D01*
X0058618Y0037314D01*
X0058551Y0037365D01*
X0058487Y0037418D01*
X0058425Y0037475D01*
X0058367Y0037535D01*
X0058311Y0037597D01*
X0058258Y0037662D01*
X0058208Y0037729D01*
X0058161Y0037798D01*
X0058118Y0037870D01*
X0058078Y0037944D01*
X0058042Y0038019D01*
X0058009Y0038096D01*
X0057980Y0038175D01*
X0057955Y0038254D01*
X0057933Y0038335D01*
X0057916Y0038417D01*
X0057902Y0038500D01*
X0057892Y0038583D01*
X0057886Y0038666D01*
X0057884Y0038750D01*
X0052372Y0349207D02*
X0052374Y0349281D01*
X0052380Y0349355D01*
X0052390Y0349428D01*
X0052404Y0349501D01*
X0052421Y0349573D01*
X0052443Y0349643D01*
X0052468Y0349713D01*
X0052497Y0349781D01*
X0052530Y0349847D01*
X0052566Y0349912D01*
X0052606Y0349974D01*
X0052648Y0350035D01*
X0052694Y0350093D01*
X0052743Y0350148D01*
X0052795Y0350201D01*
X0052850Y0350251D01*
X0052907Y0350297D01*
X0052967Y0350341D01*
X0053029Y0350381D01*
X0053093Y0350418D01*
X0053159Y0350452D01*
X0053227Y0350482D01*
X0053296Y0350508D01*
X0053367Y0350531D01*
X0053438Y0350549D01*
X0053511Y0350564D01*
X0053584Y0350575D01*
X0053658Y0350582D01*
X0053732Y0350585D01*
X0053805Y0350584D01*
X0053879Y0350579D01*
X0053953Y0350570D01*
X0054026Y0350557D01*
X0054098Y0350540D01*
X0054169Y0350520D01*
X0054239Y0350495D01*
X0054307Y0350467D01*
X0054374Y0350436D01*
X0054439Y0350400D01*
X0054502Y0350362D01*
X0054563Y0350320D01*
X0054622Y0350274D01*
X0054678Y0350226D01*
X0054731Y0350175D01*
X0054781Y0350121D01*
X0054829Y0350064D01*
X0054873Y0350005D01*
X0054915Y0349943D01*
X0054953Y0349880D01*
X0054987Y0349814D01*
X0055018Y0349747D01*
X0055045Y0349678D01*
X0055068Y0349608D01*
X0055088Y0349537D01*
X0055104Y0349464D01*
X0055116Y0349391D01*
X0055124Y0349318D01*
X0055128Y0349244D01*
X0055128Y0349170D01*
X0055124Y0349096D01*
X0055116Y0349023D01*
X0055104Y0348950D01*
X0055088Y0348877D01*
X0055068Y0348806D01*
X0055045Y0348736D01*
X0055018Y0348667D01*
X0054987Y0348600D01*
X0054953Y0348534D01*
X0054915Y0348471D01*
X0054873Y0348409D01*
X0054829Y0348350D01*
X0054781Y0348293D01*
X0054731Y0348239D01*
X0054678Y0348188D01*
X0054622Y0348140D01*
X0054563Y0348094D01*
X0054502Y0348052D01*
X0054439Y0348014D01*
X0054374Y0347978D01*
X0054307Y0347947D01*
X0054239Y0347919D01*
X0054169Y0347894D01*
X0054098Y0347874D01*
X0054026Y0347857D01*
X0053953Y0347844D01*
X0053879Y0347835D01*
X0053805Y0347830D01*
X0053732Y0347829D01*
X0053658Y0347832D01*
X0053584Y0347839D01*
X0053511Y0347850D01*
X0053438Y0347865D01*
X0053367Y0347883D01*
X0053296Y0347906D01*
X0053227Y0347932D01*
X0053159Y0347962D01*
X0053093Y0347996D01*
X0053029Y0348033D01*
X0052967Y0348073D01*
X0052907Y0348117D01*
X0052850Y0348163D01*
X0052795Y0348213D01*
X0052743Y0348266D01*
X0052694Y0348321D01*
X0052648Y0348379D01*
X0052606Y0348440D01*
X0052566Y0348502D01*
X0052530Y0348567D01*
X0052497Y0348633D01*
X0052468Y0348701D01*
X0052443Y0348771D01*
X0052421Y0348841D01*
X0052404Y0348913D01*
X0052390Y0348986D01*
X0052380Y0349059D01*
X0052374Y0349133D01*
X0052372Y0349207D01*
X0052372Y0356293D02*
X0052374Y0356367D01*
X0052380Y0356441D01*
X0052390Y0356514D01*
X0052404Y0356587D01*
X0052421Y0356659D01*
X0052443Y0356729D01*
X0052468Y0356799D01*
X0052497Y0356867D01*
X0052530Y0356933D01*
X0052566Y0356998D01*
X0052606Y0357060D01*
X0052648Y0357121D01*
X0052694Y0357179D01*
X0052743Y0357234D01*
X0052795Y0357287D01*
X0052850Y0357337D01*
X0052907Y0357383D01*
X0052967Y0357427D01*
X0053029Y0357467D01*
X0053093Y0357504D01*
X0053159Y0357538D01*
X0053227Y0357568D01*
X0053296Y0357594D01*
X0053367Y0357617D01*
X0053438Y0357635D01*
X0053511Y0357650D01*
X0053584Y0357661D01*
X0053658Y0357668D01*
X0053732Y0357671D01*
X0053805Y0357670D01*
X0053879Y0357665D01*
X0053953Y0357656D01*
X0054026Y0357643D01*
X0054098Y0357626D01*
X0054169Y0357606D01*
X0054239Y0357581D01*
X0054307Y0357553D01*
X0054374Y0357522D01*
X0054439Y0357486D01*
X0054502Y0357448D01*
X0054563Y0357406D01*
X0054622Y0357360D01*
X0054678Y0357312D01*
X0054731Y0357261D01*
X0054781Y0357207D01*
X0054829Y0357150D01*
X0054873Y0357091D01*
X0054915Y0357029D01*
X0054953Y0356966D01*
X0054987Y0356900D01*
X0055018Y0356833D01*
X0055045Y0356764D01*
X0055068Y0356694D01*
X0055088Y0356623D01*
X0055104Y0356550D01*
X0055116Y0356477D01*
X0055124Y0356404D01*
X0055128Y0356330D01*
X0055128Y0356256D01*
X0055124Y0356182D01*
X0055116Y0356109D01*
X0055104Y0356036D01*
X0055088Y0355963D01*
X0055068Y0355892D01*
X0055045Y0355822D01*
X0055018Y0355753D01*
X0054987Y0355686D01*
X0054953Y0355620D01*
X0054915Y0355557D01*
X0054873Y0355495D01*
X0054829Y0355436D01*
X0054781Y0355379D01*
X0054731Y0355325D01*
X0054678Y0355274D01*
X0054622Y0355226D01*
X0054563Y0355180D01*
X0054502Y0355138D01*
X0054439Y0355100D01*
X0054374Y0355064D01*
X0054307Y0355033D01*
X0054239Y0355005D01*
X0054169Y0354980D01*
X0054098Y0354960D01*
X0054026Y0354943D01*
X0053953Y0354930D01*
X0053879Y0354921D01*
X0053805Y0354916D01*
X0053732Y0354915D01*
X0053658Y0354918D01*
X0053584Y0354925D01*
X0053511Y0354936D01*
X0053438Y0354951D01*
X0053367Y0354969D01*
X0053296Y0354992D01*
X0053227Y0355018D01*
X0053159Y0355048D01*
X0053093Y0355082D01*
X0053029Y0355119D01*
X0052967Y0355159D01*
X0052907Y0355203D01*
X0052850Y0355249D01*
X0052795Y0355299D01*
X0052743Y0355352D01*
X0052694Y0355407D01*
X0052648Y0355465D01*
X0052606Y0355526D01*
X0052566Y0355588D01*
X0052530Y0355653D01*
X0052497Y0355719D01*
X0052468Y0355787D01*
X0052443Y0355857D01*
X0052421Y0355927D01*
X0052404Y0355999D01*
X0052390Y0356072D01*
X0052380Y0356145D01*
X0052374Y0356219D01*
X0052372Y0356293D01*
D12*
X0001750Y0363750D02*
X0402750Y0363750D01*
X0351750Y0414750D02*
X0351750Y0001750D01*
X0402750Y0027750D02*
X0001750Y0027750D01*
X0027750Y0001750D02*
X0027750Y0414750D01*
X0189750Y0414750D02*
X0189750Y0001750D01*
X0001750Y0139750D02*
X0402750Y0139750D01*
X0402750Y0251750D02*
X0001750Y0251750D01*
D13*
X0008246Y0420800D02*
X0010215Y0424737D01*
X0012723Y0423753D02*
X0016660Y0423753D01*
X0019169Y0423753D02*
X0020153Y0424737D01*
X0023106Y0424737D01*
X0022121Y0422768D02*
X0023106Y0421784D01*
X0022121Y0420800D01*
X0019169Y0420800D01*
X0020153Y0422768D02*
X0019169Y0423753D01*
X0020153Y0422768D02*
X0022121Y0422768D01*
X0025614Y0421784D02*
X0026599Y0420800D01*
X0029551Y0420800D01*
X0032060Y0421784D02*
X0033044Y0420800D01*
X0035012Y0420800D01*
X0035997Y0421784D01*
X0035997Y0423753D01*
X0035012Y0424737D01*
X0033044Y0424737D01*
X0032060Y0423753D01*
X0032060Y0421784D01*
X0029551Y0424737D02*
X0026599Y0424737D01*
X0025614Y0423753D01*
X0025614Y0421784D01*
X0038505Y0420800D02*
X0038505Y0424737D01*
X0038505Y0422768D02*
X0040474Y0424737D01*
X0041458Y0424737D01*
X0043877Y0423753D02*
X0044861Y0424737D01*
X0046829Y0424737D01*
X0047813Y0423753D01*
X0047813Y0422768D01*
X0043877Y0422768D01*
X0043877Y0421784D02*
X0043877Y0423753D01*
X0043877Y0421784D02*
X0044861Y0420800D01*
X0046829Y0420800D01*
X0008246Y0420800D02*
X0006278Y0424737D01*
X0168278Y0424737D02*
X0170246Y0420800D01*
X0172215Y0424737D01*
X0174723Y0423753D02*
X0178660Y0423753D01*
X0181169Y0423753D02*
X0182153Y0424737D01*
X0185106Y0424737D01*
X0184121Y0422768D02*
X0182153Y0422768D01*
X0181169Y0423753D01*
X0181169Y0420800D02*
X0184121Y0420800D01*
X0185106Y0421784D01*
X0184121Y0422768D01*
X0187614Y0421784D02*
X0187614Y0423753D01*
X0188599Y0424737D01*
X0191551Y0424737D01*
X0194060Y0423753D02*
X0194060Y0421784D01*
X0195044Y0420800D01*
X0197012Y0420800D01*
X0197997Y0421784D01*
X0197997Y0423753D01*
X0197012Y0424737D01*
X0195044Y0424737D01*
X0194060Y0423753D01*
X0191551Y0420800D02*
X0188599Y0420800D01*
X0187614Y0421784D01*
X0200505Y0420800D02*
X0200505Y0424737D01*
X0200505Y0422768D02*
X0202474Y0424737D01*
X0203458Y0424737D01*
X0205877Y0423753D02*
X0206861Y0424737D01*
X0208829Y0424737D01*
X0209813Y0423753D01*
X0209813Y0422768D01*
X0205877Y0422768D01*
X0205877Y0421784D02*
X0205877Y0423753D01*
X0205877Y0421784D02*
X0206861Y0420800D01*
X0208829Y0420800D01*
X0330278Y0424737D02*
X0332246Y0420800D01*
X0334215Y0424737D01*
X0336723Y0423753D02*
X0340660Y0423753D01*
X0343169Y0423753D02*
X0344153Y0424737D01*
X0347106Y0424737D01*
X0346121Y0422768D02*
X0344153Y0422768D01*
X0343169Y0423753D01*
X0343169Y0420800D02*
X0346121Y0420800D01*
X0347106Y0421784D01*
X0346121Y0422768D01*
X0349614Y0421784D02*
X0350599Y0420800D01*
X0353551Y0420800D01*
X0356060Y0421784D02*
X0357044Y0420800D01*
X0359012Y0420800D01*
X0359997Y0421784D01*
X0359997Y0423753D01*
X0359012Y0424737D01*
X0357044Y0424737D01*
X0356060Y0423753D01*
X0356060Y0421784D01*
X0353551Y0424737D02*
X0350599Y0424737D01*
X0349614Y0423753D01*
X0349614Y0421784D01*
X0362505Y0420800D02*
X0362505Y0424737D01*
X0362505Y0422768D02*
X0364474Y0424737D01*
X0365458Y0424737D01*
X0367877Y0423753D02*
X0367877Y0421784D01*
X0368861Y0420800D01*
X0370829Y0420800D01*
X0371813Y0422768D02*
X0367877Y0422768D01*
X0367877Y0423753D02*
X0368861Y0424737D01*
X0370829Y0424737D01*
X0371813Y0423753D01*
X0371813Y0422768D01*
X0411278Y0364737D02*
X0413246Y0360800D01*
X0415215Y0364737D01*
X0417723Y0363753D02*
X0421660Y0363753D01*
X0424169Y0363753D02*
X0425153Y0364737D01*
X0428106Y0364737D01*
X0427121Y0362768D02*
X0425153Y0362768D01*
X0424169Y0363753D01*
X0424169Y0360800D02*
X0427121Y0360800D01*
X0428106Y0361784D01*
X0427121Y0362768D01*
X0430614Y0361784D02*
X0431599Y0360800D01*
X0434551Y0360800D01*
X0437060Y0361784D02*
X0438044Y0360800D01*
X0440012Y0360800D01*
X0440997Y0361784D01*
X0440997Y0363753D01*
X0440012Y0364737D01*
X0438044Y0364737D01*
X0437060Y0363753D01*
X0437060Y0361784D01*
X0434551Y0364737D02*
X0431599Y0364737D01*
X0430614Y0363753D01*
X0430614Y0361784D01*
X0443505Y0360800D02*
X0443505Y0364737D01*
X0443505Y0362768D02*
X0445474Y0364737D01*
X0446458Y0364737D01*
X0448877Y0363753D02*
X0449861Y0364737D01*
X0451829Y0364737D01*
X0452813Y0363753D01*
X0452813Y0362768D01*
X0448877Y0362768D01*
X0448877Y0361784D02*
X0448877Y0363753D01*
X0448877Y0361784D02*
X0449861Y0360800D01*
X0451829Y0360800D01*
X0451829Y0252737D02*
X0452813Y0251753D01*
X0452813Y0250768D01*
X0448877Y0250768D01*
X0448877Y0249784D02*
X0448877Y0251753D01*
X0449861Y0252737D01*
X0451829Y0252737D01*
X0451829Y0248800D02*
X0449861Y0248800D01*
X0448877Y0249784D01*
X0446458Y0252737D02*
X0445474Y0252737D01*
X0443505Y0250768D01*
X0443505Y0248800D02*
X0443505Y0252737D01*
X0440997Y0251753D02*
X0440012Y0252737D01*
X0438044Y0252737D01*
X0437060Y0251753D01*
X0437060Y0249784D01*
X0438044Y0248800D01*
X0440012Y0248800D01*
X0440997Y0249784D01*
X0440997Y0251753D01*
X0434551Y0252737D02*
X0431599Y0252737D01*
X0430614Y0251753D01*
X0430614Y0249784D01*
X0431599Y0248800D01*
X0434551Y0248800D01*
X0428106Y0249784D02*
X0427121Y0250768D01*
X0425153Y0250768D01*
X0424169Y0251753D01*
X0425153Y0252737D01*
X0428106Y0252737D01*
X0428106Y0249784D02*
X0427121Y0248800D01*
X0424169Y0248800D01*
X0421660Y0251753D02*
X0417723Y0251753D01*
X0415215Y0252737D02*
X0413246Y0248800D01*
X0411278Y0252737D01*
X0411278Y0140737D02*
X0413246Y0136800D01*
X0415215Y0140737D01*
X0417723Y0139753D02*
X0421660Y0139753D01*
X0424169Y0139753D02*
X0425153Y0140737D01*
X0428106Y0140737D01*
X0427121Y0138768D02*
X0425153Y0138768D01*
X0424169Y0139753D01*
X0424169Y0136800D02*
X0427121Y0136800D01*
X0428106Y0137784D01*
X0427121Y0138768D01*
X0430614Y0137784D02*
X0430614Y0139753D01*
X0431599Y0140737D01*
X0434551Y0140737D01*
X0437060Y0139753D02*
X0437060Y0137784D01*
X0438044Y0136800D01*
X0440012Y0136800D01*
X0440997Y0137784D01*
X0440997Y0139753D01*
X0440012Y0140737D01*
X0438044Y0140737D01*
X0437060Y0139753D01*
X0434551Y0136800D02*
X0431599Y0136800D01*
X0430614Y0137784D01*
X0443505Y0136800D02*
X0443505Y0140737D01*
X0443505Y0138768D02*
X0445474Y0140737D01*
X0446458Y0140737D01*
X0448877Y0139753D02*
X0449861Y0140737D01*
X0451829Y0140737D01*
X0452813Y0139753D01*
X0452813Y0138768D01*
X0448877Y0138768D01*
X0448877Y0137784D02*
X0448877Y0139753D01*
X0448877Y0137784D02*
X0449861Y0136800D01*
X0451829Y0136800D01*
X0451829Y0028737D02*
X0452813Y0027753D01*
X0452813Y0026768D01*
X0448877Y0026768D01*
X0448877Y0025784D02*
X0448877Y0027753D01*
X0449861Y0028737D01*
X0451829Y0028737D01*
X0451829Y0024800D02*
X0449861Y0024800D01*
X0448877Y0025784D01*
X0446458Y0028737D02*
X0445474Y0028737D01*
X0443505Y0026768D01*
X0443505Y0024800D02*
X0443505Y0028737D01*
X0440997Y0027753D02*
X0440012Y0028737D01*
X0438044Y0028737D01*
X0437060Y0027753D01*
X0437060Y0025784D01*
X0438044Y0024800D01*
X0440012Y0024800D01*
X0440997Y0025784D01*
X0440997Y0027753D01*
X0434551Y0028737D02*
X0431599Y0028737D01*
X0430614Y0027753D01*
X0430614Y0025784D01*
X0431599Y0024800D01*
X0434551Y0024800D01*
X0428106Y0025784D02*
X0427121Y0026768D01*
X0425153Y0026768D01*
X0424169Y0027753D01*
X0425153Y0028737D01*
X0428106Y0028737D01*
X0428106Y0025784D02*
X0427121Y0024800D01*
X0424169Y0024800D01*
X0421660Y0027753D02*
X0417723Y0027753D01*
X0415215Y0028737D02*
X0413246Y0024800D01*
X0411278Y0028737D01*
D14*
X0001750Y0026750D02*
X0001750Y0001750D01*
X0377750Y0001750D01*
X0377750Y0026750D01*
X0001750Y0026750D01*
X0001750Y0028750D02*
X0001750Y0362750D01*
X0026750Y0362750D01*
X0026750Y0028750D01*
X0001750Y0028750D01*
X0352750Y0028750D02*
X0352750Y0362750D01*
X0377750Y0362750D01*
X0377750Y0028750D01*
X0352750Y0028750D01*
X0377750Y0364750D02*
X0001750Y0364750D01*
X0001750Y0389750D01*
X0377750Y0389750D01*
X0377750Y0364750D01*
D15*
X0207994Y0338301D02*
X0206301Y0338301D01*
X0206301Y0338302D02*
X0206231Y0338296D01*
X0206161Y0338286D01*
X0206093Y0338272D01*
X0206025Y0338255D01*
X0205958Y0338234D01*
X0205892Y0338210D01*
X0205827Y0338181D01*
X0205765Y0338150D01*
X0205704Y0338115D01*
X0205645Y0338077D01*
X0205588Y0338036D01*
X0205533Y0337992D01*
X0205481Y0337945D01*
X0205432Y0337895D01*
X0205385Y0337842D01*
X0205342Y0337787D01*
X0205301Y0337730D01*
X0205263Y0337671D01*
X0205229Y0337610D01*
X0205198Y0337547D01*
X0205170Y0337482D01*
X0205146Y0337416D01*
X0205126Y0337349D01*
X0205109Y0337281D01*
X0205096Y0337212D01*
X0205087Y0337142D01*
X0205082Y0337072D01*
X0205080Y0337002D01*
X0205081Y0337001D02*
X0205080Y0336932D01*
X0205083Y0336863D01*
X0205090Y0336794D01*
X0205102Y0336725D01*
X0205116Y0336657D01*
X0205135Y0336591D01*
X0205158Y0336525D01*
X0205184Y0336461D01*
X0205214Y0336398D01*
X0205247Y0336337D01*
X0205284Y0336278D01*
X0205324Y0336222D01*
X0205367Y0336167D01*
X0205414Y0336116D01*
X0205463Y0336067D01*
X0205515Y0336021D01*
X0205569Y0335978D01*
X0205626Y0335938D01*
X0205685Y0335901D01*
X0205746Y0335868D01*
X0205809Y0335838D01*
X0205873Y0335812D01*
X0205939Y0335790D01*
X0206006Y0335771D01*
X0206073Y0335757D01*
X0206142Y0335746D01*
X0206211Y0335739D01*
X0206280Y0335736D01*
X0206350Y0335737D01*
X0206419Y0335742D01*
X0207955Y0335742D01*
X0208024Y0335745D01*
X0208093Y0335752D01*
X0208161Y0335762D01*
X0208229Y0335776D01*
X0208296Y0335794D01*
X0208362Y0335815D01*
X0208427Y0335840D01*
X0208490Y0335869D01*
X0208552Y0335900D01*
X0208612Y0335936D01*
X0208670Y0335974D01*
X0208725Y0336015D01*
X0208779Y0336059D01*
X0208829Y0336106D01*
X0208878Y0336156D01*
X0208923Y0336208D01*
X0208966Y0336263D01*
X0209005Y0336320D01*
X0209042Y0336379D01*
X0209075Y0336440D01*
X0209105Y0336502D01*
X0209131Y0336567D01*
X0209154Y0336632D01*
X0209173Y0336699D01*
X0209189Y0336766D01*
X0209201Y0336834D01*
X0209209Y0336903D01*
X0209214Y0336972D01*
X0209215Y0337042D01*
X0209214Y0337041D02*
X0209215Y0337109D01*
X0209211Y0337176D01*
X0209204Y0337243D01*
X0209193Y0337310D01*
X0209179Y0337376D01*
X0209161Y0337441D01*
X0209139Y0337504D01*
X0209114Y0337567D01*
X0209085Y0337628D01*
X0209053Y0337688D01*
X0209018Y0337745D01*
X0208980Y0337801D01*
X0208938Y0337854D01*
X0208894Y0337905D01*
X0208847Y0337953D01*
X0208798Y0337999D01*
X0208746Y0338042D01*
X0208691Y0338082D01*
X0208635Y0338119D01*
X0208577Y0338153D01*
X0208516Y0338184D01*
X0208455Y0338211D01*
X0208391Y0338234D01*
X0208327Y0338255D01*
X0208262Y0338271D01*
X0208195Y0338284D01*
X0208129Y0338294D01*
X0208061Y0338299D01*
X0207994Y0338301D01*
X0196459Y0336963D02*
X0194175Y0336963D01*
X0192837Y0338340D02*
X0192836Y0338411D01*
X0192840Y0338483D01*
X0192847Y0338553D01*
X0192858Y0338624D01*
X0192873Y0338693D01*
X0192892Y0338762D01*
X0192914Y0338830D01*
X0192939Y0338896D01*
X0192969Y0338961D01*
X0193001Y0339025D01*
X0193037Y0339086D01*
X0193076Y0339146D01*
X0193118Y0339203D01*
X0193164Y0339258D01*
X0193212Y0339311D01*
X0193262Y0339361D01*
X0193316Y0339408D01*
X0193372Y0339452D01*
X0193430Y0339493D01*
X0193490Y0339532D01*
X0193552Y0339566D01*
X0193616Y0339598D01*
X0193681Y0339626D01*
X0193748Y0339651D01*
X0193816Y0339672D01*
X0193885Y0339689D01*
X0193955Y0339703D01*
X0194026Y0339712D01*
X0194097Y0339719D01*
X0194096Y0339719D02*
X0196419Y0339719D01*
X0196420Y0339718D02*
X0196489Y0339715D01*
X0196558Y0339707D01*
X0196626Y0339696D01*
X0196694Y0339681D01*
X0196761Y0339662D01*
X0196827Y0339640D01*
X0196892Y0339615D01*
X0196955Y0339586D01*
X0197016Y0339554D01*
X0197076Y0339518D01*
X0197134Y0339480D01*
X0197189Y0339438D01*
X0197242Y0339394D01*
X0197293Y0339346D01*
X0197341Y0339296D01*
X0197387Y0339244D01*
X0197430Y0339189D01*
X0197469Y0339132D01*
X0197506Y0339073D01*
X0197539Y0339012D01*
X0197569Y0338949D01*
X0197596Y0338885D01*
X0197619Y0338820D01*
X0197638Y0338753D01*
X0197654Y0338686D01*
X0197667Y0338617D01*
X0197676Y0338548D01*
X0197681Y0338479D01*
X0197682Y0338410D01*
X0197680Y0338340D01*
X0197680Y0338341D02*
X0197682Y0338270D01*
X0197681Y0338200D01*
X0197675Y0338129D01*
X0197666Y0338060D01*
X0197653Y0337990D01*
X0197637Y0337922D01*
X0197616Y0337854D01*
X0197593Y0337788D01*
X0197565Y0337723D01*
X0197534Y0337659D01*
X0197500Y0337598D01*
X0197462Y0337538D01*
X0197422Y0337481D01*
X0197378Y0337425D01*
X0197331Y0337373D01*
X0197281Y0337322D01*
X0197229Y0337275D01*
X0197175Y0337231D01*
X0197118Y0337189D01*
X0197058Y0337151D01*
X0196997Y0337116D01*
X0196934Y0337084D01*
X0196870Y0337056D01*
X0196804Y0337031D01*
X0196736Y0337010D01*
X0196668Y0336992D01*
X0196599Y0336979D01*
X0196529Y0336969D01*
X0196459Y0336962D01*
X0194175Y0336962D02*
X0194101Y0336971D01*
X0194027Y0336983D01*
X0193954Y0336998D01*
X0193882Y0337018D01*
X0193810Y0337041D01*
X0193741Y0337068D01*
X0193672Y0337098D01*
X0193605Y0337132D01*
X0193540Y0337169D01*
X0193477Y0337210D01*
X0193417Y0337253D01*
X0193358Y0337300D01*
X0193302Y0337349D01*
X0193248Y0337402D01*
X0193198Y0337456D01*
X0193150Y0337514D01*
X0193105Y0337574D01*
X0193063Y0337636D01*
X0193025Y0337700D01*
X0192989Y0337766D01*
X0192958Y0337834D01*
X0192929Y0337903D01*
X0192905Y0337974D01*
X0192883Y0338045D01*
X0192866Y0338118D01*
X0192852Y0338192D01*
X0192842Y0338266D01*
X0192836Y0338340D01*
X0206301Y0319246D02*
X0207994Y0319246D01*
X0208061Y0319244D01*
X0208129Y0319239D01*
X0208195Y0319229D01*
X0208262Y0319216D01*
X0208327Y0319200D01*
X0208391Y0319179D01*
X0208455Y0319156D01*
X0208516Y0319129D01*
X0208577Y0319098D01*
X0208635Y0319064D01*
X0208691Y0319027D01*
X0208746Y0318987D01*
X0208798Y0318944D01*
X0208847Y0318898D01*
X0208894Y0318850D01*
X0208938Y0318799D01*
X0208980Y0318746D01*
X0209018Y0318690D01*
X0209053Y0318633D01*
X0209085Y0318573D01*
X0209114Y0318512D01*
X0209139Y0318449D01*
X0209161Y0318386D01*
X0209179Y0318321D01*
X0209193Y0318255D01*
X0209204Y0318188D01*
X0209211Y0318121D01*
X0209215Y0318054D01*
X0209214Y0317986D01*
X0209215Y0317987D02*
X0209214Y0317917D01*
X0209209Y0317848D01*
X0209201Y0317779D01*
X0209189Y0317711D01*
X0209173Y0317644D01*
X0209154Y0317577D01*
X0209131Y0317512D01*
X0209105Y0317447D01*
X0209075Y0317385D01*
X0209042Y0317324D01*
X0209005Y0317265D01*
X0208966Y0317208D01*
X0208923Y0317153D01*
X0208878Y0317101D01*
X0208829Y0317051D01*
X0208779Y0317004D01*
X0208725Y0316960D01*
X0208670Y0316919D01*
X0208612Y0316881D01*
X0208552Y0316845D01*
X0208490Y0316814D01*
X0208427Y0316785D01*
X0208362Y0316760D01*
X0208296Y0316739D01*
X0208229Y0316721D01*
X0208161Y0316707D01*
X0208093Y0316697D01*
X0208024Y0316690D01*
X0207955Y0316687D01*
X0206419Y0316687D01*
X0206350Y0316682D01*
X0206280Y0316681D01*
X0206211Y0316684D01*
X0206142Y0316691D01*
X0206073Y0316702D01*
X0206006Y0316716D01*
X0205939Y0316735D01*
X0205873Y0316757D01*
X0205809Y0316783D01*
X0205746Y0316813D01*
X0205685Y0316846D01*
X0205626Y0316883D01*
X0205569Y0316923D01*
X0205515Y0316966D01*
X0205463Y0317012D01*
X0205414Y0317061D01*
X0205367Y0317112D01*
X0205324Y0317167D01*
X0205284Y0317223D01*
X0205247Y0317282D01*
X0205214Y0317343D01*
X0205184Y0317406D01*
X0205158Y0317470D01*
X0205135Y0317536D01*
X0205116Y0317602D01*
X0205102Y0317670D01*
X0205090Y0317739D01*
X0205083Y0317808D01*
X0205080Y0317877D01*
X0205081Y0317946D01*
X0205080Y0317947D02*
X0205082Y0318017D01*
X0205087Y0318087D01*
X0205096Y0318157D01*
X0205109Y0318226D01*
X0205126Y0318294D01*
X0205146Y0318361D01*
X0205170Y0318427D01*
X0205198Y0318492D01*
X0205229Y0318555D01*
X0205263Y0318616D01*
X0205301Y0318675D01*
X0205342Y0318732D01*
X0205385Y0318787D01*
X0205432Y0318840D01*
X0205481Y0318890D01*
X0205533Y0318937D01*
X0205588Y0318981D01*
X0205645Y0319022D01*
X0205704Y0319060D01*
X0205765Y0319095D01*
X0205827Y0319126D01*
X0205892Y0319155D01*
X0205958Y0319179D01*
X0206025Y0319200D01*
X0206093Y0319217D01*
X0206161Y0319231D01*
X0206231Y0319241D01*
X0206301Y0319247D01*
X0196380Y0318222D02*
X0194057Y0318222D01*
X0192797Y0316844D02*
X0192803Y0316770D01*
X0192813Y0316696D01*
X0192827Y0316622D01*
X0192844Y0316549D01*
X0192866Y0316478D01*
X0192890Y0316407D01*
X0192919Y0316338D01*
X0192950Y0316270D01*
X0192986Y0316204D01*
X0193024Y0316140D01*
X0193066Y0316078D01*
X0193111Y0316018D01*
X0193159Y0315960D01*
X0193209Y0315906D01*
X0193263Y0315853D01*
X0193319Y0315804D01*
X0193378Y0315757D01*
X0193438Y0315714D01*
X0193501Y0315673D01*
X0193566Y0315636D01*
X0193633Y0315602D01*
X0193702Y0315572D01*
X0193771Y0315545D01*
X0193843Y0315522D01*
X0193915Y0315502D01*
X0193988Y0315487D01*
X0194062Y0315475D01*
X0194136Y0315466D01*
X0194136Y0315467D02*
X0196419Y0315467D01*
X0196420Y0315466D02*
X0196490Y0315473D01*
X0196560Y0315483D01*
X0196629Y0315496D01*
X0196697Y0315514D01*
X0196765Y0315535D01*
X0196831Y0315560D01*
X0196895Y0315588D01*
X0196958Y0315620D01*
X0197019Y0315655D01*
X0197079Y0315693D01*
X0197136Y0315735D01*
X0197190Y0315779D01*
X0197242Y0315826D01*
X0197292Y0315877D01*
X0197339Y0315929D01*
X0197383Y0315985D01*
X0197423Y0316042D01*
X0197461Y0316102D01*
X0197495Y0316163D01*
X0197526Y0316227D01*
X0197554Y0316292D01*
X0197577Y0316358D01*
X0197598Y0316426D01*
X0197614Y0316494D01*
X0197627Y0316564D01*
X0197636Y0316633D01*
X0197642Y0316704D01*
X0197643Y0316774D01*
X0197641Y0316845D01*
X0197640Y0316844D02*
X0197642Y0316914D01*
X0197641Y0316983D01*
X0197636Y0317052D01*
X0197627Y0317121D01*
X0197614Y0317190D01*
X0197598Y0317257D01*
X0197579Y0317324D01*
X0197556Y0317389D01*
X0197529Y0317453D01*
X0197499Y0317516D01*
X0197466Y0317577D01*
X0197429Y0317636D01*
X0197390Y0317693D01*
X0197347Y0317748D01*
X0197301Y0317800D01*
X0197253Y0317850D01*
X0197202Y0317898D01*
X0197149Y0317942D01*
X0197094Y0317984D01*
X0197036Y0318022D01*
X0196976Y0318058D01*
X0196915Y0318090D01*
X0196852Y0318119D01*
X0196787Y0318144D01*
X0196721Y0318166D01*
X0196654Y0318185D01*
X0196586Y0318200D01*
X0196518Y0318211D01*
X0196449Y0318219D01*
X0196380Y0318222D01*
X0194057Y0318223D02*
X0193986Y0318216D01*
X0193915Y0318207D01*
X0193845Y0318193D01*
X0193776Y0318176D01*
X0193708Y0318155D01*
X0193641Y0318130D01*
X0193576Y0318102D01*
X0193512Y0318070D01*
X0193450Y0318036D01*
X0193390Y0317997D01*
X0193332Y0317956D01*
X0193276Y0317912D01*
X0193222Y0317865D01*
X0193172Y0317815D01*
X0193124Y0317762D01*
X0193078Y0317707D01*
X0193036Y0317650D01*
X0192997Y0317590D01*
X0192961Y0317529D01*
X0192929Y0317465D01*
X0192899Y0317400D01*
X0192874Y0317334D01*
X0192852Y0317266D01*
X0192833Y0317197D01*
X0192818Y0317128D01*
X0192807Y0317057D01*
X0192800Y0316987D01*
X0192796Y0316915D01*
X0192797Y0316844D01*
X0194096Y0227719D02*
X0196419Y0227719D01*
X0196420Y0227718D02*
X0196489Y0227715D01*
X0196558Y0227707D01*
X0196626Y0227696D01*
X0196694Y0227681D01*
X0196761Y0227662D01*
X0196827Y0227640D01*
X0196892Y0227615D01*
X0196955Y0227586D01*
X0197016Y0227554D01*
X0197076Y0227518D01*
X0197134Y0227480D01*
X0197189Y0227438D01*
X0197242Y0227394D01*
X0197293Y0227346D01*
X0197341Y0227296D01*
X0197387Y0227244D01*
X0197430Y0227189D01*
X0197469Y0227132D01*
X0197506Y0227073D01*
X0197539Y0227012D01*
X0197569Y0226949D01*
X0197596Y0226885D01*
X0197619Y0226820D01*
X0197638Y0226753D01*
X0197654Y0226686D01*
X0197667Y0226617D01*
X0197676Y0226548D01*
X0197681Y0226479D01*
X0197682Y0226410D01*
X0197680Y0226340D01*
X0197680Y0226341D02*
X0197682Y0226270D01*
X0197681Y0226200D01*
X0197675Y0226129D01*
X0197666Y0226060D01*
X0197653Y0225990D01*
X0197637Y0225922D01*
X0197616Y0225854D01*
X0197593Y0225788D01*
X0197565Y0225723D01*
X0197534Y0225659D01*
X0197500Y0225598D01*
X0197462Y0225538D01*
X0197422Y0225481D01*
X0197378Y0225425D01*
X0197331Y0225373D01*
X0197281Y0225322D01*
X0197229Y0225275D01*
X0197175Y0225231D01*
X0197118Y0225189D01*
X0197058Y0225151D01*
X0196997Y0225116D01*
X0196934Y0225084D01*
X0196870Y0225056D01*
X0196804Y0225031D01*
X0196736Y0225010D01*
X0196668Y0224992D01*
X0196599Y0224979D01*
X0196529Y0224969D01*
X0196459Y0224962D01*
X0196459Y0224963D02*
X0194175Y0224963D01*
X0192837Y0226340D02*
X0192836Y0226411D01*
X0192840Y0226483D01*
X0192847Y0226553D01*
X0192858Y0226624D01*
X0192873Y0226693D01*
X0192892Y0226762D01*
X0192914Y0226830D01*
X0192939Y0226896D01*
X0192969Y0226961D01*
X0193001Y0227025D01*
X0193037Y0227086D01*
X0193076Y0227146D01*
X0193118Y0227203D01*
X0193164Y0227258D01*
X0193212Y0227311D01*
X0193262Y0227361D01*
X0193316Y0227408D01*
X0193372Y0227452D01*
X0193430Y0227493D01*
X0193490Y0227532D01*
X0193552Y0227566D01*
X0193616Y0227598D01*
X0193681Y0227626D01*
X0193748Y0227651D01*
X0193816Y0227672D01*
X0193885Y0227689D01*
X0193955Y0227703D01*
X0194026Y0227712D01*
X0194097Y0227719D01*
X0192836Y0226340D02*
X0192842Y0226266D01*
X0192852Y0226192D01*
X0192866Y0226118D01*
X0192883Y0226045D01*
X0192905Y0225974D01*
X0192929Y0225903D01*
X0192958Y0225834D01*
X0192989Y0225766D01*
X0193025Y0225700D01*
X0193063Y0225636D01*
X0193105Y0225574D01*
X0193150Y0225514D01*
X0193198Y0225456D01*
X0193248Y0225402D01*
X0193302Y0225349D01*
X0193358Y0225300D01*
X0193417Y0225253D01*
X0193477Y0225210D01*
X0193540Y0225169D01*
X0193605Y0225132D01*
X0193672Y0225098D01*
X0193741Y0225068D01*
X0193810Y0225041D01*
X0193882Y0225018D01*
X0193954Y0224998D01*
X0194027Y0224983D01*
X0194101Y0224971D01*
X0194175Y0224962D01*
X0205081Y0225001D02*
X0205080Y0224932D01*
X0205083Y0224863D01*
X0205090Y0224794D01*
X0205102Y0224725D01*
X0205116Y0224657D01*
X0205135Y0224591D01*
X0205158Y0224525D01*
X0205184Y0224461D01*
X0205214Y0224398D01*
X0205247Y0224337D01*
X0205284Y0224278D01*
X0205324Y0224222D01*
X0205367Y0224167D01*
X0205414Y0224116D01*
X0205463Y0224067D01*
X0205515Y0224021D01*
X0205569Y0223978D01*
X0205626Y0223938D01*
X0205685Y0223901D01*
X0205746Y0223868D01*
X0205809Y0223838D01*
X0205873Y0223812D01*
X0205939Y0223790D01*
X0206006Y0223771D01*
X0206073Y0223757D01*
X0206142Y0223746D01*
X0206211Y0223739D01*
X0206280Y0223736D01*
X0206350Y0223737D01*
X0206419Y0223742D01*
X0207955Y0223742D01*
X0208024Y0223745D01*
X0208093Y0223752D01*
X0208161Y0223762D01*
X0208229Y0223776D01*
X0208296Y0223794D01*
X0208362Y0223815D01*
X0208427Y0223840D01*
X0208490Y0223869D01*
X0208552Y0223900D01*
X0208612Y0223936D01*
X0208670Y0223974D01*
X0208725Y0224015D01*
X0208779Y0224059D01*
X0208829Y0224106D01*
X0208878Y0224156D01*
X0208923Y0224208D01*
X0208966Y0224263D01*
X0209005Y0224320D01*
X0209042Y0224379D01*
X0209075Y0224440D01*
X0209105Y0224502D01*
X0209131Y0224567D01*
X0209154Y0224632D01*
X0209173Y0224699D01*
X0209189Y0224766D01*
X0209201Y0224834D01*
X0209209Y0224903D01*
X0209214Y0224972D01*
X0209215Y0225042D01*
X0209214Y0225041D02*
X0209215Y0225109D01*
X0209211Y0225176D01*
X0209204Y0225243D01*
X0209193Y0225310D01*
X0209179Y0225376D01*
X0209161Y0225441D01*
X0209139Y0225504D01*
X0209114Y0225567D01*
X0209085Y0225628D01*
X0209053Y0225688D01*
X0209018Y0225745D01*
X0208980Y0225801D01*
X0208938Y0225854D01*
X0208894Y0225905D01*
X0208847Y0225953D01*
X0208798Y0225999D01*
X0208746Y0226042D01*
X0208691Y0226082D01*
X0208635Y0226119D01*
X0208577Y0226153D01*
X0208516Y0226184D01*
X0208455Y0226211D01*
X0208391Y0226234D01*
X0208327Y0226255D01*
X0208262Y0226271D01*
X0208195Y0226284D01*
X0208129Y0226294D01*
X0208061Y0226299D01*
X0207994Y0226301D01*
X0206301Y0226301D01*
X0206301Y0226302D02*
X0206231Y0226296D01*
X0206161Y0226286D01*
X0206093Y0226272D01*
X0206025Y0226255D01*
X0205958Y0226234D01*
X0205892Y0226210D01*
X0205827Y0226181D01*
X0205765Y0226150D01*
X0205704Y0226115D01*
X0205645Y0226077D01*
X0205588Y0226036D01*
X0205533Y0225992D01*
X0205481Y0225945D01*
X0205432Y0225895D01*
X0205385Y0225842D01*
X0205342Y0225787D01*
X0205301Y0225730D01*
X0205263Y0225671D01*
X0205229Y0225610D01*
X0205198Y0225547D01*
X0205170Y0225482D01*
X0205146Y0225416D01*
X0205126Y0225349D01*
X0205109Y0225281D01*
X0205096Y0225212D01*
X0205087Y0225142D01*
X0205082Y0225072D01*
X0205080Y0225002D01*
X0206301Y0207246D02*
X0207994Y0207246D01*
X0208061Y0207244D01*
X0208129Y0207239D01*
X0208195Y0207229D01*
X0208262Y0207216D01*
X0208327Y0207200D01*
X0208391Y0207179D01*
X0208455Y0207156D01*
X0208516Y0207129D01*
X0208577Y0207098D01*
X0208635Y0207064D01*
X0208691Y0207027D01*
X0208746Y0206987D01*
X0208798Y0206944D01*
X0208847Y0206898D01*
X0208894Y0206850D01*
X0208938Y0206799D01*
X0208980Y0206746D01*
X0209018Y0206690D01*
X0209053Y0206633D01*
X0209085Y0206573D01*
X0209114Y0206512D01*
X0209139Y0206449D01*
X0209161Y0206386D01*
X0209179Y0206321D01*
X0209193Y0206255D01*
X0209204Y0206188D01*
X0209211Y0206121D01*
X0209215Y0206054D01*
X0209214Y0205986D01*
X0209215Y0205987D02*
X0209214Y0205917D01*
X0209209Y0205848D01*
X0209201Y0205779D01*
X0209189Y0205711D01*
X0209173Y0205644D01*
X0209154Y0205577D01*
X0209131Y0205512D01*
X0209105Y0205447D01*
X0209075Y0205385D01*
X0209042Y0205324D01*
X0209005Y0205265D01*
X0208966Y0205208D01*
X0208923Y0205153D01*
X0208878Y0205101D01*
X0208829Y0205051D01*
X0208779Y0205004D01*
X0208725Y0204960D01*
X0208670Y0204919D01*
X0208612Y0204881D01*
X0208552Y0204845D01*
X0208490Y0204814D01*
X0208427Y0204785D01*
X0208362Y0204760D01*
X0208296Y0204739D01*
X0208229Y0204721D01*
X0208161Y0204707D01*
X0208093Y0204697D01*
X0208024Y0204690D01*
X0207955Y0204687D01*
X0206419Y0204687D01*
X0206350Y0204682D01*
X0206280Y0204681D01*
X0206211Y0204684D01*
X0206142Y0204691D01*
X0206073Y0204702D01*
X0206006Y0204716D01*
X0205939Y0204735D01*
X0205873Y0204757D01*
X0205809Y0204783D01*
X0205746Y0204813D01*
X0205685Y0204846D01*
X0205626Y0204883D01*
X0205569Y0204923D01*
X0205515Y0204966D01*
X0205463Y0205012D01*
X0205414Y0205061D01*
X0205367Y0205112D01*
X0205324Y0205167D01*
X0205284Y0205223D01*
X0205247Y0205282D01*
X0205214Y0205343D01*
X0205184Y0205406D01*
X0205158Y0205470D01*
X0205135Y0205536D01*
X0205116Y0205602D01*
X0205102Y0205670D01*
X0205090Y0205739D01*
X0205083Y0205808D01*
X0205080Y0205877D01*
X0205081Y0205946D01*
X0205080Y0205947D02*
X0205082Y0206017D01*
X0205087Y0206087D01*
X0205096Y0206157D01*
X0205109Y0206226D01*
X0205126Y0206294D01*
X0205146Y0206361D01*
X0205170Y0206427D01*
X0205198Y0206492D01*
X0205229Y0206555D01*
X0205263Y0206616D01*
X0205301Y0206675D01*
X0205342Y0206732D01*
X0205385Y0206787D01*
X0205432Y0206840D01*
X0205481Y0206890D01*
X0205533Y0206937D01*
X0205588Y0206981D01*
X0205645Y0207022D01*
X0205704Y0207060D01*
X0205765Y0207095D01*
X0205827Y0207126D01*
X0205892Y0207155D01*
X0205958Y0207179D01*
X0206025Y0207200D01*
X0206093Y0207217D01*
X0206161Y0207231D01*
X0206231Y0207241D01*
X0206301Y0207247D01*
X0196380Y0206222D02*
X0194057Y0206222D01*
X0192797Y0204844D02*
X0192803Y0204770D01*
X0192813Y0204696D01*
X0192827Y0204622D01*
X0192844Y0204549D01*
X0192866Y0204478D01*
X0192890Y0204407D01*
X0192919Y0204338D01*
X0192950Y0204270D01*
X0192986Y0204204D01*
X0193024Y0204140D01*
X0193066Y0204078D01*
X0193111Y0204018D01*
X0193159Y0203960D01*
X0193209Y0203906D01*
X0193263Y0203853D01*
X0193319Y0203804D01*
X0193378Y0203757D01*
X0193438Y0203714D01*
X0193501Y0203673D01*
X0193566Y0203636D01*
X0193633Y0203602D01*
X0193702Y0203572D01*
X0193771Y0203545D01*
X0193843Y0203522D01*
X0193915Y0203502D01*
X0193988Y0203487D01*
X0194062Y0203475D01*
X0194136Y0203466D01*
X0194136Y0203467D02*
X0196419Y0203467D01*
X0196420Y0203466D02*
X0196490Y0203473D01*
X0196560Y0203483D01*
X0196629Y0203496D01*
X0196697Y0203514D01*
X0196765Y0203535D01*
X0196831Y0203560D01*
X0196895Y0203588D01*
X0196958Y0203620D01*
X0197019Y0203655D01*
X0197079Y0203693D01*
X0197136Y0203735D01*
X0197190Y0203779D01*
X0197242Y0203826D01*
X0197292Y0203877D01*
X0197339Y0203929D01*
X0197383Y0203985D01*
X0197423Y0204042D01*
X0197461Y0204102D01*
X0197495Y0204163D01*
X0197526Y0204227D01*
X0197554Y0204292D01*
X0197577Y0204358D01*
X0197598Y0204426D01*
X0197614Y0204494D01*
X0197627Y0204564D01*
X0197636Y0204633D01*
X0197642Y0204704D01*
X0197643Y0204774D01*
X0197641Y0204845D01*
X0197640Y0204844D02*
X0197642Y0204914D01*
X0197641Y0204983D01*
X0197636Y0205052D01*
X0197627Y0205121D01*
X0197614Y0205190D01*
X0197598Y0205257D01*
X0197579Y0205324D01*
X0197556Y0205389D01*
X0197529Y0205453D01*
X0197499Y0205516D01*
X0197466Y0205577D01*
X0197429Y0205636D01*
X0197390Y0205693D01*
X0197347Y0205748D01*
X0197301Y0205800D01*
X0197253Y0205850D01*
X0197202Y0205898D01*
X0197149Y0205942D01*
X0197094Y0205984D01*
X0197036Y0206022D01*
X0196976Y0206058D01*
X0196915Y0206090D01*
X0196852Y0206119D01*
X0196787Y0206144D01*
X0196721Y0206166D01*
X0196654Y0206185D01*
X0196586Y0206200D01*
X0196518Y0206211D01*
X0196449Y0206219D01*
X0196380Y0206222D01*
X0194057Y0206223D02*
X0193986Y0206216D01*
X0193915Y0206207D01*
X0193845Y0206193D01*
X0193776Y0206176D01*
X0193708Y0206155D01*
X0193641Y0206130D01*
X0193576Y0206102D01*
X0193512Y0206070D01*
X0193450Y0206036D01*
X0193390Y0205997D01*
X0193332Y0205956D01*
X0193276Y0205912D01*
X0193222Y0205865D01*
X0193172Y0205815D01*
X0193124Y0205762D01*
X0193078Y0205707D01*
X0193036Y0205650D01*
X0192997Y0205590D01*
X0192961Y0205529D01*
X0192929Y0205465D01*
X0192899Y0205400D01*
X0192874Y0205334D01*
X0192852Y0205266D01*
X0192833Y0205197D01*
X0192818Y0205128D01*
X0192807Y0205057D01*
X0192800Y0204987D01*
X0192796Y0204915D01*
X0192797Y0204844D01*
X0194096Y0115719D02*
X0196419Y0115719D01*
X0196420Y0115718D02*
X0196489Y0115715D01*
X0196558Y0115707D01*
X0196626Y0115696D01*
X0196694Y0115681D01*
X0196761Y0115662D01*
X0196827Y0115640D01*
X0196892Y0115615D01*
X0196955Y0115586D01*
X0197016Y0115554D01*
X0197076Y0115518D01*
X0197134Y0115480D01*
X0197189Y0115438D01*
X0197242Y0115394D01*
X0197293Y0115346D01*
X0197341Y0115296D01*
X0197387Y0115244D01*
X0197430Y0115189D01*
X0197469Y0115132D01*
X0197506Y0115073D01*
X0197539Y0115012D01*
X0197569Y0114949D01*
X0197596Y0114885D01*
X0197619Y0114820D01*
X0197638Y0114753D01*
X0197654Y0114686D01*
X0197667Y0114617D01*
X0197676Y0114548D01*
X0197681Y0114479D01*
X0197682Y0114410D01*
X0197680Y0114340D01*
X0197680Y0114341D02*
X0197682Y0114270D01*
X0197681Y0114200D01*
X0197675Y0114129D01*
X0197666Y0114060D01*
X0197653Y0113990D01*
X0197637Y0113922D01*
X0197616Y0113854D01*
X0197593Y0113788D01*
X0197565Y0113723D01*
X0197534Y0113659D01*
X0197500Y0113598D01*
X0197462Y0113538D01*
X0197422Y0113481D01*
X0197378Y0113425D01*
X0197331Y0113373D01*
X0197281Y0113322D01*
X0197229Y0113275D01*
X0197175Y0113231D01*
X0197118Y0113189D01*
X0197058Y0113151D01*
X0196997Y0113116D01*
X0196934Y0113084D01*
X0196870Y0113056D01*
X0196804Y0113031D01*
X0196736Y0113010D01*
X0196668Y0112992D01*
X0196599Y0112979D01*
X0196529Y0112969D01*
X0196459Y0112962D01*
X0196459Y0112963D02*
X0194175Y0112963D01*
X0192837Y0114340D02*
X0192836Y0114411D01*
X0192840Y0114483D01*
X0192847Y0114553D01*
X0192858Y0114624D01*
X0192873Y0114693D01*
X0192892Y0114762D01*
X0192914Y0114830D01*
X0192939Y0114896D01*
X0192969Y0114961D01*
X0193001Y0115025D01*
X0193037Y0115086D01*
X0193076Y0115146D01*
X0193118Y0115203D01*
X0193164Y0115258D01*
X0193212Y0115311D01*
X0193262Y0115361D01*
X0193316Y0115408D01*
X0193372Y0115452D01*
X0193430Y0115493D01*
X0193490Y0115532D01*
X0193552Y0115566D01*
X0193616Y0115598D01*
X0193681Y0115626D01*
X0193748Y0115651D01*
X0193816Y0115672D01*
X0193885Y0115689D01*
X0193955Y0115703D01*
X0194026Y0115712D01*
X0194097Y0115719D01*
X0192836Y0114340D02*
X0192842Y0114266D01*
X0192852Y0114192D01*
X0192866Y0114118D01*
X0192883Y0114045D01*
X0192905Y0113974D01*
X0192929Y0113903D01*
X0192958Y0113834D01*
X0192989Y0113766D01*
X0193025Y0113700D01*
X0193063Y0113636D01*
X0193105Y0113574D01*
X0193150Y0113514D01*
X0193198Y0113456D01*
X0193248Y0113402D01*
X0193302Y0113349D01*
X0193358Y0113300D01*
X0193417Y0113253D01*
X0193477Y0113210D01*
X0193540Y0113169D01*
X0193605Y0113132D01*
X0193672Y0113098D01*
X0193741Y0113068D01*
X0193810Y0113041D01*
X0193882Y0113018D01*
X0193954Y0112998D01*
X0194027Y0112983D01*
X0194101Y0112971D01*
X0194175Y0112962D01*
X0205081Y0113001D02*
X0205080Y0112932D01*
X0205083Y0112863D01*
X0205090Y0112794D01*
X0205102Y0112725D01*
X0205116Y0112657D01*
X0205135Y0112591D01*
X0205158Y0112525D01*
X0205184Y0112461D01*
X0205214Y0112398D01*
X0205247Y0112337D01*
X0205284Y0112278D01*
X0205324Y0112222D01*
X0205367Y0112167D01*
X0205414Y0112116D01*
X0205463Y0112067D01*
X0205515Y0112021D01*
X0205569Y0111978D01*
X0205626Y0111938D01*
X0205685Y0111901D01*
X0205746Y0111868D01*
X0205809Y0111838D01*
X0205873Y0111812D01*
X0205939Y0111790D01*
X0206006Y0111771D01*
X0206073Y0111757D01*
X0206142Y0111746D01*
X0206211Y0111739D01*
X0206280Y0111736D01*
X0206350Y0111737D01*
X0206419Y0111742D01*
X0207955Y0111742D01*
X0208024Y0111745D01*
X0208093Y0111752D01*
X0208161Y0111762D01*
X0208229Y0111776D01*
X0208296Y0111794D01*
X0208362Y0111815D01*
X0208427Y0111840D01*
X0208490Y0111869D01*
X0208552Y0111900D01*
X0208612Y0111936D01*
X0208670Y0111974D01*
X0208725Y0112015D01*
X0208779Y0112059D01*
X0208829Y0112106D01*
X0208878Y0112156D01*
X0208923Y0112208D01*
X0208966Y0112263D01*
X0209005Y0112320D01*
X0209042Y0112379D01*
X0209075Y0112440D01*
X0209105Y0112502D01*
X0209131Y0112567D01*
X0209154Y0112632D01*
X0209173Y0112699D01*
X0209189Y0112766D01*
X0209201Y0112834D01*
X0209209Y0112903D01*
X0209214Y0112972D01*
X0209215Y0113042D01*
X0209214Y0113041D02*
X0209215Y0113109D01*
X0209211Y0113176D01*
X0209204Y0113243D01*
X0209193Y0113310D01*
X0209179Y0113376D01*
X0209161Y0113441D01*
X0209139Y0113504D01*
X0209114Y0113567D01*
X0209085Y0113628D01*
X0209053Y0113688D01*
X0209018Y0113745D01*
X0208980Y0113801D01*
X0208938Y0113854D01*
X0208894Y0113905D01*
X0208847Y0113953D01*
X0208798Y0113999D01*
X0208746Y0114042D01*
X0208691Y0114082D01*
X0208635Y0114119D01*
X0208577Y0114153D01*
X0208516Y0114184D01*
X0208455Y0114211D01*
X0208391Y0114234D01*
X0208327Y0114255D01*
X0208262Y0114271D01*
X0208195Y0114284D01*
X0208129Y0114294D01*
X0208061Y0114299D01*
X0207994Y0114301D01*
X0206301Y0114301D01*
X0206301Y0114302D02*
X0206231Y0114296D01*
X0206161Y0114286D01*
X0206093Y0114272D01*
X0206025Y0114255D01*
X0205958Y0114234D01*
X0205892Y0114210D01*
X0205827Y0114181D01*
X0205765Y0114150D01*
X0205704Y0114115D01*
X0205645Y0114077D01*
X0205588Y0114036D01*
X0205533Y0113992D01*
X0205481Y0113945D01*
X0205432Y0113895D01*
X0205385Y0113842D01*
X0205342Y0113787D01*
X0205301Y0113730D01*
X0205263Y0113671D01*
X0205229Y0113610D01*
X0205198Y0113547D01*
X0205170Y0113482D01*
X0205146Y0113416D01*
X0205126Y0113349D01*
X0205109Y0113281D01*
X0205096Y0113212D01*
X0205087Y0113142D01*
X0205082Y0113072D01*
X0205080Y0113002D01*
X0206301Y0095246D02*
X0207994Y0095246D01*
X0208061Y0095244D01*
X0208129Y0095239D01*
X0208195Y0095229D01*
X0208262Y0095216D01*
X0208327Y0095200D01*
X0208391Y0095179D01*
X0208455Y0095156D01*
X0208516Y0095129D01*
X0208577Y0095098D01*
X0208635Y0095064D01*
X0208691Y0095027D01*
X0208746Y0094987D01*
X0208798Y0094944D01*
X0208847Y0094898D01*
X0208894Y0094850D01*
X0208938Y0094799D01*
X0208980Y0094746D01*
X0209018Y0094690D01*
X0209053Y0094633D01*
X0209085Y0094573D01*
X0209114Y0094512D01*
X0209139Y0094449D01*
X0209161Y0094386D01*
X0209179Y0094321D01*
X0209193Y0094255D01*
X0209204Y0094188D01*
X0209211Y0094121D01*
X0209215Y0094054D01*
X0209214Y0093986D01*
X0209215Y0093987D02*
X0209214Y0093917D01*
X0209209Y0093848D01*
X0209201Y0093779D01*
X0209189Y0093711D01*
X0209173Y0093644D01*
X0209154Y0093577D01*
X0209131Y0093512D01*
X0209105Y0093447D01*
X0209075Y0093385D01*
X0209042Y0093324D01*
X0209005Y0093265D01*
X0208966Y0093208D01*
X0208923Y0093153D01*
X0208878Y0093101D01*
X0208829Y0093051D01*
X0208779Y0093004D01*
X0208725Y0092960D01*
X0208670Y0092919D01*
X0208612Y0092881D01*
X0208552Y0092845D01*
X0208490Y0092814D01*
X0208427Y0092785D01*
X0208362Y0092760D01*
X0208296Y0092739D01*
X0208229Y0092721D01*
X0208161Y0092707D01*
X0208093Y0092697D01*
X0208024Y0092690D01*
X0207955Y0092687D01*
X0206419Y0092687D01*
X0206350Y0092682D01*
X0206280Y0092681D01*
X0206211Y0092684D01*
X0206142Y0092691D01*
X0206073Y0092702D01*
X0206006Y0092716D01*
X0205939Y0092735D01*
X0205873Y0092757D01*
X0205809Y0092783D01*
X0205746Y0092813D01*
X0205685Y0092846D01*
X0205626Y0092883D01*
X0205569Y0092923D01*
X0205515Y0092966D01*
X0205463Y0093012D01*
X0205414Y0093061D01*
X0205367Y0093112D01*
X0205324Y0093167D01*
X0205284Y0093223D01*
X0205247Y0093282D01*
X0205214Y0093343D01*
X0205184Y0093406D01*
X0205158Y0093470D01*
X0205135Y0093536D01*
X0205116Y0093602D01*
X0205102Y0093670D01*
X0205090Y0093739D01*
X0205083Y0093808D01*
X0205080Y0093877D01*
X0205081Y0093946D01*
X0205080Y0093947D02*
X0205082Y0094017D01*
X0205087Y0094087D01*
X0205096Y0094157D01*
X0205109Y0094226D01*
X0205126Y0094294D01*
X0205146Y0094361D01*
X0205170Y0094427D01*
X0205198Y0094492D01*
X0205229Y0094555D01*
X0205263Y0094616D01*
X0205301Y0094675D01*
X0205342Y0094732D01*
X0205385Y0094787D01*
X0205432Y0094840D01*
X0205481Y0094890D01*
X0205533Y0094937D01*
X0205588Y0094981D01*
X0205645Y0095022D01*
X0205704Y0095060D01*
X0205765Y0095095D01*
X0205827Y0095126D01*
X0205892Y0095155D01*
X0205958Y0095179D01*
X0206025Y0095200D01*
X0206093Y0095217D01*
X0206161Y0095231D01*
X0206231Y0095241D01*
X0206301Y0095247D01*
X0196380Y0094222D02*
X0194057Y0094222D01*
X0192797Y0092844D02*
X0192803Y0092770D01*
X0192813Y0092696D01*
X0192827Y0092622D01*
X0192844Y0092549D01*
X0192866Y0092478D01*
X0192890Y0092407D01*
X0192919Y0092338D01*
X0192950Y0092270D01*
X0192986Y0092204D01*
X0193024Y0092140D01*
X0193066Y0092078D01*
X0193111Y0092018D01*
X0193159Y0091960D01*
X0193209Y0091906D01*
X0193263Y0091853D01*
X0193319Y0091804D01*
X0193378Y0091757D01*
X0193438Y0091714D01*
X0193501Y0091673D01*
X0193566Y0091636D01*
X0193633Y0091602D01*
X0193702Y0091572D01*
X0193771Y0091545D01*
X0193843Y0091522D01*
X0193915Y0091502D01*
X0193988Y0091487D01*
X0194062Y0091475D01*
X0194136Y0091466D01*
X0194136Y0091467D02*
X0196419Y0091467D01*
X0196420Y0091466D02*
X0196490Y0091473D01*
X0196560Y0091483D01*
X0196629Y0091496D01*
X0196697Y0091514D01*
X0196765Y0091535D01*
X0196831Y0091560D01*
X0196895Y0091588D01*
X0196958Y0091620D01*
X0197019Y0091655D01*
X0197079Y0091693D01*
X0197136Y0091735D01*
X0197190Y0091779D01*
X0197242Y0091826D01*
X0197292Y0091877D01*
X0197339Y0091929D01*
X0197383Y0091985D01*
X0197423Y0092042D01*
X0197461Y0092102D01*
X0197495Y0092163D01*
X0197526Y0092227D01*
X0197554Y0092292D01*
X0197577Y0092358D01*
X0197598Y0092426D01*
X0197614Y0092494D01*
X0197627Y0092564D01*
X0197636Y0092633D01*
X0197642Y0092704D01*
X0197643Y0092774D01*
X0197641Y0092845D01*
X0197640Y0092844D02*
X0197642Y0092914D01*
X0197641Y0092983D01*
X0197636Y0093052D01*
X0197627Y0093121D01*
X0197614Y0093190D01*
X0197598Y0093257D01*
X0197579Y0093324D01*
X0197556Y0093389D01*
X0197529Y0093453D01*
X0197499Y0093516D01*
X0197466Y0093577D01*
X0197429Y0093636D01*
X0197390Y0093693D01*
X0197347Y0093748D01*
X0197301Y0093800D01*
X0197253Y0093850D01*
X0197202Y0093898D01*
X0197149Y0093942D01*
X0197094Y0093984D01*
X0197036Y0094022D01*
X0196976Y0094058D01*
X0196915Y0094090D01*
X0196852Y0094119D01*
X0196787Y0094144D01*
X0196721Y0094166D01*
X0196654Y0094185D01*
X0196586Y0094200D01*
X0196518Y0094211D01*
X0196449Y0094219D01*
X0196380Y0094222D01*
X0194057Y0094223D02*
X0193986Y0094216D01*
X0193915Y0094207D01*
X0193845Y0094193D01*
X0193776Y0094176D01*
X0193708Y0094155D01*
X0193641Y0094130D01*
X0193576Y0094102D01*
X0193512Y0094070D01*
X0193450Y0094036D01*
X0193390Y0093997D01*
X0193332Y0093956D01*
X0193276Y0093912D01*
X0193222Y0093865D01*
X0193172Y0093815D01*
X0193124Y0093762D01*
X0193078Y0093707D01*
X0193036Y0093650D01*
X0192997Y0093590D01*
X0192961Y0093529D01*
X0192929Y0093465D01*
X0192899Y0093400D01*
X0192874Y0093334D01*
X0192852Y0093266D01*
X0192833Y0093197D01*
X0192818Y0093128D01*
X0192807Y0093057D01*
X0192800Y0092987D01*
X0192796Y0092915D01*
X0192797Y0092844D01*
X0047214Y0093986D02*
X0047215Y0094054D01*
X0047211Y0094121D01*
X0047204Y0094188D01*
X0047193Y0094255D01*
X0047179Y0094321D01*
X0047161Y0094386D01*
X0047139Y0094449D01*
X0047114Y0094512D01*
X0047085Y0094573D01*
X0047053Y0094633D01*
X0047018Y0094690D01*
X0046980Y0094746D01*
X0046938Y0094799D01*
X0046894Y0094850D01*
X0046847Y0094898D01*
X0046798Y0094944D01*
X0046746Y0094987D01*
X0046691Y0095027D01*
X0046635Y0095064D01*
X0046577Y0095098D01*
X0046516Y0095129D01*
X0046455Y0095156D01*
X0046391Y0095179D01*
X0046327Y0095200D01*
X0046262Y0095216D01*
X0046195Y0095229D01*
X0046129Y0095239D01*
X0046061Y0095244D01*
X0045994Y0095246D01*
X0044301Y0095246D01*
X0044301Y0095247D02*
X0044231Y0095241D01*
X0044161Y0095231D01*
X0044093Y0095217D01*
X0044025Y0095200D01*
X0043958Y0095179D01*
X0043892Y0095155D01*
X0043827Y0095126D01*
X0043765Y0095095D01*
X0043704Y0095060D01*
X0043645Y0095022D01*
X0043588Y0094981D01*
X0043533Y0094937D01*
X0043481Y0094890D01*
X0043432Y0094840D01*
X0043385Y0094787D01*
X0043342Y0094732D01*
X0043301Y0094675D01*
X0043263Y0094616D01*
X0043229Y0094555D01*
X0043198Y0094492D01*
X0043170Y0094427D01*
X0043146Y0094361D01*
X0043126Y0094294D01*
X0043109Y0094226D01*
X0043096Y0094157D01*
X0043087Y0094087D01*
X0043082Y0094017D01*
X0043080Y0093947D01*
X0043081Y0093946D02*
X0043080Y0093877D01*
X0043083Y0093808D01*
X0043090Y0093739D01*
X0043102Y0093670D01*
X0043116Y0093602D01*
X0043135Y0093536D01*
X0043158Y0093470D01*
X0043184Y0093406D01*
X0043214Y0093343D01*
X0043247Y0093282D01*
X0043284Y0093223D01*
X0043324Y0093167D01*
X0043367Y0093112D01*
X0043414Y0093061D01*
X0043463Y0093012D01*
X0043515Y0092966D01*
X0043569Y0092923D01*
X0043626Y0092883D01*
X0043685Y0092846D01*
X0043746Y0092813D01*
X0043809Y0092783D01*
X0043873Y0092757D01*
X0043939Y0092735D01*
X0044006Y0092716D01*
X0044073Y0092702D01*
X0044142Y0092691D01*
X0044211Y0092684D01*
X0044280Y0092681D01*
X0044350Y0092682D01*
X0044419Y0092687D01*
X0045955Y0092687D01*
X0046024Y0092690D01*
X0046093Y0092697D01*
X0046161Y0092707D01*
X0046229Y0092721D01*
X0046296Y0092739D01*
X0046362Y0092760D01*
X0046427Y0092785D01*
X0046490Y0092814D01*
X0046552Y0092845D01*
X0046612Y0092881D01*
X0046670Y0092919D01*
X0046725Y0092960D01*
X0046779Y0093004D01*
X0046829Y0093051D01*
X0046878Y0093101D01*
X0046923Y0093153D01*
X0046966Y0093208D01*
X0047005Y0093265D01*
X0047042Y0093324D01*
X0047075Y0093385D01*
X0047105Y0093447D01*
X0047131Y0093512D01*
X0047154Y0093577D01*
X0047173Y0093644D01*
X0047189Y0093711D01*
X0047201Y0093779D01*
X0047209Y0093848D01*
X0047214Y0093917D01*
X0047215Y0093987D01*
X0034380Y0094222D02*
X0032057Y0094222D01*
X0030797Y0092844D02*
X0030803Y0092770D01*
X0030813Y0092696D01*
X0030827Y0092622D01*
X0030844Y0092549D01*
X0030866Y0092478D01*
X0030890Y0092407D01*
X0030919Y0092338D01*
X0030950Y0092270D01*
X0030986Y0092204D01*
X0031024Y0092140D01*
X0031066Y0092078D01*
X0031111Y0092018D01*
X0031159Y0091960D01*
X0031209Y0091906D01*
X0031263Y0091853D01*
X0031319Y0091804D01*
X0031378Y0091757D01*
X0031438Y0091714D01*
X0031501Y0091673D01*
X0031566Y0091636D01*
X0031633Y0091602D01*
X0031702Y0091572D01*
X0031771Y0091545D01*
X0031843Y0091522D01*
X0031915Y0091502D01*
X0031988Y0091487D01*
X0032062Y0091475D01*
X0032136Y0091466D01*
X0032136Y0091467D02*
X0034419Y0091467D01*
X0034420Y0091466D02*
X0034490Y0091473D01*
X0034560Y0091483D01*
X0034629Y0091496D01*
X0034697Y0091514D01*
X0034765Y0091535D01*
X0034831Y0091560D01*
X0034895Y0091588D01*
X0034958Y0091620D01*
X0035019Y0091655D01*
X0035079Y0091693D01*
X0035136Y0091735D01*
X0035190Y0091779D01*
X0035242Y0091826D01*
X0035292Y0091877D01*
X0035339Y0091929D01*
X0035383Y0091985D01*
X0035423Y0092042D01*
X0035461Y0092102D01*
X0035495Y0092163D01*
X0035526Y0092227D01*
X0035554Y0092292D01*
X0035577Y0092358D01*
X0035598Y0092426D01*
X0035614Y0092494D01*
X0035627Y0092564D01*
X0035636Y0092633D01*
X0035642Y0092704D01*
X0035643Y0092774D01*
X0035641Y0092845D01*
X0035640Y0092844D02*
X0035642Y0092914D01*
X0035641Y0092983D01*
X0035636Y0093052D01*
X0035627Y0093121D01*
X0035614Y0093190D01*
X0035598Y0093257D01*
X0035579Y0093324D01*
X0035556Y0093389D01*
X0035529Y0093453D01*
X0035499Y0093516D01*
X0035466Y0093577D01*
X0035429Y0093636D01*
X0035390Y0093693D01*
X0035347Y0093748D01*
X0035301Y0093800D01*
X0035253Y0093850D01*
X0035202Y0093898D01*
X0035149Y0093942D01*
X0035094Y0093984D01*
X0035036Y0094022D01*
X0034976Y0094058D01*
X0034915Y0094090D01*
X0034852Y0094119D01*
X0034787Y0094144D01*
X0034721Y0094166D01*
X0034654Y0094185D01*
X0034586Y0094200D01*
X0034518Y0094211D01*
X0034449Y0094219D01*
X0034380Y0094222D01*
X0032057Y0094223D02*
X0031986Y0094216D01*
X0031915Y0094207D01*
X0031845Y0094193D01*
X0031776Y0094176D01*
X0031708Y0094155D01*
X0031641Y0094130D01*
X0031576Y0094102D01*
X0031512Y0094070D01*
X0031450Y0094036D01*
X0031390Y0093997D01*
X0031332Y0093956D01*
X0031276Y0093912D01*
X0031222Y0093865D01*
X0031172Y0093815D01*
X0031124Y0093762D01*
X0031078Y0093707D01*
X0031036Y0093650D01*
X0030997Y0093590D01*
X0030961Y0093529D01*
X0030929Y0093465D01*
X0030899Y0093400D01*
X0030874Y0093334D01*
X0030852Y0093266D01*
X0030833Y0093197D01*
X0030818Y0093128D01*
X0030807Y0093057D01*
X0030800Y0092987D01*
X0030796Y0092915D01*
X0030797Y0092844D01*
X0044419Y0111742D02*
X0045955Y0111742D01*
X0046024Y0111745D01*
X0046093Y0111752D01*
X0046161Y0111762D01*
X0046229Y0111776D01*
X0046296Y0111794D01*
X0046362Y0111815D01*
X0046427Y0111840D01*
X0046490Y0111869D01*
X0046552Y0111900D01*
X0046612Y0111936D01*
X0046670Y0111974D01*
X0046725Y0112015D01*
X0046779Y0112059D01*
X0046829Y0112106D01*
X0046878Y0112156D01*
X0046923Y0112208D01*
X0046966Y0112263D01*
X0047005Y0112320D01*
X0047042Y0112379D01*
X0047075Y0112440D01*
X0047105Y0112502D01*
X0047131Y0112567D01*
X0047154Y0112632D01*
X0047173Y0112699D01*
X0047189Y0112766D01*
X0047201Y0112834D01*
X0047209Y0112903D01*
X0047214Y0112972D01*
X0047215Y0113042D01*
X0047214Y0113041D02*
X0047215Y0113109D01*
X0047211Y0113176D01*
X0047204Y0113243D01*
X0047193Y0113310D01*
X0047179Y0113376D01*
X0047161Y0113441D01*
X0047139Y0113504D01*
X0047114Y0113567D01*
X0047085Y0113628D01*
X0047053Y0113688D01*
X0047018Y0113745D01*
X0046980Y0113801D01*
X0046938Y0113854D01*
X0046894Y0113905D01*
X0046847Y0113953D01*
X0046798Y0113999D01*
X0046746Y0114042D01*
X0046691Y0114082D01*
X0046635Y0114119D01*
X0046577Y0114153D01*
X0046516Y0114184D01*
X0046455Y0114211D01*
X0046391Y0114234D01*
X0046327Y0114255D01*
X0046262Y0114271D01*
X0046195Y0114284D01*
X0046129Y0114294D01*
X0046061Y0114299D01*
X0045994Y0114301D01*
X0044301Y0114301D01*
X0044301Y0114302D02*
X0044231Y0114296D01*
X0044161Y0114286D01*
X0044093Y0114272D01*
X0044025Y0114255D01*
X0043958Y0114234D01*
X0043892Y0114210D01*
X0043827Y0114181D01*
X0043765Y0114150D01*
X0043704Y0114115D01*
X0043645Y0114077D01*
X0043588Y0114036D01*
X0043533Y0113992D01*
X0043481Y0113945D01*
X0043432Y0113895D01*
X0043385Y0113842D01*
X0043342Y0113787D01*
X0043301Y0113730D01*
X0043263Y0113671D01*
X0043229Y0113610D01*
X0043198Y0113547D01*
X0043170Y0113482D01*
X0043146Y0113416D01*
X0043126Y0113349D01*
X0043109Y0113281D01*
X0043096Y0113212D01*
X0043087Y0113142D01*
X0043082Y0113072D01*
X0043080Y0113002D01*
X0043081Y0113001D02*
X0043080Y0112932D01*
X0043083Y0112863D01*
X0043090Y0112794D01*
X0043102Y0112725D01*
X0043116Y0112657D01*
X0043135Y0112591D01*
X0043158Y0112525D01*
X0043184Y0112461D01*
X0043214Y0112398D01*
X0043247Y0112337D01*
X0043284Y0112278D01*
X0043324Y0112222D01*
X0043367Y0112167D01*
X0043414Y0112116D01*
X0043463Y0112067D01*
X0043515Y0112021D01*
X0043569Y0111978D01*
X0043626Y0111938D01*
X0043685Y0111901D01*
X0043746Y0111868D01*
X0043809Y0111838D01*
X0043873Y0111812D01*
X0043939Y0111790D01*
X0044006Y0111771D01*
X0044073Y0111757D01*
X0044142Y0111746D01*
X0044211Y0111739D01*
X0044280Y0111736D01*
X0044350Y0111737D01*
X0044419Y0111742D01*
X0034459Y0112963D02*
X0032175Y0112963D01*
X0030837Y0114340D02*
X0030836Y0114411D01*
X0030840Y0114483D01*
X0030847Y0114553D01*
X0030858Y0114624D01*
X0030873Y0114693D01*
X0030892Y0114762D01*
X0030914Y0114830D01*
X0030939Y0114896D01*
X0030969Y0114961D01*
X0031001Y0115025D01*
X0031037Y0115086D01*
X0031076Y0115146D01*
X0031118Y0115203D01*
X0031164Y0115258D01*
X0031212Y0115311D01*
X0031262Y0115361D01*
X0031316Y0115408D01*
X0031372Y0115452D01*
X0031430Y0115493D01*
X0031490Y0115532D01*
X0031552Y0115566D01*
X0031616Y0115598D01*
X0031681Y0115626D01*
X0031748Y0115651D01*
X0031816Y0115672D01*
X0031885Y0115689D01*
X0031955Y0115703D01*
X0032026Y0115712D01*
X0032097Y0115719D01*
X0032096Y0115719D02*
X0034419Y0115719D01*
X0034420Y0115718D02*
X0034489Y0115715D01*
X0034558Y0115707D01*
X0034626Y0115696D01*
X0034694Y0115681D01*
X0034761Y0115662D01*
X0034827Y0115640D01*
X0034892Y0115615D01*
X0034955Y0115586D01*
X0035016Y0115554D01*
X0035076Y0115518D01*
X0035134Y0115480D01*
X0035189Y0115438D01*
X0035242Y0115394D01*
X0035293Y0115346D01*
X0035341Y0115296D01*
X0035387Y0115244D01*
X0035430Y0115189D01*
X0035469Y0115132D01*
X0035506Y0115073D01*
X0035539Y0115012D01*
X0035569Y0114949D01*
X0035596Y0114885D01*
X0035619Y0114820D01*
X0035638Y0114753D01*
X0035654Y0114686D01*
X0035667Y0114617D01*
X0035676Y0114548D01*
X0035681Y0114479D01*
X0035682Y0114410D01*
X0035680Y0114340D01*
X0035680Y0114341D02*
X0035682Y0114270D01*
X0035681Y0114200D01*
X0035675Y0114129D01*
X0035666Y0114060D01*
X0035653Y0113990D01*
X0035637Y0113922D01*
X0035616Y0113854D01*
X0035593Y0113788D01*
X0035565Y0113723D01*
X0035534Y0113659D01*
X0035500Y0113598D01*
X0035462Y0113538D01*
X0035422Y0113481D01*
X0035378Y0113425D01*
X0035331Y0113373D01*
X0035281Y0113322D01*
X0035229Y0113275D01*
X0035175Y0113231D01*
X0035118Y0113189D01*
X0035058Y0113151D01*
X0034997Y0113116D01*
X0034934Y0113084D01*
X0034870Y0113056D01*
X0034804Y0113031D01*
X0034736Y0113010D01*
X0034668Y0112992D01*
X0034599Y0112979D01*
X0034529Y0112969D01*
X0034459Y0112962D01*
X0032175Y0112962D02*
X0032101Y0112971D01*
X0032027Y0112983D01*
X0031954Y0112998D01*
X0031882Y0113018D01*
X0031810Y0113041D01*
X0031741Y0113068D01*
X0031672Y0113098D01*
X0031605Y0113132D01*
X0031540Y0113169D01*
X0031477Y0113210D01*
X0031417Y0113253D01*
X0031358Y0113300D01*
X0031302Y0113349D01*
X0031248Y0113402D01*
X0031198Y0113456D01*
X0031150Y0113514D01*
X0031105Y0113574D01*
X0031063Y0113636D01*
X0031025Y0113700D01*
X0030989Y0113766D01*
X0030958Y0113834D01*
X0030929Y0113903D01*
X0030905Y0113974D01*
X0030883Y0114045D01*
X0030866Y0114118D01*
X0030852Y0114192D01*
X0030842Y0114266D01*
X0030836Y0114340D01*
X0032136Y0203467D02*
X0034419Y0203467D01*
X0034420Y0203466D02*
X0034490Y0203473D01*
X0034560Y0203483D01*
X0034629Y0203496D01*
X0034697Y0203514D01*
X0034765Y0203535D01*
X0034831Y0203560D01*
X0034895Y0203588D01*
X0034958Y0203620D01*
X0035019Y0203655D01*
X0035079Y0203693D01*
X0035136Y0203735D01*
X0035190Y0203779D01*
X0035242Y0203826D01*
X0035292Y0203877D01*
X0035339Y0203929D01*
X0035383Y0203985D01*
X0035423Y0204042D01*
X0035461Y0204102D01*
X0035495Y0204163D01*
X0035526Y0204227D01*
X0035554Y0204292D01*
X0035577Y0204358D01*
X0035598Y0204426D01*
X0035614Y0204494D01*
X0035627Y0204564D01*
X0035636Y0204633D01*
X0035642Y0204704D01*
X0035643Y0204774D01*
X0035641Y0204845D01*
X0035640Y0204844D02*
X0035642Y0204914D01*
X0035641Y0204983D01*
X0035636Y0205052D01*
X0035627Y0205121D01*
X0035614Y0205190D01*
X0035598Y0205257D01*
X0035579Y0205324D01*
X0035556Y0205389D01*
X0035529Y0205453D01*
X0035499Y0205516D01*
X0035466Y0205577D01*
X0035429Y0205636D01*
X0035390Y0205693D01*
X0035347Y0205748D01*
X0035301Y0205800D01*
X0035253Y0205850D01*
X0035202Y0205898D01*
X0035149Y0205942D01*
X0035094Y0205984D01*
X0035036Y0206022D01*
X0034976Y0206058D01*
X0034915Y0206090D01*
X0034852Y0206119D01*
X0034787Y0206144D01*
X0034721Y0206166D01*
X0034654Y0206185D01*
X0034586Y0206200D01*
X0034518Y0206211D01*
X0034449Y0206219D01*
X0034380Y0206222D01*
X0032057Y0206222D01*
X0030797Y0204844D02*
X0030803Y0204770D01*
X0030813Y0204696D01*
X0030827Y0204622D01*
X0030844Y0204549D01*
X0030866Y0204478D01*
X0030890Y0204407D01*
X0030919Y0204338D01*
X0030950Y0204270D01*
X0030986Y0204204D01*
X0031024Y0204140D01*
X0031066Y0204078D01*
X0031111Y0204018D01*
X0031159Y0203960D01*
X0031209Y0203906D01*
X0031263Y0203853D01*
X0031319Y0203804D01*
X0031378Y0203757D01*
X0031438Y0203714D01*
X0031501Y0203673D01*
X0031566Y0203636D01*
X0031633Y0203602D01*
X0031702Y0203572D01*
X0031771Y0203545D01*
X0031843Y0203522D01*
X0031915Y0203502D01*
X0031988Y0203487D01*
X0032062Y0203475D01*
X0032136Y0203466D01*
X0030797Y0204844D02*
X0030796Y0204915D01*
X0030800Y0204987D01*
X0030807Y0205057D01*
X0030818Y0205128D01*
X0030833Y0205197D01*
X0030852Y0205266D01*
X0030874Y0205334D01*
X0030899Y0205400D01*
X0030929Y0205465D01*
X0030961Y0205529D01*
X0030997Y0205590D01*
X0031036Y0205650D01*
X0031078Y0205707D01*
X0031124Y0205762D01*
X0031172Y0205815D01*
X0031222Y0205865D01*
X0031276Y0205912D01*
X0031332Y0205956D01*
X0031390Y0205997D01*
X0031450Y0206036D01*
X0031512Y0206070D01*
X0031576Y0206102D01*
X0031641Y0206130D01*
X0031708Y0206155D01*
X0031776Y0206176D01*
X0031845Y0206193D01*
X0031915Y0206207D01*
X0031986Y0206216D01*
X0032057Y0206223D01*
X0043081Y0205946D02*
X0043080Y0205877D01*
X0043083Y0205808D01*
X0043090Y0205739D01*
X0043102Y0205670D01*
X0043116Y0205602D01*
X0043135Y0205536D01*
X0043158Y0205470D01*
X0043184Y0205406D01*
X0043214Y0205343D01*
X0043247Y0205282D01*
X0043284Y0205223D01*
X0043324Y0205167D01*
X0043367Y0205112D01*
X0043414Y0205061D01*
X0043463Y0205012D01*
X0043515Y0204966D01*
X0043569Y0204923D01*
X0043626Y0204883D01*
X0043685Y0204846D01*
X0043746Y0204813D01*
X0043809Y0204783D01*
X0043873Y0204757D01*
X0043939Y0204735D01*
X0044006Y0204716D01*
X0044073Y0204702D01*
X0044142Y0204691D01*
X0044211Y0204684D01*
X0044280Y0204681D01*
X0044350Y0204682D01*
X0044419Y0204687D01*
X0045955Y0204687D01*
X0046024Y0204690D01*
X0046093Y0204697D01*
X0046161Y0204707D01*
X0046229Y0204721D01*
X0046296Y0204739D01*
X0046362Y0204760D01*
X0046427Y0204785D01*
X0046490Y0204814D01*
X0046552Y0204845D01*
X0046612Y0204881D01*
X0046670Y0204919D01*
X0046725Y0204960D01*
X0046779Y0205004D01*
X0046829Y0205051D01*
X0046878Y0205101D01*
X0046923Y0205153D01*
X0046966Y0205208D01*
X0047005Y0205265D01*
X0047042Y0205324D01*
X0047075Y0205385D01*
X0047105Y0205447D01*
X0047131Y0205512D01*
X0047154Y0205577D01*
X0047173Y0205644D01*
X0047189Y0205711D01*
X0047201Y0205779D01*
X0047209Y0205848D01*
X0047214Y0205917D01*
X0047215Y0205987D01*
X0047214Y0205986D02*
X0047215Y0206054D01*
X0047211Y0206121D01*
X0047204Y0206188D01*
X0047193Y0206255D01*
X0047179Y0206321D01*
X0047161Y0206386D01*
X0047139Y0206449D01*
X0047114Y0206512D01*
X0047085Y0206573D01*
X0047053Y0206633D01*
X0047018Y0206690D01*
X0046980Y0206746D01*
X0046938Y0206799D01*
X0046894Y0206850D01*
X0046847Y0206898D01*
X0046798Y0206944D01*
X0046746Y0206987D01*
X0046691Y0207027D01*
X0046635Y0207064D01*
X0046577Y0207098D01*
X0046516Y0207129D01*
X0046455Y0207156D01*
X0046391Y0207179D01*
X0046327Y0207200D01*
X0046262Y0207216D01*
X0046195Y0207229D01*
X0046129Y0207239D01*
X0046061Y0207244D01*
X0045994Y0207246D01*
X0044301Y0207246D01*
X0044301Y0207247D02*
X0044231Y0207241D01*
X0044161Y0207231D01*
X0044093Y0207217D01*
X0044025Y0207200D01*
X0043958Y0207179D01*
X0043892Y0207155D01*
X0043827Y0207126D01*
X0043765Y0207095D01*
X0043704Y0207060D01*
X0043645Y0207022D01*
X0043588Y0206981D01*
X0043533Y0206937D01*
X0043481Y0206890D01*
X0043432Y0206840D01*
X0043385Y0206787D01*
X0043342Y0206732D01*
X0043301Y0206675D01*
X0043263Y0206616D01*
X0043229Y0206555D01*
X0043198Y0206492D01*
X0043170Y0206427D01*
X0043146Y0206361D01*
X0043126Y0206294D01*
X0043109Y0206226D01*
X0043096Y0206157D01*
X0043087Y0206087D01*
X0043082Y0206017D01*
X0043080Y0205947D01*
X0044419Y0223742D02*
X0045955Y0223742D01*
X0046024Y0223745D01*
X0046093Y0223752D01*
X0046161Y0223762D01*
X0046229Y0223776D01*
X0046296Y0223794D01*
X0046362Y0223815D01*
X0046427Y0223840D01*
X0046490Y0223869D01*
X0046552Y0223900D01*
X0046612Y0223936D01*
X0046670Y0223974D01*
X0046725Y0224015D01*
X0046779Y0224059D01*
X0046829Y0224106D01*
X0046878Y0224156D01*
X0046923Y0224208D01*
X0046966Y0224263D01*
X0047005Y0224320D01*
X0047042Y0224379D01*
X0047075Y0224440D01*
X0047105Y0224502D01*
X0047131Y0224567D01*
X0047154Y0224632D01*
X0047173Y0224699D01*
X0047189Y0224766D01*
X0047201Y0224834D01*
X0047209Y0224903D01*
X0047214Y0224972D01*
X0047215Y0225042D01*
X0047214Y0225041D02*
X0047215Y0225109D01*
X0047211Y0225176D01*
X0047204Y0225243D01*
X0047193Y0225310D01*
X0047179Y0225376D01*
X0047161Y0225441D01*
X0047139Y0225504D01*
X0047114Y0225567D01*
X0047085Y0225628D01*
X0047053Y0225688D01*
X0047018Y0225745D01*
X0046980Y0225801D01*
X0046938Y0225854D01*
X0046894Y0225905D01*
X0046847Y0225953D01*
X0046798Y0225999D01*
X0046746Y0226042D01*
X0046691Y0226082D01*
X0046635Y0226119D01*
X0046577Y0226153D01*
X0046516Y0226184D01*
X0046455Y0226211D01*
X0046391Y0226234D01*
X0046327Y0226255D01*
X0046262Y0226271D01*
X0046195Y0226284D01*
X0046129Y0226294D01*
X0046061Y0226299D01*
X0045994Y0226301D01*
X0044301Y0226301D01*
X0044301Y0226302D02*
X0044231Y0226296D01*
X0044161Y0226286D01*
X0044093Y0226272D01*
X0044025Y0226255D01*
X0043958Y0226234D01*
X0043892Y0226210D01*
X0043827Y0226181D01*
X0043765Y0226150D01*
X0043704Y0226115D01*
X0043645Y0226077D01*
X0043588Y0226036D01*
X0043533Y0225992D01*
X0043481Y0225945D01*
X0043432Y0225895D01*
X0043385Y0225842D01*
X0043342Y0225787D01*
X0043301Y0225730D01*
X0043263Y0225671D01*
X0043229Y0225610D01*
X0043198Y0225547D01*
X0043170Y0225482D01*
X0043146Y0225416D01*
X0043126Y0225349D01*
X0043109Y0225281D01*
X0043096Y0225212D01*
X0043087Y0225142D01*
X0043082Y0225072D01*
X0043080Y0225002D01*
X0043081Y0225001D02*
X0043080Y0224932D01*
X0043083Y0224863D01*
X0043090Y0224794D01*
X0043102Y0224725D01*
X0043116Y0224657D01*
X0043135Y0224591D01*
X0043158Y0224525D01*
X0043184Y0224461D01*
X0043214Y0224398D01*
X0043247Y0224337D01*
X0043284Y0224278D01*
X0043324Y0224222D01*
X0043367Y0224167D01*
X0043414Y0224116D01*
X0043463Y0224067D01*
X0043515Y0224021D01*
X0043569Y0223978D01*
X0043626Y0223938D01*
X0043685Y0223901D01*
X0043746Y0223868D01*
X0043809Y0223838D01*
X0043873Y0223812D01*
X0043939Y0223790D01*
X0044006Y0223771D01*
X0044073Y0223757D01*
X0044142Y0223746D01*
X0044211Y0223739D01*
X0044280Y0223736D01*
X0044350Y0223737D01*
X0044419Y0223742D01*
X0034459Y0224963D02*
X0032175Y0224963D01*
X0030837Y0226340D02*
X0030836Y0226411D01*
X0030840Y0226483D01*
X0030847Y0226553D01*
X0030858Y0226624D01*
X0030873Y0226693D01*
X0030892Y0226762D01*
X0030914Y0226830D01*
X0030939Y0226896D01*
X0030969Y0226961D01*
X0031001Y0227025D01*
X0031037Y0227086D01*
X0031076Y0227146D01*
X0031118Y0227203D01*
X0031164Y0227258D01*
X0031212Y0227311D01*
X0031262Y0227361D01*
X0031316Y0227408D01*
X0031372Y0227452D01*
X0031430Y0227493D01*
X0031490Y0227532D01*
X0031552Y0227566D01*
X0031616Y0227598D01*
X0031681Y0227626D01*
X0031748Y0227651D01*
X0031816Y0227672D01*
X0031885Y0227689D01*
X0031955Y0227703D01*
X0032026Y0227712D01*
X0032097Y0227719D01*
X0032096Y0227719D02*
X0034419Y0227719D01*
X0034420Y0227718D02*
X0034489Y0227715D01*
X0034558Y0227707D01*
X0034626Y0227696D01*
X0034694Y0227681D01*
X0034761Y0227662D01*
X0034827Y0227640D01*
X0034892Y0227615D01*
X0034955Y0227586D01*
X0035016Y0227554D01*
X0035076Y0227518D01*
X0035134Y0227480D01*
X0035189Y0227438D01*
X0035242Y0227394D01*
X0035293Y0227346D01*
X0035341Y0227296D01*
X0035387Y0227244D01*
X0035430Y0227189D01*
X0035469Y0227132D01*
X0035506Y0227073D01*
X0035539Y0227012D01*
X0035569Y0226949D01*
X0035596Y0226885D01*
X0035619Y0226820D01*
X0035638Y0226753D01*
X0035654Y0226686D01*
X0035667Y0226617D01*
X0035676Y0226548D01*
X0035681Y0226479D01*
X0035682Y0226410D01*
X0035680Y0226340D01*
X0035680Y0226341D02*
X0035682Y0226270D01*
X0035681Y0226200D01*
X0035675Y0226129D01*
X0035666Y0226060D01*
X0035653Y0225990D01*
X0035637Y0225922D01*
X0035616Y0225854D01*
X0035593Y0225788D01*
X0035565Y0225723D01*
X0035534Y0225659D01*
X0035500Y0225598D01*
X0035462Y0225538D01*
X0035422Y0225481D01*
X0035378Y0225425D01*
X0035331Y0225373D01*
X0035281Y0225322D01*
X0035229Y0225275D01*
X0035175Y0225231D01*
X0035118Y0225189D01*
X0035058Y0225151D01*
X0034997Y0225116D01*
X0034934Y0225084D01*
X0034870Y0225056D01*
X0034804Y0225031D01*
X0034736Y0225010D01*
X0034668Y0224992D01*
X0034599Y0224979D01*
X0034529Y0224969D01*
X0034459Y0224962D01*
X0032175Y0224962D02*
X0032101Y0224971D01*
X0032027Y0224983D01*
X0031954Y0224998D01*
X0031882Y0225018D01*
X0031810Y0225041D01*
X0031741Y0225068D01*
X0031672Y0225098D01*
X0031605Y0225132D01*
X0031540Y0225169D01*
X0031477Y0225210D01*
X0031417Y0225253D01*
X0031358Y0225300D01*
X0031302Y0225349D01*
X0031248Y0225402D01*
X0031198Y0225456D01*
X0031150Y0225514D01*
X0031105Y0225574D01*
X0031063Y0225636D01*
X0031025Y0225700D01*
X0030989Y0225766D01*
X0030958Y0225834D01*
X0030929Y0225903D01*
X0030905Y0225974D01*
X0030883Y0226045D01*
X0030866Y0226118D01*
X0030852Y0226192D01*
X0030842Y0226266D01*
X0030836Y0226340D01*
X0032136Y0315467D02*
X0034419Y0315467D01*
X0034420Y0315466D02*
X0034490Y0315473D01*
X0034560Y0315483D01*
X0034629Y0315496D01*
X0034697Y0315514D01*
X0034765Y0315535D01*
X0034831Y0315560D01*
X0034895Y0315588D01*
X0034958Y0315620D01*
X0035019Y0315655D01*
X0035079Y0315693D01*
X0035136Y0315735D01*
X0035190Y0315779D01*
X0035242Y0315826D01*
X0035292Y0315877D01*
X0035339Y0315929D01*
X0035383Y0315985D01*
X0035423Y0316042D01*
X0035461Y0316102D01*
X0035495Y0316163D01*
X0035526Y0316227D01*
X0035554Y0316292D01*
X0035577Y0316358D01*
X0035598Y0316426D01*
X0035614Y0316494D01*
X0035627Y0316564D01*
X0035636Y0316633D01*
X0035642Y0316704D01*
X0035643Y0316774D01*
X0035641Y0316845D01*
X0035640Y0316844D02*
X0035642Y0316914D01*
X0035641Y0316983D01*
X0035636Y0317052D01*
X0035627Y0317121D01*
X0035614Y0317190D01*
X0035598Y0317257D01*
X0035579Y0317324D01*
X0035556Y0317389D01*
X0035529Y0317453D01*
X0035499Y0317516D01*
X0035466Y0317577D01*
X0035429Y0317636D01*
X0035390Y0317693D01*
X0035347Y0317748D01*
X0035301Y0317800D01*
X0035253Y0317850D01*
X0035202Y0317898D01*
X0035149Y0317942D01*
X0035094Y0317984D01*
X0035036Y0318022D01*
X0034976Y0318058D01*
X0034915Y0318090D01*
X0034852Y0318119D01*
X0034787Y0318144D01*
X0034721Y0318166D01*
X0034654Y0318185D01*
X0034586Y0318200D01*
X0034518Y0318211D01*
X0034449Y0318219D01*
X0034380Y0318222D01*
X0032057Y0318222D01*
X0030797Y0316844D02*
X0030803Y0316770D01*
X0030813Y0316696D01*
X0030827Y0316622D01*
X0030844Y0316549D01*
X0030866Y0316478D01*
X0030890Y0316407D01*
X0030919Y0316338D01*
X0030950Y0316270D01*
X0030986Y0316204D01*
X0031024Y0316140D01*
X0031066Y0316078D01*
X0031111Y0316018D01*
X0031159Y0315960D01*
X0031209Y0315906D01*
X0031263Y0315853D01*
X0031319Y0315804D01*
X0031378Y0315757D01*
X0031438Y0315714D01*
X0031501Y0315673D01*
X0031566Y0315636D01*
X0031633Y0315602D01*
X0031702Y0315572D01*
X0031771Y0315545D01*
X0031843Y0315522D01*
X0031915Y0315502D01*
X0031988Y0315487D01*
X0032062Y0315475D01*
X0032136Y0315466D01*
X0030797Y0316844D02*
X0030796Y0316915D01*
X0030800Y0316987D01*
X0030807Y0317057D01*
X0030818Y0317128D01*
X0030833Y0317197D01*
X0030852Y0317266D01*
X0030874Y0317334D01*
X0030899Y0317400D01*
X0030929Y0317465D01*
X0030961Y0317529D01*
X0030997Y0317590D01*
X0031036Y0317650D01*
X0031078Y0317707D01*
X0031124Y0317762D01*
X0031172Y0317815D01*
X0031222Y0317865D01*
X0031276Y0317912D01*
X0031332Y0317956D01*
X0031390Y0317997D01*
X0031450Y0318036D01*
X0031512Y0318070D01*
X0031576Y0318102D01*
X0031641Y0318130D01*
X0031708Y0318155D01*
X0031776Y0318176D01*
X0031845Y0318193D01*
X0031915Y0318207D01*
X0031986Y0318216D01*
X0032057Y0318223D01*
X0043081Y0317946D02*
X0043080Y0317877D01*
X0043083Y0317808D01*
X0043090Y0317739D01*
X0043102Y0317670D01*
X0043116Y0317602D01*
X0043135Y0317536D01*
X0043158Y0317470D01*
X0043184Y0317406D01*
X0043214Y0317343D01*
X0043247Y0317282D01*
X0043284Y0317223D01*
X0043324Y0317167D01*
X0043367Y0317112D01*
X0043414Y0317061D01*
X0043463Y0317012D01*
X0043515Y0316966D01*
X0043569Y0316923D01*
X0043626Y0316883D01*
X0043685Y0316846D01*
X0043746Y0316813D01*
X0043809Y0316783D01*
X0043873Y0316757D01*
X0043939Y0316735D01*
X0044006Y0316716D01*
X0044073Y0316702D01*
X0044142Y0316691D01*
X0044211Y0316684D01*
X0044280Y0316681D01*
X0044350Y0316682D01*
X0044419Y0316687D01*
X0045955Y0316687D01*
X0046024Y0316690D01*
X0046093Y0316697D01*
X0046161Y0316707D01*
X0046229Y0316721D01*
X0046296Y0316739D01*
X0046362Y0316760D01*
X0046427Y0316785D01*
X0046490Y0316814D01*
X0046552Y0316845D01*
X0046612Y0316881D01*
X0046670Y0316919D01*
X0046725Y0316960D01*
X0046779Y0317004D01*
X0046829Y0317051D01*
X0046878Y0317101D01*
X0046923Y0317153D01*
X0046966Y0317208D01*
X0047005Y0317265D01*
X0047042Y0317324D01*
X0047075Y0317385D01*
X0047105Y0317447D01*
X0047131Y0317512D01*
X0047154Y0317577D01*
X0047173Y0317644D01*
X0047189Y0317711D01*
X0047201Y0317779D01*
X0047209Y0317848D01*
X0047214Y0317917D01*
X0047215Y0317987D01*
X0047214Y0317986D02*
X0047215Y0318054D01*
X0047211Y0318121D01*
X0047204Y0318188D01*
X0047193Y0318255D01*
X0047179Y0318321D01*
X0047161Y0318386D01*
X0047139Y0318449D01*
X0047114Y0318512D01*
X0047085Y0318573D01*
X0047053Y0318633D01*
X0047018Y0318690D01*
X0046980Y0318746D01*
X0046938Y0318799D01*
X0046894Y0318850D01*
X0046847Y0318898D01*
X0046798Y0318944D01*
X0046746Y0318987D01*
X0046691Y0319027D01*
X0046635Y0319064D01*
X0046577Y0319098D01*
X0046516Y0319129D01*
X0046455Y0319156D01*
X0046391Y0319179D01*
X0046327Y0319200D01*
X0046262Y0319216D01*
X0046195Y0319229D01*
X0046129Y0319239D01*
X0046061Y0319244D01*
X0045994Y0319246D01*
X0044301Y0319246D01*
X0044301Y0319247D02*
X0044231Y0319241D01*
X0044161Y0319231D01*
X0044093Y0319217D01*
X0044025Y0319200D01*
X0043958Y0319179D01*
X0043892Y0319155D01*
X0043827Y0319126D01*
X0043765Y0319095D01*
X0043704Y0319060D01*
X0043645Y0319022D01*
X0043588Y0318981D01*
X0043533Y0318937D01*
X0043481Y0318890D01*
X0043432Y0318840D01*
X0043385Y0318787D01*
X0043342Y0318732D01*
X0043301Y0318675D01*
X0043263Y0318616D01*
X0043229Y0318555D01*
X0043198Y0318492D01*
X0043170Y0318427D01*
X0043146Y0318361D01*
X0043126Y0318294D01*
X0043109Y0318226D01*
X0043096Y0318157D01*
X0043087Y0318087D01*
X0043082Y0318017D01*
X0043080Y0317947D01*
X0044419Y0335742D02*
X0045955Y0335742D01*
X0046024Y0335745D01*
X0046093Y0335752D01*
X0046161Y0335762D01*
X0046229Y0335776D01*
X0046296Y0335794D01*
X0046362Y0335815D01*
X0046427Y0335840D01*
X0046490Y0335869D01*
X0046552Y0335900D01*
X0046612Y0335936D01*
X0046670Y0335974D01*
X0046725Y0336015D01*
X0046779Y0336059D01*
X0046829Y0336106D01*
X0046878Y0336156D01*
X0046923Y0336208D01*
X0046966Y0336263D01*
X0047005Y0336320D01*
X0047042Y0336379D01*
X0047075Y0336440D01*
X0047105Y0336502D01*
X0047131Y0336567D01*
X0047154Y0336632D01*
X0047173Y0336699D01*
X0047189Y0336766D01*
X0047201Y0336834D01*
X0047209Y0336903D01*
X0047214Y0336972D01*
X0047215Y0337042D01*
X0047214Y0337041D02*
X0047215Y0337109D01*
X0047211Y0337176D01*
X0047204Y0337243D01*
X0047193Y0337310D01*
X0047179Y0337376D01*
X0047161Y0337441D01*
X0047139Y0337504D01*
X0047114Y0337567D01*
X0047085Y0337628D01*
X0047053Y0337688D01*
X0047018Y0337745D01*
X0046980Y0337801D01*
X0046938Y0337854D01*
X0046894Y0337905D01*
X0046847Y0337953D01*
X0046798Y0337999D01*
X0046746Y0338042D01*
X0046691Y0338082D01*
X0046635Y0338119D01*
X0046577Y0338153D01*
X0046516Y0338184D01*
X0046455Y0338211D01*
X0046391Y0338234D01*
X0046327Y0338255D01*
X0046262Y0338271D01*
X0046195Y0338284D01*
X0046129Y0338294D01*
X0046061Y0338299D01*
X0045994Y0338301D01*
X0044301Y0338301D01*
X0044301Y0338302D02*
X0044231Y0338296D01*
X0044161Y0338286D01*
X0044093Y0338272D01*
X0044025Y0338255D01*
X0043958Y0338234D01*
X0043892Y0338210D01*
X0043827Y0338181D01*
X0043765Y0338150D01*
X0043704Y0338115D01*
X0043645Y0338077D01*
X0043588Y0338036D01*
X0043533Y0337992D01*
X0043481Y0337945D01*
X0043432Y0337895D01*
X0043385Y0337842D01*
X0043342Y0337787D01*
X0043301Y0337730D01*
X0043263Y0337671D01*
X0043229Y0337610D01*
X0043198Y0337547D01*
X0043170Y0337482D01*
X0043146Y0337416D01*
X0043126Y0337349D01*
X0043109Y0337281D01*
X0043096Y0337212D01*
X0043087Y0337142D01*
X0043082Y0337072D01*
X0043080Y0337002D01*
X0043081Y0337001D02*
X0043080Y0336932D01*
X0043083Y0336863D01*
X0043090Y0336794D01*
X0043102Y0336725D01*
X0043116Y0336657D01*
X0043135Y0336591D01*
X0043158Y0336525D01*
X0043184Y0336461D01*
X0043214Y0336398D01*
X0043247Y0336337D01*
X0043284Y0336278D01*
X0043324Y0336222D01*
X0043367Y0336167D01*
X0043414Y0336116D01*
X0043463Y0336067D01*
X0043515Y0336021D01*
X0043569Y0335978D01*
X0043626Y0335938D01*
X0043685Y0335901D01*
X0043746Y0335868D01*
X0043809Y0335838D01*
X0043873Y0335812D01*
X0043939Y0335790D01*
X0044006Y0335771D01*
X0044073Y0335757D01*
X0044142Y0335746D01*
X0044211Y0335739D01*
X0044280Y0335736D01*
X0044350Y0335737D01*
X0044419Y0335742D01*
X0034459Y0336963D02*
X0032175Y0336963D01*
X0030837Y0338340D02*
X0030836Y0338411D01*
X0030840Y0338483D01*
X0030847Y0338553D01*
X0030858Y0338624D01*
X0030873Y0338693D01*
X0030892Y0338762D01*
X0030914Y0338830D01*
X0030939Y0338896D01*
X0030969Y0338961D01*
X0031001Y0339025D01*
X0031037Y0339086D01*
X0031076Y0339146D01*
X0031118Y0339203D01*
X0031164Y0339258D01*
X0031212Y0339311D01*
X0031262Y0339361D01*
X0031316Y0339408D01*
X0031372Y0339452D01*
X0031430Y0339493D01*
X0031490Y0339532D01*
X0031552Y0339566D01*
X0031616Y0339598D01*
X0031681Y0339626D01*
X0031748Y0339651D01*
X0031816Y0339672D01*
X0031885Y0339689D01*
X0031955Y0339703D01*
X0032026Y0339712D01*
X0032097Y0339719D01*
X0032096Y0339719D02*
X0034419Y0339719D01*
X0034420Y0339718D02*
X0034489Y0339715D01*
X0034558Y0339707D01*
X0034626Y0339696D01*
X0034694Y0339681D01*
X0034761Y0339662D01*
X0034827Y0339640D01*
X0034892Y0339615D01*
X0034955Y0339586D01*
X0035016Y0339554D01*
X0035076Y0339518D01*
X0035134Y0339480D01*
X0035189Y0339438D01*
X0035242Y0339394D01*
X0035293Y0339346D01*
X0035341Y0339296D01*
X0035387Y0339244D01*
X0035430Y0339189D01*
X0035469Y0339132D01*
X0035506Y0339073D01*
X0035539Y0339012D01*
X0035569Y0338949D01*
X0035596Y0338885D01*
X0035619Y0338820D01*
X0035638Y0338753D01*
X0035654Y0338686D01*
X0035667Y0338617D01*
X0035676Y0338548D01*
X0035681Y0338479D01*
X0035682Y0338410D01*
X0035680Y0338340D01*
X0035680Y0338341D02*
X0035682Y0338270D01*
X0035681Y0338200D01*
X0035675Y0338129D01*
X0035666Y0338060D01*
X0035653Y0337990D01*
X0035637Y0337922D01*
X0035616Y0337854D01*
X0035593Y0337788D01*
X0035565Y0337723D01*
X0035534Y0337659D01*
X0035500Y0337598D01*
X0035462Y0337538D01*
X0035422Y0337481D01*
X0035378Y0337425D01*
X0035331Y0337373D01*
X0035281Y0337322D01*
X0035229Y0337275D01*
X0035175Y0337231D01*
X0035118Y0337189D01*
X0035058Y0337151D01*
X0034997Y0337116D01*
X0034934Y0337084D01*
X0034870Y0337056D01*
X0034804Y0337031D01*
X0034736Y0337010D01*
X0034668Y0336992D01*
X0034599Y0336979D01*
X0034529Y0336969D01*
X0034459Y0336962D01*
X0032175Y0336962D02*
X0032101Y0336971D01*
X0032027Y0336983D01*
X0031954Y0336998D01*
X0031882Y0337018D01*
X0031810Y0337041D01*
X0031741Y0337068D01*
X0031672Y0337098D01*
X0031605Y0337132D01*
X0031540Y0337169D01*
X0031477Y0337210D01*
X0031417Y0337253D01*
X0031358Y0337300D01*
X0031302Y0337349D01*
X0031248Y0337402D01*
X0031198Y0337456D01*
X0031150Y0337514D01*
X0031105Y0337574D01*
X0031063Y0337636D01*
X0031025Y0337700D01*
X0030989Y0337766D01*
X0030958Y0337834D01*
X0030929Y0337903D01*
X0030905Y0337974D01*
X0030883Y0338045D01*
X0030866Y0338118D01*
X0030852Y0338192D01*
X0030842Y0338266D01*
X0030836Y0338340D01*
M02*
