G75*
%MOIN*%
%OFA0B0*%
%FSLAX25Y25*%
%IPPOS*%
%LPD*%
%AMOC8*
5,1,8,0,0,1.08239X$1,22.5*
%
%ADD10R,0.11811X0.04724*%
D10*
X0122222Y0056191D03*
X0122222Y0064065D03*
X0122222Y0071939D03*
X0122222Y0079813D03*
X0122222Y0087687D03*
X0122222Y0095561D03*
X0122222Y0103435D03*
X0122222Y0111309D03*
X0122222Y0168191D03*
X0122222Y0176065D03*
X0122222Y0183939D03*
X0122222Y0191813D03*
X0122222Y0199687D03*
X0122222Y0207561D03*
X0122222Y0215435D03*
X0122222Y0223309D03*
X0122222Y0280191D03*
X0122222Y0288065D03*
X0122222Y0295939D03*
X0122222Y0303813D03*
X0122222Y0311687D03*
X0122222Y0319561D03*
X0122222Y0327435D03*
X0122222Y0335309D03*
X0181278Y0335309D03*
X0181278Y0327435D03*
X0181278Y0319561D03*
X0181278Y0311687D03*
X0181278Y0303813D03*
X0181278Y0295939D03*
X0181278Y0288065D03*
X0181278Y0280191D03*
X0181278Y0223309D03*
X0181278Y0215435D03*
X0181278Y0207561D03*
X0181278Y0199687D03*
X0181278Y0191813D03*
X0181278Y0183939D03*
X0181278Y0176065D03*
X0181278Y0168191D03*
X0181278Y0111309D03*
X0181278Y0103435D03*
X0181278Y0095561D03*
X0181278Y0087687D03*
X0181278Y0079813D03*
X0181278Y0071939D03*
X0181278Y0064065D03*
X0181278Y0056191D03*
X0284222Y0056191D03*
X0284222Y0064065D03*
X0284222Y0071939D03*
X0284222Y0079813D03*
X0284222Y0087687D03*
X0284222Y0095561D03*
X0284222Y0103435D03*
X0284222Y0111309D03*
X0284222Y0168191D03*
X0284222Y0176065D03*
X0284222Y0183939D03*
X0284222Y0191813D03*
X0284222Y0199687D03*
X0284222Y0207561D03*
X0284222Y0215435D03*
X0284222Y0223309D03*
X0284222Y0280191D03*
X0284222Y0288065D03*
X0284222Y0295939D03*
X0284222Y0303813D03*
X0284222Y0311687D03*
X0284222Y0319561D03*
X0284222Y0327435D03*
X0284222Y0335309D03*
X0343278Y0335309D03*
X0343278Y0327435D03*
X0343278Y0319561D03*
X0343278Y0311687D03*
X0343278Y0303813D03*
X0343278Y0295939D03*
X0343278Y0288065D03*
X0343278Y0280191D03*
X0343278Y0223309D03*
X0343278Y0215435D03*
X0343278Y0207561D03*
X0343278Y0199687D03*
X0343278Y0191813D03*
X0343278Y0183939D03*
X0343278Y0176065D03*
X0343278Y0168191D03*
X0343278Y0111309D03*
X0343278Y0103435D03*
X0343278Y0095561D03*
X0343278Y0087687D03*
X0343278Y0079813D03*
X0343278Y0071939D03*
X0343278Y0064065D03*
X0343278Y0056191D03*
M02*
