%
M48
M72
T01C0.0120
T02C0.0200
T03C0.0276
T04C0.0354
T05C0.0400
T06C0.0669
%
T01
X6175Y5150
X9225Y7000
X9875Y6850
X11665Y6350
X11922Y7019
X11872Y7333
X11875Y7700
X10875Y9350
X9875Y10350
X8875Y10100
X7875Y10400
X7125Y11150
X6375Y11850
X5875Y11350
X5625Y10050
X3875Y8750
X5475Y7850
X6875Y8350
X9375Y9050
X11875Y10850
X11875Y11350
X13688Y9990
X13625Y9600
X14334Y9341
X14575Y8841
X14375Y8600
X13875Y8550
X14288Y7550
X13925Y7400
X14718Y7359
X15326Y7600
X15346Y7900
X15716Y8000
X15375Y8509
X15475Y8950
X15825Y8750
X15675Y9350
X15225Y9350
X14425Y10109
X14875Y10750
X15175Y11100
X16275Y10750
X16525Y9700
X17025Y9400
X17847Y8900
X17847Y8550
X17825Y8000
X18628Y7956
X17875Y7100
X17871Y6830
X17775Y6400
X17375Y5850
X17375Y5350
X16722Y5850
X16875Y6150
X16675Y6950
X16625Y7300
X17125Y7450
X17575Y7200
X15525Y7350
X15375Y5850
X13630Y6645
X12875Y5600
X11775Y5550
X11625Y5850
X10875Y3850
X20575Y8750
X22175Y7850
X23575Y8350
X22325Y10050
X23825Y11150
X23075Y11850
X22575Y11350
X24575Y10400
X25575Y10100
X26575Y10350
X26075Y9050
X27575Y9350
X28575Y10850
X28575Y11350
X30388Y9990
X30325Y9600
X31034Y9341
X31275Y8841
X31075Y8600
X30575Y8550
X30988Y7550
X30625Y7400
X31418Y7359
X32026Y7600
X32046Y7900
X32416Y8000
X32075Y8509
X32175Y8950
X32525Y8750
X32375Y9350
X31925Y9350
X31125Y10109
X31575Y10750
X31875Y11100
X32975Y10750
X33225Y9700
X33725Y9400
X34547Y8900
X34547Y8550
X34525Y8000
X33825Y7450
X34275Y7200
X34575Y7100
X34571Y6830
X34475Y6400
X34075Y5850
X34075Y5350
X33422Y5850
X33575Y6150
X33375Y6950
X33325Y7300
X32225Y7350
X32075Y5850
X30330Y6645
X29575Y5600
X28475Y5550
X28325Y5850
X28365Y6350
X28622Y7019
X28572Y7333
X28575Y7700
X26575Y6850
X25925Y7000
X22875Y5150
X27575Y3850
X35328Y7956
X27575Y15050
X28475Y16750
X28325Y17050
X28365Y17550
X28622Y18219
X28572Y18533
X28575Y18900
X27575Y20550
X26575Y21550
X25575Y21300
X24575Y21600
X23825Y22350
X23075Y23050
X22575Y22550
X22325Y21250
X23575Y19550
X22175Y19050
X20575Y19950
X18628Y19156
X17825Y19200
X17847Y19750
X17847Y20100
X17025Y20600
X16525Y20900
X15675Y20550
X15475Y20150
X15825Y19950
X15375Y19709
X15716Y19200
X15346Y19100
X15326Y18800
X15525Y18550
X14718Y18559
X14288Y18750
X13925Y18600
X13630Y17845
X12875Y16800
X11775Y16750
X11625Y17050
X11665Y17550
X11922Y18219
X11872Y18533
X11875Y18900
X10875Y20550
X9875Y21550
X8875Y21300
X7875Y21600
X7125Y22350
X6375Y23050
X5875Y22550
X5625Y21250
X3875Y19950
X5475Y19050
X6875Y19550
X9375Y20250
X9225Y18200
X9875Y18050
X10875Y15050
X15375Y17050
X16722Y17050
X16875Y17350
X17375Y17050
X17375Y16550
X17775Y17600
X17871Y18030
X17875Y18300
X17575Y18400
X17125Y18650
X16625Y18500
X16675Y18150
X14575Y20041
X14375Y19800
X13875Y19750
X14334Y20541
X13625Y20800
X13688Y21190
X14425Y21309
X14875Y21950
X15175Y22300
X16275Y21950
X15225Y20550
X11875Y22050
X11875Y22550
X10875Y26250
X11775Y27950
X11625Y28250
X11665Y28750
X11922Y29419
X11872Y29733
X11875Y30100
X13630Y29045
X13925Y29800
X14288Y29950
X14718Y29759
X15326Y30000
X15346Y30300
X15716Y30400
X15525Y29750
X16625Y29700
X16675Y29350
X17125Y29850
X17575Y29600
X17875Y29500
X17871Y29230
X17775Y28800
X17375Y28250
X17375Y27750
X16722Y28250
X16875Y28550
X15375Y28250
X12875Y28000
X9875Y29250
X9225Y29400
X9375Y31450
X8875Y32500
X7875Y32800
X7125Y33550
X6375Y34250
X5875Y33750
X5625Y32450
X3875Y31150
X5475Y30250
X6875Y30750
X9875Y32750
X10875Y31750
X11875Y33250
X11875Y33750
X13688Y32390
X13625Y32000
X14334Y31741
X14575Y31241
X14375Y31000
X13875Y30950
X15375Y30909
X15475Y31350
X15825Y31150
X15675Y31750
X15225Y31750
X14425Y32509
X14875Y33150
X15175Y33500
X16275Y33150
X16525Y32100
X17025Y31800
X17847Y31300
X17847Y30950
X17825Y30400
X18628Y30356
X20575Y31150
X22175Y30250
X23575Y30750
X22325Y32450
X23825Y33550
X23075Y34250
X22575Y33750
X24575Y32800
X25575Y32500
X26575Y32750
X27575Y31750
X26075Y31450
X25925Y29400
X26575Y29250
X28365Y28750
X28325Y28250
X28475Y27950
X29575Y28000
X30330Y29045
X30625Y29800
X30988Y29950
X31418Y29759
X32026Y30000
X32046Y30300
X32416Y30400
X32225Y29750
X33325Y29700
X33375Y29350
X33825Y29850
X34275Y29600
X34575Y29500
X34571Y29230
X34475Y28800
X34075Y28250
X33575Y28550
X33422Y28250
X34075Y27750
X32075Y28250
X34525Y30400
X34547Y30950
X34547Y31300
X33725Y31800
X33225Y32100
X32375Y31750
X32175Y31350
X32525Y31150
X32075Y30909
X31925Y31750
X31275Y31241
X31075Y31000
X30575Y30950
X31034Y31741
X30325Y32000
X30388Y32390
X31125Y32509
X31575Y33150
X31875Y33500
X32975Y33150
X35328Y30356
X28622Y29419
X28572Y29733
X28575Y30100
X28575Y33250
X28575Y33750
X22875Y27550
X27575Y26250
X28575Y22550
X28575Y22050
X30388Y21190
X30325Y20800
X31034Y20541
X31275Y20041
X31075Y19800
X30575Y19750
X30988Y18750
X30625Y18600
X31418Y18559
X32026Y18800
X32046Y19100
X32416Y19200
X32075Y19709
X32175Y20150
X32525Y19950
X32375Y20550
X31925Y20550
X31125Y21309
X31575Y21950
X31875Y22300
X32975Y21950
X33225Y20900
X33725Y20600
X34547Y20100
X34547Y19750
X34525Y19200
X35328Y19156
X34575Y18300
X34571Y18030
X34475Y17600
X34075Y17050
X34075Y16550
X33422Y17050
X33575Y17350
X33375Y18150
X33325Y18500
X33825Y18650
X34275Y18400
X32225Y18550
X32075Y17050
X30330Y17845
X29575Y16800
X26575Y18050
X25925Y18200
X26075Y20250
X22875Y16350
X20575Y11950
X20575Y23150
X20575Y34350
X6175Y27550
X3875Y23150
X6175Y16350
X3875Y11950
X3875Y34350
T02
X13875Y33750
X14875Y33750
X15875Y33750
X15875Y32750
X14875Y32750
X13875Y32750
X13875Y22550
X13875Y21550
X14875Y21550
X14875Y22550
X15875Y22550
X15875Y21550
X15875Y11350
X14875Y11350
X13875Y11350
X13875Y10350
X14875Y10350
X15875Y10350
X30575Y10350
X31575Y10350
X32575Y10350
X32575Y11350
X31575Y11350
X30575Y11350
X30575Y21550
X30575Y22550
X31575Y22550
X31575Y21550
X32575Y21550
X32575Y22550
X32575Y32750
X31575Y32750
X30575Y32750
X30575Y33750
X31575Y33750
X32575Y33750
T03
X22575Y34796
X22575Y35504
X22575Y24304
X22575Y23596
X22575Y13104
X22575Y12396
X5875Y12396
X5875Y13104
X5875Y23596
X5875Y24304
X5875Y34796
X5875Y35504
T04
X5284Y3950
X6466Y3950
X6466Y15150
X5284Y15150
X5284Y26350
X6466Y26350
X21984Y26350
X23166Y26350
X23166Y15150
X21984Y15150
X21984Y3950
X23166Y3950
T05
X25075Y4350
X26075Y4350
X27075Y4350
X28075Y4350
X28075Y3350
X27075Y3350
X26075Y3350
X25075Y3350
X24575Y6350
X24575Y7350
X29075Y4350
X30075Y4350
X31075Y4350
X32075Y4350
X33075Y4350
X34075Y4350
X35075Y4350
X35075Y3350
X34075Y3350
X33075Y3350
X32075Y3350
X31075Y3350
X30075Y3350
X29075Y3350
X29075Y12350
X30075Y12350
X31075Y12350
X32075Y12350
X33075Y12350
X34075Y12350
X35075Y12350
X34075Y13350
X33075Y13350
X32075Y13350
X31075Y13350
X30075Y13350
X29075Y13350
X28075Y13350
X27075Y13350
X26075Y13350
X25075Y13350
X25075Y12350
X26075Y12350
X27075Y12350
X28075Y12350
X28075Y14550
X28075Y15550
X27075Y15550
X27075Y14550
X26075Y14550
X26075Y15550
X25075Y15550
X25075Y14550
X24575Y17550
X24575Y18550
X29075Y15550
X29075Y14550
X30075Y14550
X30075Y15550
X31075Y15550
X31075Y14550
X32075Y14550
X32075Y15550
X33075Y15550
X33075Y14550
X34075Y14550
X34075Y15550
X35075Y15550
X35075Y14550
X35075Y23550
X34075Y23550
X34075Y24550
X33075Y24550
X33075Y23550
X32075Y23550
X32075Y24550
X31075Y24550
X31075Y23550
X30075Y23550
X30075Y24550
X29075Y24550
X29075Y23550
X28075Y23550
X28075Y24550
X27075Y24550
X27075Y23550
X26075Y23550
X26075Y24550
X25075Y24550
X25075Y23550
X25075Y25750
X26075Y25750
X27075Y25750
X28075Y25750
X28075Y26750
X27075Y26750
X26075Y26750
X25075Y26750
X24575Y28750
X24575Y29750
X29075Y26750
X30075Y26750
X31075Y26750
X32075Y26750
X33075Y26750
X34075Y26750
X35075Y26750
X35075Y25750
X34075Y25750
X33075Y25750
X32075Y25750
X31075Y25750
X30075Y25750
X29075Y25750
X29075Y34750
X30075Y34750
X31075Y34750
X32075Y34750
X33075Y34750
X34075Y34750
X35075Y34750
X34075Y35750
X33075Y35750
X32075Y35750
X31075Y35750
X30075Y35750
X29075Y35750
X28075Y35750
X27075Y35750
X26075Y35750
X25075Y35750
X25075Y34750
X26075Y34750
X27075Y34750
X28075Y34750
X18375Y34750
X17375Y34750
X17375Y35750
X16375Y35750
X15375Y35750
X14375Y35750
X13375Y35750
X12375Y35750
X11375Y35750
X10375Y35750
X10375Y34750
X11375Y34750
X12375Y34750
X13375Y34750
X14375Y34750
X15375Y34750
X16375Y34750
X9375Y34750
X8375Y34750
X8375Y35750
X9375Y35750
X7875Y29750
X7875Y28750
X8375Y26750
X9375Y26750
X9375Y25750
X8375Y25750
X8375Y24550
X8375Y23550
X9375Y23550
X9375Y24550
X10375Y24550
X10375Y23550
X11375Y23550
X11375Y24550
X12375Y24550
X12375Y23550
X13375Y23550
X13375Y24550
X14375Y24550
X14375Y23550
X15375Y23550
X15375Y24550
X16375Y24550
X16375Y23550
X17375Y23550
X17375Y24550
X18375Y23550
X18375Y25750
X17375Y25750
X17375Y26750
X18375Y26750
X16375Y26750
X15375Y26750
X14375Y26750
X13375Y26750
X12375Y26750
X11375Y26750
X10375Y26750
X10375Y25750
X11375Y25750
X12375Y25750
X13375Y25750
X14375Y25750
X15375Y25750
X16375Y25750
X7875Y18550
X7875Y17550
X8375Y15550
X8375Y14550
X9375Y14550
X9375Y15550
X10375Y15550
X10375Y14550
X11375Y14550
X11375Y15550
X12375Y15550
X12375Y14550
X13375Y14550
X13375Y15550
X14375Y15550
X14375Y14550
X15375Y14550
X15375Y15550
X16375Y15550
X16375Y14550
X17375Y14550
X17375Y15550
X18375Y15550
X18375Y14550
X17375Y13350
X17375Y12350
X18375Y12350
X16375Y12350
X15375Y12350
X14375Y12350
X13375Y12350
X12375Y12350
X11375Y12350
X10375Y12350
X10375Y13350
X11375Y13350
X12375Y13350
X13375Y13350
X14375Y13350
X15375Y13350
X16375Y13350
X9375Y13350
X8375Y13350
X8375Y12350
X9375Y12350
X7875Y7350
X7875Y6350
X8375Y4350
X9375Y4350
X9375Y3350
X8375Y3350
X10375Y3350
X11375Y3350
X12375Y3350
X13375Y3350
X14375Y3350
X15375Y3350
X16375Y3350
X16375Y4350
X15375Y4350
X14375Y4350
X13375Y4350
X12375Y4350
X11375Y4350
X10375Y4350
X17375Y4350
X18375Y4350
X18375Y3350
X17375Y3350
T06
X18375Y13350
X18375Y24550
X18375Y35750
X35075Y35750
X35075Y24550
X35075Y13350
M30
