G75*
%MOIN*%
%OFA0B0*%
%FSLAX25Y25*%
%IPPOS*%
%LPD*%
%AMOC8*
5,1,8,0,0,1.08239X$1,22.5*
%
%ADD10R,0.11811X0.04724*%
D10*
X0114828Y0056191D03*
X0114828Y0064065D03*
X0114828Y0071939D03*
X0114828Y0079813D03*
X0114828Y0087687D03*
X0114828Y0095561D03*
X0114828Y0103435D03*
X0114828Y0111309D03*
X0173883Y0111309D03*
X0173883Y0103435D03*
X0173883Y0095561D03*
X0173883Y0087687D03*
X0173883Y0079813D03*
X0173883Y0071939D03*
X0173883Y0064065D03*
X0173883Y0056191D03*
X0276828Y0056191D03*
X0276828Y0064065D03*
X0276828Y0071939D03*
X0276828Y0079813D03*
X0276828Y0087687D03*
X0276828Y0095561D03*
X0276828Y0103435D03*
X0276828Y0111309D03*
X0335883Y0111309D03*
X0335883Y0103435D03*
X0335883Y0095561D03*
X0335883Y0087687D03*
X0335883Y0079813D03*
X0335883Y0071939D03*
X0335883Y0064065D03*
X0335883Y0056191D03*
X0335883Y0168191D03*
X0335883Y0176065D03*
X0335883Y0183939D03*
X0335883Y0191813D03*
X0335883Y0199687D03*
X0335883Y0207561D03*
X0335883Y0215435D03*
X0335883Y0223309D03*
X0276828Y0223309D03*
X0276828Y0215435D03*
X0276828Y0207561D03*
X0276828Y0199687D03*
X0276828Y0191813D03*
X0276828Y0183939D03*
X0276828Y0176065D03*
X0276828Y0168191D03*
X0173883Y0168191D03*
X0173883Y0176065D03*
X0173883Y0183939D03*
X0173883Y0191813D03*
X0173883Y0199687D03*
X0173883Y0207561D03*
X0173883Y0215435D03*
X0173883Y0223309D03*
X0114828Y0223309D03*
X0114828Y0215435D03*
X0114828Y0207561D03*
X0114828Y0199687D03*
X0114828Y0191813D03*
X0114828Y0183939D03*
X0114828Y0176065D03*
X0114828Y0168191D03*
X0114828Y0280191D03*
X0114828Y0288065D03*
X0114828Y0295939D03*
X0114828Y0303813D03*
X0114828Y0311687D03*
X0114828Y0319561D03*
X0114828Y0327435D03*
X0114828Y0335309D03*
X0173883Y0335309D03*
X0173883Y0327435D03*
X0173883Y0319561D03*
X0173883Y0311687D03*
X0173883Y0303813D03*
X0173883Y0295939D03*
X0173883Y0288065D03*
X0173883Y0280191D03*
X0276828Y0280191D03*
X0276828Y0288065D03*
X0276828Y0295939D03*
X0276828Y0303813D03*
X0276828Y0311687D03*
X0276828Y0319561D03*
X0276828Y0327435D03*
X0276828Y0335309D03*
X0335883Y0335309D03*
X0335883Y0327435D03*
X0335883Y0319561D03*
X0335883Y0311687D03*
X0335883Y0303813D03*
X0335883Y0295939D03*
X0335883Y0288065D03*
X0335883Y0280191D03*
M02*
