G75*
%MOIN*%
%OFA0B0*%
%FSLAX25Y25*%
%IPPOS*%
%LPD*%
%AMOC8*
5,1,8,0,0,1.08239X$1,22.5*
%
%ADD10R,0.06299X0.05512*%
%ADD11R,0.04331X0.03937*%
%ADD12R,0.03937X0.04331*%
%ADD13C,0.01181*%
%ADD14R,0.06299X0.07087*%
%ADD15R,0.05748X0.07874*%
%ADD16R,0.09843X0.05610*%
%ADD17C,0.00400*%
%ADD18C,0.00197*%
%ADD19R,0.02756X0.05906*%
%ADD20R,0.03937X0.02362*%
%ADD21R,0.03937X0.03150*%
%ADD22R,0.04724X0.02165*%
%ADD23R,0.07480X0.04331*%
%ADD24R,0.04331X0.07874*%
%ADD25R,0.18110X0.03937*%
%ADD26R,0.13386X0.06299*%
%ADD27R,0.07874X0.04724*%
%ADD28R,0.05315X0.02362*%
%ADD29R,0.03150X0.01181*%
%ADD30R,0.01181X0.03150*%
D10*
X0078750Y0087988D03*
X0078750Y0099012D03*
X0108750Y0099012D03*
X0108750Y0087988D03*
X0108750Y0199988D03*
X0108750Y0211012D03*
X0078750Y0211012D03*
X0078750Y0199988D03*
X0078750Y0311988D03*
X0078750Y0323012D03*
X0108750Y0323012D03*
X0108750Y0311988D03*
X0245750Y0311988D03*
X0245750Y0323012D03*
X0275750Y0323012D03*
X0275750Y0311988D03*
X0275750Y0211012D03*
X0275750Y0199988D03*
X0245750Y0199988D03*
X0245750Y0211012D03*
X0245750Y0099012D03*
X0245750Y0087988D03*
X0275750Y0087988D03*
X0275750Y0099012D03*
D11*
X0287404Y0098500D03*
X0294096Y0098500D03*
X0294096Y0093500D03*
X0287404Y0093500D03*
X0287404Y0083500D03*
X0294096Y0083500D03*
X0279096Y0078500D03*
X0272404Y0078500D03*
X0264096Y0078500D03*
X0264096Y0083500D03*
X0257404Y0083500D03*
X0257404Y0078500D03*
X0249096Y0080000D03*
X0242404Y0080000D03*
X0234096Y0103500D03*
X0234096Y0108500D03*
X0227404Y0108500D03*
X0227404Y0103500D03*
X0242404Y0111500D03*
X0249096Y0111500D03*
X0272404Y0068500D03*
X0279096Y0068500D03*
X0279096Y0058500D03*
X0272404Y0058500D03*
X0337404Y0098500D03*
X0344096Y0098500D03*
X0279096Y0170500D03*
X0272404Y0170500D03*
X0272404Y0180500D03*
X0279096Y0180500D03*
X0279096Y0190500D03*
X0272404Y0190500D03*
X0264096Y0190500D03*
X0264096Y0195500D03*
X0257404Y0195500D03*
X0249096Y0192000D03*
X0257404Y0190500D03*
X0242404Y0192000D03*
X0234096Y0215500D03*
X0234096Y0220500D03*
X0227404Y0220500D03*
X0227404Y0215500D03*
X0242404Y0223500D03*
X0249096Y0223500D03*
X0287404Y0210500D03*
X0287404Y0205500D03*
X0294096Y0205500D03*
X0294096Y0210500D03*
X0294096Y0195500D03*
X0287404Y0195500D03*
X0337404Y0210500D03*
X0344096Y0210500D03*
X0279096Y0282500D03*
X0272404Y0282500D03*
X0272404Y0292500D03*
X0279096Y0292500D03*
X0279096Y0302500D03*
X0272404Y0302500D03*
X0264096Y0302500D03*
X0264096Y0307500D03*
X0257404Y0307500D03*
X0257404Y0302500D03*
X0249096Y0304000D03*
X0242404Y0304000D03*
X0234096Y0327500D03*
X0227404Y0327500D03*
X0227404Y0332500D03*
X0234096Y0332500D03*
X0242404Y0335500D03*
X0249096Y0335500D03*
X0287404Y0322500D03*
X0287404Y0317500D03*
X0294096Y0317500D03*
X0294096Y0322500D03*
X0294096Y0307500D03*
X0287404Y0307500D03*
X0337404Y0322500D03*
X0344096Y0322500D03*
X0177096Y0322500D03*
X0170404Y0322500D03*
X0127096Y0322500D03*
X0127096Y0317500D03*
X0120404Y0317500D03*
X0120404Y0322500D03*
X0120404Y0307500D03*
X0127096Y0307500D03*
X0112096Y0302500D03*
X0105404Y0302500D03*
X0097096Y0302500D03*
X0097096Y0307500D03*
X0090404Y0307500D03*
X0090404Y0302500D03*
X0082096Y0304000D03*
X0075404Y0304000D03*
X0067096Y0327500D03*
X0067096Y0332500D03*
X0060404Y0332500D03*
X0060404Y0327500D03*
X0075404Y0335500D03*
X0082096Y0335500D03*
X0105404Y0292500D03*
X0112096Y0292500D03*
X0112096Y0282500D03*
X0105404Y0282500D03*
X0082096Y0223500D03*
X0075404Y0223500D03*
X0067096Y0220500D03*
X0067096Y0215500D03*
X0060404Y0215500D03*
X0060404Y0220500D03*
X0075404Y0192000D03*
X0082096Y0192000D03*
X0090404Y0190500D03*
X0097096Y0190500D03*
X0097096Y0195500D03*
X0090404Y0195500D03*
X0105404Y0190500D03*
X0112096Y0190500D03*
X0120404Y0195500D03*
X0127096Y0195500D03*
X0127096Y0205500D03*
X0127096Y0210500D03*
X0120404Y0210500D03*
X0120404Y0205500D03*
X0112096Y0180500D03*
X0105404Y0180500D03*
X0105404Y0170500D03*
X0112096Y0170500D03*
X0170404Y0210500D03*
X0177096Y0210500D03*
X0082096Y0111500D03*
X0075404Y0111500D03*
X0067096Y0108500D03*
X0067096Y0103500D03*
X0060404Y0103500D03*
X0060404Y0108500D03*
X0075404Y0080000D03*
X0082096Y0080000D03*
X0090404Y0078500D03*
X0090404Y0083500D03*
X0097096Y0083500D03*
X0097096Y0078500D03*
X0105404Y0078500D03*
X0112096Y0078500D03*
X0120404Y0083500D03*
X0127096Y0083500D03*
X0127096Y0093500D03*
X0127096Y0098500D03*
X0120404Y0098500D03*
X0120404Y0093500D03*
X0112096Y0068500D03*
X0105404Y0068500D03*
X0105404Y0058500D03*
X0112096Y0058500D03*
X0170404Y0098500D03*
X0177096Y0098500D03*
D12*
X0167250Y0086846D03*
X0167250Y0080154D03*
X0163750Y0061846D03*
X0163750Y0055154D03*
X0133750Y0055154D03*
X0133750Y0061846D03*
X0123750Y0061846D03*
X0123750Y0055154D03*
X0133750Y0105154D03*
X0133750Y0111846D03*
X0143750Y0111846D03*
X0143750Y0105154D03*
X0133750Y0167154D03*
X0133750Y0173846D03*
X0123750Y0173846D03*
X0123750Y0167154D03*
X0163750Y0167154D03*
X0163750Y0173846D03*
X0167250Y0192154D03*
X0167250Y0198846D03*
X0143750Y0217154D03*
X0143750Y0223846D03*
X0133750Y0223846D03*
X0133750Y0217154D03*
X0133750Y0279154D03*
X0133750Y0285846D03*
X0123750Y0285846D03*
X0123750Y0279154D03*
X0163750Y0279154D03*
X0163750Y0285846D03*
X0167250Y0304154D03*
X0167250Y0310846D03*
X0143750Y0329154D03*
X0143750Y0335846D03*
X0133750Y0335846D03*
X0133750Y0329154D03*
X0290750Y0285846D03*
X0290750Y0279154D03*
X0300750Y0279154D03*
X0300750Y0285846D03*
X0330750Y0285846D03*
X0330750Y0279154D03*
X0334250Y0304154D03*
X0334250Y0310846D03*
X0310750Y0329154D03*
X0310750Y0335846D03*
X0300750Y0335846D03*
X0300750Y0329154D03*
X0300750Y0223846D03*
X0300750Y0217154D03*
X0310750Y0217154D03*
X0310750Y0223846D03*
X0334250Y0198846D03*
X0334250Y0192154D03*
X0330750Y0173846D03*
X0330750Y0167154D03*
X0300750Y0167154D03*
X0300750Y0173846D03*
X0290750Y0173846D03*
X0290750Y0167154D03*
X0300750Y0111846D03*
X0300750Y0105154D03*
X0310750Y0105154D03*
X0310750Y0111846D03*
X0334250Y0086846D03*
X0334250Y0080154D03*
X0330750Y0061846D03*
X0330750Y0055154D03*
X0300750Y0055154D03*
X0300750Y0061846D03*
X0290750Y0061846D03*
X0290750Y0055154D03*
D13*
X0277825Y0054878D02*
X0277825Y0052122D01*
X0277825Y0054878D02*
X0280581Y0054878D01*
X0280581Y0052122D01*
X0277825Y0052122D01*
X0277825Y0053302D02*
X0280581Y0053302D01*
X0280581Y0054482D02*
X0277825Y0054482D01*
X0270919Y0054878D02*
X0270919Y0052122D01*
X0270919Y0054878D02*
X0273675Y0054878D01*
X0273675Y0052122D01*
X0270919Y0052122D01*
X0270919Y0053302D02*
X0273675Y0053302D01*
X0273675Y0054482D02*
X0270919Y0054482D01*
X0270919Y0062122D02*
X0270919Y0064878D01*
X0273675Y0064878D01*
X0273675Y0062122D01*
X0270919Y0062122D01*
X0270919Y0063302D02*
X0273675Y0063302D01*
X0273675Y0064482D02*
X0270919Y0064482D01*
X0277825Y0064878D02*
X0277825Y0062122D01*
X0277825Y0064878D02*
X0280581Y0064878D01*
X0280581Y0062122D01*
X0277825Y0062122D01*
X0277825Y0063302D02*
X0280581Y0063302D01*
X0280581Y0064482D02*
X0277825Y0064482D01*
X0277825Y0072122D02*
X0277825Y0074878D01*
X0280581Y0074878D01*
X0280581Y0072122D01*
X0277825Y0072122D01*
X0277825Y0073302D02*
X0280581Y0073302D01*
X0280581Y0074482D02*
X0277825Y0074482D01*
X0270919Y0074878D02*
X0270919Y0072122D01*
X0270919Y0074878D02*
X0273675Y0074878D01*
X0273675Y0072122D01*
X0270919Y0072122D01*
X0270919Y0073302D02*
X0273675Y0073302D01*
X0273675Y0074482D02*
X0270919Y0074482D01*
X0270919Y0110122D02*
X0270919Y0112878D01*
X0273675Y0112878D01*
X0273675Y0110122D01*
X0270919Y0110122D01*
X0270919Y0111302D02*
X0273675Y0111302D01*
X0273675Y0112482D02*
X0270919Y0112482D01*
X0277825Y0112878D02*
X0277825Y0110122D01*
X0277825Y0112878D02*
X0280581Y0112878D01*
X0280581Y0110122D01*
X0277825Y0110122D01*
X0277825Y0111302D02*
X0280581Y0111302D01*
X0280581Y0112482D02*
X0277825Y0112482D01*
X0335675Y0105878D02*
X0335675Y0103122D01*
X0332919Y0103122D01*
X0332919Y0105878D01*
X0335675Y0105878D01*
X0335675Y0104302D02*
X0332919Y0104302D01*
X0332919Y0105482D02*
X0335675Y0105482D01*
X0342581Y0105878D02*
X0342581Y0103122D01*
X0339825Y0103122D01*
X0339825Y0105878D01*
X0342581Y0105878D01*
X0342581Y0104302D02*
X0339825Y0104302D01*
X0339825Y0105482D02*
X0342581Y0105482D01*
X0277825Y0164122D02*
X0277825Y0166878D01*
X0280581Y0166878D01*
X0280581Y0164122D01*
X0277825Y0164122D01*
X0277825Y0165302D02*
X0280581Y0165302D01*
X0280581Y0166482D02*
X0277825Y0166482D01*
X0270919Y0166878D02*
X0270919Y0164122D01*
X0270919Y0166878D02*
X0273675Y0166878D01*
X0273675Y0164122D01*
X0270919Y0164122D01*
X0270919Y0165302D02*
X0273675Y0165302D01*
X0273675Y0166482D02*
X0270919Y0166482D01*
X0270919Y0174122D02*
X0270919Y0176878D01*
X0273675Y0176878D01*
X0273675Y0174122D01*
X0270919Y0174122D01*
X0270919Y0175302D02*
X0273675Y0175302D01*
X0273675Y0176482D02*
X0270919Y0176482D01*
X0277825Y0176878D02*
X0277825Y0174122D01*
X0277825Y0176878D02*
X0280581Y0176878D01*
X0280581Y0174122D01*
X0277825Y0174122D01*
X0277825Y0175302D02*
X0280581Y0175302D01*
X0280581Y0176482D02*
X0277825Y0176482D01*
X0277825Y0184122D02*
X0277825Y0186878D01*
X0280581Y0186878D01*
X0280581Y0184122D01*
X0277825Y0184122D01*
X0277825Y0185302D02*
X0280581Y0185302D01*
X0280581Y0186482D02*
X0277825Y0186482D01*
X0270919Y0186878D02*
X0270919Y0184122D01*
X0270919Y0186878D02*
X0273675Y0186878D01*
X0273675Y0184122D01*
X0270919Y0184122D01*
X0270919Y0185302D02*
X0273675Y0185302D01*
X0273675Y0186482D02*
X0270919Y0186482D01*
X0270919Y0222122D02*
X0270919Y0224878D01*
X0273675Y0224878D01*
X0273675Y0222122D01*
X0270919Y0222122D01*
X0270919Y0223302D02*
X0273675Y0223302D01*
X0273675Y0224482D02*
X0270919Y0224482D01*
X0277825Y0224878D02*
X0277825Y0222122D01*
X0277825Y0224878D02*
X0280581Y0224878D01*
X0280581Y0222122D01*
X0277825Y0222122D01*
X0277825Y0223302D02*
X0280581Y0223302D01*
X0280581Y0224482D02*
X0277825Y0224482D01*
X0335675Y0217878D02*
X0335675Y0215122D01*
X0332919Y0215122D01*
X0332919Y0217878D01*
X0335675Y0217878D01*
X0335675Y0216302D02*
X0332919Y0216302D01*
X0332919Y0217482D02*
X0335675Y0217482D01*
X0342581Y0217878D02*
X0342581Y0215122D01*
X0339825Y0215122D01*
X0339825Y0217878D01*
X0342581Y0217878D01*
X0342581Y0216302D02*
X0339825Y0216302D01*
X0339825Y0217482D02*
X0342581Y0217482D01*
X0277825Y0276122D02*
X0277825Y0278878D01*
X0280581Y0278878D01*
X0280581Y0276122D01*
X0277825Y0276122D01*
X0277825Y0277302D02*
X0280581Y0277302D01*
X0280581Y0278482D02*
X0277825Y0278482D01*
X0270919Y0278878D02*
X0270919Y0276122D01*
X0270919Y0278878D02*
X0273675Y0278878D01*
X0273675Y0276122D01*
X0270919Y0276122D01*
X0270919Y0277302D02*
X0273675Y0277302D01*
X0273675Y0278482D02*
X0270919Y0278482D01*
X0270919Y0286122D02*
X0270919Y0288878D01*
X0273675Y0288878D01*
X0273675Y0286122D01*
X0270919Y0286122D01*
X0270919Y0287302D02*
X0273675Y0287302D01*
X0273675Y0288482D02*
X0270919Y0288482D01*
X0277825Y0288878D02*
X0277825Y0286122D01*
X0277825Y0288878D02*
X0280581Y0288878D01*
X0280581Y0286122D01*
X0277825Y0286122D01*
X0277825Y0287302D02*
X0280581Y0287302D01*
X0280581Y0288482D02*
X0277825Y0288482D01*
X0277825Y0296122D02*
X0277825Y0298878D01*
X0280581Y0298878D01*
X0280581Y0296122D01*
X0277825Y0296122D01*
X0277825Y0297302D02*
X0280581Y0297302D01*
X0280581Y0298482D02*
X0277825Y0298482D01*
X0270919Y0298878D02*
X0270919Y0296122D01*
X0270919Y0298878D02*
X0273675Y0298878D01*
X0273675Y0296122D01*
X0270919Y0296122D01*
X0270919Y0297302D02*
X0273675Y0297302D01*
X0273675Y0298482D02*
X0270919Y0298482D01*
X0270919Y0334122D02*
X0270919Y0336878D01*
X0273675Y0336878D01*
X0273675Y0334122D01*
X0270919Y0334122D01*
X0270919Y0335302D02*
X0273675Y0335302D01*
X0273675Y0336482D02*
X0270919Y0336482D01*
X0277825Y0336878D02*
X0277825Y0334122D01*
X0277825Y0336878D02*
X0280581Y0336878D01*
X0280581Y0334122D01*
X0277825Y0334122D01*
X0277825Y0335302D02*
X0280581Y0335302D01*
X0280581Y0336482D02*
X0277825Y0336482D01*
X0335675Y0329878D02*
X0335675Y0327122D01*
X0332919Y0327122D01*
X0332919Y0329878D01*
X0335675Y0329878D01*
X0335675Y0328302D02*
X0332919Y0328302D01*
X0332919Y0329482D02*
X0335675Y0329482D01*
X0342581Y0329878D02*
X0342581Y0327122D01*
X0339825Y0327122D01*
X0339825Y0329878D01*
X0342581Y0329878D01*
X0342581Y0328302D02*
X0339825Y0328302D01*
X0339825Y0329482D02*
X0342581Y0329482D01*
X0175581Y0329878D02*
X0175581Y0327122D01*
X0172825Y0327122D01*
X0172825Y0329878D01*
X0175581Y0329878D01*
X0175581Y0328302D02*
X0172825Y0328302D01*
X0172825Y0329482D02*
X0175581Y0329482D01*
X0168675Y0329878D02*
X0168675Y0327122D01*
X0165919Y0327122D01*
X0165919Y0329878D01*
X0168675Y0329878D01*
X0168675Y0328302D02*
X0165919Y0328302D01*
X0165919Y0329482D02*
X0168675Y0329482D01*
X0110825Y0334122D02*
X0110825Y0336878D01*
X0113581Y0336878D01*
X0113581Y0334122D01*
X0110825Y0334122D01*
X0110825Y0335302D02*
X0113581Y0335302D01*
X0113581Y0336482D02*
X0110825Y0336482D01*
X0103919Y0336878D02*
X0103919Y0334122D01*
X0103919Y0336878D02*
X0106675Y0336878D01*
X0106675Y0334122D01*
X0103919Y0334122D01*
X0103919Y0335302D02*
X0106675Y0335302D01*
X0106675Y0336482D02*
X0103919Y0336482D01*
X0103919Y0298878D02*
X0103919Y0296122D01*
X0103919Y0298878D02*
X0106675Y0298878D01*
X0106675Y0296122D01*
X0103919Y0296122D01*
X0103919Y0297302D02*
X0106675Y0297302D01*
X0106675Y0298482D02*
X0103919Y0298482D01*
X0110825Y0298878D02*
X0110825Y0296122D01*
X0110825Y0298878D02*
X0113581Y0298878D01*
X0113581Y0296122D01*
X0110825Y0296122D01*
X0110825Y0297302D02*
X0113581Y0297302D01*
X0113581Y0298482D02*
X0110825Y0298482D01*
X0110825Y0288878D02*
X0110825Y0286122D01*
X0110825Y0288878D02*
X0113581Y0288878D01*
X0113581Y0286122D01*
X0110825Y0286122D01*
X0110825Y0287302D02*
X0113581Y0287302D01*
X0113581Y0288482D02*
X0110825Y0288482D01*
X0103919Y0288878D02*
X0103919Y0286122D01*
X0103919Y0288878D02*
X0106675Y0288878D01*
X0106675Y0286122D01*
X0103919Y0286122D01*
X0103919Y0287302D02*
X0106675Y0287302D01*
X0106675Y0288482D02*
X0103919Y0288482D01*
X0103919Y0278878D02*
X0103919Y0276122D01*
X0103919Y0278878D02*
X0106675Y0278878D01*
X0106675Y0276122D01*
X0103919Y0276122D01*
X0103919Y0277302D02*
X0106675Y0277302D01*
X0106675Y0278482D02*
X0103919Y0278482D01*
X0110825Y0278878D02*
X0110825Y0276122D01*
X0110825Y0278878D02*
X0113581Y0278878D01*
X0113581Y0276122D01*
X0110825Y0276122D01*
X0110825Y0277302D02*
X0113581Y0277302D01*
X0113581Y0278482D02*
X0110825Y0278482D01*
X0110825Y0224878D02*
X0110825Y0222122D01*
X0110825Y0224878D02*
X0113581Y0224878D01*
X0113581Y0222122D01*
X0110825Y0222122D01*
X0110825Y0223302D02*
X0113581Y0223302D01*
X0113581Y0224482D02*
X0110825Y0224482D01*
X0103919Y0224878D02*
X0103919Y0222122D01*
X0103919Y0224878D02*
X0106675Y0224878D01*
X0106675Y0222122D01*
X0103919Y0222122D01*
X0103919Y0223302D02*
X0106675Y0223302D01*
X0106675Y0224482D02*
X0103919Y0224482D01*
X0103919Y0186878D02*
X0103919Y0184122D01*
X0103919Y0186878D02*
X0106675Y0186878D01*
X0106675Y0184122D01*
X0103919Y0184122D01*
X0103919Y0185302D02*
X0106675Y0185302D01*
X0106675Y0186482D02*
X0103919Y0186482D01*
X0110825Y0186878D02*
X0110825Y0184122D01*
X0110825Y0186878D02*
X0113581Y0186878D01*
X0113581Y0184122D01*
X0110825Y0184122D01*
X0110825Y0185302D02*
X0113581Y0185302D01*
X0113581Y0186482D02*
X0110825Y0186482D01*
X0110825Y0176878D02*
X0110825Y0174122D01*
X0110825Y0176878D02*
X0113581Y0176878D01*
X0113581Y0174122D01*
X0110825Y0174122D01*
X0110825Y0175302D02*
X0113581Y0175302D01*
X0113581Y0176482D02*
X0110825Y0176482D01*
X0103919Y0176878D02*
X0103919Y0174122D01*
X0103919Y0176878D02*
X0106675Y0176878D01*
X0106675Y0174122D01*
X0103919Y0174122D01*
X0103919Y0175302D02*
X0106675Y0175302D01*
X0106675Y0176482D02*
X0103919Y0176482D01*
X0103919Y0166878D02*
X0103919Y0164122D01*
X0103919Y0166878D02*
X0106675Y0166878D01*
X0106675Y0164122D01*
X0103919Y0164122D01*
X0103919Y0165302D02*
X0106675Y0165302D01*
X0106675Y0166482D02*
X0103919Y0166482D01*
X0110825Y0166878D02*
X0110825Y0164122D01*
X0110825Y0166878D02*
X0113581Y0166878D01*
X0113581Y0164122D01*
X0110825Y0164122D01*
X0110825Y0165302D02*
X0113581Y0165302D01*
X0113581Y0166482D02*
X0110825Y0166482D01*
X0168675Y0215122D02*
X0168675Y0217878D01*
X0168675Y0215122D02*
X0165919Y0215122D01*
X0165919Y0217878D01*
X0168675Y0217878D01*
X0168675Y0216302D02*
X0165919Y0216302D01*
X0165919Y0217482D02*
X0168675Y0217482D01*
X0175581Y0217878D02*
X0175581Y0215122D01*
X0172825Y0215122D01*
X0172825Y0217878D01*
X0175581Y0217878D01*
X0175581Y0216302D02*
X0172825Y0216302D01*
X0172825Y0217482D02*
X0175581Y0217482D01*
X0110825Y0112878D02*
X0110825Y0110122D01*
X0110825Y0112878D02*
X0113581Y0112878D01*
X0113581Y0110122D01*
X0110825Y0110122D01*
X0110825Y0111302D02*
X0113581Y0111302D01*
X0113581Y0112482D02*
X0110825Y0112482D01*
X0103919Y0112878D02*
X0103919Y0110122D01*
X0103919Y0112878D02*
X0106675Y0112878D01*
X0106675Y0110122D01*
X0103919Y0110122D01*
X0103919Y0111302D02*
X0106675Y0111302D01*
X0106675Y0112482D02*
X0103919Y0112482D01*
X0103919Y0074878D02*
X0103919Y0072122D01*
X0103919Y0074878D02*
X0106675Y0074878D01*
X0106675Y0072122D01*
X0103919Y0072122D01*
X0103919Y0073302D02*
X0106675Y0073302D01*
X0106675Y0074482D02*
X0103919Y0074482D01*
X0110825Y0074878D02*
X0110825Y0072122D01*
X0110825Y0074878D02*
X0113581Y0074878D01*
X0113581Y0072122D01*
X0110825Y0072122D01*
X0110825Y0073302D02*
X0113581Y0073302D01*
X0113581Y0074482D02*
X0110825Y0074482D01*
X0110825Y0064878D02*
X0110825Y0062122D01*
X0110825Y0064878D02*
X0113581Y0064878D01*
X0113581Y0062122D01*
X0110825Y0062122D01*
X0110825Y0063302D02*
X0113581Y0063302D01*
X0113581Y0064482D02*
X0110825Y0064482D01*
X0103919Y0064878D02*
X0103919Y0062122D01*
X0103919Y0064878D02*
X0106675Y0064878D01*
X0106675Y0062122D01*
X0103919Y0062122D01*
X0103919Y0063302D02*
X0106675Y0063302D01*
X0106675Y0064482D02*
X0103919Y0064482D01*
X0103919Y0054878D02*
X0103919Y0052122D01*
X0103919Y0054878D02*
X0106675Y0054878D01*
X0106675Y0052122D01*
X0103919Y0052122D01*
X0103919Y0053302D02*
X0106675Y0053302D01*
X0106675Y0054482D02*
X0103919Y0054482D01*
X0110825Y0054878D02*
X0110825Y0052122D01*
X0110825Y0054878D02*
X0113581Y0054878D01*
X0113581Y0052122D01*
X0110825Y0052122D01*
X0110825Y0053302D02*
X0113581Y0053302D01*
X0113581Y0054482D02*
X0110825Y0054482D01*
X0168675Y0103122D02*
X0168675Y0105878D01*
X0168675Y0103122D02*
X0165919Y0103122D01*
X0165919Y0105878D01*
X0168675Y0105878D01*
X0168675Y0104302D02*
X0165919Y0104302D01*
X0165919Y0105482D02*
X0168675Y0105482D01*
X0175581Y0105878D02*
X0175581Y0103122D01*
X0172825Y0103122D01*
X0172825Y0105878D01*
X0175581Y0105878D01*
X0175581Y0104302D02*
X0172825Y0104302D01*
X0172825Y0105482D02*
X0175581Y0105482D01*
D14*
X0240238Y0053500D03*
X0251262Y0053500D03*
X0251262Y0165500D03*
X0240238Y0165500D03*
X0240238Y0277500D03*
X0251262Y0277500D03*
X0084262Y0277500D03*
X0073238Y0277500D03*
X0073238Y0165500D03*
X0084262Y0165500D03*
X0084262Y0053500D03*
X0073238Y0053500D03*
D15*
X0050333Y0092083D03*
X0050333Y0114917D03*
X0050333Y0204083D03*
X0050333Y0226917D03*
X0050333Y0316083D03*
X0050333Y0338917D03*
X0217333Y0338917D03*
X0217333Y0316083D03*
X0217333Y0226917D03*
X0217333Y0204083D03*
X0217333Y0114917D03*
X0217333Y0092083D03*
D16*
X0205719Y0099711D03*
X0205719Y0107289D03*
X0205719Y0211711D03*
X0205719Y0219289D03*
X0205719Y0323711D03*
X0205719Y0331289D03*
X0038719Y0331289D03*
X0038719Y0323711D03*
X0038719Y0219289D03*
X0038719Y0211711D03*
X0038719Y0107289D03*
X0038719Y0099711D03*
D17*
X0036690Y0095694D02*
X0036401Y0095661D01*
X0036126Y0095565D01*
X0035880Y0095410D01*
X0035674Y0095204D01*
X0035519Y0094958D01*
X0035423Y0094683D01*
X0035390Y0094394D01*
X0035390Y0091494D01*
X0035420Y0091227D01*
X0035509Y0090973D01*
X0035652Y0090746D01*
X0035842Y0090555D01*
X0036070Y0090413D01*
X0036323Y0090324D01*
X0036590Y0090294D01*
X0043490Y0090294D01*
X0043528Y0090286D01*
X0043561Y0090264D01*
X0043583Y0090232D01*
X0043590Y0090194D01*
X0043590Y0088294D01*
X0046690Y0088294D01*
X0046690Y0095694D01*
X0036690Y0095694D01*
X0035943Y0095450D02*
X0046690Y0095450D01*
X0046690Y0095051D02*
X0035578Y0095051D01*
X0035419Y0094653D02*
X0046690Y0094653D01*
X0046690Y0094254D02*
X0035390Y0094254D01*
X0035390Y0093856D02*
X0046690Y0093856D01*
X0046690Y0093457D02*
X0035390Y0093457D01*
X0035390Y0093059D02*
X0046690Y0093059D01*
X0046690Y0092660D02*
X0035390Y0092660D01*
X0035390Y0092262D02*
X0046690Y0092262D01*
X0046690Y0091863D02*
X0035390Y0091863D01*
X0035393Y0091465D02*
X0046690Y0091465D01*
X0046690Y0091066D02*
X0035476Y0091066D01*
X0035730Y0090668D02*
X0046690Y0090668D01*
X0046690Y0090269D02*
X0043554Y0090269D01*
X0043590Y0089871D02*
X0046690Y0089871D01*
X0046690Y0089472D02*
X0043590Y0089472D01*
X0043590Y0089074D02*
X0046690Y0089074D01*
X0046690Y0088675D02*
X0043590Y0088675D01*
X0046690Y0111357D02*
X0036690Y0111357D01*
X0036401Y0111389D01*
X0036126Y0111486D01*
X0035880Y0111640D01*
X0035674Y0111846D01*
X0035519Y0112093D01*
X0035423Y0112368D01*
X0035390Y0112657D01*
X0035390Y0115557D01*
X0035420Y0115824D01*
X0035509Y0116077D01*
X0035652Y0116305D01*
X0035842Y0116495D01*
X0036070Y0116638D01*
X0036323Y0116727D01*
X0036590Y0116757D01*
X0043490Y0116757D01*
X0043528Y0116764D01*
X0043561Y0116786D01*
X0043583Y0116819D01*
X0043590Y0116857D01*
X0043590Y0118757D01*
X0046690Y0118757D01*
X0046690Y0111357D01*
X0046690Y0111390D02*
X0036398Y0111390D01*
X0035731Y0111789D02*
X0046690Y0111789D01*
X0046690Y0112187D02*
X0035486Y0112187D01*
X0035398Y0112586D02*
X0046690Y0112586D01*
X0046690Y0112984D02*
X0035390Y0112984D01*
X0035390Y0113383D02*
X0046690Y0113383D01*
X0046690Y0113781D02*
X0035390Y0113781D01*
X0035390Y0114180D02*
X0046690Y0114180D01*
X0046690Y0114578D02*
X0035390Y0114578D01*
X0035390Y0114977D02*
X0046690Y0114977D01*
X0046690Y0115375D02*
X0035390Y0115375D01*
X0035415Y0115774D02*
X0046690Y0115774D01*
X0046690Y0116172D02*
X0035569Y0116172D01*
X0035963Y0116571D02*
X0046690Y0116571D01*
X0046690Y0116970D02*
X0043590Y0116970D01*
X0043590Y0117368D02*
X0046690Y0117368D01*
X0046690Y0117767D02*
X0043590Y0117767D01*
X0043590Y0118165D02*
X0046690Y0118165D01*
X0046690Y0118564D02*
X0043590Y0118564D01*
X0043590Y0200294D02*
X0046690Y0200294D01*
X0046690Y0207694D01*
X0036690Y0207694D01*
X0036401Y0207661D01*
X0036126Y0207565D01*
X0035880Y0207410D01*
X0035674Y0207204D01*
X0035519Y0206958D01*
X0035423Y0206683D01*
X0035390Y0206394D01*
X0035390Y0203494D01*
X0035420Y0203227D01*
X0035509Y0202973D01*
X0035652Y0202746D01*
X0035842Y0202555D01*
X0036070Y0202413D01*
X0036323Y0202324D01*
X0036590Y0202294D01*
X0043490Y0202294D01*
X0043528Y0202286D01*
X0043561Y0202264D01*
X0043583Y0202232D01*
X0043590Y0202194D01*
X0043590Y0200294D01*
X0043590Y0200657D02*
X0046690Y0200657D01*
X0046690Y0201055D02*
X0043590Y0201055D01*
X0043590Y0201454D02*
X0046690Y0201454D01*
X0046690Y0201852D02*
X0043590Y0201852D01*
X0043570Y0202251D02*
X0046690Y0202251D01*
X0046690Y0202649D02*
X0035748Y0202649D01*
X0035483Y0203048D02*
X0046690Y0203048D01*
X0046690Y0203446D02*
X0035395Y0203446D01*
X0035390Y0203845D02*
X0046690Y0203845D01*
X0046690Y0204243D02*
X0035390Y0204243D01*
X0035390Y0204642D02*
X0046690Y0204642D01*
X0046690Y0205041D02*
X0035390Y0205041D01*
X0035390Y0205439D02*
X0046690Y0205439D01*
X0046690Y0205838D02*
X0035390Y0205838D01*
X0035390Y0206236D02*
X0046690Y0206236D01*
X0046690Y0206635D02*
X0035417Y0206635D01*
X0035566Y0207033D02*
X0046690Y0207033D01*
X0046690Y0207432D02*
X0035914Y0207432D01*
X0036690Y0223357D02*
X0036401Y0223389D01*
X0036126Y0223486D01*
X0035880Y0223640D01*
X0035674Y0223846D01*
X0035519Y0224093D01*
X0035423Y0224368D01*
X0035390Y0224657D01*
X0035390Y0227557D01*
X0035420Y0227824D01*
X0035509Y0228077D01*
X0035652Y0228305D01*
X0035842Y0228495D01*
X0036070Y0228638D01*
X0036323Y0228727D01*
X0036590Y0228757D01*
X0043490Y0228757D01*
X0043528Y0228764D01*
X0043561Y0228786D01*
X0043583Y0228819D01*
X0043590Y0228857D01*
X0043590Y0230757D01*
X0046690Y0230757D01*
X0046690Y0223357D01*
X0036690Y0223357D01*
X0036555Y0223372D02*
X0046690Y0223372D01*
X0046690Y0223771D02*
X0035750Y0223771D01*
X0035492Y0224169D02*
X0046690Y0224169D01*
X0046690Y0224568D02*
X0035400Y0224568D01*
X0035390Y0224966D02*
X0046690Y0224966D01*
X0046690Y0225365D02*
X0035390Y0225365D01*
X0035390Y0225763D02*
X0046690Y0225763D01*
X0046690Y0226162D02*
X0035390Y0226162D01*
X0035390Y0226560D02*
X0046690Y0226560D01*
X0046690Y0226959D02*
X0035390Y0226959D01*
X0035390Y0227357D02*
X0046690Y0227357D01*
X0046690Y0227756D02*
X0035413Y0227756D01*
X0035557Y0228154D02*
X0046690Y0228154D01*
X0046690Y0228553D02*
X0035934Y0228553D01*
X0043590Y0228951D02*
X0046690Y0228951D01*
X0046690Y0229350D02*
X0043590Y0229350D01*
X0043590Y0229748D02*
X0046690Y0229748D01*
X0046690Y0230147D02*
X0043590Y0230147D01*
X0043590Y0230545D02*
X0046690Y0230545D01*
X0046690Y0312294D02*
X0046690Y0319694D01*
X0036690Y0319694D01*
X0036401Y0319661D01*
X0036126Y0319565D01*
X0035880Y0319410D01*
X0035674Y0319204D01*
X0035519Y0318958D01*
X0035423Y0318683D01*
X0035390Y0318394D01*
X0035390Y0315494D01*
X0035420Y0315227D01*
X0035509Y0314973D01*
X0035652Y0314746D01*
X0035842Y0314555D01*
X0036070Y0314413D01*
X0036323Y0314324D01*
X0036590Y0314294D01*
X0043490Y0314294D01*
X0043528Y0314286D01*
X0043561Y0314264D01*
X0043583Y0314232D01*
X0043590Y0314194D01*
X0043590Y0312294D01*
X0046690Y0312294D01*
X0046690Y0312639D02*
X0043590Y0312639D01*
X0043590Y0313037D02*
X0046690Y0313037D01*
X0046690Y0313436D02*
X0043590Y0313436D01*
X0043590Y0313834D02*
X0046690Y0313834D01*
X0046690Y0314233D02*
X0043582Y0314233D01*
X0046690Y0314631D02*
X0035766Y0314631D01*
X0035489Y0315030D02*
X0046690Y0315030D01*
X0046690Y0315428D02*
X0035398Y0315428D01*
X0035390Y0315827D02*
X0046690Y0315827D01*
X0046690Y0316225D02*
X0035390Y0316225D01*
X0035390Y0316624D02*
X0046690Y0316624D01*
X0046690Y0317022D02*
X0035390Y0317022D01*
X0035390Y0317421D02*
X0046690Y0317421D01*
X0046690Y0317819D02*
X0035390Y0317819D01*
X0035390Y0318218D02*
X0046690Y0318218D01*
X0046690Y0318616D02*
X0035415Y0318616D01*
X0035555Y0319015D02*
X0046690Y0319015D01*
X0046690Y0319413D02*
X0035885Y0319413D01*
X0036690Y0335357D02*
X0036401Y0335389D01*
X0036126Y0335486D01*
X0035880Y0335640D01*
X0035674Y0335846D01*
X0035519Y0336093D01*
X0035423Y0336368D01*
X0035390Y0336657D01*
X0035390Y0339557D01*
X0035420Y0339824D01*
X0035509Y0340077D01*
X0035652Y0340305D01*
X0035842Y0340495D01*
X0036070Y0340638D01*
X0036323Y0340727D01*
X0036590Y0340757D01*
X0043490Y0340757D01*
X0043528Y0340764D01*
X0043561Y0340786D01*
X0043583Y0340819D01*
X0043590Y0340857D01*
X0043590Y0342757D01*
X0046690Y0342757D01*
X0046690Y0335357D01*
X0036690Y0335357D01*
X0035768Y0335752D02*
X0046690Y0335752D01*
X0046690Y0336151D02*
X0035499Y0336151D01*
X0035402Y0336549D02*
X0046690Y0336549D01*
X0046690Y0336948D02*
X0035390Y0336948D01*
X0035390Y0337346D02*
X0046690Y0337346D01*
X0046690Y0337745D02*
X0035390Y0337745D01*
X0035390Y0338143D02*
X0046690Y0338143D01*
X0046690Y0338542D02*
X0035390Y0338542D01*
X0035390Y0338940D02*
X0046690Y0338940D01*
X0046690Y0339339D02*
X0035390Y0339339D01*
X0035410Y0339737D02*
X0046690Y0339737D01*
X0046690Y0340136D02*
X0035546Y0340136D01*
X0035905Y0340534D02*
X0046690Y0340534D01*
X0046690Y0340933D02*
X0043590Y0340933D01*
X0043590Y0341331D02*
X0046690Y0341331D01*
X0046690Y0341730D02*
X0043590Y0341730D01*
X0043590Y0342128D02*
X0046690Y0342128D01*
X0046690Y0342527D02*
X0043590Y0342527D01*
X0202390Y0339557D02*
X0202420Y0339824D01*
X0202509Y0340077D01*
X0202652Y0340305D01*
X0202842Y0340495D01*
X0203070Y0340638D01*
X0203323Y0340727D01*
X0203590Y0340757D01*
X0210490Y0340757D01*
X0210528Y0340764D01*
X0210561Y0340786D01*
X0210583Y0340819D01*
X0210590Y0340857D01*
X0210590Y0342757D01*
X0213690Y0342757D01*
X0213690Y0335357D01*
X0203690Y0335357D01*
X0203401Y0335389D01*
X0203126Y0335486D01*
X0202880Y0335640D01*
X0202674Y0335846D01*
X0202519Y0336093D01*
X0202423Y0336368D01*
X0202390Y0336657D01*
X0202390Y0339557D01*
X0202410Y0339737D02*
X0213690Y0339737D01*
X0213690Y0339339D02*
X0202390Y0339339D01*
X0202390Y0338940D02*
X0213690Y0338940D01*
X0213690Y0338542D02*
X0202390Y0338542D01*
X0202390Y0338143D02*
X0213690Y0338143D01*
X0213690Y0337745D02*
X0202390Y0337745D01*
X0202390Y0337346D02*
X0213690Y0337346D01*
X0213690Y0336948D02*
X0202390Y0336948D01*
X0202402Y0336549D02*
X0213690Y0336549D01*
X0213690Y0336151D02*
X0202499Y0336151D01*
X0202768Y0335752D02*
X0213690Y0335752D01*
X0213690Y0340136D02*
X0202546Y0340136D01*
X0202905Y0340534D02*
X0213690Y0340534D01*
X0213690Y0340933D02*
X0210590Y0340933D01*
X0210590Y0341331D02*
X0213690Y0341331D01*
X0213690Y0341730D02*
X0210590Y0341730D01*
X0210590Y0342128D02*
X0213690Y0342128D01*
X0213690Y0342527D02*
X0210590Y0342527D01*
X0213690Y0319694D02*
X0203690Y0319694D01*
X0203401Y0319661D01*
X0203126Y0319565D01*
X0202880Y0319410D01*
X0202674Y0319204D01*
X0202519Y0318958D01*
X0202423Y0318683D01*
X0202390Y0318394D01*
X0202390Y0315494D01*
X0202420Y0315227D01*
X0202509Y0314973D01*
X0202652Y0314746D01*
X0202842Y0314555D01*
X0203070Y0314413D01*
X0203323Y0314324D01*
X0203590Y0314294D01*
X0210490Y0314294D01*
X0210528Y0314286D01*
X0210561Y0314264D01*
X0210583Y0314232D01*
X0210590Y0314194D01*
X0210590Y0312294D01*
X0213690Y0312294D01*
X0213690Y0319694D01*
X0213690Y0319413D02*
X0202885Y0319413D01*
X0202555Y0319015D02*
X0213690Y0319015D01*
X0213690Y0318616D02*
X0202415Y0318616D01*
X0202390Y0318218D02*
X0213690Y0318218D01*
X0213690Y0317819D02*
X0202390Y0317819D01*
X0202390Y0317421D02*
X0213690Y0317421D01*
X0213690Y0317022D02*
X0202390Y0317022D01*
X0202390Y0316624D02*
X0213690Y0316624D01*
X0213690Y0316225D02*
X0202390Y0316225D01*
X0202390Y0315827D02*
X0213690Y0315827D01*
X0213690Y0315428D02*
X0202398Y0315428D01*
X0202489Y0315030D02*
X0213690Y0315030D01*
X0213690Y0314631D02*
X0202766Y0314631D01*
X0210582Y0314233D02*
X0213690Y0314233D01*
X0213690Y0313834D02*
X0210590Y0313834D01*
X0210590Y0313436D02*
X0213690Y0313436D01*
X0213690Y0313037D02*
X0210590Y0313037D01*
X0210590Y0312639D02*
X0213690Y0312639D01*
X0213690Y0230757D02*
X0210590Y0230757D01*
X0210590Y0228857D01*
X0210583Y0228819D01*
X0210561Y0228786D01*
X0210528Y0228764D01*
X0210490Y0228757D01*
X0203590Y0228757D01*
X0203323Y0228727D01*
X0203070Y0228638D01*
X0202842Y0228495D01*
X0202652Y0228305D01*
X0202509Y0228077D01*
X0202420Y0227824D01*
X0202390Y0227557D01*
X0202390Y0224657D01*
X0202423Y0224368D01*
X0202519Y0224093D01*
X0202674Y0223846D01*
X0202880Y0223640D01*
X0203126Y0223486D01*
X0203401Y0223389D01*
X0203690Y0223357D01*
X0213690Y0223357D01*
X0213690Y0230757D01*
X0213690Y0230545D02*
X0210590Y0230545D01*
X0210590Y0230147D02*
X0213690Y0230147D01*
X0213690Y0229748D02*
X0210590Y0229748D01*
X0210590Y0229350D02*
X0213690Y0229350D01*
X0213690Y0228951D02*
X0210590Y0228951D01*
X0213690Y0228553D02*
X0202934Y0228553D01*
X0202557Y0228154D02*
X0213690Y0228154D01*
X0213690Y0227756D02*
X0202413Y0227756D01*
X0202390Y0227357D02*
X0213690Y0227357D01*
X0213690Y0226959D02*
X0202390Y0226959D01*
X0202390Y0226560D02*
X0213690Y0226560D01*
X0213690Y0226162D02*
X0202390Y0226162D01*
X0202390Y0225763D02*
X0213690Y0225763D01*
X0213690Y0225365D02*
X0202390Y0225365D01*
X0202390Y0224966D02*
X0213690Y0224966D01*
X0213690Y0224568D02*
X0202400Y0224568D01*
X0202492Y0224169D02*
X0213690Y0224169D01*
X0213690Y0223771D02*
X0202750Y0223771D01*
X0203555Y0223372D02*
X0213690Y0223372D01*
X0213690Y0207694D02*
X0203690Y0207694D01*
X0203401Y0207661D01*
X0203126Y0207565D01*
X0202880Y0207410D01*
X0202674Y0207204D01*
X0202519Y0206958D01*
X0202423Y0206683D01*
X0202390Y0206394D01*
X0202390Y0203494D01*
X0202420Y0203227D01*
X0202509Y0202973D01*
X0202652Y0202746D01*
X0202842Y0202555D01*
X0203070Y0202413D01*
X0203323Y0202324D01*
X0203590Y0202294D01*
X0210490Y0202294D01*
X0210528Y0202286D01*
X0210561Y0202264D01*
X0210583Y0202232D01*
X0210590Y0202194D01*
X0210590Y0200294D01*
X0213690Y0200294D01*
X0213690Y0207694D01*
X0213690Y0207432D02*
X0202914Y0207432D01*
X0202566Y0207033D02*
X0213690Y0207033D01*
X0213690Y0206635D02*
X0202417Y0206635D01*
X0202390Y0206236D02*
X0213690Y0206236D01*
X0213690Y0205838D02*
X0202390Y0205838D01*
X0202390Y0205439D02*
X0213690Y0205439D01*
X0213690Y0205041D02*
X0202390Y0205041D01*
X0202390Y0204642D02*
X0213690Y0204642D01*
X0213690Y0204243D02*
X0202390Y0204243D01*
X0202390Y0203845D02*
X0213690Y0203845D01*
X0213690Y0203446D02*
X0202395Y0203446D01*
X0202483Y0203048D02*
X0213690Y0203048D01*
X0213690Y0202649D02*
X0202748Y0202649D01*
X0210570Y0202251D02*
X0213690Y0202251D01*
X0213690Y0201852D02*
X0210590Y0201852D01*
X0210590Y0201454D02*
X0213690Y0201454D01*
X0213690Y0201055D02*
X0210590Y0201055D01*
X0210590Y0200657D02*
X0213690Y0200657D01*
X0213690Y0118757D02*
X0210590Y0118757D01*
X0210590Y0116857D01*
X0210583Y0116819D01*
X0210561Y0116786D01*
X0210528Y0116764D01*
X0210490Y0116757D01*
X0203590Y0116757D01*
X0203323Y0116727D01*
X0203070Y0116638D01*
X0202842Y0116495D01*
X0202652Y0116305D01*
X0202509Y0116077D01*
X0202420Y0115824D01*
X0202390Y0115557D01*
X0202390Y0112657D01*
X0202423Y0112368D01*
X0202519Y0112093D01*
X0202674Y0111846D01*
X0202880Y0111640D01*
X0203126Y0111486D01*
X0203401Y0111389D01*
X0203690Y0111357D01*
X0213690Y0111357D01*
X0213690Y0118757D01*
X0213690Y0118564D02*
X0210590Y0118564D01*
X0210590Y0118165D02*
X0213690Y0118165D01*
X0213690Y0117767D02*
X0210590Y0117767D01*
X0210590Y0117368D02*
X0213690Y0117368D01*
X0213690Y0116970D02*
X0210590Y0116970D01*
X0213690Y0116571D02*
X0202963Y0116571D01*
X0202569Y0116172D02*
X0213690Y0116172D01*
X0213690Y0115774D02*
X0202415Y0115774D01*
X0202390Y0115375D02*
X0213690Y0115375D01*
X0213690Y0114977D02*
X0202390Y0114977D01*
X0202390Y0114578D02*
X0213690Y0114578D01*
X0213690Y0114180D02*
X0202390Y0114180D01*
X0202390Y0113781D02*
X0213690Y0113781D01*
X0213690Y0113383D02*
X0202390Y0113383D01*
X0202390Y0112984D02*
X0213690Y0112984D01*
X0213690Y0112586D02*
X0202398Y0112586D01*
X0202486Y0112187D02*
X0213690Y0112187D01*
X0213690Y0111789D02*
X0202731Y0111789D01*
X0203398Y0111390D02*
X0213690Y0111390D01*
X0213690Y0095694D02*
X0203690Y0095694D01*
X0203401Y0095661D01*
X0203126Y0095565D01*
X0202880Y0095410D01*
X0202674Y0095204D01*
X0202519Y0094958D01*
X0202423Y0094683D01*
X0202390Y0094394D01*
X0202390Y0091494D01*
X0202420Y0091227D01*
X0202509Y0090973D01*
X0202652Y0090746D01*
X0202842Y0090555D01*
X0203070Y0090413D01*
X0203323Y0090324D01*
X0203590Y0090294D01*
X0210490Y0090294D01*
X0210528Y0090286D01*
X0210561Y0090264D01*
X0210583Y0090232D01*
X0210590Y0090194D01*
X0210590Y0088294D01*
X0213690Y0088294D01*
X0213690Y0095694D01*
X0213690Y0095450D02*
X0202943Y0095450D01*
X0202578Y0095051D02*
X0213690Y0095051D01*
X0213690Y0094653D02*
X0202419Y0094653D01*
X0202390Y0094254D02*
X0213690Y0094254D01*
X0213690Y0093856D02*
X0202390Y0093856D01*
X0202390Y0093457D02*
X0213690Y0093457D01*
X0213690Y0093059D02*
X0202390Y0093059D01*
X0202390Y0092660D02*
X0213690Y0092660D01*
X0213690Y0092262D02*
X0202390Y0092262D01*
X0202390Y0091863D02*
X0213690Y0091863D01*
X0213690Y0091465D02*
X0202393Y0091465D01*
X0202476Y0091066D02*
X0213690Y0091066D01*
X0213690Y0090668D02*
X0202730Y0090668D01*
X0210554Y0090269D02*
X0213690Y0090269D01*
X0213690Y0089871D02*
X0210590Y0089871D01*
X0210590Y0089472D02*
X0213690Y0089472D01*
X0213690Y0089074D02*
X0210590Y0089074D01*
X0210590Y0088675D02*
X0213690Y0088675D01*
D18*
X0213077Y0097890D02*
X0213077Y0098874D01*
X0219475Y0098874D01*
X0219475Y0097890D01*
X0213077Y0097890D01*
X0213077Y0098049D02*
X0219475Y0098049D01*
X0219475Y0098244D02*
X0213077Y0098244D01*
X0213077Y0098439D02*
X0219475Y0098439D01*
X0219475Y0098635D02*
X0213077Y0098635D01*
X0213077Y0098830D02*
X0219475Y0098830D01*
X0219475Y0100449D02*
X0213077Y0100449D01*
X0213077Y0101433D01*
X0219475Y0101433D01*
X0219475Y0100449D01*
X0219475Y0100588D02*
X0213077Y0100588D01*
X0213077Y0100784D02*
X0219475Y0100784D01*
X0219475Y0100979D02*
X0213077Y0100979D01*
X0213077Y0101175D02*
X0219475Y0101175D01*
X0219475Y0101370D02*
X0213077Y0101370D01*
X0213077Y0103008D02*
X0213077Y0103992D01*
X0219475Y0103992D01*
X0219475Y0103008D01*
X0213077Y0103008D01*
X0213077Y0103128D02*
X0219475Y0103128D01*
X0219475Y0103324D02*
X0213077Y0103324D01*
X0213077Y0103519D02*
X0219475Y0103519D01*
X0219475Y0103714D02*
X0213077Y0103714D01*
X0213077Y0103910D02*
X0219475Y0103910D01*
X0219475Y0105567D02*
X0213077Y0105567D01*
X0213077Y0106551D01*
X0219475Y0106551D01*
X0219475Y0105567D01*
X0219475Y0105668D02*
X0213077Y0105668D01*
X0213077Y0105863D02*
X0219475Y0105863D01*
X0219475Y0106059D02*
X0213077Y0106059D01*
X0213077Y0106254D02*
X0219475Y0106254D01*
X0219475Y0106449D02*
X0213077Y0106449D01*
X0213077Y0108126D02*
X0213077Y0109110D01*
X0219475Y0109110D01*
X0219475Y0108126D01*
X0213077Y0108126D01*
X0213077Y0108208D02*
X0219475Y0108208D01*
X0219475Y0108403D02*
X0213077Y0108403D01*
X0213077Y0108598D02*
X0219475Y0108598D01*
X0219475Y0108794D02*
X0213077Y0108794D01*
X0213077Y0108989D02*
X0219475Y0108989D01*
X0219475Y0209890D02*
X0213077Y0209890D01*
X0213077Y0210874D01*
X0219475Y0210874D01*
X0219475Y0209890D01*
X0219475Y0209991D02*
X0213077Y0209991D01*
X0213077Y0210186D02*
X0219475Y0210186D01*
X0219475Y0210382D02*
X0213077Y0210382D01*
X0213077Y0210577D02*
X0219475Y0210577D01*
X0219475Y0210772D02*
X0213077Y0210772D01*
X0213077Y0212449D02*
X0213077Y0213433D01*
X0219475Y0213433D01*
X0219475Y0212449D01*
X0213077Y0212449D01*
X0213077Y0212531D02*
X0219475Y0212531D01*
X0219475Y0212726D02*
X0213077Y0212726D01*
X0213077Y0212921D02*
X0219475Y0212921D01*
X0219475Y0213117D02*
X0213077Y0213117D01*
X0213077Y0213312D02*
X0219475Y0213312D01*
X0219475Y0215008D02*
X0213077Y0215008D01*
X0213077Y0215992D01*
X0219475Y0215992D01*
X0219475Y0215008D01*
X0219475Y0215070D02*
X0213077Y0215070D01*
X0213077Y0215266D02*
X0219475Y0215266D01*
X0219475Y0215461D02*
X0213077Y0215461D01*
X0213077Y0215657D02*
X0219475Y0215657D01*
X0219475Y0215852D02*
X0213077Y0215852D01*
X0213077Y0217567D02*
X0213077Y0218551D01*
X0219475Y0218551D01*
X0219475Y0217567D01*
X0213077Y0217567D01*
X0213077Y0217610D02*
X0219475Y0217610D01*
X0219475Y0217805D02*
X0213077Y0217805D01*
X0213077Y0218001D02*
X0219475Y0218001D01*
X0219475Y0218196D02*
X0213077Y0218196D01*
X0213077Y0218392D02*
X0219475Y0218392D01*
X0219475Y0220126D02*
X0213077Y0220126D01*
X0213077Y0221110D01*
X0219475Y0221110D01*
X0219475Y0220126D01*
X0219475Y0220150D02*
X0213077Y0220150D01*
X0213077Y0220345D02*
X0219475Y0220345D01*
X0219475Y0220541D02*
X0213077Y0220541D01*
X0213077Y0220736D02*
X0219475Y0220736D01*
X0219475Y0220931D02*
X0213077Y0220931D01*
X0213077Y0321890D02*
X0213077Y0322874D01*
X0219475Y0322874D01*
X0219475Y0321890D01*
X0213077Y0321890D01*
X0213077Y0321933D02*
X0219475Y0321933D01*
X0219475Y0322129D02*
X0213077Y0322129D01*
X0213077Y0322324D02*
X0219475Y0322324D01*
X0219475Y0322519D02*
X0213077Y0322519D01*
X0213077Y0322715D02*
X0219475Y0322715D01*
X0219475Y0324449D02*
X0213077Y0324449D01*
X0213077Y0325433D01*
X0219475Y0325433D01*
X0219475Y0324449D01*
X0219475Y0324473D02*
X0213077Y0324473D01*
X0213077Y0324668D02*
X0219475Y0324668D01*
X0219475Y0324864D02*
X0213077Y0324864D01*
X0213077Y0325059D02*
X0219475Y0325059D01*
X0219475Y0325254D02*
X0213077Y0325254D01*
X0213077Y0327008D02*
X0213077Y0327992D01*
X0219475Y0327992D01*
X0219475Y0327008D01*
X0213077Y0327008D01*
X0213077Y0327013D02*
X0219475Y0327013D01*
X0219475Y0327208D02*
X0213077Y0327208D01*
X0213077Y0327403D02*
X0219475Y0327403D01*
X0219475Y0327599D02*
X0213077Y0327599D01*
X0213077Y0327794D02*
X0219475Y0327794D01*
X0219475Y0327990D02*
X0213077Y0327990D01*
X0213077Y0329567D02*
X0213077Y0330551D01*
X0219475Y0330551D01*
X0219475Y0329567D01*
X0213077Y0329567D01*
X0213077Y0329748D02*
X0219475Y0329748D01*
X0219475Y0329943D02*
X0213077Y0329943D01*
X0213077Y0330138D02*
X0219475Y0330138D01*
X0219475Y0330334D02*
X0213077Y0330334D01*
X0213077Y0330529D02*
X0219475Y0330529D01*
X0219475Y0332126D02*
X0213077Y0332126D01*
X0213077Y0333110D01*
X0219475Y0333110D01*
X0219475Y0332126D01*
X0219475Y0332287D02*
X0213077Y0332287D01*
X0213077Y0332483D02*
X0219475Y0332483D01*
X0219475Y0332678D02*
X0213077Y0332678D01*
X0213077Y0332874D02*
X0219475Y0332874D01*
X0219475Y0333069D02*
X0213077Y0333069D01*
X0052475Y0333110D02*
X0052475Y0332126D01*
X0046077Y0332126D01*
X0046077Y0333110D01*
X0052475Y0333110D01*
X0052475Y0333069D02*
X0046077Y0333069D01*
X0046077Y0332874D02*
X0052475Y0332874D01*
X0052475Y0332678D02*
X0046077Y0332678D01*
X0046077Y0332483D02*
X0052475Y0332483D01*
X0052475Y0332287D02*
X0046077Y0332287D01*
X0046077Y0330551D02*
X0052475Y0330551D01*
X0052475Y0329567D01*
X0046077Y0329567D01*
X0046077Y0330551D01*
X0046077Y0330529D02*
X0052475Y0330529D01*
X0052475Y0330334D02*
X0046077Y0330334D01*
X0046077Y0330138D02*
X0052475Y0330138D01*
X0052475Y0329943D02*
X0046077Y0329943D01*
X0046077Y0329748D02*
X0052475Y0329748D01*
X0052475Y0327992D02*
X0046077Y0327992D01*
X0046077Y0327008D01*
X0052475Y0327008D01*
X0052475Y0327992D01*
X0052475Y0327990D02*
X0046077Y0327990D01*
X0046077Y0327794D02*
X0052475Y0327794D01*
X0052475Y0327599D02*
X0046077Y0327599D01*
X0046077Y0327403D02*
X0052475Y0327403D01*
X0052475Y0327208D02*
X0046077Y0327208D01*
X0046077Y0327013D02*
X0052475Y0327013D01*
X0052475Y0325433D02*
X0046077Y0325433D01*
X0046077Y0324449D01*
X0052475Y0324449D01*
X0052475Y0325433D01*
X0052475Y0325254D02*
X0046077Y0325254D01*
X0046077Y0325059D02*
X0052475Y0325059D01*
X0052475Y0324864D02*
X0046077Y0324864D01*
X0046077Y0324668D02*
X0052475Y0324668D01*
X0052475Y0324473D02*
X0046077Y0324473D01*
X0046077Y0322874D02*
X0052475Y0322874D01*
X0052475Y0321890D01*
X0046077Y0321890D01*
X0046077Y0322874D01*
X0046077Y0322715D02*
X0052475Y0322715D01*
X0052475Y0322519D02*
X0046077Y0322519D01*
X0046077Y0322324D02*
X0052475Y0322324D01*
X0052475Y0322129D02*
X0046077Y0322129D01*
X0046077Y0321933D02*
X0052475Y0321933D01*
X0052475Y0221110D02*
X0046077Y0221110D01*
X0046077Y0220126D01*
X0052475Y0220126D01*
X0052475Y0221110D01*
X0052475Y0220931D02*
X0046077Y0220931D01*
X0046077Y0220736D02*
X0052475Y0220736D01*
X0052475Y0220541D02*
X0046077Y0220541D01*
X0046077Y0220345D02*
X0052475Y0220345D01*
X0052475Y0220150D02*
X0046077Y0220150D01*
X0046077Y0218551D02*
X0052475Y0218551D01*
X0052475Y0217567D01*
X0046077Y0217567D01*
X0046077Y0218551D01*
X0046077Y0218392D02*
X0052475Y0218392D01*
X0052475Y0218196D02*
X0046077Y0218196D01*
X0046077Y0218001D02*
X0052475Y0218001D01*
X0052475Y0217805D02*
X0046077Y0217805D01*
X0046077Y0217610D02*
X0052475Y0217610D01*
X0052475Y0215992D02*
X0046077Y0215992D01*
X0046077Y0215008D01*
X0052475Y0215008D01*
X0052475Y0215992D01*
X0052475Y0215852D02*
X0046077Y0215852D01*
X0046077Y0215657D02*
X0052475Y0215657D01*
X0052475Y0215461D02*
X0046077Y0215461D01*
X0046077Y0215266D02*
X0052475Y0215266D01*
X0052475Y0215070D02*
X0046077Y0215070D01*
X0046077Y0213433D02*
X0052475Y0213433D01*
X0052475Y0212449D01*
X0046077Y0212449D01*
X0046077Y0213433D01*
X0046077Y0213312D02*
X0052475Y0213312D01*
X0052475Y0213117D02*
X0046077Y0213117D01*
X0046077Y0212921D02*
X0052475Y0212921D01*
X0052475Y0212726D02*
X0046077Y0212726D01*
X0046077Y0212531D02*
X0052475Y0212531D01*
X0052475Y0210874D02*
X0046077Y0210874D01*
X0046077Y0209890D01*
X0052475Y0209890D01*
X0052475Y0210874D01*
X0052475Y0210772D02*
X0046077Y0210772D01*
X0046077Y0210577D02*
X0052475Y0210577D01*
X0052475Y0210382D02*
X0046077Y0210382D01*
X0046077Y0210186D02*
X0052475Y0210186D01*
X0052475Y0209991D02*
X0046077Y0209991D01*
X0046077Y0109110D02*
X0052475Y0109110D01*
X0052475Y0108126D01*
X0046077Y0108126D01*
X0046077Y0109110D01*
X0046077Y0108989D02*
X0052475Y0108989D01*
X0052475Y0108794D02*
X0046077Y0108794D01*
X0046077Y0108598D02*
X0052475Y0108598D01*
X0052475Y0108403D02*
X0046077Y0108403D01*
X0046077Y0108208D02*
X0052475Y0108208D01*
X0052475Y0106551D02*
X0046077Y0106551D01*
X0046077Y0105567D01*
X0052475Y0105567D01*
X0052475Y0106551D01*
X0052475Y0106449D02*
X0046077Y0106449D01*
X0046077Y0106254D02*
X0052475Y0106254D01*
X0052475Y0106059D02*
X0046077Y0106059D01*
X0046077Y0105863D02*
X0052475Y0105863D01*
X0052475Y0105668D02*
X0046077Y0105668D01*
X0046077Y0103992D02*
X0052475Y0103992D01*
X0052475Y0103008D01*
X0046077Y0103008D01*
X0046077Y0103992D01*
X0046077Y0103910D02*
X0052475Y0103910D01*
X0052475Y0103714D02*
X0046077Y0103714D01*
X0046077Y0103519D02*
X0052475Y0103519D01*
X0052475Y0103324D02*
X0046077Y0103324D01*
X0046077Y0103128D02*
X0052475Y0103128D01*
X0052475Y0101433D02*
X0046077Y0101433D01*
X0046077Y0100449D01*
X0052475Y0100449D01*
X0052475Y0101433D01*
X0052475Y0101370D02*
X0046077Y0101370D01*
X0046077Y0101175D02*
X0052475Y0101175D01*
X0052475Y0100979D02*
X0046077Y0100979D01*
X0046077Y0100784D02*
X0052475Y0100784D01*
X0052475Y0100588D02*
X0046077Y0100588D01*
X0046077Y0098874D02*
X0052475Y0098874D01*
X0052475Y0097890D01*
X0046077Y0097890D01*
X0046077Y0098874D01*
X0046077Y0098830D02*
X0052475Y0098830D01*
X0052475Y0098635D02*
X0046077Y0098635D01*
X0046077Y0098439D02*
X0052475Y0098439D01*
X0052475Y0098244D02*
X0046077Y0098244D01*
X0046077Y0098049D02*
X0052475Y0098049D01*
D19*
X0049892Y0046390D03*
X0061703Y0046390D03*
X0067608Y0046390D03*
X0067608Y0158390D03*
X0061703Y0158390D03*
X0049892Y0158390D03*
X0049892Y0270390D03*
X0061703Y0270390D03*
X0067608Y0270390D03*
X0216892Y0270390D03*
X0228703Y0270390D03*
X0234608Y0270390D03*
X0234608Y0158390D03*
X0228703Y0158390D03*
X0216892Y0158390D03*
X0216892Y0046390D03*
X0228703Y0046390D03*
X0234608Y0046390D03*
D20*
X0044380Y0035563D03*
X0073120Y0035563D03*
X0073120Y0147563D03*
X0044380Y0147563D03*
X0044380Y0259563D03*
X0073120Y0259563D03*
X0211380Y0259563D03*
X0240120Y0259563D03*
X0240120Y0147563D03*
X0211380Y0147563D03*
X0211380Y0035563D03*
X0240120Y0035563D03*
D21*
X0240120Y0043831D03*
X0211380Y0043831D03*
X0211380Y0155831D03*
X0240120Y0155831D03*
X0240120Y0267831D03*
X0211380Y0267831D03*
X0073120Y0267831D03*
X0044380Y0267831D03*
X0044380Y0155831D03*
X0073120Y0155831D03*
X0073120Y0043831D03*
X0044380Y0043831D03*
D22*
X0058631Y0089760D03*
X0058631Y0093500D03*
X0058631Y0097240D03*
X0068869Y0097240D03*
X0068869Y0089760D03*
X0088631Y0089760D03*
X0088631Y0097240D03*
X0098869Y0097240D03*
X0098869Y0093500D03*
X0098869Y0089760D03*
X0225631Y0089760D03*
X0225631Y0093500D03*
X0225631Y0097240D03*
X0235869Y0097240D03*
X0235869Y0089760D03*
X0255631Y0089760D03*
X0255631Y0097240D03*
X0265869Y0097240D03*
X0265869Y0093500D03*
X0265869Y0089760D03*
X0265869Y0201760D03*
X0265869Y0205500D03*
X0265869Y0209240D03*
X0255631Y0209240D03*
X0255631Y0201760D03*
X0235869Y0201760D03*
X0235869Y0209240D03*
X0225631Y0209240D03*
X0225631Y0205500D03*
X0225631Y0201760D03*
X0098869Y0201760D03*
X0098869Y0205500D03*
X0098869Y0209240D03*
X0088631Y0209240D03*
X0088631Y0201760D03*
X0068869Y0201760D03*
X0068869Y0209240D03*
X0058631Y0209240D03*
X0058631Y0205500D03*
X0058631Y0201760D03*
X0058631Y0313760D03*
X0058631Y0317500D03*
X0058631Y0321240D03*
X0068869Y0321240D03*
X0068869Y0313760D03*
X0088631Y0313760D03*
X0088631Y0321240D03*
X0098869Y0321240D03*
X0098869Y0317500D03*
X0098869Y0313760D03*
X0225631Y0313760D03*
X0225631Y0317500D03*
X0225631Y0321240D03*
X0235869Y0321240D03*
X0235869Y0313760D03*
X0255631Y0313760D03*
X0255631Y0321240D03*
X0265869Y0321240D03*
X0265869Y0317500D03*
X0265869Y0313760D03*
D23*
X0308467Y0287028D03*
X0308467Y0277972D03*
X0323033Y0277972D03*
X0323033Y0287028D03*
X0323033Y0175028D03*
X0323033Y0165972D03*
X0308467Y0165972D03*
X0308467Y0175028D03*
X0308467Y0063028D03*
X0308467Y0053972D03*
X0323033Y0053972D03*
X0323033Y0063028D03*
X0156033Y0063028D03*
X0156033Y0053972D03*
X0141467Y0053972D03*
X0141467Y0063028D03*
X0141467Y0165972D03*
X0141467Y0175028D03*
X0156033Y0175028D03*
X0156033Y0165972D03*
X0156033Y0277972D03*
X0156033Y0287028D03*
X0141467Y0287028D03*
X0141467Y0277972D03*
D24*
X0066427Y0239500D03*
X0051073Y0239500D03*
X0051073Y0351500D03*
X0066427Y0351500D03*
X0218073Y0351500D03*
X0233427Y0351500D03*
X0233427Y0239500D03*
X0218073Y0239500D03*
X0218073Y0127500D03*
X0233427Y0127500D03*
X0066427Y0127500D03*
X0051073Y0127500D03*
D25*
X0063317Y0176563D03*
X0063317Y0184437D03*
X0063317Y0288563D03*
X0063317Y0296437D03*
X0230317Y0296437D03*
X0230317Y0288563D03*
X0230317Y0184437D03*
X0230317Y0176563D03*
X0230317Y0072437D03*
X0230317Y0064563D03*
X0063317Y0064563D03*
X0063317Y0072437D03*
D26*
X0042844Y0081886D03*
X0042844Y0055114D03*
X0042844Y0167114D03*
X0042844Y0193886D03*
X0042844Y0279114D03*
X0042844Y0305886D03*
X0209844Y0305886D03*
X0209844Y0279114D03*
X0209844Y0193886D03*
X0209844Y0167114D03*
X0209844Y0081886D03*
X0209844Y0055114D03*
D27*
X0188219Y0072476D03*
X0188219Y0094524D03*
X0188219Y0184476D03*
X0188219Y0206524D03*
X0188219Y0296476D03*
X0188219Y0318524D03*
X0355219Y0318524D03*
X0355219Y0296476D03*
X0355219Y0206524D03*
X0355219Y0184476D03*
X0355219Y0094524D03*
X0355219Y0072476D03*
D28*
X0340750Y0077594D03*
X0340750Y0081531D03*
X0340750Y0085469D03*
X0340750Y0089406D03*
X0340750Y0189594D03*
X0340750Y0193531D03*
X0340750Y0197469D03*
X0340750Y0201406D03*
X0340750Y0301594D03*
X0340750Y0305531D03*
X0340750Y0309469D03*
X0340750Y0313406D03*
X0173750Y0313406D03*
X0173750Y0309469D03*
X0173750Y0305531D03*
X0173750Y0301594D03*
X0173750Y0201406D03*
X0173750Y0197469D03*
X0173750Y0193531D03*
X0173750Y0189594D03*
X0173750Y0089406D03*
X0173750Y0085469D03*
X0173750Y0081531D03*
X0173750Y0077594D03*
D29*
X0162136Y0077594D03*
X0162136Y0075626D03*
X0162136Y0073657D03*
X0162136Y0079563D03*
X0162136Y0081531D03*
X0162136Y0083500D03*
X0162136Y0085469D03*
X0162136Y0087437D03*
X0162136Y0089406D03*
X0162136Y0091374D03*
X0162136Y0093343D03*
X0135364Y0093343D03*
X0135364Y0091374D03*
X0135364Y0089406D03*
X0135364Y0087437D03*
X0135364Y0085469D03*
X0135364Y0083500D03*
X0135364Y0081531D03*
X0135364Y0079563D03*
X0135364Y0077594D03*
X0135364Y0075626D03*
X0135364Y0073657D03*
X0135364Y0185657D03*
X0135364Y0187626D03*
X0135364Y0189594D03*
X0135364Y0191563D03*
X0135364Y0193531D03*
X0135364Y0195500D03*
X0135364Y0197469D03*
X0135364Y0199437D03*
X0135364Y0201406D03*
X0135364Y0203374D03*
X0135364Y0205343D03*
X0162136Y0205343D03*
X0162136Y0203374D03*
X0162136Y0201406D03*
X0162136Y0199437D03*
X0162136Y0197469D03*
X0162136Y0195500D03*
X0162136Y0193531D03*
X0162136Y0191563D03*
X0162136Y0189594D03*
X0162136Y0187626D03*
X0162136Y0185657D03*
X0162136Y0297657D03*
X0162136Y0299626D03*
X0162136Y0301594D03*
X0162136Y0303563D03*
X0162136Y0305531D03*
X0162136Y0307500D03*
X0162136Y0309469D03*
X0162136Y0311437D03*
X0162136Y0313406D03*
X0162136Y0315374D03*
X0162136Y0317343D03*
X0135364Y0317343D03*
X0135364Y0315374D03*
X0135364Y0313406D03*
X0135364Y0311437D03*
X0135364Y0309469D03*
X0135364Y0307500D03*
X0135364Y0305531D03*
X0135364Y0303563D03*
X0135364Y0301594D03*
X0135364Y0299626D03*
X0135364Y0297657D03*
X0302364Y0297657D03*
X0302364Y0299626D03*
X0302364Y0301594D03*
X0302364Y0303563D03*
X0302364Y0305531D03*
X0302364Y0307500D03*
X0302364Y0309469D03*
X0302364Y0311437D03*
X0302364Y0313406D03*
X0302364Y0315374D03*
X0302364Y0317343D03*
X0329136Y0317343D03*
X0329136Y0315374D03*
X0329136Y0313406D03*
X0329136Y0311437D03*
X0329136Y0309469D03*
X0329136Y0307500D03*
X0329136Y0305531D03*
X0329136Y0303563D03*
X0329136Y0301594D03*
X0329136Y0299626D03*
X0329136Y0297657D03*
X0329136Y0205343D03*
X0329136Y0203374D03*
X0329136Y0201406D03*
X0329136Y0199437D03*
X0329136Y0197469D03*
X0329136Y0195500D03*
X0329136Y0193531D03*
X0329136Y0191563D03*
X0329136Y0189594D03*
X0329136Y0187626D03*
X0329136Y0185657D03*
X0302364Y0185657D03*
X0302364Y0187626D03*
X0302364Y0189594D03*
X0302364Y0191563D03*
X0302364Y0193531D03*
X0302364Y0195500D03*
X0302364Y0197469D03*
X0302364Y0199437D03*
X0302364Y0201406D03*
X0302364Y0203374D03*
X0302364Y0205343D03*
X0302364Y0093343D03*
X0302364Y0091374D03*
X0302364Y0089406D03*
X0302364Y0087437D03*
X0302364Y0085469D03*
X0302364Y0083500D03*
X0302364Y0081531D03*
X0302364Y0079563D03*
X0302364Y0077594D03*
X0302364Y0075626D03*
X0302364Y0073657D03*
X0329136Y0073657D03*
X0329136Y0075626D03*
X0329136Y0077594D03*
X0329136Y0079563D03*
X0329136Y0081531D03*
X0329136Y0083500D03*
X0329136Y0085469D03*
X0329136Y0087437D03*
X0329136Y0089406D03*
X0329136Y0091374D03*
X0329136Y0093343D03*
D30*
X0325593Y0096886D03*
X0323624Y0096886D03*
X0321656Y0096886D03*
X0319687Y0096886D03*
X0317719Y0096886D03*
X0315750Y0096886D03*
X0313781Y0096886D03*
X0311813Y0096886D03*
X0309844Y0096886D03*
X0307876Y0096886D03*
X0305907Y0096886D03*
X0305907Y0070114D03*
X0307876Y0070114D03*
X0309844Y0070114D03*
X0311813Y0070114D03*
X0313781Y0070114D03*
X0315750Y0070114D03*
X0317719Y0070114D03*
X0319687Y0070114D03*
X0321656Y0070114D03*
X0323624Y0070114D03*
X0325593Y0070114D03*
X0325593Y0182114D03*
X0323624Y0182114D03*
X0321656Y0182114D03*
X0319687Y0182114D03*
X0317719Y0182114D03*
X0315750Y0182114D03*
X0313781Y0182114D03*
X0311813Y0182114D03*
X0309844Y0182114D03*
X0307876Y0182114D03*
X0305907Y0182114D03*
X0305907Y0208886D03*
X0307876Y0208886D03*
X0309844Y0208886D03*
X0311813Y0208886D03*
X0313781Y0208886D03*
X0315750Y0208886D03*
X0317719Y0208886D03*
X0319687Y0208886D03*
X0321656Y0208886D03*
X0323624Y0208886D03*
X0325593Y0208886D03*
X0325593Y0294114D03*
X0323624Y0294114D03*
X0321656Y0294114D03*
X0319687Y0294114D03*
X0317719Y0294114D03*
X0315750Y0294114D03*
X0313781Y0294114D03*
X0311813Y0294114D03*
X0309844Y0294114D03*
X0307876Y0294114D03*
X0305907Y0294114D03*
X0305907Y0320886D03*
X0307876Y0320886D03*
X0309844Y0320886D03*
X0311813Y0320886D03*
X0313781Y0320886D03*
X0315750Y0320886D03*
X0317719Y0320886D03*
X0319687Y0320886D03*
X0321656Y0320886D03*
X0323624Y0320886D03*
X0325593Y0320886D03*
X0158593Y0320886D03*
X0156624Y0320886D03*
X0154656Y0320886D03*
X0152687Y0320886D03*
X0150719Y0320886D03*
X0148750Y0320886D03*
X0146781Y0320886D03*
X0144813Y0320886D03*
X0142844Y0320886D03*
X0140876Y0320886D03*
X0138907Y0320886D03*
X0138907Y0294114D03*
X0140876Y0294114D03*
X0142844Y0294114D03*
X0144813Y0294114D03*
X0146781Y0294114D03*
X0148750Y0294114D03*
X0150719Y0294114D03*
X0152687Y0294114D03*
X0154656Y0294114D03*
X0156624Y0294114D03*
X0158593Y0294114D03*
X0158593Y0208886D03*
X0156624Y0208886D03*
X0154656Y0208886D03*
X0152687Y0208886D03*
X0150719Y0208886D03*
X0148750Y0208886D03*
X0146781Y0208886D03*
X0144813Y0208886D03*
X0142844Y0208886D03*
X0140876Y0208886D03*
X0138907Y0208886D03*
X0138907Y0182114D03*
X0140876Y0182114D03*
X0142844Y0182114D03*
X0144813Y0182114D03*
X0146781Y0182114D03*
X0148750Y0182114D03*
X0150719Y0182114D03*
X0152687Y0182114D03*
X0154656Y0182114D03*
X0156624Y0182114D03*
X0158593Y0182114D03*
X0158593Y0096886D03*
X0156624Y0096886D03*
X0154656Y0096886D03*
X0152687Y0096886D03*
X0150719Y0096886D03*
X0148750Y0096886D03*
X0146781Y0096886D03*
X0144813Y0096886D03*
X0142844Y0096886D03*
X0140876Y0096886D03*
X0138907Y0096886D03*
X0138907Y0070114D03*
X0140876Y0070114D03*
X0142844Y0070114D03*
X0144813Y0070114D03*
X0146781Y0070114D03*
X0148750Y0070114D03*
X0150719Y0070114D03*
X0152687Y0070114D03*
X0154656Y0070114D03*
X0156624Y0070114D03*
X0158593Y0070114D03*
M02*
